<svg width="688" height="185" viewBox="0 0 688 185" fill="none" xmlns="http://www.w3.org/2000/svg">
<rect width="4.51561" height="4.50905" transform="matrix(-1 0 0 1 308.168 31.5654)" fill="#6C9F11"/>
<rect width="45.1572" height="4.50905" transform="matrix(-1 0 0 1 303.653 31.5653)" fill="#6C9F11"/>
<rect width="45.1572" height="4.50905" transform="matrix(-1 0 0 1 258.495 31.5653)" fill="#6C9F11"/>
<rect width="67.7359" height="4.50905" transform="matrix(-1 0 0 1 294.622 18.0374)" fill="#6C9F11"/>
<rect width="4.51561" height="4.50905" transform="matrix(-1 0 0 1 308.168 27.056)" fill="#6C9F11"/>
<rect width="45.1572" height="4.50905" transform="matrix(-1 0 0 1 303.653 27.0561)" fill="#6C9F11"/>
<rect width="33.836" height="4.50905" transform="matrix(-1 0 0 1 258.495 27.0561)" fill="#6C9F11"/>
<rect width="65.4464" height="4.50905" transform="matrix(-1 0 0 1 294.622 13.528)" fill="#6C9F11"/>
<rect width="4.51561" height="4.50905" transform="matrix(-1 0 0 1 308.168 22.5467)" fill="#6C9F11"/>
<rect width="45.1572" height="4.50905" transform="matrix(-1 0 0 1 303.653 22.5467)" fill="#6C9F11"/>
<rect width="36.0937" height="4.50905" transform="matrix(-1 0 0 1 258.495 22.5467)" fill="#6C9F11"/>
<rect width="4.51561" height="4.50905" transform="matrix(-1 0 0 1 303.653 18.0374)" fill="#6C9F11"/>
<rect width="4.51561" height="4.50905" transform="matrix(-1 0 0 1 294.622 9.01868)" fill="#6C9F11"/>
<rect width="4.51561" height="4.50905" transform="matrix(-1 0 0 1 253.979 9.01868)" fill="#6C9F11"/>
<rect width="4.51561" height="4.50905" transform="matrix(-1 0 0 1 285.591 9.01871)" fill="#6C9F11"/>
<rect width="4.51561" height="4.50905" transform="matrix(-1 0 0 1 244.948 9.01871)" fill="#6C9F11"/>
<rect width="4.51561" height="4.50905" transform="matrix(-1 0 0 1 285.591 4.50931)" fill="#6C9F11"/>
<rect width="4.51561" height="4.50905" transform="matrix(-1 0 0 1 244.948 4.50931)" fill="#6C9F11"/>
<rect width="4.51561" height="4.50905" transform="matrix(-1 0 0 1 240.433 4.50934)" fill="#6C9F11"/>
<rect width="4.51561" height="4.50905" transform="matrix(-1 0 0 1 285.591 3.05176e-05)" fill="#6C9F11"/>
<rect width="4.51561" height="4.50905" transform="matrix(-1 0 0 1 276.559 4.50934)" fill="#6C9F11"/>
<rect width="4.51561" height="4.50905" transform="matrix(-1 0 0 1 276.559 9.01868)" fill="#6C9F11"/>
<rect width="4.51561" height="4.50905" transform="matrix(-1 0 0 1 276.559 0)" fill="#6C9F11"/>
<rect width="4.51561" height="4.50905" transform="matrix(-1 0 0 1 267.527 9.01871)" fill="#6C9F11"/>
<rect width="4.51561" height="4.50905" transform="matrix(-1 0 0 1 267.527 4.50931)" fill="#6C9F11"/>
<rect width="4.51561" height="4.50905" transform="matrix(-1 0 0 1 299.137 18.0374)" fill="#6C9F11"/>
<rect width="4.51561" height="4.50905" transform="matrix(-1 0 0 1 290.106 9.01868)" fill="#6C9F11"/>
<rect width="4.51561" height="4.50905" transform="matrix(-1 0 0 1 249.464 9.01871)" fill="#6C9F11"/>
<rect width="4.51561" height="4.50905" transform="matrix(-1 0 0 1 281.074 4.50931)" fill="#6C9F11"/>
<rect width="4.51561" height="4.50905" transform="matrix(-1 0 0 1 290.106 4.50934)" fill="#6C9F11"/>
<rect width="4.51561" height="4.50905" transform="matrix(-1 0 0 1 249.464 4.50931)" fill="#6C9F11"/>
<rect width="4.51561" height="4.50905" transform="matrix(-1 0 0 1 272.043 4.50931)" fill="#6C9F11"/>
<rect width="4.51561" height="4.50905" transform="matrix(-1 0 0 1 281.074 9.01871)" fill="#6C9F11"/>
<rect width="4.51561" height="4.50905" transform="matrix(-1 0 0 1 240.433 9.01868)" fill="#6C9F11"/>
<rect width="4.51561" height="4.50905" transform="matrix(-1 0 0 1 235.917 9.01868)" fill="#6C9F11"/>
<rect width="4.51561" height="4.50905" transform="matrix(-1 0 0 1 235.917 4.50934)" fill="#6C9F11"/>
<rect width="4.51561" height="4.50905" transform="matrix(-1 0 0 1 231.402 9.01871)" fill="#6C9F11"/>
<rect width="4.51561" height="4.50905" transform="matrix(-1 0 0 1 231.402 13.528)" fill="#6C9F11"/>
<rect width="4.51561" height="4.50905" transform="matrix(-1 0 0 1 226.917 18.0374)" fill="#6C9F11"/>
<rect width="4.51561" height="4.50905" transform="matrix(-1 0 0 1 222.401 22.5467)" fill="#6C9F11"/>
<rect width="6.77328" height="4.50905" transform="matrix(-1 0 0 1 224.659 27.056)" fill="#6C9F11"/>
<rect width="4.51561" height="4.50905" transform="matrix(-1 0 0 1 217.886 27.0561)" fill="#6C9F11"/>
<rect width="4.51561" height="4.50905" transform="matrix(-1 0 0 1 281.074 3.05176e-05)" fill="#6C9F11"/>
<rect width="4.51561" height="4.50905" transform="matrix(-1 0 0 1 272.043 9.01871)" fill="#6C9F11"/>
<rect width="4.51561" height="4.50905" transform="matrix(-1 0 0 1 272.043 3.05176e-05)" fill="#6C9F11"/>
<rect width="4.51561" height="4.50905" transform="matrix(-1 0 0 1 263.012 9.01868)" fill="#6C9F11"/>
<rect y="36" width="688" height="149" fill="#A8CD53"/>
<rect x="285.56" y="4.50931" width="4.51561" height="4.50905" fill="#4F3B2E"/>
<rect x="258.466" y="4.50934" width="4.51561" height="4.50905" fill="#4F3B2E"/>
<rect x="281.044" y="4.50934" width="4.51561" height="4.50905" fill="#4F3B2E"/>
<rect x="253.951" y="4.50931" width="4.51561" height="4.50905" fill="#4F3B2E"/>
<rect x="276.529" y="4.50934" width="4.51561" height="4.50905" fill="#4F3B2E"/>
<rect x="240.404" y="72.1488" width="36.1249" height="4.50905" fill="#F2CB7F"/>
<rect x="249.435" y="4.50931" width="4.51561" height="4.50905" fill="#4F3B2E"/>
<rect x="272.013" y="9.01871" width="4.51561" height="4.50905" fill="#4F3B2E"/>
<rect x="244.919" y="9.01868" width="4.51561" height="4.50905" fill="#4F3B2E"/>
<rect x="262.982" y="9.01868" width="4.51561" height="4.50905" fill="#4F3B2E"/>
<rect x="240.404" y="13.528" width="4.51561" height="4.50905" fill="#4F3B2E"/>
<rect x="290.076" y="13.528" width="4.51561" height="4.50905" fill="#4F3B2E"/>
<rect x="290.076" y="9.01871" width="4.51561" height="4.50905" fill="#4F3B2E"/>
<rect x="276.529" y="9.01868" width="13.5468" height="4.50905" fill="#F2CB7F"/>
<rect x="272.013" y="13.528" width="18.0625" height="4.50905" fill="#F2CB7F"/>
<rect x="244.919" y="18.0374" width="45.1562" height="4.50905" fill="#F2CB7F"/>
<rect x="244.919" y="22.5467" width="45.1562" height="4.50905" fill="#F2CB7F"/>
<rect x="244.919" y="27.056" width="45.1562" height="4.50905" fill="#F2CB7F"/>
<rect x="244.919" y="13.528" width="18.0625" height="4.50905" fill="#F2CB7F"/>
<rect x="249.435" y="9.01871" width="13.5468" height="4.50905" fill="#F2CB7F"/>
<rect x="240.404" y="22.5467" width="4.51561" height="4.50905" fill="#4F3B2E"/>
<rect x="290.076" y="22.5467" width="4.51561" height="4.50905" fill="#4F3B2E"/>
<rect x="240.404" y="31.5654" width="4.51561" height="4.50905" fill="#4F3B2E"/>
<rect x="244.919" y="40.584" width="4.51561" height="4.50905" fill="#4F3B2E"/>
<rect x="290.076" y="31.5653" width="4.51561" height="4.50905" fill="#4F3B2E"/>
<rect x="267.497" y="13.528" width="4.51561" height="4.50905" fill="#4F3B2E"/>
<rect x="262.982" y="13.528" width="4.51561" height="4.50905" fill="#4F3B2E"/>
<rect x="240.404" y="18.0374" width="4.51561" height="4.50905" fill="#4F3B2E"/>
<rect x="290.076" y="18.0374" width="4.51561" height="4.50905" fill="#4F3B2E"/>
<rect x="240.404" y="27.056" width="4.51561" height="4.50905" fill="#4F3B2E"/>
<rect x="290.076" y="27.0561" width="4.51561" height="4.50905" fill="#4F3B2E"/>
<rect x="240.404" y="36.0747" width="4.51561" height="4.50905" fill="#4F3B2E"/>
<rect x="244.919" y="45.0934" width="4.51561" height="4.50905" fill="#4F3B2E"/>
<rect x="249.435" y="45.0934" width="4.51561" height="4.50905" fill="#4F3B2E"/>
<rect x="240.404" y="45.0934" width="4.51561" height="4.50905" fill="#4F3B2E"/>
<rect x="235.889" y="49.6027" width="4.51561" height="4.50905" fill="#4F3B2E"/>
<rect x="217.825" y="67.6412" width="4.51561" height="4.50905" fill="#4F3B2E"/>
<rect x="222.341" y="58.6209" width="4.51561" height="4.50905" fill="#4F3B2E"/>
<rect x="217.825" y="58.6208" width="4.51561" height="9.01867" fill="#F2CB7F"/>
<rect x="222.341" y="63.1325" width="4.51561" height="9.01867" fill="#F2CB7F"/>
<rect x="226.857" y="63.1302" width="4.51561" height="4.50905" fill="#4F3B2E"/>
<rect x="226.857" y="58.622" width="4.51561" height="4.50905" fill="white"/>
<rect x="226.857" y="67.6418" width="4.51561" height="4.50905" fill="#F2CB7F"/>
<rect x="217.825" y="54.1126" width="9.03094" height="4.50905" fill="white"/>
<rect x="290.076" y="36.0747" width="4.51561" height="4.50905" fill="#4F3B2E"/>
<rect x="281.044" y="13.528" width="4.51561" height="4.50905" fill="white"/>
<rect x="253.951" y="13.528" width="4.51561" height="4.50905" fill="white"/>
<rect x="276.529" y="22.5467" width="4.51561" height="4.50905" fill="white"/>
<rect x="276.529" y="27.056" width="4.51561" height="4.50905" fill="#4F3B2E"/>
<rect x="285.56" y="40.584" width="4.51561" height="4.50905" fill="#4F3B2E"/>
<rect x="276.529" y="31.5654" width="4.51561" height="4.50905" fill="#F2CB7F"/>
<rect x="253.951" y="31.5653" width="4.51561" height="4.50905" fill="#F2CB7F"/>
<rect x="281.044" y="31.5654" width="4.51561" height="4.50905" fill="#F2CB7F"/>
<rect x="258.466" y="31.5654" width="4.51561" height="4.50905" fill="#F2CB7F"/>
<rect x="272.013" y="31.5653" width="4.51561" height="4.50905" fill="#4F3B2E"/>
<rect x="281.044" y="45.0934" width="4.51561" height="4.50905" fill="#4F3B2E"/>
<rect x="276.529" y="49.6027" width="4.51561" height="4.50905" fill="#4F3B2E"/>
<rect x="276.529" y="54.112" width="4.51561" height="4.50905" fill="#4F3B2E"/>
<rect x="276.529" y="58.6214" width="4.51561" height="4.50905" fill="#4F3B2E"/>
<rect x="276.529" y="63.1307" width="4.51561" height="4.50905" fill="#4F3B2E"/>
<rect x="276.529" y="67.64" width="4.51561" height="4.50905" fill="#4F3B2E"/>
<rect x="276.529" y="72.1494" width="4.51561" height="4.50905" fill="white"/>
<rect x="262.982" y="72.1494" width="4.51561" height="4.50905" fill="white"/>
<rect x="276.529" y="76.6587" width="4.51561" height="4.50905" fill="#4F3B2E"/>
<rect x="262.982" y="76.6587" width="4.51561" height="4.50905" fill="#4F3B2E"/>
<rect x="249.435" y="76.6587" width="4.51561" height="4.50905" fill="#4F3B2E"/>
<rect x="235.889" y="76.6587" width="4.51561" height="4.50905" fill="#4F3B2E"/>
<rect x="281.044" y="76.6582" width="4.50905" height="4.51561" transform="rotate(-90 281.044 76.6582)" fill="#4F3B2E"/>
<rect x="272.013" y="72.1494" width="4.51561" height="4.50905" fill="white"/>
<rect x="258.466" y="72.1494" width="4.51561" height="4.50905" fill="white"/>
<rect x="244.919" y="72.1494" width="4.51561" height="4.50905" fill="white"/>
<rect x="272.013" y="76.6587" width="4.51561" height="4.50905" fill="#4F3B2E"/>
<rect x="258.466" y="76.6587" width="4.51561" height="4.50905" fill="#4F3B2E"/>
<rect x="244.919" y="76.6587" width="4.51561" height="4.50905" fill="#4F3B2E"/>
<rect x="231.372" y="76.6587" width="4.51561" height="4.50905" fill="#4F3B2E"/>
<rect x="281.044" y="81.167" width="4.50905" height="4.51561" transform="rotate(-90 281.044 81.167)" fill="#4F3B2E"/>
<rect x="267.497" y="81.1669" width="4.50905" height="4.51561" transform="rotate(-90 267.497 81.1669)" fill="#4F3B2E"/>
<rect x="253.951" y="81.1669" width="4.50905" height="4.51561" transform="rotate(-90 253.951 81.1669)" fill="#4F3B2E"/>
<rect x="240.404" y="81.167" width="4.50905" height="4.51561" transform="rotate(-90 240.404 81.167)" fill="#4F3B2E"/>
<rect x="267.497" y="31.5653" width="4.51561" height="4.50905" fill="#4F3B2E"/>
<rect x="262.982" y="31.5654" width="4.51561" height="4.50905" fill="white"/>
<rect x="285.56" y="31.5653" width="4.51561" height="4.50905" fill="white"/>
<rect x="249.435" y="31.5653" width="4.51561" height="4.50905" fill="white"/>
<rect x="249.435" y="36.0747" width="40.6405" height="4.50905" fill="white"/>
<rect x="240.404" y="49.6027" width="36.1249" height="4.50905" fill="#F2CB7F"/>
<rect x="240.404" y="54.112" width="36.1249" height="4.50905" fill="#F2CB7F"/>
<rect x="235.889" y="54.1121" width="4.51561" height="22.5467" fill="#F2CB7F"/>
<rect x="231.372" y="54.1121" width="4.51561" height="22.5467" fill="#4F3B2E"/>
<rect width="4.51561" height="9.01831" transform="matrix(1 0 0 -1 226.857 58.6208)" fill="#4F3B2E"/>
<rect width="4.51561" height="13.5276" transform="matrix(1 0 0 -1 213.31 67.64)" fill="#4F3B2E"/>
<rect width="4.50905" height="9.03144" transform="matrix(-1.19422e-08 -1 -1 1.19075e-08 226.857 54.1115)" fill="#4F3B2E"/>
<rect width="4.50905" height="9.03144" transform="matrix(-1.19422e-08 -1 -1 1.19075e-08 231.372 76.6593)" fill="#4F3B2E"/>
<rect x="249.435" y="40.584" width="36.1249" height="4.50905" fill="white"/>
<rect x="258.466" y="45.0934" width="22.5781" height="4.50905" fill="white"/>
<rect x="240.404" y="58.6214" width="36.1249" height="4.50905" fill="#F2CB7F"/>
<rect x="240.404" y="63.1307" width="36.1249" height="4.50905" fill="#F2CB7F"/>
<rect x="240.404" y="67.64" width="36.1249" height="4.50905" fill="#F2CB7F"/>
<rect x="244.919" y="31.5654" width="4.51561" height="4.50905" fill="#F2CB7F"/>
<rect x="244.919" y="36.0747" width="4.51561" height="4.50905" fill="#F2CB7F"/>
<rect x="258.466" y="22.5467" width="4.51561" height="4.50905" fill="white"/>
<rect x="258.466" y="27.056" width="4.51561" height="4.50905" fill="#4F3B2E"/>
<rect x="267.497" y="40.584" width="4.51561" height="4.50905" fill="#4F3B2E"/>
<rect x="267.497" y="49.6027" width="4.51561" height="4.50905" fill="white"/>
<rect x="267.497" y="54.1121" width="4.51561" height="4.50905" fill="white"/>
<rect x="267.497" y="58.6214" width="4.51561" height="4.50905" fill="white"/>
<rect x="253.951" y="45.0934" width="4.51561" height="4.50905" fill="#F2CB7F"/>
<rect width="4.51561" height="4.50905" transform="matrix(-1 0 0 1 311.214 78.9134)" fill="#4F3B2E"/>
<rect width="4.51561" height="4.50905" transform="matrix(-1 0 0 1 311.214 83.4226)" fill="#4F3B2E"/>
<rect width="4.51561" height="4.50905" transform="matrix(-1 0 0 1 324.762 83.4227)" fill="#4F3B2E"/>
<rect width="4.51561" height="4.50905" transform="matrix(-1 0 0 1 311.214 87.932)" fill="#4F3B2E"/>
<rect width="4.51561" height="4.50905" transform="matrix(-1 0 0 1 324.762 87.932)" fill="#4F3B2E"/>
<rect width="4.51561" height="4.50905" transform="matrix(-1 0 0 1 315.73 78.9134)" fill="#4F3B2E"/>
<rect width="4.51561" height="4.50905" transform="matrix(-1 0 0 1 315.73 92.4413)" fill="#4F3B2E"/>
<rect width="4.51561" height="4.50905" transform="matrix(-1 0 0 1 333.793 87.932)" fill="#4F3B2E"/>
<rect width="4.51561" height="4.50905" transform="matrix(-1 0 0 1 329.277 87.932)" fill="#4F3B2E"/>
<rect width="4.51561" height="4.50905" transform="matrix(-1 0 0 1 320.246 78.9134)" fill="#4F3B2E"/>
<rect width="4.51561" height="4.50905" transform="matrix(-1 0 0 1 320.246 92.4414)" fill="#4F3B2E"/>
<rect width="4.51561" height="4.50905" transform="matrix(-1 0 0 1 338.309 87.932)" fill="#4F3B2E"/>
<rect width="9.03123" height="9.01867" transform="matrix(-1 0 0 1 320.246 83.4227)" fill="#F2CB7F"/>
<rect x="351.855" y="83.4227" width="4.51561" height="4.50905" fill="#4F3B2E"/>
<rect x="338.309" y="83.4227" width="4.51561" height="4.50905" fill="#4F3B2E"/>
<rect x="351.855" y="87.932" width="4.51561" height="4.50905" fill="#4F3B2E"/>
<rect x="338.309" y="87.932" width="4.51561" height="4.50905" fill="#4F3B2E"/>
<rect x="333.793" y="92.4413" width="4.51561" height="4.50905" fill="#F2CB7F"/>
<rect x="333.793" y="96.9507" width="4.51561" height="4.50905" fill="#F2CB7F"/>
<rect x="333.793" y="101.46" width="4.51561" height="4.50905" fill="#F2CB7F"/>
<rect x="342.824" y="96.9507" width="4.51561" height="4.50905" fill="#F2CB7F"/>
<rect x="342.824" y="105.969" width="4.51561" height="4.50905" fill="#F2CB7F"/>
<rect x="342.824" y="110.479" width="4.51561" height="4.50905" fill="white"/>
<rect x="342.824" y="114.988" width="4.51561" height="4.50905" fill="white"/>
<rect x="342.824" y="101.46" width="4.51561" height="4.50905" fill="#F2CB7F"/>
<rect x="338.309" y="92.4414" width="4.51561" height="4.50905" fill="#F2CB7F"/>
<rect x="338.309" y="96.9507" width="4.51561" height="4.50905" fill="#F2CB7F"/>
<rect x="338.309" y="105.969" width="4.51561" height="4.50905" fill="#F2CB7F"/>
<rect x="338.309" y="110.479" width="4.51561" height="4.50905" fill="white"/>
<rect x="338.309" y="114.988" width="4.51561" height="4.50905" fill="white"/>
<rect x="338.309" y="119.497" width="4.51561" height="4.50905" fill="white"/>
<rect x="342.824" y="119.497" width="4.51561" height="4.50905" fill="#F2CB7F"/>
<rect x="338.309" y="101.46" width="4.51561" height="4.50905" fill="#4F3B2E"/>
<rect x="329.277" y="105.969" width="4.51561" height="4.50905" fill="#4F3B2E"/>
<rect x="329.277" y="110.479" width="4.51561" height="4.50905" fill="white"/>
<rect x="329.277" y="114.988" width="4.51561" height="4.50905" fill="white"/>
<rect x="329.277" y="119.497" width="4.51561" height="4.50905" fill="white"/>
<rect x="324.762" y="105.969" width="4.51561" height="4.50905" fill="#4F3B2E"/>
<rect x="324.762" y="110.479" width="4.51561" height="4.50905" fill="white"/>
<rect x="324.762" y="114.988" width="4.51561" height="4.50905" fill="white"/>
<rect x="324.762" y="119.497" width="4.51561" height="4.50905" fill="white"/>
<rect x="329.277" y="114.988" width="4.51561" height="4.50905" fill="#4F3B2E"/>
<rect x="347.34" y="96.9507" width="4.51561" height="4.50905" fill="#F2CB7F"/>
<rect x="347.34" y="105.969" width="4.51561" height="4.50905" fill="#F2CB7F"/>
<rect x="347.34" y="110.479" width="4.51561" height="4.50905" fill="#F2CB7F"/>
<rect x="347.34" y="114.988" width="4.51561" height="4.50905" fill="#F2CB7F"/>
<rect x="347.34" y="101.46" width="4.51561" height="4.50905" fill="#F2CB7F"/>
<rect width="4.51561" height="4.50905" transform="matrix(-1 0 0 1 329.277 92.4413)" fill="#F2CB7F"/>
<rect width="4.51561" height="4.50905" transform="matrix(-1 0 0 1 333.793 92.4413)" fill="#F2CB7F"/>
<rect width="4.51561" height="4.50905" transform="matrix(-1 0 0 1 329.277 96.9507)" fill="#F2CB7F"/>
<rect width="4.51561" height="4.50905" transform="matrix(-1 0 0 1 333.793 96.9507)" fill="#F2CB7F"/>
<rect width="4.51561" height="4.50905" transform="matrix(-1 0 0 1 329.277 101.46)" fill="#F2CB7F"/>
<rect width="4.51561" height="4.50905" transform="matrix(-1 0 0 1 333.793 101.46)" fill="#F2CB7F"/>
<rect width="4.51561" height="4.50905" transform="matrix(-1 0 0 1 320.246 96.9507)" fill="#F2CB7F"/>
<rect width="4.51561" height="4.50905" transform="matrix(-1 0 0 1 320.246 105.969)" fill="#F2CB7F"/>
<rect width="4.51561" height="4.50905" transform="matrix(-1 0 0 1 320.246 110.479)" fill="white"/>
<rect width="4.51561" height="4.50905" transform="matrix(-1 0 0 1 320.246 114.988)" fill="white"/>
<rect width="4.51561" height="4.50905" transform="matrix(-1 0 0 1 320.246 101.46)" fill="#F2CB7F"/>
<rect width="4.51561" height="4.50905" transform="matrix(-1 0 0 1 324.762 92.4414)" fill="#F2CB7F"/>
<rect width="4.51561" height="4.50905" transform="matrix(-1 0 0 1 324.762 96.9507)" fill="#F2CB7F"/>
<rect width="4.51561" height="4.50905" transform="matrix(-1 0 0 1 324.762 105.969)" fill="white"/>
<rect width="4.51561" height="4.50905" transform="matrix(-1 0 0 1 324.762 110.479)" fill="white"/>
<rect width="4.51561" height="4.50905" transform="matrix(-1 0 0 1 324.762 114.988)" fill="white"/>
<rect width="4.51561" height="4.50905" transform="matrix(-1 0 0 1 324.762 119.497)" fill="white"/>
<rect width="4.51561" height="4.50905" transform="matrix(-1 0 0 1 338.309 105.969)" fill="white"/>
<rect width="4.51561" height="4.50905" transform="matrix(-1 0 0 1 338.309 110.479)" fill="white"/>
<rect width="4.51561" height="4.50905" transform="matrix(-1 0 0 1 338.309 114.988)" fill="white"/>
<rect width="4.51561" height="4.50905" transform="matrix(-1 0 0 1 338.309 119.497)" fill="white"/>
<rect width="22.5778" height="4.50905" transform="matrix(-1 0 0 1 347.339 133.025)" fill="#F2CB7F"/>
<rect width="22.5778" height="4.50905" transform="matrix(-1 0 0 1 347.339 128.516)" fill="#F2CB7F"/>
<rect width="22.5778" height="4.50905" transform="matrix(-1 0 0 1 347.339 124.007)" fill="#F2CB7F"/>
<rect width="4.51561" height="4.50905" transform="matrix(-1 0 0 1 329.277 137.535)" fill="#F2CB7F"/>
<rect width="4.51561" height="4.50905" transform="matrix(-1 0 0 1 333.793 137.535)" fill="#F2CB7F"/>
<rect width="13.5466" height="4.50905" transform="matrix(-1 0 0 1 347.339 137.535)" fill="#F2CB7F"/>
<rect width="4.51561" height="4.50905" transform="matrix(-1 0 0 1 356.371 137.535)" fill="#F2CB7F"/>
<rect width="4.51561" height="4.50905" transform="matrix(-1 0 0 1 356.371 133.025)" fill="#F2CB7F"/>
<rect width="4.51561" height="4.50905" transform="matrix(-1 0 0 1 356.371 128.516)" fill="#F2CB7F"/>
<rect width="4.51561" height="4.50905" transform="matrix(-1 0 0 1 356.371 124.007)" fill="#F2CB7F"/>
<rect width="4.51561" height="4.50905" transform="matrix(-1 0 0 1 360.886 137.535)" fill="#F2CB7F"/>
<rect width="4.51561" height="4.50905" transform="matrix(-1 0 0 1 360.886 133.025)" fill="#F2CB7F"/>
<rect width="4.51561" height="4.50905" transform="matrix(-1 0 0 1 360.886 128.516)" fill="#F2CB7F"/>
<rect width="4.51561" height="4.50905" transform="matrix(-1 0 0 1 360.886 124.007)" fill="#F2CB7F"/>
<rect width="4.51561" height="4.50905" transform="matrix(-1 0 0 1 365.402 137.535)" fill="#F2CB7F"/>
<rect width="4.51561" height="4.50905" transform="matrix(-1 0 0 1 365.402 133.025)" fill="#F2CB7F"/>
<rect width="4.51561" height="4.50905" transform="matrix(-1 0 0 1 365.402 128.516)" fill="#F2CB7F"/>
<rect width="4.51561" height="4.50905" transform="matrix(-1 0 0 1 329.277 142.044)" fill="#F2CB7F"/>
<rect width="4.51561" height="4.50905" transform="matrix(-1 0 0 1 333.793 142.044)" fill="#F2CB7F"/>
<rect width="18.0625" height="4.50905" transform="matrix(-1 0 0 1 351.854 142.044)" fill="#F2CB7F"/>
<rect width="18.0625" height="4.50905" transform="matrix(-1 0 0 1 351.854 146.553)" fill="#F2CB7F"/>
<rect width="4.51561" height="4.50905" transform="matrix(-1 0 0 1 356.371 142.044)" fill="#F2CB7F"/>
<rect width="4.51561" height="4.50905" transform="matrix(-1 0 0 1 360.886 142.044)" fill="#F2CB7F"/>
<rect width="4.51561" height="4.50905" transform="matrix(-1 0 0 1 365.402 142.044)" fill="#F2CB7F"/>
<rect width="4.51561" height="4.50905" transform="matrix(-1 0 0 1 329.277 146.553)" fill="white"/>
<rect width="4.51561" height="4.50905" transform="matrix(-1 0 0 1 333.793 146.553)" fill="#F2CB7F"/>
<rect width="4.51561" height="4.50905" transform="matrix(-1 0 0 1 324.762 101.46)" fill="#4F3B2E"/>
<rect width="4.51561" height="4.50905" transform="matrix(-1 0 0 1 315.73 96.9507)" fill="#F2CB7F"/>
<rect width="4.51561" height="4.50905" transform="matrix(-1 0 0 1 315.73 105.969)" fill="#F2CB7F"/>
<rect width="4.51561" height="4.50905" transform="matrix(-1 0 0 1 315.73 101.46)" fill="#F2CB7F"/>
<rect x="347.34" y="78.9134" width="4.51561" height="4.50905" fill="#4F3B2E"/>
<rect x="347.34" y="92.4413" width="4.51561" height="4.50905" fill="#4F3B2E"/>
<rect x="351.855" y="92.4414" width="4.51561" height="4.50905" fill="#4F3B2E"/>
<rect x="351.855" y="101.46" width="4.51561" height="4.50905" fill="#4F3B2E"/>
<rect x="311.214" y="101.46" width="4.51561" height="4.50905" fill="#4F3B2E"/>
<rect x="320.246" y="124.007" width="4.51561" height="4.50905" fill="#4F3B2E"/>
<rect x="347.34" y="119.497" width="4.51561" height="4.50905" fill="#4F3B2E"/>
<rect x="351.855" y="110.479" width="4.51561" height="4.50905" fill="#4F3B2E"/>
<rect x="311.214" y="110.479" width="4.51561" height="4.50905" fill="#4F3B2E"/>
<rect x="320.246" y="133.025" width="4.51561" height="4.50905" fill="#4F3B2E"/>
<rect x="347.34" y="128.516" width="4.51561" height="4.50905" fill="#4F3B2E"/>
<rect x="365.402" y="128.516" width="4.51561" height="4.50905" fill="#4F3B2E"/>
<rect x="374.433" y="128.516" width="4.51561" height="4.50905" fill="#4F3B2E"/>
<rect x="383.465" y="128.516" width="4.51561" height="4.50905" fill="#4F3B2E"/>
<rect x="360.886" y="124.007" width="4.51561" height="4.50905" fill="#4F3B2E"/>
<rect x="374.433" y="124.007" width="4.51561" height="4.50905" fill="#4F3B2E"/>
<rect x="378.949" y="124.007" width="4.51561" height="4.50905" fill="#4F3B2E"/>
<rect x="351.855" y="96.9507" width="4.51561" height="4.50905" fill="#4F3B2E"/>
<rect x="311.214" y="96.9507" width="4.51561" height="4.50905" fill="#4F3B2E"/>
<rect x="351.855" y="105.969" width="4.51561" height="4.50905" fill="#4F3B2E"/>
<rect x="311.214" y="105.969" width="4.51561" height="4.50905" fill="#4F3B2E"/>
<rect x="320.246" y="128.516" width="4.51561" height="4.50905" fill="#4F3B2E"/>
<rect x="347.34" y="124.007" width="4.51561" height="4.50905" fill="#4F3B2E"/>
<rect x="351.855" y="114.988" width="4.51561" height="4.50905" fill="#4F3B2E"/>
<rect x="311.214" y="114.988" width="4.51561" height="4.50905" fill="#4F3B2E"/>
<rect x="320.246" y="137.535" width="4.51561" height="4.50905" fill="#4F3B2E"/>
<rect x="347.34" y="133.025" width="4.51561" height="4.50905" fill="#4F3B2E"/>
<rect x="365.402" y="133.025" width="4.51561" height="4.50905" fill="#4F3B2E"/>
<rect x="374.433" y="133.025" width="4.51561" height="4.50905" fill="#4F3B2E"/>
<rect x="383.465" y="133.025" width="4.51561" height="4.50905" fill="#4F3B2E"/>
<rect x="383.465" y="137.535" width="4.51561" height="4.50905" fill="#4F3B2E"/>
<rect x="374.433" y="146.553" width="4.51561" height="4.50905" fill="#4F3B2E"/>
<rect x="378.949" y="142.044" width="4.51561" height="4.50905" fill="#4F3B2E"/>
<rect x="320.246" y="142.044" width="4.51561" height="4.50905" fill="#4F3B2E"/>
<rect x="315.73" y="146.553" width="4.51561" height="4.50905" fill="#4F3B2E"/>
<rect x="315.73" y="151.063" width="4.51561" height="4.50905" fill="#4F3B2E"/>
<rect x="320.246" y="151.063" width="4.51561" height="4.50905" fill="#4F3B2E"/>
<rect x="324.762" y="151.063" width="4.51561" height="4.50905" fill="#4F3B2E"/>
<rect x="329.277" y="151.063" width="4.51561" height="4.50905" fill="#4F3B2E"/>
<rect x="333.793" y="151.063" width="4.51561" height="4.50905" fill="#4F3B2E"/>
<rect x="338.309" y="151.063" width="4.51561" height="4.50905" fill="#4F3B2E"/>
<rect x="342.824" y="151.063" width="4.51561" height="4.50905" fill="#4F3B2E"/>
<rect x="347.34" y="151.063" width="4.51561" height="4.50905" fill="#4F3B2E"/>
<rect x="351.855" y="151.063" width="4.51561" height="4.50905" fill="#4F3B2E"/>
<rect x="356.371" y="151.063" width="4.51561" height="4.50905" fill="#4F3B2E"/>
<rect x="360.886" y="151.063" width="4.51561" height="4.50905" fill="#4F3B2E"/>
<rect x="365.402" y="151.063" width="4.51561" height="4.50905" fill="#4F3B2E"/>
<rect x="347.34" y="137.535" width="4.51561" height="4.50905" fill="#4F3B2E"/>
<rect x="365.402" y="137.535" width="4.51561" height="4.50905" fill="#4F3B2E"/>
<rect x="369.918" y="137.535" width="4.51561" height="4.50905" fill="#4F3B2E"/>
<rect x="369.918" y="146.553" width="4.51561" height="4.50905" fill="#4F3B2E"/>
<rect x="315.73" y="119.497" width="4.51561" height="4.50905" fill="#4F3B2E"/>
<rect x="351.855" y="119.497" width="4.51561" height="4.50905" fill="#4F3B2E"/>
<rect x="356.371" y="119.497" width="4.51561" height="4.50905" fill="#4F3B2E"/>
<rect x="342.824" y="78.9134" width="4.51561" height="4.50905" fill="#4F3B2E"/>
<rect x="338.309" y="78.9134" width="4.51561" height="4.50905" fill="#4F3B2E"/>
<rect x="342.824" y="92.4413" width="4.51561" height="4.50905" fill="#4F3B2E"/>
<rect x="338.309" y="92.4414" width="4.51561" height="4.50905" fill="white"/>
<rect x="378.949" y="128.516" width="4.51561" height="4.50905" fill="white"/>
<rect x="378.949" y="133.025" width="4.51561" height="4.50905" fill="#F2CB7F"/>
<rect x="378.949" y="137.535" width="4.51561" height="4.50905" fill="#F2CB7F"/>
<rect x="374.433" y="137.535" width="4.51561" height="4.50905" fill="#F2CB7F"/>
<rect x="374.433" y="142.044" width="4.51561" height="4.50905" fill="#F2CB7F"/>
<rect x="369.918" y="142.044" width="4.51561" height="4.50905" fill="#F2CB7F"/>
<rect x="365.402" y="142.044" width="4.51561" height="4.50905" fill="#F2CB7F"/>
<rect x="365.402" y="146.553" width="4.51561" height="4.50905" fill="#F2CB7F"/>
<rect x="360.886" y="146.553" width="4.51561" height="4.50905" fill="#F2CB7F"/>
<rect x="356.37" y="146.553" width="4.51561" height="4.50905" fill="#F2CB7F"/>
<rect x="351.854" y="146.553" width="4.51561" height="4.50905" fill="white"/>
<rect x="333.793" y="146.553" width="4.51561" height="4.50905" fill="white"/>
<rect x="320.246" y="146.553" width="4.51561" height="4.50905" fill="white"/>
<rect x="338.309" y="146.553" width="4.51561" height="4.50905" fill="white"/>
<rect x="320.246" y="92.4414" width="4.51561" height="4.50905" fill="white"/>
<rect x="342.824" y="83.4226" width="9.03123" height="9.01867" fill="#F2CB7F"/>
<rect width="4.51561" height="4.50905" transform="matrix(-1 0 0 1 385.723 42.8376)" fill="#4F3B2E"/>
<rect width="4.51561" height="4.50905" transform="matrix(-1 0 0 1 385.723 47.347)" fill="#4F3B2E"/>
<rect width="4.51561" height="4.50905" transform="matrix(-1 0 0 1 403.785 47.347)" fill="#4F3B2E"/>
<rect width="4.51561" height="4.50905" transform="matrix(-1 0 0 1 385.723 51.8562)" fill="#4F3B2E"/>
<rect width="4.51561" height="4.50905" transform="matrix(-1 0 0 1 403.785 51.8562)" fill="#4F3B2E"/>
<rect width="4.51561" height="4.50905" transform="matrix(-1 0 0 1 394.754 42.8376)" fill="#4F3B2E"/>
<rect width="4.51561" height="4.50905" transform="matrix(-1 0 0 1 394.754 56.3656)" fill="#4F3B2E"/>
<rect width="4.51561" height="4.50905" transform="matrix(-1 0 0 1 412.815 47.347)" fill="#4F3B2E"/>
<rect width="4.51561" height="4.50905" transform="matrix(-1 0 0 1 390.237 42.8376)" fill="#4F3B2E"/>
<rect width="4.51561" height="4.50905" transform="matrix(-1 0 0 1 390.237 56.3656)" fill="#4F3B2E"/>
<rect width="4.51561" height="4.50905" transform="matrix(-1 0 0 1 408.301 47.347)" fill="#4F3B2E"/>
<rect width="4.51561" height="4.50905" transform="matrix(-1 0 0 1 399.27 42.8376)" fill="#4F3B2E"/>
<rect width="4.51561" height="4.50905" transform="matrix(-1 0 0 1 399.27 56.3656)" fill="#4F3B2E"/>
<rect width="4.51561" height="4.50905" transform="matrix(-1 0 0 1 417.332 47.347)" fill="#4F3B2E"/>
<rect width="13.5468" height="4.50905" transform="matrix(-1 0 0 1 399.27 47.347)" fill="white"/>
<rect width="13.5468" height="9.01867" transform="matrix(-1 0 0 1 399.27 47.347)" fill="#F2CB7F"/>
<rect x="435.395" y="42.8376" width="4.51561" height="4.50905" fill="#4F3B2E"/>
<rect x="435.395" y="47.347" width="4.51561" height="4.50905" fill="#4F3B2E"/>
<rect x="417.332" y="47.347" width="4.51561" height="4.50905" fill="#4F3B2E"/>
<rect x="435.395" y="51.8562" width="4.51561" height="4.50905" fill="#4F3B2E"/>
<rect x="417.332" y="51.8562" width="4.51561" height="4.50905" fill="#4F3B2E"/>
<rect x="412.815" y="51.8562" width="4.51561" height="4.50905" fill="#F2CB7F"/>
<rect x="408.3" y="51.8562" width="4.51561" height="4.50905" fill="white"/>
<rect x="412.815" y="56.3656" width="4.51561" height="4.50905" fill="#F2CB7F"/>
<rect x="408.3" y="56.3656" width="4.51561" height="4.50905" fill="white"/>
<rect x="412.815" y="60.8749" width="4.51561" height="4.50905" fill="#F2CB7F"/>
<rect x="408.3" y="60.8749" width="4.51561" height="4.50905" fill="white"/>
<rect x="412.815" y="65.3843" width="4.51561" height="4.50905" fill="#F2CB7F"/>
<rect x="412.815" y="69.8936" width="4.51561" height="4.50905" fill="white"/>
<rect x="412.815" y="74.403" width="4.51561" height="4.50905" fill="white"/>
<rect x="412.815" y="78.9123" width="4.51561" height="4.50905" fill="white"/>
<rect x="412.815" y="83.4217" width="4.51561" height="4.50905" fill="white"/>
<rect x="412.815" y="87.9309" width="4.51561" height="4.50905" fill="white"/>
<rect x="412.815" y="92.4403" width="4.51561" height="4.50905" fill="white"/>
<rect x="412.815" y="96.9496" width="4.51561" height="4.50905" fill="white"/>
<rect x="408.3" y="65.3843" width="4.51561" height="4.50905" fill="white"/>
<rect x="421.847" y="60.8749" width="4.51561" height="4.50905" fill="#F2CB7F"/>
<rect x="421.847" y="69.8936" width="4.51561" height="4.50905" fill="#F2CB7F"/>
<rect x="421.847" y="74.403" width="4.51561" height="4.50905" fill="white"/>
<rect x="421.847" y="78.9123" width="4.51561" height="4.50905" fill="white"/>
<rect x="421.847" y="83.4217" width="4.51561" height="4.50905" fill="white"/>
<rect x="421.847" y="87.9309" width="4.51561" height="4.50905" fill="white"/>
<rect x="421.847" y="92.4403" width="4.51561" height="4.50905" fill="white"/>
<rect x="421.847" y="96.9496" width="4.51561" height="4.50905" fill="white"/>
<rect x="421.847" y="101.459" width="4.51561" height="4.50905" fill="white"/>
<rect x="421.847" y="105.968" width="4.51561" height="4.50905" fill="white"/>
<rect x="421.847" y="110.478" width="4.51561" height="4.50905" fill="white"/>
<rect x="426.362" y="105.968" width="4.51561" height="4.50905" fill="white"/>
<rect x="430.878" y="87.9309" width="4.51561" height="4.50905" fill="white"/>
<rect x="435.393" y="87.9309" width="4.51561" height="4.50905" fill="white"/>
<rect x="426.362" y="110.478" width="4.51561" height="4.50905" fill="white"/>
<rect x="421.847" y="65.3843" width="4.51561" height="4.50905" fill="#F2CB7F"/>
<rect x="417.332" y="56.3656" width="4.51561" height="4.50905" fill="#F2CB7F"/>
<rect x="417.332" y="60.8749" width="4.51561" height="4.50905" fill="#F2CB7F"/>
<rect x="417.332" y="69.8936" width="4.51561" height="4.50905" fill="#F2CB7F"/>
<rect x="417.332" y="74.403" width="4.51561" height="4.50905" fill="white"/>
<rect x="417.332" y="78.9123" width="4.51561" height="4.50905" fill="white"/>
<rect x="417.332" y="83.4217" width="4.51561" height="4.50905" fill="white"/>
<rect x="417.332" y="87.9309" width="4.51561" height="4.50905" fill="white"/>
<rect x="417.332" y="92.4403" width="4.51561" height="4.50905" fill="white"/>
<rect x="417.332" y="96.9496" width="4.51561" height="4.50905" fill="white"/>
<rect x="417.332" y="101.459" width="4.51561" height="4.50905" fill="white"/>
<rect x="417.332" y="105.968" width="4.51561" height="4.50905" fill="white"/>
<rect x="417.332" y="110.478" width="4.51561" height="4.50905" fill="white"/>
<rect x="417.332" y="65.3843" width="4.51561" height="4.50905" fill="#4F3B2E"/>
<rect x="408.301" y="69.8936" width="4.51561" height="4.50905" fill="#4F3B2E"/>
<rect x="408.301" y="74.403" width="4.51561" height="4.50905" fill="white"/>
<rect x="408.301" y="78.9123" width="4.51561" height="4.50905" fill="white"/>
<rect x="408.301" y="78.9123" width="4.51561" height="4.50905" fill="#4F3B2E"/>
<rect x="408.301" y="83.4217" width="4.51561" height="4.50905" fill="white"/>
<rect x="408.301" y="87.9309" width="4.51561" height="4.50905" fill="white"/>
<rect x="408.301" y="92.4403" width="4.51561" height="4.50905" fill="white"/>
<rect x="408.301" y="96.9496" width="4.51561" height="4.50905" fill="white"/>
<rect x="426.363" y="60.8749" width="4.51561" height="4.50905" fill="#F2CB7F"/>
<rect x="426.363" y="69.8936" width="4.51561" height="4.50905" fill="#F2CB7F"/>
<rect x="426.363" y="74.403" width="4.51561" height="4.50905" fill="white"/>
<rect x="426.363" y="78.9123" width="4.51561" height="4.50905" fill="white"/>
<rect x="426.363" y="65.3843" width="4.51561" height="4.50905" fill="#F2CB7F"/>
<rect width="4.51561" height="4.50905" transform="matrix(-1 0 0 1 408.301 51.8562)" fill="#F2CB7F"/>
<rect width="4.51561" height="4.50905" transform="matrix(-1 0 0 1 408.301 56.3656)" fill="#F2CB7F"/>
<rect width="4.51561" height="4.50905" transform="matrix(-1 0 0 1 408.301 60.8749)" fill="#F2CB7F"/>
<rect width="4.51561" height="4.50905" transform="matrix(-1 0 0 1 408.301 65.3843)" fill="#F2CB7F"/>
<rect width="4.51561" height="4.50905" transform="matrix(-1 0 0 1 408.301 69.8936)" fill="white"/>
<rect width="4.51561" height="4.50905" transform="matrix(-1 0 0 1 408.301 74.403)" fill="white"/>
<rect width="4.51561" height="4.50905" transform="matrix(-1 0 0 1 408.301 78.9123)" fill="white"/>
<rect width="4.51561" height="4.50905" transform="matrix(-1 0 0 1 408.301 83.4217)" fill="white"/>
<rect width="4.51561" height="4.50905" transform="matrix(-1 0 0 1 408.301 87.9309)" fill="white"/>
<rect width="4.51561" height="4.50905" transform="matrix(-1 0 0 1 408.301 92.4403)" fill="white"/>
<rect width="4.51561" height="4.50905" transform="matrix(-1 0 0 1 399.27 60.8749)" fill="#F2CB7F"/>
<rect width="4.51561" height="4.50905" transform="matrix(-1 0 0 1 399.27 69.8936)" fill="#F2CB7F"/>
<rect width="4.51561" height="4.50905" transform="matrix(-1 0 0 1 399.27 74.403)" fill="white"/>
<rect width="4.51561" height="4.50905" transform="matrix(-1 0 0 1 399.27 78.9123)" fill="white"/>
<rect width="4.51561" height="4.50905" transform="matrix(-1 0 0 1 399.27 65.3843)" fill="#F2CB7F"/>
<rect width="4.51561" height="4.50905" transform="matrix(-1 0 0 1 403.785 56.3656)" fill="#F2CB7F"/>
<rect width="4.51561" height="4.50905" transform="matrix(-1 0 0 1 403.785 60.8749)" fill="#F2CB7F"/>
<rect width="4.51561" height="4.50905" transform="matrix(-1 0 0 1 403.785 69.8936)" fill="#F2CB7F"/>
<rect width="4.51561" height="4.50905" transform="matrix(-1 0 0 1 403.785 74.403)" fill="white"/>
<rect width="4.51561" height="4.50905" transform="matrix(-1 0 0 1 403.785 78.9123)" fill="white"/>
<rect width="4.51561" height="4.50905" transform="matrix(-1 0 0 1 403.785 83.4217)" fill="white"/>
<rect width="4.51561" height="4.50905" transform="matrix(-1 0 0 1 408.301 96.9496)" fill="#F2CB7F"/>
<rect width="4.51561" height="4.50905" transform="matrix(-1 0 0 1 408.301 101.459)" fill="#F2CB7F"/>
<rect width="4.51561" height="4.50905" transform="matrix(-1 0 0 1 412.815 101.459)" fill="#F2CB7F"/>
<rect width="4.51561" height="4.50905" transform="matrix(-1 0 0 1 417.332 101.459)" fill="#F2CB7F"/>
<rect width="4.51561" height="4.50905" transform="matrix(-1 0 0 1 435.395 101.459)" fill="#F2CB7F"/>
<rect width="4.51561" height="4.50905" transform="matrix(-1 0 0 1 435.395 96.9496)" fill="#F2CB7F"/>
<rect width="4.51561" height="4.50905" transform="matrix(-1 0 0 1 435.395 92.4403)" fill="#F2CB7F"/>
<rect width="4.51561" height="4.50905" transform="matrix(-1 0 0 1 439.909 101.459)" fill="#F2CB7F"/>
<rect width="4.51561" height="4.50905" transform="matrix(-1 0 0 1 439.909 96.9496)" fill="#F2CB7F"/>
<rect width="4.51561" height="4.50905" transform="matrix(-1 0 0 1 439.909 92.4403)" fill="#F2CB7F"/>
<rect width="4.51561" height="4.50905" transform="matrix(-1 0 0 1 444.426 101.459)" fill="#F2CB7F"/>
<rect width="4.51561" height="4.50905" transform="matrix(-1 0 0 1 444.426 96.9496)" fill="#F2CB7F"/>
<rect width="4.51561" height="4.50905" transform="matrix(-1 0 0 1 444.426 92.4403)" fill="#F2CB7F"/>
<rect width="4.51561" height="4.50905" transform="matrix(-1 0 0 1 408.301 105.968)" fill="#F2CB7F"/>
<rect width="4.51561" height="4.50905" transform="matrix(-1 0 0 1 412.815 105.968)" fill="#F2CB7F"/>
<rect width="4.51561" height="4.50905" transform="matrix(-1 0 0 1 417.332 105.968)" fill="#F2CB7F"/>
<rect width="4.51561" height="4.50905" transform="matrix(-1 0 0 1 417.332 110.478)" fill="white"/>
<rect width="4.51561" height="4.50905" transform="matrix(-1 0 0 1 435.395 105.968)" fill="#F2CB7F"/>
<rect width="4.51561" height="4.50905" transform="matrix(-1 0 0 1 435.395 110.478)" fill="white"/>
<rect width="4.51561" height="4.50905" transform="matrix(-1 0 0 1 439.909 105.968)" fill="#F2CB7F"/>
<rect width="4.51561" height="4.50905" transform="matrix(-1 0 0 1 439.909 110.478)" fill="white"/>
<rect width="4.51561" height="4.50905" transform="matrix(-1 0 0 1 444.426 105.968)" fill="#F2CB7F"/>
<rect width="9.03123" height="4.50905" transform="matrix(-1 0 0 1 448.94 110.478)" fill="white"/>
<rect width="9.03123" height="4.50905" transform="matrix(-1 0 0 1 453.457 105.968)" fill="white"/>
<rect width="9.0181" height="4.51561" transform="matrix(1.19422e-08 -1 -1 -1.19075e-08 457.973 110.477)" fill="white"/>
<rect width="13.5274" height="4.51561" transform="matrix(1.19422e-08 -1 -1 -1.19075e-08 462.487 105.968)" fill="white"/>
<rect width="4.51561" height="4.50905" transform="matrix(-1 0 0 1 408.301 110.478)" fill="#F2CB7F"/>
<rect width="4.51561" height="4.50905" transform="matrix(-1 0 0 1 403.785 110.478)" fill="#F2CB7F"/>
<rect width="4.51561" height="4.50905" transform="matrix(-1 0 0 1 412.815 110.478)" fill="#F2CB7F"/>
<rect width="4.51561" height="4.50905" transform="matrix(-1 0 0 1 403.785 65.3843)" fill="#4F3B2E"/>
<rect width="4.51561" height="4.50905" transform="matrix(-1 0 0 1 394.754 60.8749)" fill="#F2CB7F"/>
<rect width="4.51561" height="4.50905" transform="matrix(-1 0 0 1 394.754 69.8936)" fill="#F2CB7F"/>
<rect width="4.51561" height="4.50905" transform="matrix(-1 0 0 1 394.754 65.3843)" fill="#F2CB7F"/>
<rect x="426.363" y="42.8376" width="4.51561" height="4.50905" fill="#4F3B2E"/>
<rect x="426.363" y="56.3656" width="4.51561" height="4.50905" fill="#4F3B2E"/>
<rect x="430.878" y="42.8376" width="4.51561" height="4.50905" fill="#4F3B2E"/>
<rect x="430.878" y="56.3656" width="4.51561" height="4.50905" fill="#4F3B2E"/>
<rect x="430.878" y="65.3843" width="4.51561" height="4.50905" fill="#4F3B2E"/>
<rect x="390.237" y="65.3843" width="4.51561" height="4.50905" fill="#4F3B2E"/>
<rect x="399.27" y="87.9309" width="4.51561" height="4.50905" fill="#4F3B2E"/>
<rect x="426.363" y="83.4217" width="4.51561" height="4.50905" fill="#4F3B2E"/>
<rect x="430.878" y="74.403" width="4.51561" height="4.50905" fill="#4F3B2E"/>
<rect x="390.237" y="74.403" width="4.51561" height="4.50905" fill="#4F3B2E"/>
<rect x="399.27" y="96.9496" width="4.51561" height="4.50905" fill="#4F3B2E"/>
<rect x="426.363" y="92.4403" width="4.51561" height="4.50905" fill="#4F3B2E"/>
<rect x="444.426" y="92.4403" width="4.51561" height="4.50905" fill="#4F3B2E"/>
<rect x="453.457" y="92.4403" width="4.51561" height="4.50905" fill="#4F3B2E"/>
<rect x="462.487" y="92.4403" width="4.51561" height="4.50905" fill="#4F3B2E"/>
<rect x="439.909" y="87.9309" width="4.51561" height="4.50905" fill="#4F3B2E"/>
<rect x="453.457" y="87.9309" width="4.51561" height="4.50905" fill="#4F3B2E"/>
<rect x="457.973" y="87.9309" width="4.51561" height="4.50905" fill="#4F3B2E"/>
<rect x="430.878" y="60.8749" width="4.51561" height="4.50905" fill="#4F3B2E"/>
<rect x="390.237" y="60.8749" width="4.51561" height="4.50905" fill="#4F3B2E"/>
<rect x="430.878" y="69.8936" width="4.51561" height="4.50905" fill="#4F3B2E"/>
<rect x="390.237" y="69.8936" width="4.51561" height="4.50905" fill="#4F3B2E"/>
<rect x="399.27" y="92.4403" width="4.51561" height="4.50905" fill="#4F3B2E"/>
<rect x="426.363" y="87.9309" width="4.51561" height="4.50905" fill="#4F3B2E"/>
<rect x="430.878" y="78.9123" width="4.51561" height="4.50905" fill="#4F3B2E"/>
<rect x="390.237" y="78.9123" width="4.51561" height="4.50905" fill="#4F3B2E"/>
<rect x="399.27" y="101.459" width="4.51561" height="4.50905" fill="#4F3B2E"/>
<rect x="426.363" y="96.9496" width="4.51561" height="4.50905" fill="#4F3B2E"/>
<rect x="444.426" y="96.9496" width="4.51561" height="4.50905" fill="#4F3B2E"/>
<rect x="453.457" y="96.9496" width="4.51561" height="4.50905" fill="#4F3B2E"/>
<rect x="453.457" y="110.478" width="4.51561" height="4.50905" fill="#4F3B2E"/>
<rect x="462.487" y="96.9496" width="4.51561" height="4.50905" fill="#4F3B2E"/>
<rect x="462.487" y="101.459" width="4.51561" height="4.50905" fill="#4F3B2E"/>
<rect x="457.973" y="105.968" width="4.51561" height="4.50905" fill="#4F3B2E"/>
<rect x="399.27" y="105.968" width="4.51561" height="4.50905" fill="#4F3B2E"/>
<rect x="394.754" y="110.478" width="4.51561" height="4.50905" fill="#4F3B2E"/>
<rect x="394.754" y="114.987" width="4.51561" height="4.50905" fill="#4F3B2E"/>
<rect x="399.27" y="114.987" width="4.51561" height="4.50905" fill="#4F3B2E"/>
<rect x="403.785" y="114.987" width="4.51561" height="4.50905" fill="#4F3B2E"/>
<rect x="408.301" y="114.987" width="4.51561" height="4.50905" fill="#4F3B2E"/>
<rect x="412.815" y="114.987" width="4.51561" height="4.50905" fill="#4F3B2E"/>
<rect x="417.332" y="114.987" width="4.51561" height="4.50905" fill="#4F3B2E"/>
<rect x="421.847" y="114.987" width="4.51561" height="4.50905" fill="#4F3B2E"/>
<rect x="426.363" y="114.987" width="4.51561" height="4.50905" fill="#4F3B2E"/>
<rect x="430.878" y="114.987" width="4.51561" height="4.50905" fill="#4F3B2E"/>
<rect x="435.395" y="114.987" width="4.51561" height="4.50905" fill="#4F3B2E"/>
<rect x="439.909" y="114.987" width="4.51561" height="4.50905" fill="#4F3B2E"/>
<rect x="444.426" y="114.987" width="4.51561" height="4.50905" fill="#4F3B2E"/>
<rect x="426.363" y="101.459" width="4.51561" height="4.50905" fill="#4F3B2E"/>
<rect x="444.426" y="101.459" width="4.51561" height="4.50905" fill="#4F3B2E"/>
<rect x="448.94" y="101.459" width="4.51561" height="4.50905" fill="#4F3B2E"/>
<rect x="448.94" y="110.478" width="4.51561" height="4.50905" fill="#4F3B2E"/>
<rect x="394.754" y="83.4217" width="4.51561" height="4.50905" fill="#4F3B2E"/>
<rect x="430.878" y="83.4217" width="4.51561" height="4.50905" fill="#4F3B2E"/>
<rect x="435.395" y="83.4217" width="4.51561" height="4.50905" fill="#4F3B2E"/>
<rect x="421.847" y="42.8376" width="4.51561" height="4.50905" fill="#4F3B2E"/>
<rect x="421.847" y="56.3656" width="4.51561" height="4.50905" fill="#4F3B2E"/>
<rect x="421.847" y="47.347" width="13.5468" height="9.01867" fill="#F2CB7F"/>
<rect x="340.581" y="31.5654" width="4.51561" height="4.50905" fill="#82B726"/>
<rect x="345.097" y="31.5654" width="45.1572" height="4.50905" fill="#82B726"/>
<rect x="390.254" y="31.5654" width="45.1572" height="4.50905" fill="#82B726"/>
<rect x="354.128" y="18.0374" width="67.7359" height="4.50905" fill="#82B726"/>
<rect x="340.581" y="27.056" width="4.51561" height="4.50905" fill="#82B726"/>
<rect x="345.097" y="27.056" width="45.1572" height="4.50905" fill="#82B726"/>
<rect x="390.254" y="27.056" width="33.836" height="4.50905" fill="#82B726"/>
<rect x="354.128" y="13.528" width="65.4464" height="4.50905" fill="#82B726"/>
<rect x="340.581" y="22.5467" width="4.51561" height="4.50905" fill="#82B726"/>
<rect x="345.097" y="22.5467" width="45.1572" height="4.50905" fill="#82B726"/>
<rect x="390.254" y="22.5467" width="36.0937" height="4.50905" fill="#82B726"/>
<rect x="345.097" y="18.0374" width="4.51561" height="4.50905" fill="#82B726"/>
<rect x="354.128" y="9.01871" width="4.51561" height="4.50905" fill="#82B726"/>
<rect x="394.77" y="9.01868" width="4.51561" height="4.50905" fill="#82B726"/>
<rect x="363.159" y="9.01871" width="4.51561" height="4.50905" fill="#82B726"/>
<rect x="403.801" y="9.01871" width="4.51561" height="4.50905" fill="#82B726"/>
<rect x="363.159" y="4.50931" width="4.51561" height="4.50905" fill="#82B726"/>
<rect x="403.801" y="4.50931" width="4.51561" height="4.50905" fill="#82B726"/>
<rect x="408.317" y="4.50931" width="4.51561" height="4.50905" fill="#82B726"/>
<rect x="363.159" y="3.05176e-05" width="4.51561" height="4.50905" fill="#82B726"/>
<rect x="372.19" y="4.50934" width="4.51561" height="4.50905" fill="#82B726"/>
<rect x="372.19" y="9.01868" width="4.51561" height="4.50905" fill="#82B726"/>
<rect x="372.19" width="4.51561" height="4.50905" fill="#82B726"/>
<rect x="381.221" y="9.01871" width="4.51561" height="4.50905" fill="#82B726"/>
<rect x="381.221" y="4.50931" width="4.51561" height="4.50905" fill="#82B726"/>
<rect x="349.612" y="18.0374" width="4.51561" height="4.50905" fill="#82B726"/>
<rect x="358.644" y="9.01868" width="4.51561" height="4.50905" fill="#82B726"/>
<rect x="399.286" y="9.01868" width="4.51561" height="4.50905" fill="#82B726"/>
<rect x="367.675" y="4.50931" width="4.51561" height="4.50905" fill="#82B726"/>
<rect x="358.644" y="4.50934" width="4.51561" height="4.50905" fill="#82B726"/>
<rect x="399.286" y="4.50934" width="4.51561" height="4.50905" fill="#82B726"/>
<rect x="376.706" y="4.50934" width="4.51561" height="4.50905" fill="#82B726"/>
<rect x="367.675" y="9.01871" width="4.51561" height="4.50905" fill="#82B726"/>
<rect x="408.317" y="9.01871" width="4.51561" height="4.50905" fill="#82B726"/>
<rect x="412.833" y="9.01868" width="4.51561" height="4.50905" fill="#82B726"/>
<rect x="412.833" y="4.50934" width="4.51561" height="4.50905" fill="#82B726"/>
<rect x="417.348" y="9.01871" width="4.51561" height="4.50905" fill="#82B726"/>
<rect x="417.348" y="13.528" width="4.51561" height="4.50905" fill="#82B726"/>
<rect x="421.832" y="18.0374" width="4.51561" height="4.50905" fill="#82B726"/>
<rect x="426.348" y="22.5467" width="4.51561" height="4.50905" fill="#82B726"/>
<rect x="424.09" y="27.056" width="6.77328" height="4.50905" fill="#82B726"/>
<rect x="430.864" y="27.0561" width="4.51561" height="4.50905" fill="#82B726"/>
<rect x="367.675" y="3.05176e-05" width="4.51561" height="4.50905" fill="#82B726"/>
<rect x="376.706" y="9.01868" width="4.51561" height="4.50905" fill="#82B726"/>
<rect x="376.706" width="4.51561" height="4.50905" fill="#82B726"/>
<rect x="385.737" y="9.01871" width="4.51561" height="4.50905" fill="#82B726"/>
<rect width="4.51561" height="4.50905" transform="matrix(-1 0 0 1 476.02 31.5654)" fill="#6C9F11"/>
<rect width="45.1572" height="4.50905" transform="matrix(-1 0 0 1 471.505 31.5653)" fill="#6C9F11"/>
<rect width="45.1572" height="4.50905" transform="matrix(-1 0 0 1 426.347 31.5654)" fill="#6C9F11"/>
<rect width="67.7359" height="4.50905" transform="matrix(-1 0 0 1 462.473 18.0374)" fill="#6C9F11"/>
<rect width="4.51561" height="4.50905" transform="matrix(-1 0 0 1 476.02 27.056)" fill="#6C9F11"/>
<rect width="45.1572" height="4.50905" transform="matrix(-1 0 0 1 471.505 27.0561)" fill="#6C9F11"/>
<rect width="33.836" height="4.50905" transform="matrix(-1 0 0 1 426.347 27.056)" fill="#6C9F11"/>
<rect width="65.4464" height="4.50905" transform="matrix(-1 0 0 1 462.473 13.528)" fill="#6C9F11"/>
<rect width="4.51561" height="4.50905" transform="matrix(-1 0 0 1 476.02 22.5467)" fill="#6C9F11"/>
<rect width="45.1572" height="4.50905" transform="matrix(-1 0 0 1 471.505 22.5467)" fill="#6C9F11"/>
<rect width="36.0937" height="4.50905" transform="matrix(-1 0 0 1 426.347 22.5467)" fill="#6C9F11"/>
<rect width="4.51561" height="4.50905" transform="matrix(-1 0 0 1 471.505 18.0374)" fill="#6C9F11"/>
<rect width="4.51561" height="4.50905" transform="matrix(-1 0 0 1 462.473 9.01868)" fill="#6C9F11"/>
<rect width="4.51561" height="4.50905" transform="matrix(-1 0 0 1 421.831 9.01868)" fill="#6C9F11"/>
<rect width="4.51561" height="4.50905" transform="matrix(-1 0 0 1 453.442 9.01871)" fill="#6C9F11"/>
<rect width="4.51561" height="4.50905" transform="matrix(-1 0 0 1 412.799 9.01871)" fill="#6C9F11"/>
<rect width="4.51561" height="4.50905" transform="matrix(-1 0 0 1 453.442 4.50931)" fill="#6C9F11"/>
<rect width="4.51561" height="4.50905" transform="matrix(-1 0 0 1 412.799 4.50931)" fill="#6C9F11"/>
<rect width="4.51561" height="4.50905" transform="matrix(-1 0 0 1 408.284 4.50934)" fill="#6C9F11"/>
<rect width="4.51561" height="4.50905" transform="matrix(-1 0 0 1 453.442 3.05176e-05)" fill="#6C9F11"/>
<rect width="4.51561" height="4.50905" transform="matrix(-1 0 0 1 444.411 4.50934)" fill="#6C9F11"/>
<rect width="4.51561" height="4.50905" transform="matrix(-1 0 0 1 444.411 9.01868)" fill="#6C9F11"/>
<rect width="4.51561" height="4.50905" transform="matrix(-1 0 0 1 444.411 0)" fill="#6C9F11"/>
<rect width="4.51561" height="4.50905" transform="matrix(-1 0 0 1 435.38 9.01871)" fill="#6C9F11"/>
<rect width="4.51561" height="4.50905" transform="matrix(-1 0 0 1 435.38 4.50931)" fill="#6C9F11"/>
<rect width="4.51561" height="4.50905" transform="matrix(-1 0 0 1 466.988 18.0374)" fill="#6C9F11"/>
<rect width="4.51561" height="4.50905" transform="matrix(-1 0 0 1 457.958 9.01868)" fill="#6C9F11"/>
<rect width="4.51561" height="4.50905" transform="matrix(-1 0 0 1 417.315 9.01871)" fill="#6C9F11"/>
<rect width="4.51561" height="4.50905" transform="matrix(-1 0 0 1 448.926 4.50931)" fill="#6C9F11"/>
<rect width="4.51561" height="4.50905" transform="matrix(-1 0 0 1 457.958 4.50934)" fill="#6C9F11"/>
<rect width="4.51561" height="4.50905" transform="matrix(-1 0 0 1 417.315 4.50931)" fill="#6C9F11"/>
<rect width="4.51561" height="4.50905" transform="matrix(-1 0 0 1 439.895 4.50934)" fill="#6C9F11"/>
<rect width="4.51561" height="4.50905" transform="matrix(-1 0 0 1 448.926 9.01871)" fill="#6C9F11"/>
<rect width="4.51561" height="4.50905" transform="matrix(-1 0 0 1 408.284 9.01868)" fill="#6C9F11"/>
<rect width="4.51561" height="4.50905" transform="matrix(-1 0 0 1 403.769 9.01868)" fill="#6C9F11"/>
<rect width="4.51561" height="4.50905" transform="matrix(-1 0 0 1 403.769 4.50934)" fill="#6C9F11"/>
<rect width="4.51561" height="4.50905" transform="matrix(-1 0 0 1 399.253 9.01871)" fill="#6C9F11"/>
<rect width="4.51561" height="4.50905" transform="matrix(-1 0 0 1 399.253 13.528)" fill="#6C9F11"/>
<rect width="4.51561" height="4.50905" transform="matrix(-1 0 0 1 394.769 18.0374)" fill="#6C9F11"/>
<rect width="4.51561" height="4.50905" transform="matrix(-1 0 0 1 390.253 22.5467)" fill="#6C9F11"/>
<rect width="6.77328" height="4.50905" transform="matrix(-1 0 0 1 392.511 27.056)" fill="#6C9F11"/>
<rect width="4.51561" height="4.50905" transform="matrix(-1 0 0 1 385.737 27.0561)" fill="#6C9F11"/>
<rect width="4.51561" height="4.50905" transform="matrix(-1 0 0 1 448.926 3.05176e-05)" fill="#6C9F11"/>
<rect width="4.51561" height="4.50905" transform="matrix(-1 0 0 1 439.895 9.01868)" fill="#6C9F11"/>
<rect width="4.51561" height="4.50905" transform="matrix(-1 0 0 1 439.895 0)" fill="#6C9F11"/>
<rect width="4.51561" height="4.50905" transform="matrix(-1 0 0 1 430.864 9.01871)" fill="#6C9F11"/>
</svg>
