<svg width="1400" height="185" viewBox="0 0 1400 185" fill="none" xmlns="http://www.w3.org/2000/svg">
<rect width="4.51561" height="4.50905" transform="matrix(-1 0 0 1 664.168 31.5654)" fill="#6C9F11"/>
<rect width="45.1572" height="4.50905" transform="matrix(-1 0 0 1 659.653 31.5653)" fill="#6C9F11"/>
<rect width="45.1572" height="4.50905" transform="matrix(-1 0 0 1 614.495 31.5653)" fill="#6C9F11"/>
<rect width="67.7359" height="4.50905" transform="matrix(-1 0 0 1 650.622 18.0373)" fill="#6C9F11"/>
<rect width="4.51561" height="4.50905" transform="matrix(-1 0 0 1 664.168 27.056)" fill="#6C9F11"/>
<rect width="45.1572" height="4.50905" transform="matrix(-1 0 0 1 659.653 27.0561)" fill="#6C9F11"/>
<rect width="33.836" height="4.50905" transform="matrix(-1 0 0 1 614.495 27.0561)" fill="#6C9F11"/>
<rect width="65.4464" height="4.50905" transform="matrix(-1 0 0 1 650.622 13.528)" fill="#6C9F11"/>
<rect width="4.51561" height="4.50905" transform="matrix(-1 0 0 1 664.168 22.5467)" fill="#6C9F11"/>
<rect width="45.1572" height="4.50905" transform="matrix(-1 0 0 1 659.653 22.5467)" fill="#6C9F11"/>
<rect width="36.0937" height="4.50905" transform="matrix(-1 0 0 1 614.495 22.5467)" fill="#6C9F11"/>
<rect width="4.51561" height="4.50905" transform="matrix(-1 0 0 1 659.653 18.0374)" fill="#6C9F11"/>
<rect width="4.51561" height="4.50905" transform="matrix(-1 0 0 1 650.622 9.01868)" fill="#6C9F11"/>
<rect width="4.51561" height="4.50905" transform="matrix(-1 0 0 1 609.979 9.01868)" fill="#6C9F11"/>
<rect width="4.51561" height="4.50905" transform="matrix(-1 0 0 1 641.591 9.0187)" fill="#6C9F11"/>
<rect width="4.51561" height="4.50905" transform="matrix(-1 0 0 1 600.948 9.0187)" fill="#6C9F11"/>
<rect width="4.51561" height="4.50905" transform="matrix(-1 0 0 1 641.591 4.5093)" fill="#6C9F11"/>
<rect width="4.51561" height="4.50905" transform="matrix(-1 0 0 1 600.948 4.5093)" fill="#6C9F11"/>
<rect width="4.51561" height="4.50905" transform="matrix(-1 0 0 1 596.433 4.50934)" fill="#6C9F11"/>
<rect width="4.51561" height="4.50905" transform="matrix(-1 0 0 1 641.591 2.31796e-05)" fill="#6C9F11"/>
<rect width="4.51561" height="4.50905" transform="matrix(-1 0 0 1 632.559 4.50934)" fill="#6C9F11"/>
<rect width="4.51561" height="4.50905" transform="matrix(-1 0 0 1 632.559 9.01868)" fill="#6C9F11"/>
<rect width="4.51561" height="4.50905" transform="matrix(-1 0 0 1 632.559 0)" fill="#6C9F11"/>
<rect width="4.51561" height="4.50905" transform="matrix(-1 0 0 1 623.527 9.0187)" fill="#6C9F11"/>
<rect width="4.51561" height="4.50905" transform="matrix(-1 0 0 1 623.527 4.5093)" fill="#6C9F11"/>
<rect width="4.51561" height="4.50905" transform="matrix(-1 0 0 1 655.137 18.0374)" fill="#6C9F11"/>
<rect width="4.51561" height="4.50905" transform="matrix(-1 0 0 1 646.106 9.01868)" fill="#6C9F11"/>
<rect width="4.51561" height="4.50905" transform="matrix(-1 0 0 1 605.464 9.0187)" fill="#6C9F11"/>
<rect width="4.51561" height="4.50905" transform="matrix(-1 0 0 1 637.075 4.5093)" fill="#6C9F11"/>
<rect width="4.51561" height="4.50905" transform="matrix(-1 0 0 1 646.106 4.50934)" fill="#6C9F11"/>
<rect width="4.51561" height="4.50905" transform="matrix(-1 0 0 1 605.464 4.5093)" fill="#6C9F11"/>
<rect width="4.51561" height="4.50905" transform="matrix(-1 0 0 1 628.044 4.5093)" fill="#6C9F11"/>
<rect width="4.51561" height="4.50905" transform="matrix(-1 0 0 1 637.075 9.0187)" fill="#6C9F11"/>
<rect width="4.51561" height="4.50905" transform="matrix(-1 0 0 1 596.433 9.01868)" fill="#6C9F11"/>
<rect width="4.51561" height="4.50905" transform="matrix(-1 0 0 1 591.917 9.01868)" fill="#6C9F11"/>
<rect width="4.51561" height="4.50905" transform="matrix(-1 0 0 1 591.917 4.50934)" fill="#6C9F11"/>
<rect width="4.51561" height="4.50905" transform="matrix(-1 0 0 1 587.402 9.0187)" fill="#6C9F11"/>
<rect width="4.51561" height="4.50905" transform="matrix(-1 0 0 1 587.402 13.528)" fill="#6C9F11"/>
<rect width="4.51561" height="4.50905" transform="matrix(-1 0 0 1 582.917 18.0373)" fill="#6C9F11"/>
<rect width="4.51561" height="4.50905" transform="matrix(-1 0 0 1 578.401 22.5467)" fill="#6C9F11"/>
<rect width="6.77328" height="4.50905" transform="matrix(-1 0 0 1 580.66 27.056)" fill="#6C9F11"/>
<rect width="4.51561" height="4.50905" transform="matrix(-1 0 0 1 573.886 27.0561)" fill="#6C9F11"/>
<rect width="4.51561" height="4.50905" transform="matrix(-1 0 0 1 637.075 2.31796e-05)" fill="#6C9F11"/>
<rect width="4.51561" height="4.50905" transform="matrix(-1 0 0 1 628.044 9.0187)" fill="#6C9F11"/>
<rect width="4.51561" height="4.50905" transform="matrix(-1 0 0 1 628.044 2.31796e-05)" fill="#6C9F11"/>
<rect width="4.51561" height="4.50905" transform="matrix(-1 0 0 1 619.012 9.01868)" fill="#6C9F11"/>
<rect y="36" width="1400" height="149" fill="#A8CD53"/>
<rect x="641.559" y="4.5093" width="4.51561" height="4.50905" fill="#4F3B2E"/>
<rect x="614.466" y="4.50934" width="4.51561" height="4.50905" fill="#4F3B2E"/>
<rect x="637.044" y="4.50934" width="4.51561" height="4.50905" fill="#4F3B2E"/>
<rect x="609.951" y="4.5093" width="4.51561" height="4.50905" fill="#4F3B2E"/>
<rect x="632.529" y="4.50934" width="4.51561" height="4.50905" fill="#4F3B2E"/>
<rect x="596.404" y="72.1488" width="36.1249" height="4.50905" fill="#F2CB7F"/>
<rect x="605.435" y="4.5093" width="4.51561" height="4.50905" fill="#4F3B2E"/>
<rect x="628.013" y="9.0187" width="4.51561" height="4.50905" fill="#4F3B2E"/>
<rect x="600.919" y="9.01868" width="4.51561" height="4.50905" fill="#4F3B2E"/>
<rect x="618.982" y="9.01868" width="4.51561" height="4.50905" fill="#4F3B2E"/>
<rect x="596.404" y="13.528" width="4.51561" height="4.50905" fill="#4F3B2E"/>
<rect x="646.076" y="13.528" width="4.51561" height="4.50905" fill="#4F3B2E"/>
<rect x="646.076" y="9.0187" width="4.51561" height="4.50905" fill="#4F3B2E"/>
<rect x="632.529" y="9.01868" width="13.5468" height="4.50905" fill="#F2CB7F"/>
<rect x="628.013" y="13.528" width="18.0625" height="4.50905" fill="#F2CB7F"/>
<rect x="600.919" y="18.0373" width="45.1562" height="4.50905" fill="#F2CB7F"/>
<rect x="600.919" y="22.5467" width="45.1562" height="4.50905" fill="#F2CB7F"/>
<rect x="600.919" y="27.056" width="45.1562" height="4.50905" fill="#F2CB7F"/>
<rect x="600.919" y="13.528" width="18.0625" height="4.50905" fill="#F2CB7F"/>
<rect x="605.435" y="9.0187" width="13.5468" height="4.50905" fill="#F2CB7F"/>
<rect x="596.404" y="22.5467" width="4.51561" height="4.50905" fill="#4F3B2E"/>
<rect x="646.076" y="22.5467" width="4.51561" height="4.50905" fill="#4F3B2E"/>
<rect x="596.404" y="31.5654" width="4.51561" height="4.50905" fill="#4F3B2E"/>
<rect x="600.919" y="40.584" width="4.51561" height="4.50905" fill="#4F3B2E"/>
<rect x="646.076" y="31.5653" width="4.51561" height="4.50905" fill="#4F3B2E"/>
<rect x="623.497" y="13.528" width="4.51561" height="4.50905" fill="#4F3B2E"/>
<rect x="618.982" y="13.528" width="4.51561" height="4.50905" fill="#4F3B2E"/>
<rect x="596.404" y="18.0373" width="4.51561" height="4.50905" fill="#4F3B2E"/>
<rect x="646.076" y="18.0374" width="4.51561" height="4.50905" fill="#4F3B2E"/>
<rect x="596.404" y="27.056" width="4.51561" height="4.50905" fill="#4F3B2E"/>
<rect x="646.076" y="27.0561" width="4.51561" height="4.50905" fill="#4F3B2E"/>
<rect x="596.404" y="36.0747" width="4.51561" height="4.50905" fill="#4F3B2E"/>
<rect x="600.919" y="45.0934" width="4.51561" height="4.50905" fill="#4F3B2E"/>
<rect x="605.435" y="45.0934" width="4.51561" height="4.50905" fill="#4F3B2E"/>
<rect x="596.404" y="45.0934" width="4.51561" height="4.50905" fill="#4F3B2E"/>
<rect x="591.889" y="49.6027" width="4.51561" height="4.50905" fill="#4F3B2E"/>
<rect x="573.825" y="67.6412" width="4.51561" height="4.50905" fill="#4F3B2E"/>
<rect x="578.341" y="58.6209" width="4.51561" height="4.50905" fill="#4F3B2E"/>
<rect x="573.825" y="58.6208" width="4.51561" height="9.01867" fill="#F2CB7F"/>
<rect x="578.341" y="63.1325" width="4.51561" height="9.01867" fill="#F2CB7F"/>
<rect x="582.857" y="63.1302" width="4.51561" height="4.50905" fill="#4F3B2E"/>
<rect x="582.857" y="58.622" width="4.51561" height="4.50905" fill="white"/>
<rect x="582.857" y="67.6418" width="4.51561" height="4.50905" fill="#F2CB7F"/>
<rect x="573.825" y="54.1126" width="9.03094" height="4.50905" fill="white"/>
<rect x="646.076" y="36.0747" width="4.51561" height="4.50905" fill="#4F3B2E"/>
<rect x="637.044" y="13.528" width="4.51561" height="4.50905" fill="white"/>
<rect x="609.951" y="13.528" width="4.51561" height="4.50905" fill="white"/>
<rect x="632.529" y="22.5467" width="4.51561" height="4.50905" fill="white"/>
<rect x="632.529" y="27.056" width="4.51561" height="4.50905" fill="#4F3B2E"/>
<rect x="641.559" y="40.584" width="4.51561" height="4.50905" fill="#4F3B2E"/>
<rect x="632.529" y="31.5654" width="4.51561" height="4.50905" fill="#F2CB7F"/>
<rect x="609.951" y="31.5653" width="4.51561" height="4.50905" fill="#F2CB7F"/>
<rect x="637.044" y="31.5654" width="4.51561" height="4.50905" fill="#F2CB7F"/>
<rect x="614.466" y="31.5654" width="4.51561" height="4.50905" fill="#F2CB7F"/>
<rect x="628.013" y="31.5653" width="4.51561" height="4.50905" fill="#4F3B2E"/>
<rect x="637.044" y="45.0934" width="4.51561" height="4.50905" fill="#4F3B2E"/>
<rect x="632.529" y="49.6027" width="4.51561" height="4.50905" fill="#4F3B2E"/>
<rect x="632.529" y="54.112" width="4.51561" height="4.50905" fill="#4F3B2E"/>
<rect x="632.529" y="58.6214" width="4.51561" height="4.50905" fill="#4F3B2E"/>
<rect x="632.529" y="63.1307" width="4.51561" height="4.50905" fill="#4F3B2E"/>
<rect x="632.529" y="67.6401" width="4.51561" height="4.50905" fill="#4F3B2E"/>
<rect x="632.529" y="72.1494" width="4.51561" height="4.50905" fill="white"/>
<rect x="618.982" y="72.1494" width="4.51561" height="4.50905" fill="white"/>
<rect x="632.529" y="76.6587" width="4.51561" height="4.50905" fill="#4F3B2E"/>
<rect x="618.982" y="76.6587" width="4.51561" height="4.50905" fill="#4F3B2E"/>
<rect x="605.435" y="76.6587" width="4.51561" height="4.50905" fill="#4F3B2E"/>
<rect x="591.889" y="76.6587" width="4.51561" height="4.50905" fill="#4F3B2E"/>
<rect x="637.044" y="76.6582" width="4.50905" height="4.51561" transform="rotate(-90 637.044 76.6582)" fill="#4F3B2E"/>
<rect x="628.013" y="72.1494" width="4.51561" height="4.50905" fill="white"/>
<rect x="614.466" y="72.1494" width="4.51561" height="4.50905" fill="white"/>
<rect x="600.919" y="72.1494" width="4.51561" height="4.50905" fill="white"/>
<rect x="628.013" y="76.6587" width="4.51561" height="4.50905" fill="#4F3B2E"/>
<rect x="614.466" y="76.6587" width="4.51561" height="4.50905" fill="#4F3B2E"/>
<rect x="600.919" y="76.6587" width="4.51561" height="4.50905" fill="#4F3B2E"/>
<rect x="587.372" y="76.6587" width="4.51561" height="4.50905" fill="#4F3B2E"/>
<rect x="637.044" y="81.1669" width="4.50905" height="4.51561" transform="rotate(-90 637.044 81.1669)" fill="#4F3B2E"/>
<rect x="623.497" y="81.1669" width="4.50905" height="4.51561" transform="rotate(-90 623.497 81.1669)" fill="#4F3B2E"/>
<rect x="609.951" y="81.1669" width="4.50905" height="4.51561" transform="rotate(-90 609.951 81.1669)" fill="#4F3B2E"/>
<rect x="596.404" y="81.1669" width="4.50905" height="4.51561" transform="rotate(-90 596.404 81.1669)" fill="#4F3B2E"/>
<rect x="623.497" y="31.5653" width="4.51561" height="4.50905" fill="#4F3B2E"/>
<rect x="618.982" y="31.5654" width="4.51561" height="4.50905" fill="white"/>
<rect x="641.559" y="31.5653" width="4.51561" height="4.50905" fill="white"/>
<rect x="605.435" y="31.5653" width="4.51561" height="4.50905" fill="white"/>
<rect x="605.435" y="36.0747" width="40.6405" height="4.50905" fill="white"/>
<rect x="596.404" y="49.6027" width="36.1249" height="4.50905" fill="#F2CB7F"/>
<rect x="596.404" y="54.112" width="36.1249" height="4.50905" fill="#F2CB7F"/>
<rect x="591.889" y="54.1121" width="4.51561" height="22.5467" fill="#F2CB7F"/>
<rect x="587.372" y="54.1121" width="4.51561" height="22.5467" fill="#4F3B2E"/>
<rect width="4.51561" height="9.01831" transform="matrix(1 0 0 -1 582.857 58.6208)" fill="#4F3B2E"/>
<rect width="4.51561" height="13.5276" transform="matrix(1 0 0 -1 569.31 67.6401)" fill="#4F3B2E"/>
<rect width="4.50905" height="9.03144" transform="matrix(-1.19422e-08 -1 -1 1.19075e-08 582.857 54.1115)" fill="#4F3B2E"/>
<rect width="4.50905" height="9.03144" transform="matrix(-1.19422e-08 -1 -1 1.19075e-08 587.372 76.6593)" fill="#4F3B2E"/>
<rect x="605.435" y="40.584" width="36.1249" height="4.50905" fill="white"/>
<rect x="614.466" y="45.0934" width="22.5781" height="4.50905" fill="white"/>
<rect x="596.404" y="58.6214" width="36.1249" height="4.50905" fill="#F2CB7F"/>
<rect x="596.404" y="63.1307" width="36.1249" height="4.50905" fill="#F2CB7F"/>
<rect x="596.404" y="67.6401" width="36.1249" height="4.50905" fill="#F2CB7F"/>
<rect x="600.919" y="31.5654" width="4.51561" height="4.50905" fill="#F2CB7F"/>
<rect x="600.919" y="36.0747" width="4.51561" height="4.50905" fill="#F2CB7F"/>
<rect x="614.466" y="22.5467" width="4.51561" height="4.50905" fill="white"/>
<rect x="614.466" y="27.056" width="4.51561" height="4.50905" fill="#4F3B2E"/>
<rect x="623.497" y="40.584" width="4.51561" height="4.50905" fill="#4F3B2E"/>
<rect x="623.497" y="49.6027" width="4.51561" height="4.50905" fill="white"/>
<rect x="623.497" y="54.1121" width="4.51561" height="4.50905" fill="white"/>
<rect x="623.497" y="58.6214" width="4.51561" height="4.50905" fill="white"/>
<rect x="609.951" y="45.0934" width="4.51561" height="4.50905" fill="#F2CB7F"/>
<rect width="4.51561" height="4.50905" transform="matrix(-1 0 0 1 667.214 78.9134)" fill="#4F3B2E"/>
<rect width="4.51561" height="4.50905" transform="matrix(-1 0 0 1 667.214 83.4226)" fill="#4F3B2E"/>
<rect width="4.51561" height="4.50905" transform="matrix(-1 0 0 1 680.762 83.4227)" fill="#4F3B2E"/>
<rect width="4.51561" height="4.50905" transform="matrix(-1 0 0 1 667.214 87.932)" fill="#4F3B2E"/>
<rect width="4.51561" height="4.50905" transform="matrix(-1 0 0 1 680.762 87.932)" fill="#4F3B2E"/>
<rect width="4.51561" height="4.50905" transform="matrix(-1 0 0 1 671.731 78.9134)" fill="#4F3B2E"/>
<rect width="4.51561" height="4.50905" transform="matrix(-1 0 0 1 671.731 92.4413)" fill="#4F3B2E"/>
<rect width="4.51561" height="4.50905" transform="matrix(-1 0 0 1 689.793 87.932)" fill="#4F3B2E"/>
<rect width="4.51561" height="4.50905" transform="matrix(-1 0 0 1 685.277 87.932)" fill="#4F3B2E"/>
<rect width="4.51561" height="4.50905" transform="matrix(-1 0 0 1 676.246 78.9133)" fill="#4F3B2E"/>
<rect width="4.51561" height="4.50905" transform="matrix(-1 0 0 1 676.246 92.4414)" fill="#4F3B2E"/>
<rect width="4.51561" height="4.50905" transform="matrix(-1 0 0 1 694.308 87.932)" fill="#4F3B2E"/>
<rect width="9.03123" height="9.01867" transform="matrix(-1 0 0 1 676.246 83.4227)" fill="#F2CB7F"/>
<rect x="707.855" y="83.4227" width="4.51561" height="4.50905" fill="#4F3B2E"/>
<rect x="694.308" y="83.4227" width="4.51561" height="4.50905" fill="#4F3B2E"/>
<rect x="707.855" y="87.932" width="4.51561" height="4.50905" fill="#4F3B2E"/>
<rect x="694.308" y="87.932" width="4.51561" height="4.50905" fill="#4F3B2E"/>
<rect x="689.793" y="92.4413" width="4.51561" height="4.50905" fill="#F2CB7F"/>
<rect x="689.793" y="96.9507" width="4.51561" height="4.50905" fill="#F2CB7F"/>
<rect x="689.793" y="101.46" width="4.51561" height="4.50905" fill="#F2CB7F"/>
<rect x="698.824" y="96.9507" width="4.51561" height="4.50905" fill="#F2CB7F"/>
<rect x="698.824" y="105.969" width="4.51561" height="4.50905" fill="#F2CB7F"/>
<rect x="698.824" y="110.479" width="4.51561" height="4.50905" fill="white"/>
<rect x="698.824" y="114.988" width="4.51561" height="4.50905" fill="white"/>
<rect x="698.824" y="101.46" width="4.51561" height="4.50905" fill="#F2CB7F"/>
<rect x="694.308" y="92.4414" width="4.51561" height="4.50905" fill="#F2CB7F"/>
<rect x="694.308" y="96.9507" width="4.51561" height="4.50905" fill="#F2CB7F"/>
<rect x="694.308" y="105.969" width="4.51561" height="4.50905" fill="#F2CB7F"/>
<rect x="694.308" y="110.479" width="4.51561" height="4.50905" fill="white"/>
<rect x="694.308" y="114.988" width="4.51561" height="4.50905" fill="white"/>
<rect x="694.308" y="119.497" width="4.51561" height="4.50905" fill="white"/>
<rect x="698.824" y="119.497" width="4.51561" height="4.50905" fill="#F2CB7F"/>
<rect x="694.308" y="101.46" width="4.51561" height="4.50905" fill="#4F3B2E"/>
<rect x="685.277" y="105.969" width="4.51561" height="4.50905" fill="#4F3B2E"/>
<rect x="685.277" y="110.479" width="4.51561" height="4.50905" fill="white"/>
<rect x="685.277" y="114.988" width="4.51561" height="4.50905" fill="white"/>
<rect x="685.277" y="119.497" width="4.51561" height="4.50905" fill="white"/>
<rect x="680.762" y="105.969" width="4.51561" height="4.50905" fill="#4F3B2E"/>
<rect x="680.762" y="110.479" width="4.51561" height="4.50905" fill="white"/>
<rect x="680.762" y="114.988" width="4.51561" height="4.50905" fill="white"/>
<rect x="680.762" y="119.497" width="4.51561" height="4.50905" fill="white"/>
<rect x="685.277" y="114.988" width="4.51561" height="4.50905" fill="#4F3B2E"/>
<rect x="703.34" y="96.9507" width="4.51561" height="4.50905" fill="#F2CB7F"/>
<rect x="703.34" y="105.969" width="4.51561" height="4.50905" fill="#F2CB7F"/>
<rect x="703.34" y="110.479" width="4.51561" height="4.50905" fill="#F2CB7F"/>
<rect x="703.34" y="114.988" width="4.51561" height="4.50905" fill="#F2CB7F"/>
<rect x="703.34" y="101.46" width="4.51561" height="4.50905" fill="#F2CB7F"/>
<rect width="4.51561" height="4.50905" transform="matrix(-1 0 0 1 685.277 92.4413)" fill="#F2CB7F"/>
<rect width="4.51561" height="4.50905" transform="matrix(-1 0 0 1 689.793 92.4413)" fill="#F2CB7F"/>
<rect width="4.51561" height="4.50905" transform="matrix(-1 0 0 1 685.277 96.9507)" fill="#F2CB7F"/>
<rect width="4.51561" height="4.50905" transform="matrix(-1 0 0 1 689.793 96.9507)" fill="#F2CB7F"/>
<rect width="4.51561" height="4.50905" transform="matrix(-1 0 0 1 685.277 101.46)" fill="#F2CB7F"/>
<rect width="4.51561" height="4.50905" transform="matrix(-1 0 0 1 689.793 101.46)" fill="#F2CB7F"/>
<rect width="4.51561" height="4.50905" transform="matrix(-1 0 0 1 676.246 96.9507)" fill="#F2CB7F"/>
<rect width="4.51561" height="4.50905" transform="matrix(-1 0 0 1 676.246 105.969)" fill="#F2CB7F"/>
<rect width="4.51561" height="4.50905" transform="matrix(-1 0 0 1 676.246 110.479)" fill="white"/>
<rect width="4.51561" height="4.50905" transform="matrix(-1 0 0 1 676.246 114.988)" fill="white"/>
<rect width="4.51561" height="4.50905" transform="matrix(-1 0 0 1 676.246 101.46)" fill="#F2CB7F"/>
<rect width="4.51561" height="4.50905" transform="matrix(-1 0 0 1 680.762 92.4414)" fill="#F2CB7F"/>
<rect width="4.51561" height="4.50905" transform="matrix(-1 0 0 1 680.762 96.9507)" fill="#F2CB7F"/>
<rect width="4.51561" height="4.50905" transform="matrix(-1 0 0 1 680.762 105.969)" fill="white"/>
<rect width="4.51561" height="4.50905" transform="matrix(-1 0 0 1 680.762 110.479)" fill="white"/>
<rect width="4.51561" height="4.50905" transform="matrix(-1 0 0 1 680.762 114.988)" fill="white"/>
<rect width="4.51561" height="4.50905" transform="matrix(-1 0 0 1 680.762 119.497)" fill="white"/>
<rect width="4.51561" height="4.50905" transform="matrix(-1 0 0 1 694.308 105.969)" fill="white"/>
<rect width="4.51561" height="4.50905" transform="matrix(-1 0 0 1 694.308 110.479)" fill="white"/>
<rect width="4.51561" height="4.50905" transform="matrix(-1 0 0 1 694.308 114.988)" fill="white"/>
<rect width="4.51561" height="4.50905" transform="matrix(-1 0 0 1 694.308 119.497)" fill="white"/>
<rect width="22.5778" height="4.50905" transform="matrix(-1 0 0 1 703.339 133.025)" fill="#F2CB7F"/>
<rect width="22.5778" height="4.50905" transform="matrix(-1 0 0 1 703.339 128.516)" fill="#F2CB7F"/>
<rect width="22.5778" height="4.50905" transform="matrix(-1 0 0 1 703.339 124.007)" fill="#F2CB7F"/>
<rect width="4.51561" height="4.50905" transform="matrix(-1 0 0 1 685.277 137.535)" fill="#F2CB7F"/>
<rect width="4.51561" height="4.50905" transform="matrix(-1 0 0 1 689.793 137.535)" fill="#F2CB7F"/>
<rect width="13.5466" height="4.50905" transform="matrix(-1 0 0 1 703.339 137.535)" fill="#F2CB7F"/>
<rect width="4.51561" height="4.50905" transform="matrix(-1 0 0 1 712.371 137.535)" fill="#F2CB7F"/>
<rect width="4.51561" height="4.50905" transform="matrix(-1 0 0 1 712.371 133.025)" fill="#F2CB7F"/>
<rect width="4.51561" height="4.50905" transform="matrix(-1 0 0 1 712.371 128.516)" fill="#F2CB7F"/>
<rect width="4.51561" height="4.50905" transform="matrix(-1 0 0 1 712.371 124.007)" fill="#F2CB7F"/>
<rect width="4.51561" height="4.50905" transform="matrix(-1 0 0 1 716.886 137.535)" fill="#F2CB7F"/>
<rect width="4.51561" height="4.50905" transform="matrix(-1 0 0 1 716.886 133.025)" fill="#F2CB7F"/>
<rect width="4.51561" height="4.50905" transform="matrix(-1 0 0 1 716.886 128.516)" fill="#F2CB7F"/>
<rect width="4.51561" height="4.50905" transform="matrix(-1 0 0 1 716.886 124.007)" fill="#F2CB7F"/>
<rect width="4.51561" height="4.50905" transform="matrix(-1 0 0 1 721.402 137.535)" fill="#F2CB7F"/>
<rect width="4.51561" height="4.50905" transform="matrix(-1 0 0 1 721.402 133.025)" fill="#F2CB7F"/>
<rect width="4.51561" height="4.50905" transform="matrix(-1 0 0 1 721.402 128.516)" fill="#F2CB7F"/>
<rect width="4.51561" height="4.50905" transform="matrix(-1 0 0 1 685.277 142.044)" fill="#F2CB7F"/>
<rect width="4.51561" height="4.50905" transform="matrix(-1 0 0 1 689.793 142.044)" fill="#F2CB7F"/>
<rect width="18.0625" height="4.50905" transform="matrix(-1 0 0 1 707.854 142.044)" fill="#F2CB7F"/>
<rect width="18.0625" height="4.50905" transform="matrix(-1 0 0 1 707.854 146.553)" fill="#F2CB7F"/>
<rect width="4.51561" height="4.50905" transform="matrix(-1 0 0 1 712.371 142.044)" fill="#F2CB7F"/>
<rect width="4.51561" height="4.50905" transform="matrix(-1 0 0 1 716.886 142.044)" fill="#F2CB7F"/>
<rect width="4.51561" height="4.50905" transform="matrix(-1 0 0 1 721.402 142.044)" fill="#F2CB7F"/>
<rect width="4.51561" height="4.50905" transform="matrix(-1 0 0 1 685.277 146.553)" fill="white"/>
<rect width="4.51561" height="4.50905" transform="matrix(-1 0 0 1 689.793 146.553)" fill="#F2CB7F"/>
<rect width="4.51561" height="4.50905" transform="matrix(-1 0 0 1 680.762 101.46)" fill="#4F3B2E"/>
<rect width="4.51561" height="4.50905" transform="matrix(-1 0 0 1 671.731 96.9507)" fill="#F2CB7F"/>
<rect width="4.51561" height="4.50905" transform="matrix(-1 0 0 1 671.731 105.969)" fill="#F2CB7F"/>
<rect width="4.51561" height="4.50905" transform="matrix(-1 0 0 1 671.731 101.46)" fill="#F2CB7F"/>
<rect x="703.34" y="78.9134" width="4.51561" height="4.50905" fill="#4F3B2E"/>
<rect x="703.34" y="92.4413" width="4.51561" height="4.50905" fill="#4F3B2E"/>
<rect x="707.855" y="92.4414" width="4.51561" height="4.50905" fill="#4F3B2E"/>
<rect x="707.855" y="101.46" width="4.51561" height="4.50905" fill="#4F3B2E"/>
<rect x="667.214" y="101.46" width="4.51561" height="4.50905" fill="#4F3B2E"/>
<rect x="676.246" y="124.007" width="4.51561" height="4.50905" fill="#4F3B2E"/>
<rect x="703.34" y="119.497" width="4.51561" height="4.50905" fill="#4F3B2E"/>
<rect x="707.855" y="110.479" width="4.51561" height="4.50905" fill="#4F3B2E"/>
<rect x="667.214" y="110.479" width="4.51561" height="4.50905" fill="#4F3B2E"/>
<rect x="676.246" y="133.025" width="4.51561" height="4.50905" fill="#4F3B2E"/>
<rect x="703.34" y="128.516" width="4.51561" height="4.50905" fill="#4F3B2E"/>
<rect x="721.402" y="128.516" width="4.51561" height="4.50905" fill="#4F3B2E"/>
<rect x="730.433" y="128.516" width="4.51561" height="4.50905" fill="#4F3B2E"/>
<rect x="739.465" y="128.516" width="4.51561" height="4.50905" fill="#4F3B2E"/>
<rect x="716.886" y="124.007" width="4.51561" height="4.50905" fill="#4F3B2E"/>
<rect x="730.433" y="124.007" width="4.51561" height="4.50905" fill="#4F3B2E"/>
<rect x="734.949" y="124.007" width="4.51561" height="4.50905" fill="#4F3B2E"/>
<rect x="707.855" y="96.9507" width="4.51561" height="4.50905" fill="#4F3B2E"/>
<rect x="667.214" y="96.9507" width="4.51561" height="4.50905" fill="#4F3B2E"/>
<rect x="707.855" y="105.969" width="4.51561" height="4.50905" fill="#4F3B2E"/>
<rect x="667.214" y="105.969" width="4.51561" height="4.50905" fill="#4F3B2E"/>
<rect x="676.246" y="128.516" width="4.51561" height="4.50905" fill="#4F3B2E"/>
<rect x="703.34" y="124.007" width="4.51561" height="4.50905" fill="#4F3B2E"/>
<rect x="707.855" y="114.988" width="4.51561" height="4.50905" fill="#4F3B2E"/>
<rect x="667.214" y="114.988" width="4.51561" height="4.50905" fill="#4F3B2E"/>
<rect x="676.246" y="137.535" width="4.51561" height="4.50905" fill="#4F3B2E"/>
<rect x="703.34" y="133.025" width="4.51561" height="4.50905" fill="#4F3B2E"/>
<rect x="721.402" y="133.025" width="4.51561" height="4.50905" fill="#4F3B2E"/>
<rect x="730.433" y="133.025" width="4.51561" height="4.50905" fill="#4F3B2E"/>
<rect x="739.465" y="133.025" width="4.51561" height="4.50905" fill="#4F3B2E"/>
<rect x="739.465" y="137.535" width="4.51561" height="4.50905" fill="#4F3B2E"/>
<rect x="730.433" y="146.553" width="4.51561" height="4.50905" fill="#4F3B2E"/>
<rect x="734.949" y="142.044" width="4.51561" height="4.50905" fill="#4F3B2E"/>
<rect x="676.246" y="142.044" width="4.51561" height="4.50905" fill="#4F3B2E"/>
<rect x="671.731" y="146.553" width="4.51561" height="4.50905" fill="#4F3B2E"/>
<rect x="671.731" y="151.063" width="4.51561" height="4.50905" fill="#4F3B2E"/>
<rect x="676.246" y="151.063" width="4.51561" height="4.50905" fill="#4F3B2E"/>
<rect x="680.762" y="151.063" width="4.51561" height="4.50905" fill="#4F3B2E"/>
<rect x="685.277" y="151.063" width="4.51561" height="4.50905" fill="#4F3B2E"/>
<rect x="689.793" y="151.063" width="4.51561" height="4.50905" fill="#4F3B2E"/>
<rect x="694.308" y="151.063" width="4.51561" height="4.50905" fill="#4F3B2E"/>
<rect x="698.824" y="151.063" width="4.51561" height="4.50905" fill="#4F3B2E"/>
<rect x="703.34" y="151.063" width="4.51561" height="4.50905" fill="#4F3B2E"/>
<rect x="707.855" y="151.063" width="4.51561" height="4.50905" fill="#4F3B2E"/>
<rect x="712.371" y="151.063" width="4.51561" height="4.50905" fill="#4F3B2E"/>
<rect x="716.886" y="151.063" width="4.51561" height="4.50905" fill="#4F3B2E"/>
<rect x="721.402" y="151.063" width="4.51561" height="4.50905" fill="#4F3B2E"/>
<rect x="703.34" y="137.535" width="4.51561" height="4.50905" fill="#4F3B2E"/>
<rect x="721.402" y="137.535" width="4.51561" height="4.50905" fill="#4F3B2E"/>
<rect x="725.918" y="137.535" width="4.51561" height="4.50905" fill="#4F3B2E"/>
<rect x="725.918" y="146.553" width="4.51561" height="4.50905" fill="#4F3B2E"/>
<rect x="671.731" y="119.497" width="4.51561" height="4.50905" fill="#4F3B2E"/>
<rect x="707.855" y="119.497" width="4.51561" height="4.50905" fill="#4F3B2E"/>
<rect x="712.371" y="119.497" width="4.51561" height="4.50905" fill="#4F3B2E"/>
<rect x="698.824" y="78.9134" width="4.51561" height="4.50905" fill="#4F3B2E"/>
<rect x="694.308" y="78.9133" width="4.51561" height="4.50905" fill="#4F3B2E"/>
<rect x="698.824" y="92.4413" width="4.51561" height="4.50905" fill="#4F3B2E"/>
<rect x="694.308" y="92.4414" width="4.51561" height="4.50905" fill="white"/>
<rect x="734.949" y="128.516" width="4.51561" height="4.50905" fill="white"/>
<rect x="734.949" y="133.025" width="4.51561" height="4.50905" fill="#F2CB7F"/>
<rect x="734.949" y="137.535" width="4.51561" height="4.50905" fill="#F2CB7F"/>
<rect x="730.433" y="137.535" width="4.51561" height="4.50905" fill="#F2CB7F"/>
<rect x="730.433" y="142.044" width="4.51561" height="4.50905" fill="#F2CB7F"/>
<rect x="725.918" y="142.044" width="4.51561" height="4.50905" fill="#F2CB7F"/>
<rect x="721.402" y="142.044" width="4.51561" height="4.50905" fill="#F2CB7F"/>
<rect x="721.402" y="146.553" width="4.51561" height="4.50905" fill="#F2CB7F"/>
<rect x="716.886" y="146.553" width="4.51561" height="4.50905" fill="#F2CB7F"/>
<rect x="712.37" y="146.553" width="4.51561" height="4.50905" fill="#F2CB7F"/>
<rect x="707.854" y="146.553" width="4.51561" height="4.50905" fill="white"/>
<rect x="689.793" y="146.553" width="4.51561" height="4.50905" fill="white"/>
<rect x="676.246" y="146.553" width="4.51561" height="4.50905" fill="white"/>
<rect x="694.308" y="146.553" width="4.51561" height="4.50905" fill="white"/>
<rect x="676.246" y="92.4414" width="4.51561" height="4.50905" fill="white"/>
<rect x="698.824" y="83.4226" width="9.03123" height="9.01867" fill="#F2CB7F"/>
<rect width="4.51561" height="4.50905" transform="matrix(-1 0 0 1 741.723 42.8375)" fill="#4F3B2E"/>
<rect width="4.51561" height="4.50905" transform="matrix(-1 0 0 1 741.723 47.3469)" fill="#4F3B2E"/>
<rect width="4.51561" height="4.50905" transform="matrix(-1 0 0 1 759.784 47.3469)" fill="#4F3B2E"/>
<rect width="4.51561" height="4.50905" transform="matrix(-1 0 0 1 741.723 51.8562)" fill="#4F3B2E"/>
<rect width="4.51561" height="4.50905" transform="matrix(-1 0 0 1 759.784 51.8562)" fill="#4F3B2E"/>
<rect width="4.51561" height="4.50905" transform="matrix(-1 0 0 1 750.754 42.8375)" fill="#4F3B2E"/>
<rect width="4.51561" height="4.50905" transform="matrix(-1 0 0 1 750.754 56.3656)" fill="#4F3B2E"/>
<rect width="4.51561" height="4.50905" transform="matrix(-1 0 0 1 768.815 47.3469)" fill="#4F3B2E"/>
<rect width="4.51561" height="4.50905" transform="matrix(-1 0 0 1 746.237 42.8375)" fill="#4F3B2E"/>
<rect width="4.51561" height="4.50905" transform="matrix(-1 0 0 1 746.237 56.3656)" fill="#4F3B2E"/>
<rect width="4.51561" height="4.50905" transform="matrix(-1 0 0 1 764.301 47.3469)" fill="#4F3B2E"/>
<rect width="4.51561" height="4.50905" transform="matrix(-1 0 0 1 755.27 42.8375)" fill="#4F3B2E"/>
<rect width="4.51561" height="4.50905" transform="matrix(-1 0 0 1 755.27 56.3656)" fill="#4F3B2E"/>
<rect width="4.51561" height="4.50905" transform="matrix(-1 0 0 1 773.331 47.3469)" fill="#4F3B2E"/>
<rect width="13.5468" height="4.50905" transform="matrix(-1 0 0 1 755.27 47.3469)" fill="white"/>
<rect width="13.5468" height="9.01867" transform="matrix(-1 0 0 1 755.27 47.3469)" fill="#F2CB7F"/>
<rect x="791.395" y="42.8375" width="4.51561" height="4.50905" fill="#4F3B2E"/>
<rect x="791.395" y="47.3469" width="4.51561" height="4.50905" fill="#4F3B2E"/>
<rect x="773.331" y="47.3469" width="4.51561" height="4.50905" fill="#4F3B2E"/>
<rect x="791.395" y="51.8562" width="4.51561" height="4.50905" fill="#4F3B2E"/>
<rect x="773.331" y="51.8562" width="4.51561" height="4.50905" fill="#4F3B2E"/>
<rect x="768.815" y="51.8562" width="4.51561" height="4.50905" fill="#F2CB7F"/>
<rect x="764.3" y="51.8562" width="4.51561" height="4.50905" fill="white"/>
<rect x="768.815" y="56.3656" width="4.51561" height="4.50905" fill="#F2CB7F"/>
<rect x="764.3" y="56.3656" width="4.51561" height="4.50905" fill="white"/>
<rect x="768.815" y="60.8749" width="4.51561" height="4.50905" fill="#F2CB7F"/>
<rect x="764.3" y="60.8749" width="4.51561" height="4.50905" fill="white"/>
<rect x="768.815" y="65.3843" width="4.51561" height="4.50905" fill="#F2CB7F"/>
<rect x="768.815" y="69.8936" width="4.51561" height="4.50905" fill="white"/>
<rect x="768.815" y="74.403" width="4.51561" height="4.50905" fill="white"/>
<rect x="768.815" y="78.9123" width="4.51561" height="4.50905" fill="white"/>
<rect x="768.815" y="83.4217" width="4.51561" height="4.50905" fill="white"/>
<rect x="768.815" y="87.9309" width="4.51561" height="4.50905" fill="white"/>
<rect x="768.815" y="92.4403" width="4.51561" height="4.50905" fill="white"/>
<rect x="768.815" y="96.9496" width="4.51561" height="4.50905" fill="white"/>
<rect x="764.3" y="65.3843" width="4.51561" height="4.50905" fill="white"/>
<rect x="777.847" y="60.8749" width="4.51561" height="4.50905" fill="#F2CB7F"/>
<rect x="777.847" y="69.8936" width="4.51561" height="4.50905" fill="#F2CB7F"/>
<rect x="777.847" y="74.403" width="4.51561" height="4.50905" fill="white"/>
<rect x="777.847" y="78.9123" width="4.51561" height="4.50905" fill="white"/>
<rect x="777.847" y="83.4217" width="4.51561" height="4.50905" fill="white"/>
<rect x="777.847" y="87.9309" width="4.51561" height="4.50905" fill="white"/>
<rect x="777.847" y="92.4403" width="4.51561" height="4.50905" fill="white"/>
<rect x="777.847" y="96.9496" width="4.51561" height="4.50905" fill="white"/>
<rect x="777.847" y="101.459" width="4.51561" height="4.50905" fill="white"/>
<rect x="777.847" y="105.968" width="4.51561" height="4.50905" fill="white"/>
<rect x="777.847" y="110.478" width="4.51561" height="4.50905" fill="white"/>
<rect x="782.362" y="105.968" width="4.51561" height="4.50905" fill="white"/>
<rect x="786.878" y="87.9309" width="4.51561" height="4.50905" fill="white"/>
<rect x="791.393" y="87.9309" width="4.51561" height="4.50905" fill="white"/>
<rect x="782.362" y="110.478" width="4.51561" height="4.50905" fill="white"/>
<rect x="777.847" y="65.3843" width="4.51561" height="4.50905" fill="#F2CB7F"/>
<rect x="773.331" y="56.3656" width="4.51561" height="4.50905" fill="#F2CB7F"/>
<rect x="773.331" y="60.8749" width="4.51561" height="4.50905" fill="#F2CB7F"/>
<rect x="773.331" y="69.8936" width="4.51561" height="4.50905" fill="#F2CB7F"/>
<rect x="773.331" y="74.403" width="4.51561" height="4.50905" fill="white"/>
<rect x="773.331" y="78.9123" width="4.51561" height="4.50905" fill="white"/>
<rect x="773.331" y="83.4217" width="4.51561" height="4.50905" fill="white"/>
<rect x="773.331" y="87.9309" width="4.51561" height="4.50905" fill="white"/>
<rect x="773.331" y="92.4403" width="4.51561" height="4.50905" fill="white"/>
<rect x="773.331" y="96.9496" width="4.51561" height="4.50905" fill="white"/>
<rect x="773.331" y="101.459" width="4.51561" height="4.50905" fill="white"/>
<rect x="773.331" y="105.968" width="4.51561" height="4.50905" fill="white"/>
<rect x="773.331" y="110.478" width="4.51561" height="4.50905" fill="white"/>
<rect x="773.331" y="65.3843" width="4.51561" height="4.50905" fill="#4F3B2E"/>
<rect x="764.301" y="69.8936" width="4.51561" height="4.50905" fill="#4F3B2E"/>
<rect x="764.301" y="74.403" width="4.51561" height="4.50905" fill="white"/>
<rect x="764.301" y="78.9123" width="4.51561" height="4.50905" fill="white"/>
<rect x="764.301" y="78.9123" width="4.51561" height="4.50905" fill="#4F3B2E"/>
<rect x="764.301" y="83.4217" width="4.51561" height="4.50905" fill="white"/>
<rect x="764.301" y="87.9309" width="4.51561" height="4.50905" fill="white"/>
<rect x="764.301" y="92.4403" width="4.51561" height="4.50905" fill="white"/>
<rect x="764.301" y="96.9496" width="4.51561" height="4.50905" fill="white"/>
<rect x="782.363" y="60.8749" width="4.51561" height="4.50905" fill="#F2CB7F"/>
<rect x="782.363" y="69.8936" width="4.51561" height="4.50905" fill="#F2CB7F"/>
<rect x="782.363" y="74.403" width="4.51561" height="4.50905" fill="white"/>
<rect x="782.363" y="78.9123" width="4.51561" height="4.50905" fill="white"/>
<rect x="782.363" y="65.3843" width="4.51561" height="4.50905" fill="#F2CB7F"/>
<rect width="4.51561" height="4.50905" transform="matrix(-1 0 0 1 764.301 51.8562)" fill="#F2CB7F"/>
<rect width="4.51561" height="4.50905" transform="matrix(-1 0 0 1 764.301 56.3656)" fill="#F2CB7F"/>
<rect width="4.51561" height="4.50905" transform="matrix(-1 0 0 1 764.301 60.8749)" fill="#F2CB7F"/>
<rect width="4.51561" height="4.50905" transform="matrix(-1 0 0 1 764.301 65.3843)" fill="#F2CB7F"/>
<rect width="4.51561" height="4.50905" transform="matrix(-1 0 0 1 764.301 69.8936)" fill="white"/>
<rect width="4.51561" height="4.50905" transform="matrix(-1 0 0 1 764.301 74.403)" fill="white"/>
<rect width="4.51561" height="4.50905" transform="matrix(-1 0 0 1 764.301 78.9123)" fill="white"/>
<rect width="4.51561" height="4.50905" transform="matrix(-1 0 0 1 764.301 83.4217)" fill="white"/>
<rect width="4.51561" height="4.50905" transform="matrix(-1 0 0 1 764.301 87.9309)" fill="white"/>
<rect width="4.51561" height="4.50905" transform="matrix(-1 0 0 1 764.301 92.4403)" fill="white"/>
<rect width="4.51561" height="4.50905" transform="matrix(-1 0 0 1 755.27 60.8749)" fill="#F2CB7F"/>
<rect width="4.51561" height="4.50905" transform="matrix(-1 0 0 1 755.27 69.8936)" fill="#F2CB7F"/>
<rect width="4.51561" height="4.50905" transform="matrix(-1 0 0 1 755.27 74.403)" fill="white"/>
<rect width="4.51561" height="4.50905" transform="matrix(-1 0 0 1 755.27 78.9123)" fill="white"/>
<rect width="4.51561" height="4.50905" transform="matrix(-1 0 0 1 755.27 65.3843)" fill="#F2CB7F"/>
<rect width="4.51561" height="4.50905" transform="matrix(-1 0 0 1 759.784 56.3656)" fill="#F2CB7F"/>
<rect width="4.51561" height="4.50905" transform="matrix(-1 0 0 1 759.784 60.8749)" fill="#F2CB7F"/>
<rect width="4.51561" height="4.50905" transform="matrix(-1 0 0 1 759.784 69.8936)" fill="#F2CB7F"/>
<rect width="4.51561" height="4.50905" transform="matrix(-1 0 0 1 759.784 74.403)" fill="white"/>
<rect width="4.51561" height="4.50905" transform="matrix(-1 0 0 1 759.784 78.9123)" fill="white"/>
<rect width="4.51561" height="4.50905" transform="matrix(-1 0 0 1 759.784 83.4217)" fill="white"/>
<rect width="4.51561" height="4.50905" transform="matrix(-1 0 0 1 764.301 96.9496)" fill="#F2CB7F"/>
<rect width="4.51561" height="4.50905" transform="matrix(-1 0 0 1 764.301 101.459)" fill="#F2CB7F"/>
<rect width="4.51561" height="4.50905" transform="matrix(-1 0 0 1 768.815 101.459)" fill="#F2CB7F"/>
<rect width="4.51561" height="4.50905" transform="matrix(-1 0 0 1 773.331 101.459)" fill="#F2CB7F"/>
<rect width="4.51561" height="4.50905" transform="matrix(-1 0 0 1 791.395 101.459)" fill="#F2CB7F"/>
<rect width="4.51561" height="4.50905" transform="matrix(-1 0 0 1 791.395 96.9496)" fill="#F2CB7F"/>
<rect width="4.51561" height="4.50905" transform="matrix(-1 0 0 1 791.395 92.4403)" fill="#F2CB7F"/>
<rect width="4.51561" height="4.50905" transform="matrix(-1 0 0 1 795.909 101.459)" fill="#F2CB7F"/>
<rect width="4.51561" height="4.50905" transform="matrix(-1 0 0 1 795.909 96.9496)" fill="#F2CB7F"/>
<rect width="4.51561" height="4.50905" transform="matrix(-1 0 0 1 795.909 92.4403)" fill="#F2CB7F"/>
<rect width="4.51561" height="4.50905" transform="matrix(-1 0 0 1 800.426 101.459)" fill="#F2CB7F"/>
<rect width="4.51561" height="4.50905" transform="matrix(-1 0 0 1 800.426 96.9496)" fill="#F2CB7F"/>
<rect width="4.51561" height="4.50905" transform="matrix(-1 0 0 1 800.426 92.4403)" fill="#F2CB7F"/>
<rect width="4.51561" height="4.50905" transform="matrix(-1 0 0 1 764.301 105.968)" fill="#F2CB7F"/>
<rect width="4.51561" height="4.50905" transform="matrix(-1 0 0 1 768.815 105.968)" fill="#F2CB7F"/>
<rect width="4.51561" height="4.50905" transform="matrix(-1 0 0 1 773.331 105.968)" fill="#F2CB7F"/>
<rect width="4.51561" height="4.50905" transform="matrix(-1 0 0 1 773.331 110.478)" fill="white"/>
<rect width="4.51561" height="4.50905" transform="matrix(-1 0 0 1 791.395 105.968)" fill="#F2CB7F"/>
<rect width="4.51561" height="4.50905" transform="matrix(-1 0 0 1 791.395 110.478)" fill="white"/>
<rect width="4.51561" height="4.50905" transform="matrix(-1 0 0 1 795.909 105.968)" fill="#F2CB7F"/>
<rect width="4.51561" height="4.50905" transform="matrix(-1 0 0 1 795.909 110.478)" fill="white"/>
<rect width="4.51561" height="4.50905" transform="matrix(-1 0 0 1 800.426 105.968)" fill="#F2CB7F"/>
<rect width="9.03123" height="4.50905" transform="matrix(-1 0 0 1 804.94 110.478)" fill="white"/>
<rect width="9.03123" height="4.50905" transform="matrix(-1 0 0 1 809.456 105.968)" fill="white"/>
<rect width="9.0181" height="4.51561" transform="matrix(1.19422e-08 -1 -1 -1.19075e-08 813.973 110.477)" fill="white"/>
<rect width="13.5274" height="4.51561" transform="matrix(1.19422e-08 -1 -1 -1.19075e-08 818.487 105.968)" fill="white"/>
<rect width="4.51561" height="4.50905" transform="matrix(-1 0 0 1 764.301 110.478)" fill="#F2CB7F"/>
<rect width="4.51561" height="4.50905" transform="matrix(-1 0 0 1 759.784 110.478)" fill="#F2CB7F"/>
<rect width="4.51561" height="4.50905" transform="matrix(-1 0 0 1 768.815 110.478)" fill="#F2CB7F"/>
<rect width="4.51561" height="4.50905" transform="matrix(-1 0 0 1 759.784 65.3843)" fill="#4F3B2E"/>
<rect width="4.51561" height="4.50905" transform="matrix(-1 0 0 1 750.754 60.8749)" fill="#F2CB7F"/>
<rect width="4.51561" height="4.50905" transform="matrix(-1 0 0 1 750.754 69.8936)" fill="#F2CB7F"/>
<rect width="4.51561" height="4.50905" transform="matrix(-1 0 0 1 750.754 65.3843)" fill="#F2CB7F"/>
<rect x="782.363" y="42.8375" width="4.51561" height="4.50905" fill="#4F3B2E"/>
<rect x="782.363" y="56.3656" width="4.51561" height="4.50905" fill="#4F3B2E"/>
<rect x="786.878" y="42.8375" width="4.51561" height="4.50905" fill="#4F3B2E"/>
<rect x="786.878" y="56.3656" width="4.51561" height="4.50905" fill="#4F3B2E"/>
<rect x="786.878" y="65.3843" width="4.51561" height="4.50905" fill="#4F3B2E"/>
<rect x="746.237" y="65.3843" width="4.51561" height="4.50905" fill="#4F3B2E"/>
<rect x="755.27" y="87.9309" width="4.51561" height="4.50905" fill="#4F3B2E"/>
<rect x="782.363" y="83.4217" width="4.51561" height="4.50905" fill="#4F3B2E"/>
<rect x="786.878" y="74.403" width="4.51561" height="4.50905" fill="#4F3B2E"/>
<rect x="746.237" y="74.403" width="4.51561" height="4.50905" fill="#4F3B2E"/>
<rect x="755.27" y="96.9496" width="4.51561" height="4.50905" fill="#4F3B2E"/>
<rect x="782.363" y="92.4403" width="4.51561" height="4.50905" fill="#4F3B2E"/>
<rect x="800.426" y="92.4403" width="4.51561" height="4.50905" fill="#4F3B2E"/>
<rect x="809.456" y="92.4403" width="4.51561" height="4.50905" fill="#4F3B2E"/>
<rect x="818.487" y="92.4403" width="4.51561" height="4.50905" fill="#4F3B2E"/>
<rect x="795.909" y="87.9309" width="4.51561" height="4.50905" fill="#4F3B2E"/>
<rect x="809.456" y="87.9309" width="4.51561" height="4.50905" fill="#4F3B2E"/>
<rect x="813.973" y="87.9309" width="4.51561" height="4.50905" fill="#4F3B2E"/>
<rect x="786.878" y="60.8749" width="4.51561" height="4.50905" fill="#4F3B2E"/>
<rect x="746.237" y="60.8749" width="4.51561" height="4.50905" fill="#4F3B2E"/>
<rect x="786.878" y="69.8936" width="4.51561" height="4.50905" fill="#4F3B2E"/>
<rect x="746.237" y="69.8936" width="4.51561" height="4.50905" fill="#4F3B2E"/>
<rect x="755.27" y="92.4403" width="4.51561" height="4.50905" fill="#4F3B2E"/>
<rect x="782.363" y="87.9309" width="4.51561" height="4.50905" fill="#4F3B2E"/>
<rect x="786.878" y="78.9123" width="4.51561" height="4.50905" fill="#4F3B2E"/>
<rect x="746.237" y="78.9123" width="4.51561" height="4.50905" fill="#4F3B2E"/>
<rect x="755.27" y="101.459" width="4.51561" height="4.50905" fill="#4F3B2E"/>
<rect x="782.363" y="96.9496" width="4.51561" height="4.50905" fill="#4F3B2E"/>
<rect x="800.426" y="96.9496" width="4.51561" height="4.50905" fill="#4F3B2E"/>
<rect x="809.456" y="96.9496" width="4.51561" height="4.50905" fill="#4F3B2E"/>
<rect x="809.456" y="110.478" width="4.51561" height="4.50905" fill="#4F3B2E"/>
<rect x="818.487" y="96.9496" width="4.51561" height="4.50905" fill="#4F3B2E"/>
<rect x="818.487" y="101.459" width="4.51561" height="4.50905" fill="#4F3B2E"/>
<rect x="813.973" y="105.968" width="4.51561" height="4.50905" fill="#4F3B2E"/>
<rect x="755.27" y="105.968" width="4.51561" height="4.50905" fill="#4F3B2E"/>
<rect x="750.754" y="110.478" width="4.51561" height="4.50905" fill="#4F3B2E"/>
<rect x="750.754" y="114.987" width="4.51561" height="4.50905" fill="#4F3B2E"/>
<rect x="755.27" y="114.987" width="4.51561" height="4.50905" fill="#4F3B2E"/>
<rect x="759.784" y="114.987" width="4.51561" height="4.50905" fill="#4F3B2E"/>
<rect x="764.301" y="114.987" width="4.51561" height="4.50905" fill="#4F3B2E"/>
<rect x="768.815" y="114.987" width="4.51561" height="4.50905" fill="#4F3B2E"/>
<rect x="773.331" y="114.987" width="4.51561" height="4.50905" fill="#4F3B2E"/>
<rect x="777.847" y="114.987" width="4.51561" height="4.50905" fill="#4F3B2E"/>
<rect x="782.363" y="114.987" width="4.51561" height="4.50905" fill="#4F3B2E"/>
<rect x="786.878" y="114.987" width="4.51561" height="4.50905" fill="#4F3B2E"/>
<rect x="791.395" y="114.987" width="4.51561" height="4.50905" fill="#4F3B2E"/>
<rect x="795.909" y="114.987" width="4.51561" height="4.50905" fill="#4F3B2E"/>
<rect x="800.426" y="114.987" width="4.51561" height="4.50905" fill="#4F3B2E"/>
<rect x="782.363" y="101.459" width="4.51561" height="4.50905" fill="#4F3B2E"/>
<rect x="800.426" y="101.459" width="4.51561" height="4.50905" fill="#4F3B2E"/>
<rect x="804.94" y="101.459" width="4.51561" height="4.50905" fill="#4F3B2E"/>
<rect x="804.94" y="110.478" width="4.51561" height="4.50905" fill="#4F3B2E"/>
<rect x="750.754" y="83.4217" width="4.51561" height="4.50905" fill="#4F3B2E"/>
<rect x="786.878" y="83.4217" width="4.51561" height="4.50905" fill="#4F3B2E"/>
<rect x="791.395" y="83.4217" width="4.51561" height="4.50905" fill="#4F3B2E"/>
<rect x="777.847" y="42.8375" width="4.51561" height="4.50905" fill="#4F3B2E"/>
<rect x="777.847" y="56.3656" width="4.51561" height="4.50905" fill="#4F3B2E"/>
<rect x="777.847" y="47.3469" width="13.5468" height="9.01867" fill="#F2CB7F"/>
<rect x="696.581" y="31.5654" width="4.51561" height="4.50905" fill="#82B726"/>
<rect x="701.096" y="31.5654" width="45.1572" height="4.50905" fill="#82B726"/>
<rect x="746.254" y="31.5654" width="45.1572" height="4.50905" fill="#82B726"/>
<rect x="710.128" y="18.0374" width="67.7359" height="4.50905" fill="#82B726"/>
<rect x="696.581" y="27.056" width="4.51561" height="4.50905" fill="#82B726"/>
<rect x="701.096" y="27.056" width="45.1572" height="4.50905" fill="#82B726"/>
<rect x="746.254" y="27.056" width="33.836" height="4.50905" fill="#82B726"/>
<rect x="710.128" y="13.528" width="65.4464" height="4.50905" fill="#82B726"/>
<rect x="696.581" y="22.5467" width="4.51561" height="4.50905" fill="#82B726"/>
<rect x="701.096" y="22.5467" width="45.1572" height="4.50905" fill="#82B726"/>
<rect x="746.254" y="22.5467" width="36.0937" height="4.50905" fill="#82B726"/>
<rect x="701.096" y="18.0373" width="4.51561" height="4.50905" fill="#82B726"/>
<rect x="710.128" y="9.0187" width="4.51561" height="4.50905" fill="#82B726"/>
<rect x="750.77" y="9.01868" width="4.51561" height="4.50905" fill="#82B726"/>
<rect x="719.159" y="9.0187" width="4.51561" height="4.50905" fill="#82B726"/>
<rect x="759.801" y="9.0187" width="4.51561" height="4.50905" fill="#82B726"/>
<rect x="719.159" y="4.5093" width="4.51561" height="4.50905" fill="#82B726"/>
<rect x="759.801" y="4.5093" width="4.51561" height="4.50905" fill="#82B726"/>
<rect x="764.317" y="4.5093" width="4.51561" height="4.50905" fill="#82B726"/>
<rect x="719.159" y="2.31796e-05" width="4.51561" height="4.50905" fill="#82B726"/>
<rect x="728.19" y="4.50934" width="4.51561" height="4.50905" fill="#82B726"/>
<rect x="728.19" y="9.01868" width="4.51561" height="4.50905" fill="#82B726"/>
<rect x="728.19" width="4.51561" height="4.50905" fill="#82B726"/>
<rect x="737.221" y="9.0187" width="4.51561" height="4.50905" fill="#82B726"/>
<rect x="737.221" y="4.5093" width="4.51561" height="4.50905" fill="#82B726"/>
<rect x="705.612" y="18.0374" width="4.51561" height="4.50905" fill="#82B726"/>
<rect x="714.643" y="9.01868" width="4.51561" height="4.50905" fill="#82B726"/>
<rect x="755.286" y="9.01868" width="4.51561" height="4.50905" fill="#82B726"/>
<rect x="723.675" y="4.5093" width="4.51561" height="4.50905" fill="#82B726"/>
<rect x="714.643" y="4.50934" width="4.51561" height="4.50905" fill="#82B726"/>
<rect x="755.286" y="4.50934" width="4.51561" height="4.50905" fill="#82B726"/>
<rect x="732.706" y="4.50934" width="4.51561" height="4.50905" fill="#82B726"/>
<rect x="723.675" y="9.0187" width="4.51561" height="4.50905" fill="#82B726"/>
<rect x="764.317" y="9.0187" width="4.51561" height="4.50905" fill="#82B726"/>
<rect x="768.832" y="9.01868" width="4.51561" height="4.50905" fill="#82B726"/>
<rect x="768.832" y="4.50934" width="4.51561" height="4.50905" fill="#82B726"/>
<rect x="773.348" y="9.0187" width="4.51561" height="4.50905" fill="#82B726"/>
<rect x="773.348" y="13.528" width="4.51561" height="4.50905" fill="#82B726"/>
<rect x="777.832" y="18.0373" width="4.51561" height="4.50905" fill="#82B726"/>
<rect x="782.348" y="22.5467" width="4.51561" height="4.50905" fill="#82B726"/>
<rect x="780.09" y="27.056" width="6.77328" height="4.50905" fill="#82B726"/>
<rect x="786.864" y="27.0561" width="4.51561" height="4.50905" fill="#82B726"/>
<rect x="723.675" y="2.31796e-05" width="4.51561" height="4.50905" fill="#82B726"/>
<rect x="732.706" y="9.01868" width="4.51561" height="4.50905" fill="#82B726"/>
<rect x="732.706" width="4.51561" height="4.50905" fill="#82B726"/>
<rect x="741.737" y="9.0187" width="4.51561" height="4.50905" fill="#82B726"/>
<rect width="4.51561" height="4.50905" transform="matrix(-1 0 0 1 832.02 31.5654)" fill="#6C9F11"/>
<rect width="45.1572" height="4.50905" transform="matrix(-1 0 0 1 827.505 31.5653)" fill="#6C9F11"/>
<rect width="45.1572" height="4.50905" transform="matrix(-1 0 0 1 782.347 31.5654)" fill="#6C9F11"/>
<rect width="67.7359" height="4.50905" transform="matrix(-1 0 0 1 818.473 18.0373)" fill="#6C9F11"/>
<rect width="4.51561" height="4.50905" transform="matrix(-1 0 0 1 832.02 27.056)" fill="#6C9F11"/>
<rect width="45.1572" height="4.50905" transform="matrix(-1 0 0 1 827.505 27.0561)" fill="#6C9F11"/>
<rect width="33.836" height="4.50905" transform="matrix(-1 0 0 1 782.347 27.056)" fill="#6C9F11"/>
<rect width="65.4464" height="4.50905" transform="matrix(-1 0 0 1 818.473 13.528)" fill="#6C9F11"/>
<rect width="4.51561" height="4.50905" transform="matrix(-1 0 0 1 832.02 22.5467)" fill="#6C9F11"/>
<rect width="45.1572" height="4.50905" transform="matrix(-1 0 0 1 827.505 22.5467)" fill="#6C9F11"/>
<rect width="36.0937" height="4.50905" transform="matrix(-1 0 0 1 782.347 22.5467)" fill="#6C9F11"/>
<rect width="4.51561" height="4.50905" transform="matrix(-1 0 0 1 827.505 18.0374)" fill="#6C9F11"/>
<rect width="4.51561" height="4.50905" transform="matrix(-1 0 0 1 818.473 9.01868)" fill="#6C9F11"/>
<rect width="4.51561" height="4.50905" transform="matrix(-1 0 0 1 777.831 9.01868)" fill="#6C9F11"/>
<rect width="4.51561" height="4.50905" transform="matrix(-1 0 0 1 809.442 9.0187)" fill="#6C9F11"/>
<rect width="4.51561" height="4.50905" transform="matrix(-1 0 0 1 768.799 9.0187)" fill="#6C9F11"/>
<rect width="4.51561" height="4.50905" transform="matrix(-1 0 0 1 809.442 4.5093)" fill="#6C9F11"/>
<rect width="4.51561" height="4.50905" transform="matrix(-1 0 0 1 768.799 4.5093)" fill="#6C9F11"/>
<rect width="4.51561" height="4.50905" transform="matrix(-1 0 0 1 764.284 4.50934)" fill="#6C9F11"/>
<rect width="4.51561" height="4.50905" transform="matrix(-1 0 0 1 809.442 2.31796e-05)" fill="#6C9F11"/>
<rect width="4.51561" height="4.50905" transform="matrix(-1 0 0 1 800.411 4.50934)" fill="#6C9F11"/>
<rect width="4.51561" height="4.50905" transform="matrix(-1 0 0 1 800.411 9.01868)" fill="#6C9F11"/>
<rect width="4.51561" height="4.50905" transform="matrix(-1 0 0 1 800.411 0)" fill="#6C9F11"/>
<rect width="4.51561" height="4.50905" transform="matrix(-1 0 0 1 791.38 9.0187)" fill="#6C9F11"/>
<rect width="4.51561" height="4.50905" transform="matrix(-1 0 0 1 791.38 4.5093)" fill="#6C9F11"/>
<rect width="4.51561" height="4.50905" transform="matrix(-1 0 0 1 822.988 18.0374)" fill="#6C9F11"/>
<rect width="4.51561" height="4.50905" transform="matrix(-1 0 0 1 813.957 9.01868)" fill="#6C9F11"/>
<rect width="4.51561" height="4.50905" transform="matrix(-1 0 0 1 773.316 9.0187)" fill="#6C9F11"/>
<rect width="4.51561" height="4.50905" transform="matrix(-1 0 0 1 804.926 4.5093)" fill="#6C9F11"/>
<rect width="4.51561" height="4.50905" transform="matrix(-1 0 0 1 813.957 4.50934)" fill="#6C9F11"/>
<rect width="4.51561" height="4.50905" transform="matrix(-1 0 0 1 773.316 4.5093)" fill="#6C9F11"/>
<rect width="4.51561" height="4.50905" transform="matrix(-1 0 0 1 795.895 4.50934)" fill="#6C9F11"/>
<rect width="4.51561" height="4.50905" transform="matrix(-1 0 0 1 804.926 9.0187)" fill="#6C9F11"/>
<rect width="4.51561" height="4.50905" transform="matrix(-1 0 0 1 764.284 9.01868)" fill="#6C9F11"/>
<rect width="4.51561" height="4.50905" transform="matrix(-1 0 0 1 759.768 9.01868)" fill="#6C9F11"/>
<rect width="4.51561" height="4.50905" transform="matrix(-1 0 0 1 759.768 4.50934)" fill="#6C9F11"/>
<rect width="4.51561" height="4.50905" transform="matrix(-1 0 0 1 755.253 9.0187)" fill="#6C9F11"/>
<rect width="4.51561" height="4.50905" transform="matrix(-1 0 0 1 755.253 13.528)" fill="#6C9F11"/>
<rect width="4.51561" height="4.50905" transform="matrix(-1 0 0 1 750.769 18.0373)" fill="#6C9F11"/>
<rect width="4.51561" height="4.50905" transform="matrix(-1 0 0 1 746.253 22.5467)" fill="#6C9F11"/>
<rect width="6.77328" height="4.50905" transform="matrix(-1 0 0 1 748.511 27.056)" fill="#6C9F11"/>
<rect width="4.51561" height="4.50905" transform="matrix(-1 0 0 1 741.737 27.0561)" fill="#6C9F11"/>
<rect width="4.51561" height="4.50905" transform="matrix(-1 0 0 1 804.926 2.31796e-05)" fill="#6C9F11"/>
<rect width="4.51561" height="4.50905" transform="matrix(-1 0 0 1 795.895 9.01868)" fill="#6C9F11"/>
<rect width="4.51561" height="4.50905" transform="matrix(-1 0 0 1 795.895 0)" fill="#6C9F11"/>
<rect width="4.51561" height="4.50905" transform="matrix(-1 0 0 1 786.864 9.0187)" fill="#6C9F11"/>
</svg>
