<svg width="317" height="185" viewBox="0 0 317 185" fill="none" xmlns="http://www.w3.org/2000/svg">
<rect width="4.50905" height="4.50905" transform="matrix(-1 0 0 1 124.02 31.5653)" fill="#6C9F11"/>
<rect width="45.0915" height="4.50905" transform="matrix(-1 0 0 1 119.511 31.5653)" fill="#6C9F11"/>
<rect width="45.0915" height="4.50905" transform="matrix(-1 0 0 1 74.4192 31.5653)" fill="#6C9F11"/>
<rect width="67.6375" height="4.50905" transform="matrix(-1 0 0 1 110.493 18.0374)" fill="#6C9F11"/>
<rect width="4.50905" height="4.50905" transform="matrix(-1 0 0 1 124.02 27.056)" fill="#6C9F11"/>
<rect width="45.0915" height="4.50905" transform="matrix(-1 0 0 1 119.511 27.056)" fill="#6C9F11"/>
<rect width="33.7868" height="4.50905" transform="matrix(-1 0 0 1 74.4192 27.056)" fill="#6C9F11"/>
<rect width="65.3512" height="4.50905" transform="matrix(-1 0 0 1 110.493 13.528)" fill="#6C9F11"/>
<rect width="4.50905" height="4.50905" transform="matrix(-1 0 0 1 124.02 22.5467)" fill="#6C9F11"/>
<rect width="45.0915" height="4.50905" transform="matrix(-1 0 0 1 119.511 22.5467)" fill="#6C9F11"/>
<rect width="36.0412" height="4.50905" transform="matrix(-1 0 0 1 74.4192 22.5467)" fill="#6C9F11"/>
<rect width="4.50905" height="4.50905" transform="matrix(-1 0 0 1 119.511 18.0374)" fill="#6C9F11"/>
<rect width="4.50905" height="4.50905" transform="matrix(-1 0 0 1 110.493 9.01868)" fill="#6C9F11"/>
<rect width="4.50905" height="4.50905" transform="matrix(-1 0 0 1 69.9097 9.01868)" fill="#6C9F11"/>
<rect width="4.50905" height="4.50905" transform="matrix(-1 0 0 1 101.475 9.01868)" fill="#6C9F11"/>
<rect width="4.50905" height="4.50905" transform="matrix(-1 0 0 1 60.8914 9.01868)" fill="#6C9F11"/>
<rect width="4.50905" height="4.50905" transform="matrix(-1 0 0 1 101.475 4.50934)" fill="#6C9F11"/>
<rect width="4.50905" height="4.50905" transform="matrix(-1 0 0 1 60.8914 4.50934)" fill="#6C9F11"/>
<rect width="4.50905" height="4.50905" transform="matrix(-1 0 0 1 56.3826 4.50934)" fill="#6C9F11"/>
<rect width="4.50905" height="4.50905" transform="matrix(-1 0 0 1 101.475 0)" fill="#6C9F11"/>
<rect width="4.50905" height="4.50905" transform="matrix(-1 0 0 1 92.4565 4.50934)" fill="#6C9F11"/>
<rect width="4.50905" height="4.50905" transform="matrix(-1 0 0 1 92.4565 9.01868)" fill="#6C9F11"/>
<rect width="4.50905" height="4.50905" transform="matrix(-1 0 0 1 92.4565 0)" fill="#6C9F11"/>
<rect width="4.50905" height="4.50905" transform="matrix(-1 0 0 1 83.4385 9.01868)" fill="#6C9F11"/>
<rect width="4.50905" height="4.50905" transform="matrix(-1 0 0 1 83.4385 4.50934)" fill="#6C9F11"/>
<rect width="4.50905" height="4.50905" transform="matrix(-1 0 0 1 115.002 18.0374)" fill="#6C9F11"/>
<rect width="4.50905" height="4.50905" transform="matrix(-1 0 0 1 105.984 9.01868)" fill="#6C9F11"/>
<rect width="4.50905" height="4.50905" transform="matrix(-1 0 0 1 65.4006 9.01868)" fill="#6C9F11"/>
<rect width="4.50905" height="4.50905" transform="matrix(-1 0 0 1 96.9656 4.50934)" fill="#6C9F11"/>
<rect width="4.50905" height="4.50905" transform="matrix(-1 0 0 1 105.984 4.50934)" fill="#6C9F11"/>
<rect width="4.50905" height="4.50905" transform="matrix(-1 0 0 1 65.4006 4.50934)" fill="#6C9F11"/>
<rect width="4.50905" height="4.50905" transform="matrix(-1 0 0 1 87.9475 4.50934)" fill="#6C9F11"/>
<rect width="4.50905" height="4.50905" transform="matrix(-1 0 0 1 96.9656 9.01868)" fill="#6C9F11"/>
<rect width="4.50905" height="4.50905" transform="matrix(-1 0 0 1 56.3823 9.01868)" fill="#6C9F11"/>
<rect width="4.50905" height="4.50905" transform="matrix(-1 0 0 1 51.8733 9.01868)" fill="#6C9F11"/>
<rect width="4.50905" height="4.50905" transform="matrix(-1 0 0 1 51.8733 4.50934)" fill="#6C9F11"/>
<rect width="4.50905" height="4.50905" transform="matrix(-1 0 0 1 47.3643 9.01868)" fill="#6C9F11"/>
<rect width="4.50905" height="4.50905" transform="matrix(-1 0 0 1 47.3643 13.528)" fill="#6C9F11"/>
<rect width="4.50905" height="4.50905" transform="matrix(-1 0 0 1 42.887 18.0374)" fill="#6C9F11"/>
<rect width="4.50905" height="4.50905" transform="matrix(-1 0 0 1 38.3777 22.5467)" fill="#6C9F11"/>
<rect width="6.76343" height="4.50905" transform="matrix(-1 0 0 1 40.6323 27.056)" fill="#6C9F11"/>
<rect width="4.50905" height="4.50905" transform="matrix(-1 0 0 1 33.8689 27.056)" fill="#6C9F11"/>
<rect width="4.50905" height="4.50905" transform="matrix(-1 0 0 1 96.9656 0)" fill="#6C9F11"/>
<rect width="4.50905" height="4.50905" transform="matrix(-1 0 0 1 87.9475 9.01868)" fill="#6C9F11"/>
<rect width="4.50905" height="4.50905" transform="matrix(-1 0 0 1 87.9475 0)" fill="#6C9F11"/>
<rect width="4.50905" height="4.50905" transform="matrix(-1 0 0 1 78.9294 9.01868)" fill="#6C9F11"/>
<rect y="36.0747" width="316.432" height="148.797" fill="#A8CD53"/>
<rect x="101.444" y="4.50934" width="4.50905" height="4.50905" fill="#4F3B2E"/>
<rect x="74.3896" y="4.50934" width="4.50905" height="4.50905" fill="#4F3B2E"/>
<rect x="96.9351" y="4.50934" width="4.50905" height="4.50905" fill="#4F3B2E"/>
<rect x="69.8806" y="4.50934" width="4.50905" height="4.50905" fill="#4F3B2E"/>
<rect x="92.426" y="4.50934" width="4.50905" height="4.50905" fill="#4F3B2E"/>
<rect x="56.3535" y="72.1488" width="36.0724" height="4.50905" fill="#F2CB7F"/>
<rect x="65.3716" y="4.50934" width="4.50905" height="4.50905" fill="#4F3B2E"/>
<rect x="87.917" y="9.01868" width="4.50905" height="4.50905" fill="#4F3B2E"/>
<rect x="60.8625" y="9.01868" width="4.50905" height="4.50905" fill="#4F3B2E"/>
<rect x="78.8989" y="9.01868" width="4.50905" height="4.50905" fill="#4F3B2E"/>
<rect x="56.3535" y="13.528" width="4.50905" height="4.50905" fill="#4F3B2E"/>
<rect x="105.953" y="13.528" width="4.50905" height="4.50905" fill="#4F3B2E"/>
<rect x="105.953" y="9.01868" width="4.50905" height="4.50905" fill="#4F3B2E"/>
<rect x="92.426" y="9.01868" width="13.5272" height="4.50905" fill="#F2CB7F"/>
<rect x="87.917" y="13.528" width="18.0362" height="4.50905" fill="#F2CB7F"/>
<rect x="60.8625" y="18.0374" width="45.0905" height="4.50905" fill="#F2CB7F"/>
<rect x="60.8625" y="22.5467" width="45.0905" height="4.50905" fill="#F2CB7F"/>
<rect x="60.8625" y="27.056" width="45.0905" height="4.50905" fill="#F2CB7F"/>
<rect x="60.8625" y="13.528" width="18.0362" height="4.50905" fill="#F2CB7F"/>
<rect x="65.3716" y="9.01868" width="13.5272" height="4.50905" fill="#F2CB7F"/>
<rect x="56.3535" y="22.5467" width="4.50905" height="4.50905" fill="#4F3B2E"/>
<rect x="105.953" y="22.5467" width="4.50905" height="4.50905" fill="#4F3B2E"/>
<rect x="56.3535" y="31.5653" width="4.50905" height="4.50905" fill="#4F3B2E"/>
<rect x="60.8625" y="40.584" width="4.50905" height="4.50905" fill="#4F3B2E"/>
<rect x="105.953" y="31.5653" width="4.50905" height="4.50905" fill="#4F3B2E"/>
<rect x="83.408" y="13.528" width="4.50905" height="4.50905" fill="#4F3B2E"/>
<rect x="78.8989" y="13.528" width="4.50905" height="4.50905" fill="#4F3B2E"/>
<rect x="56.3535" y="18.0374" width="4.50905" height="4.50905" fill="#4F3B2E"/>
<rect x="105.953" y="18.0374" width="4.50905" height="4.50905" fill="#4F3B2E"/>
<rect x="56.3535" y="27.056" width="4.50905" height="4.50905" fill="#4F3B2E"/>
<rect x="105.953" y="27.056" width="4.50905" height="4.50905" fill="#4F3B2E"/>
<rect x="56.3535" y="36.0747" width="4.50905" height="4.50905" fill="#4F3B2E"/>
<rect x="60.8625" y="45.0934" width="4.50905" height="4.50905" fill="#4F3B2E"/>
<rect x="65.3716" y="45.0934" width="4.50905" height="4.50905" fill="#4F3B2E"/>
<rect x="56.3535" y="45.0934" width="4.50905" height="4.50905" fill="#4F3B2E"/>
<rect x="51.8445" y="49.6027" width="4.50905" height="4.50905" fill="#4F3B2E"/>
<rect x="33.8081" y="67.6412" width="4.50905" height="4.50905" fill="#4F3B2E"/>
<rect x="38.3174" y="58.6208" width="4.50905" height="4.50905" fill="#4F3B2E"/>
<rect x="33.8081" y="58.6208" width="4.50905" height="9.01867" fill="#F2CB7F"/>
<rect x="38.3174" y="63.1324" width="4.50905" height="9.01867" fill="#F2CB7F"/>
<rect x="42.8264" y="63.1301" width="4.50905" height="4.50905" fill="#4F3B2E"/>
<rect x="42.8264" y="58.6219" width="4.50905" height="4.50905" fill="white"/>
<rect x="42.8264" y="67.6417" width="4.50905" height="4.50905" fill="#F2CB7F"/>
<rect x="33.8083" y="54.1125" width="9.01782" height="4.50905" fill="white"/>
<rect x="105.953" y="36.0747" width="4.50905" height="4.50905" fill="#4F3B2E"/>
<rect x="96.9351" y="13.528" width="4.50905" height="4.50905" fill="white"/>
<rect x="69.8806" y="13.528" width="4.50905" height="4.50905" fill="white"/>
<rect x="92.426" y="22.5467" width="4.50905" height="4.50905" fill="white"/>
<rect x="92.426" y="27.056" width="4.50905" height="4.50905" fill="#4F3B2E"/>
<rect x="101.444" y="40.584" width="4.50905" height="4.50905" fill="#4F3B2E"/>
<rect x="92.426" y="31.5653" width="4.50905" height="4.50905" fill="#F2CB7F"/>
<rect x="69.8806" y="31.5653" width="4.50905" height="4.50905" fill="#F2CB7F"/>
<rect x="96.9351" y="31.5653" width="4.50905" height="4.50905" fill="#F2CB7F"/>
<rect x="74.3896" y="31.5653" width="4.50905" height="4.50905" fill="#F2CB7F"/>
<rect x="87.917" y="31.5653" width="4.50905" height="4.50905" fill="#4F3B2E"/>
<rect x="96.9351" y="45.0934" width="4.50905" height="4.50905" fill="#4F3B2E"/>
<rect x="92.426" y="49.6027" width="4.50905" height="4.50905" fill="#4F3B2E"/>
<rect x="92.426" y="54.1121" width="4.50905" height="4.50905" fill="#4F3B2E"/>
<rect x="92.426" y="58.6213" width="4.50905" height="4.50905" fill="#4F3B2E"/>
<rect x="92.426" y="63.1307" width="4.50905" height="4.50905" fill="#4F3B2E"/>
<rect x="92.426" y="67.64" width="4.50905" height="4.50905" fill="#4F3B2E"/>
<rect x="92.426" y="72.1494" width="4.50905" height="4.50905" fill="white"/>
<rect x="78.8989" y="72.1494" width="4.50905" height="4.50905" fill="white"/>
<rect x="92.426" y="76.6587" width="4.50905" height="4.50905" fill="#4F3B2E"/>
<rect x="78.8989" y="76.6587" width="4.50905" height="4.50905" fill="#4F3B2E"/>
<rect x="65.3716" y="76.6587" width="4.50905" height="4.50905" fill="#4F3B2E"/>
<rect x="51.8445" y="76.6587" width="4.50905" height="4.50905" fill="#4F3B2E"/>
<rect x="96.9351" y="76.6582" width="4.50905" height="4.50905" transform="rotate(-90 96.9351 76.6582)" fill="#4F3B2E"/>
<rect x="87.917" y="72.1494" width="4.50905" height="4.50905" fill="white"/>
<rect x="74.3896" y="72.1494" width="4.50905" height="4.50905" fill="white"/>
<rect x="60.8625" y="72.1494" width="4.50905" height="4.50905" fill="white"/>
<rect x="87.917" y="76.6587" width="4.50905" height="4.50905" fill="#4F3B2E"/>
<rect x="74.3896" y="76.6587" width="4.50905" height="4.50905" fill="#4F3B2E"/>
<rect x="60.8625" y="76.6587" width="4.50905" height="4.50905" fill="#4F3B2E"/>
<rect x="47.3354" y="76.6587" width="4.50905" height="4.50905" fill="#4F3B2E"/>
<rect x="96.9351" y="81.1669" width="4.50905" height="4.50905" transform="rotate(-90 96.9351 81.1669)" fill="#4F3B2E"/>
<rect x="83.408" y="81.1669" width="4.50905" height="4.50905" transform="rotate(-90 83.408 81.1669)" fill="#4F3B2E"/>
<rect x="69.8806" y="81.1669" width="4.50905" height="4.50905" transform="rotate(-90 69.8806 81.1669)" fill="#4F3B2E"/>
<rect x="56.3535" y="81.1669" width="4.50905" height="4.50905" transform="rotate(-90 56.3535 81.1669)" fill="#4F3B2E"/>
<rect x="83.408" y="31.5653" width="4.50905" height="4.50905" fill="#4F3B2E"/>
<rect x="78.8989" y="31.5653" width="4.50905" height="4.50905" fill="white"/>
<rect x="101.444" y="31.5653" width="4.50905" height="4.50905" fill="white"/>
<rect x="65.3716" y="31.5653" width="4.50905" height="4.50905" fill="white"/>
<rect x="65.3716" y="36.0747" width="40.5815" height="4.50905" fill="white"/>
<rect x="56.3535" y="49.6027" width="36.0724" height="4.50905" fill="#F2CB7F"/>
<rect x="56.3535" y="54.1121" width="36.0724" height="4.50905" fill="#F2CB7F"/>
<rect x="51.8445" y="54.1121" width="4.50905" height="22.5467" fill="#F2CB7F"/>
<rect x="47.3354" y="54.1121" width="4.50905" height="22.5467" fill="#4F3B2E"/>
<rect width="4.50905" height="9.01831" transform="matrix(1 0 0 -1 42.8264 58.6208)" fill="#4F3B2E"/>
<rect width="4.50905" height="13.5276" transform="matrix(1 0 0 -1 29.2993 67.64)" fill="#4F3B2E"/>
<rect width="4.50905" height="9.01831" transform="matrix(-1.19249e-08 -1 -1 1.19249e-08 42.8264 54.1115)" fill="#4F3B2E"/>
<rect width="4.50905" height="9.01831" transform="matrix(-1.19249e-08 -1 -1 1.19249e-08 47.3354 76.6593)" fill="#4F3B2E"/>
<rect x="65.3716" y="40.584" width="36.0724" height="4.50905" fill="white"/>
<rect x="74.3896" y="45.0934" width="22.5453" height="4.50905" fill="white"/>
<rect x="56.3535" y="58.6213" width="36.0724" height="4.50905" fill="#F2CB7F"/>
<rect x="56.3535" y="63.1307" width="36.0724" height="4.50905" fill="#F2CB7F"/>
<rect x="56.3535" y="67.64" width="36.0724" height="4.50905" fill="#F2CB7F"/>
<rect x="60.8625" y="31.5653" width="4.50905" height="4.50905" fill="#F2CB7F"/>
<rect x="60.8625" y="36.0747" width="4.50905" height="4.50905" fill="#F2CB7F"/>
<rect x="74.3896" y="22.5467" width="4.50905" height="4.50905" fill="white"/>
<rect x="74.3896" y="27.056" width="4.50905" height="4.50905" fill="#4F3B2E"/>
<rect x="83.408" y="40.584" width="4.50905" height="4.50905" fill="#4F3B2E"/>
<rect x="83.408" y="49.6027" width="4.50905" height="4.50905" fill="white"/>
<rect x="83.408" y="54.1121" width="4.50905" height="4.50905" fill="white"/>
<rect x="83.408" y="58.6213" width="4.50905" height="4.50905" fill="white"/>
<rect x="69.8806" y="45.0934" width="4.50905" height="4.50905" fill="#F2CB7F"/>
<rect width="4.50905" height="4.50905" transform="matrix(-1 0 0 1 127.061 78.9133)" fill="#4F3B2E"/>
<rect width="4.50905" height="4.50905" transform="matrix(-1 0 0 1 127.061 83.4226)" fill="#4F3B2E"/>
<rect width="4.50905" height="4.50905" transform="matrix(-1 0 0 1 140.588 83.4226)" fill="#4F3B2E"/>
<rect width="4.50905" height="4.50905" transform="matrix(-1 0 0 1 127.061 87.932)" fill="#4F3B2E"/>
<rect width="4.50905" height="4.50905" transform="matrix(-1 0 0 1 140.588 87.932)" fill="#4F3B2E"/>
<rect width="4.50905" height="4.50905" transform="matrix(-1 0 0 1 131.57 78.9133)" fill="#4F3B2E"/>
<rect width="4.50905" height="4.50905" transform="matrix(-1 0 0 1 131.57 92.4413)" fill="#4F3B2E"/>
<rect width="4.50905" height="4.50905" transform="matrix(-1 0 0 1 149.606 87.932)" fill="#4F3B2E"/>
<rect width="4.50905" height="4.50905" transform="matrix(-1 0 0 1 145.097 87.932)" fill="#4F3B2E"/>
<rect width="4.50905" height="4.50905" transform="matrix(-1 0 0 1 136.079 78.9133)" fill="#4F3B2E"/>
<rect width="4.50905" height="4.50905" transform="matrix(-1 0 0 1 136.079 92.4413)" fill="#4F3B2E"/>
<rect width="4.50905" height="4.50905" transform="matrix(-1 0 0 1 154.115 87.932)" fill="#4F3B2E"/>
<rect width="9.0181" height="9.01867" transform="matrix(-1 0 0 1 136.079 83.4226)" fill="#F2CB7F"/>
<rect x="167.643" y="83.4226" width="4.50905" height="4.50905" fill="#4F3B2E"/>
<rect x="154.115" y="83.4226" width="4.50905" height="4.50905" fill="#4F3B2E"/>
<rect x="167.643" y="87.932" width="4.50905" height="4.50905" fill="#4F3B2E"/>
<rect x="154.115" y="87.932" width="4.50905" height="4.50905" fill="#4F3B2E"/>
<rect x="149.606" y="92.4413" width="4.50905" height="4.50905" fill="#F2CB7F"/>
<rect x="149.606" y="96.9507" width="4.50905" height="4.50905" fill="#F2CB7F"/>
<rect x="149.606" y="101.46" width="4.50905" height="4.50905" fill="#F2CB7F"/>
<rect x="158.625" y="96.9507" width="4.50905" height="4.50905" fill="#F2CB7F"/>
<rect x="158.625" y="105.969" width="4.50905" height="4.50905" fill="#F2CB7F"/>
<rect x="158.625" y="110.479" width="4.50905" height="4.50905" fill="white"/>
<rect x="158.625" y="114.988" width="4.50905" height="4.50905" fill="white"/>
<rect x="158.625" y="101.46" width="4.50905" height="4.50905" fill="#F2CB7F"/>
<rect x="154.115" y="92.4413" width="4.50905" height="4.50905" fill="#F2CB7F"/>
<rect x="154.115" y="96.9507" width="4.50905" height="4.50905" fill="#F2CB7F"/>
<rect x="154.115" y="105.969" width="4.50905" height="4.50905" fill="#F2CB7F"/>
<rect x="154.115" y="110.479" width="4.50905" height="4.50905" fill="white"/>
<rect x="154.115" y="114.988" width="4.50905" height="4.50905" fill="white"/>
<rect x="154.115" y="119.497" width="4.50905" height="4.50905" fill="white"/>
<rect x="158.624" y="119.497" width="4.50905" height="4.50905" fill="#F2CB7F"/>
<rect x="154.115" y="101.46" width="4.50905" height="4.50905" fill="#4F3B2E"/>
<rect x="145.097" y="105.969" width="4.50905" height="4.50905" fill="#4F3B2E"/>
<rect x="145.097" y="110.479" width="4.50905" height="4.50905" fill="white"/>
<rect x="145.097" y="114.988" width="4.50905" height="4.50905" fill="white"/>
<rect x="145.097" y="119.497" width="4.50905" height="4.50905" fill="white"/>
<rect x="140.588" y="105.969" width="4.50905" height="4.50905" fill="#4F3B2E"/>
<rect x="140.588" y="110.479" width="4.50905" height="4.50905" fill="white"/>
<rect x="140.588" y="114.988" width="4.50905" height="4.50905" fill="white"/>
<rect x="140.588" y="119.497" width="4.50905" height="4.50905" fill="white"/>
<rect x="145.097" y="114.988" width="4.50905" height="4.50905" fill="#4F3B2E"/>
<rect x="163.134" y="96.9507" width="4.50905" height="4.50905" fill="#F2CB7F"/>
<rect x="163.134" y="105.969" width="4.50905" height="4.50905" fill="#F2CB7F"/>
<rect x="163.134" y="110.479" width="4.50905" height="4.50905" fill="#F2CB7F"/>
<rect x="163.134" y="114.988" width="4.50905" height="4.50905" fill="#F2CB7F"/>
<rect x="163.134" y="101.46" width="4.50905" height="4.50905" fill="#F2CB7F"/>
<rect width="4.50905" height="4.50905" transform="matrix(-1 0 0 1 145.097 92.4413)" fill="#F2CB7F"/>
<rect width="4.50905" height="4.50905" transform="matrix(-1 0 0 1 149.606 92.4413)" fill="#F2CB7F"/>
<rect width="4.50905" height="4.50905" transform="matrix(-1 0 0 1 145.097 96.9507)" fill="#F2CB7F"/>
<rect width="4.50905" height="4.50905" transform="matrix(-1 0 0 1 149.606 96.9507)" fill="#F2CB7F"/>
<rect width="4.50905" height="4.50905" transform="matrix(-1 0 0 1 145.097 101.46)" fill="#F2CB7F"/>
<rect width="4.50905" height="4.50905" transform="matrix(-1 0 0 1 149.606 101.46)" fill="#F2CB7F"/>
<rect width="4.50905" height="4.50905" transform="matrix(-1 0 0 1 136.079 96.9507)" fill="#F2CB7F"/>
<rect width="4.50905" height="4.50905" transform="matrix(-1 0 0 1 136.079 105.969)" fill="#F2CB7F"/>
<rect width="4.50905" height="4.50905" transform="matrix(-1 0 0 1 136.079 110.479)" fill="white"/>
<rect width="4.50905" height="4.50905" transform="matrix(-1 0 0 1 136.079 114.988)" fill="white"/>
<rect width="4.50905" height="4.50905" transform="matrix(-1 0 0 1 136.079 101.46)" fill="#F2CB7F"/>
<rect width="4.50905" height="4.50905" transform="matrix(-1 0 0 1 140.588 92.4413)" fill="#F2CB7F"/>
<rect width="4.50905" height="4.50905" transform="matrix(-1 0 0 1 140.588 96.9507)" fill="#F2CB7F"/>
<rect width="4.50905" height="4.50905" transform="matrix(-1 0 0 1 140.588 105.969)" fill="white"/>
<rect width="4.50905" height="4.50905" transform="matrix(-1 0 0 1 140.588 110.479)" fill="white"/>
<rect width="4.50905" height="4.50905" transform="matrix(-1 0 0 1 140.588 114.988)" fill="white"/>
<rect width="4.50905" height="4.50905" transform="matrix(-1 0 0 1 140.588 119.497)" fill="white"/>
<rect width="4.50905" height="4.50905" transform="matrix(-1 0 0 1 154.115 105.969)" fill="white"/>
<rect width="4.50905" height="4.50905" transform="matrix(-1 0 0 1 154.115 110.479)" fill="white"/>
<rect width="4.50905" height="4.50905" transform="matrix(-1 0 0 1 154.115 114.988)" fill="white"/>
<rect width="4.50905" height="4.50905" transform="matrix(-1 0 0 1 154.115 119.497)" fill="white"/>
<rect width="22.545" height="4.50905" transform="matrix(-1 0 0 1 163.133 133.025)" fill="#F2CB7F"/>
<rect width="22.545" height="4.50905" transform="matrix(-1 0 0 1 163.133 128.516)" fill="#F2CB7F"/>
<rect width="22.545" height="4.50905" transform="matrix(-1 0 0 1 163.133 124.007)" fill="#F2CB7F"/>
<rect width="4.50905" height="4.50905" transform="matrix(-1 0 0 1 145.097 137.535)" fill="#F2CB7F"/>
<rect width="4.50905" height="4.50905" transform="matrix(-1 0 0 1 149.606 137.535)" fill="#F2CB7F"/>
<rect width="13.5269" height="4.50905" transform="matrix(-1 0 0 1 163.133 137.535)" fill="#F2CB7F"/>
<rect width="4.50905" height="4.50905" transform="matrix(-1 0 0 1 172.152 137.535)" fill="#F2CB7F"/>
<rect width="4.50905" height="4.50905" transform="matrix(-1 0 0 1 172.152 133.025)" fill="#F2CB7F"/>
<rect width="4.50905" height="4.50905" transform="matrix(-1 0 0 1 172.152 128.516)" fill="#F2CB7F"/>
<rect width="4.50905" height="4.50905" transform="matrix(-1 0 0 1 172.152 124.007)" fill="#F2CB7F"/>
<rect width="4.50905" height="4.50905" transform="matrix(-1 0 0 1 176.661 137.535)" fill="#F2CB7F"/>
<rect width="4.50905" height="4.50905" transform="matrix(-1 0 0 1 176.661 133.025)" fill="#F2CB7F"/>
<rect width="4.50905" height="4.50905" transform="matrix(-1 0 0 1 176.661 128.516)" fill="#F2CB7F"/>
<rect width="4.50905" height="4.50905" transform="matrix(-1 0 0 1 176.661 124.007)" fill="#F2CB7F"/>
<rect width="4.50905" height="4.50905" transform="matrix(-1 0 0 1 181.17 137.535)" fill="#F2CB7F"/>
<rect width="4.50905" height="4.50905" transform="matrix(-1 0 0 1 181.17 133.025)" fill="#F2CB7F"/>
<rect width="4.50905" height="4.50905" transform="matrix(-1 0 0 1 181.17 128.516)" fill="#F2CB7F"/>
<rect width="4.50905" height="4.50905" transform="matrix(-1 0 0 1 145.097 142.044)" fill="#F2CB7F"/>
<rect width="4.50905" height="4.50905" transform="matrix(-1 0 0 1 149.606 142.044)" fill="#F2CB7F"/>
<rect width="18.0362" height="4.50905" transform="matrix(-1 0 0 1 167.642 142.044)" fill="#F2CB7F"/>
<rect width="18.0362" height="4.50905" transform="matrix(-1 0 0 1 167.642 146.553)" fill="#F2CB7F"/>
<rect width="4.50905" height="4.50905" transform="matrix(-1 0 0 1 172.152 142.044)" fill="#F2CB7F"/>
<rect width="4.50905" height="4.50905" transform="matrix(-1 0 0 1 176.661 142.044)" fill="#F2CB7F"/>
<rect width="4.50905" height="4.50905" transform="matrix(-1 0 0 1 181.17 142.044)" fill="#F2CB7F"/>
<rect width="4.50905" height="4.50905" transform="matrix(-1 0 0 1 145.097 146.553)" fill="white"/>
<rect width="4.50905" height="4.50905" transform="matrix(-1 0 0 1 149.606 146.553)" fill="#F2CB7F"/>
<rect width="4.50905" height="4.50905" transform="matrix(-1 0 0 1 140.588 101.46)" fill="#4F3B2E"/>
<rect width="4.50905" height="4.50905" transform="matrix(-1 0 0 1 131.57 96.9507)" fill="#F2CB7F"/>
<rect width="4.50905" height="4.50905" transform="matrix(-1 0 0 1 131.57 105.969)" fill="#F2CB7F"/>
<rect width="4.50905" height="4.50905" transform="matrix(-1 0 0 1 131.57 101.46)" fill="#F2CB7F"/>
<rect x="163.134" y="78.9133" width="4.50905" height="4.50905" fill="#4F3B2E"/>
<rect x="163.134" y="92.4413" width="4.50905" height="4.50905" fill="#4F3B2E"/>
<rect x="167.643" y="92.4413" width="4.50905" height="4.50905" fill="#4F3B2E"/>
<rect x="167.643" y="101.46" width="4.50905" height="4.50905" fill="#4F3B2E"/>
<rect x="127.061" y="101.46" width="4.50905" height="4.50905" fill="#4F3B2E"/>
<rect x="136.079" y="124.007" width="4.50905" height="4.50905" fill="#4F3B2E"/>
<rect x="163.134" y="119.497" width="4.50905" height="4.50905" fill="#4F3B2E"/>
<rect x="167.643" y="110.479" width="4.50905" height="4.50905" fill="#4F3B2E"/>
<rect x="127.061" y="110.479" width="4.50905" height="4.50905" fill="#4F3B2E"/>
<rect x="136.079" y="133.025" width="4.50905" height="4.50905" fill="#4F3B2E"/>
<rect x="163.134" y="128.516" width="4.50905" height="4.50905" fill="#4F3B2E"/>
<rect x="181.17" y="128.516" width="4.50905" height="4.50905" fill="#4F3B2E"/>
<rect x="190.188" y="128.516" width="4.50905" height="4.50905" fill="#4F3B2E"/>
<rect x="199.206" y="128.516" width="4.50905" height="4.50905" fill="#4F3B2E"/>
<rect x="176.661" y="124.007" width="4.50905" height="4.50905" fill="#4F3B2E"/>
<rect x="190.188" y="124.007" width="4.50905" height="4.50905" fill="#4F3B2E"/>
<rect x="194.697" y="124.007" width="4.50905" height="4.50905" fill="#4F3B2E"/>
<rect x="167.643" y="96.9507" width="4.50905" height="4.50905" fill="#4F3B2E"/>
<rect x="127.061" y="96.9507" width="4.50905" height="4.50905" fill="#4F3B2E"/>
<rect x="167.643" y="105.969" width="4.50905" height="4.50905" fill="#4F3B2E"/>
<rect x="127.061" y="105.969" width="4.50905" height="4.50905" fill="#4F3B2E"/>
<rect x="136.079" y="128.516" width="4.50905" height="4.50905" fill="#4F3B2E"/>
<rect x="163.134" y="124.007" width="4.50905" height="4.50905" fill="#4F3B2E"/>
<rect x="167.643" y="114.988" width="4.50905" height="4.50905" fill="#4F3B2E"/>
<rect x="127.061" y="114.988" width="4.50905" height="4.50905" fill="#4F3B2E"/>
<rect x="136.079" y="137.535" width="4.50905" height="4.50905" fill="#4F3B2E"/>
<rect x="163.134" y="133.025" width="4.50905" height="4.50905" fill="#4F3B2E"/>
<rect x="181.17" y="133.025" width="4.50905" height="4.50905" fill="#4F3B2E"/>
<rect x="190.188" y="133.025" width="4.50905" height="4.50905" fill="#4F3B2E"/>
<rect x="199.206" y="133.025" width="4.50905" height="4.50905" fill="#4F3B2E"/>
<rect x="199.206" y="137.535" width="4.50905" height="4.50905" fill="#4F3B2E"/>
<rect x="190.188" y="146.553" width="4.50905" height="4.50905" fill="#4F3B2E"/>
<rect x="194.697" y="142.044" width="4.50905" height="4.50905" fill="#4F3B2E"/>
<rect x="136.079" y="142.044" width="4.50905" height="4.50905" fill="#4F3B2E"/>
<rect x="131.57" y="146.553" width="4.50905" height="4.50905" fill="#4F3B2E"/>
<rect x="131.57" y="151.063" width="4.50905" height="4.50905" fill="#4F3B2E"/>
<rect x="136.079" y="151.063" width="4.50905" height="4.50905" fill="#4F3B2E"/>
<rect x="140.588" y="151.063" width="4.50905" height="4.50905" fill="#4F3B2E"/>
<rect x="145.097" y="151.063" width="4.50905" height="4.50905" fill="#4F3B2E"/>
<rect x="149.606" y="151.063" width="4.50905" height="4.50905" fill="#4F3B2E"/>
<rect x="154.115" y="151.063" width="4.50905" height="4.50905" fill="#4F3B2E"/>
<rect x="158.625" y="151.063" width="4.50905" height="4.50905" fill="#4F3B2E"/>
<rect x="163.134" y="151.063" width="4.50905" height="4.50905" fill="#4F3B2E"/>
<rect x="167.643" y="151.063" width="4.50905" height="4.50905" fill="#4F3B2E"/>
<rect x="172.152" y="151.063" width="4.50905" height="4.50905" fill="#4F3B2E"/>
<rect x="176.661" y="151.063" width="4.50905" height="4.50905" fill="#4F3B2E"/>
<rect x="181.17" y="151.063" width="4.50905" height="4.50905" fill="#4F3B2E"/>
<rect x="163.134" y="137.535" width="4.50905" height="4.50905" fill="#4F3B2E"/>
<rect x="181.17" y="137.535" width="4.50905" height="4.50905" fill="#4F3B2E"/>
<rect x="185.679" y="137.535" width="4.50905" height="4.50905" fill="#4F3B2E"/>
<rect x="185.679" y="146.553" width="4.50905" height="4.50905" fill="#4F3B2E"/>
<rect x="131.57" y="119.497" width="4.50905" height="4.50905" fill="#4F3B2E"/>
<rect x="167.643" y="119.497" width="4.50905" height="4.50905" fill="#4F3B2E"/>
<rect x="172.152" y="119.497" width="4.50905" height="4.50905" fill="#4F3B2E"/>
<rect x="158.625" y="78.9133" width="4.50905" height="4.50905" fill="#4F3B2E"/>
<rect x="154.115" y="78.9133" width="4.50905" height="4.50905" fill="#4F3B2E"/>
<rect x="158.625" y="92.4413" width="4.50905" height="4.50905" fill="#4F3B2E"/>
<rect x="154.115" y="92.4413" width="4.50905" height="4.50905" fill="white"/>
<rect x="194.697" y="128.516" width="4.50905" height="4.50905" fill="white"/>
<rect x="194.697" y="133.025" width="4.50905" height="4.50905" fill="#F2CB7F"/>
<rect x="194.697" y="137.535" width="4.50905" height="4.50905" fill="#F2CB7F"/>
<rect x="190.188" y="137.535" width="4.50905" height="4.50905" fill="#F2CB7F"/>
<rect x="190.188" y="142.044" width="4.50905" height="4.50905" fill="#F2CB7F"/>
<rect x="185.679" y="142.044" width="4.50905" height="4.50905" fill="#F2CB7F"/>
<rect x="181.17" y="142.044" width="4.50905" height="4.50905" fill="#F2CB7F"/>
<rect x="181.17" y="146.553" width="4.50905" height="4.50905" fill="#F2CB7F"/>
<rect x="176.66" y="146.553" width="4.50905" height="4.50905" fill="#F2CB7F"/>
<rect x="172.151" y="146.553" width="4.50905" height="4.50905" fill="#F2CB7F"/>
<rect x="167.642" y="146.553" width="4.50905" height="4.50905" fill="white"/>
<rect x="149.606" y="146.553" width="4.50905" height="4.50905" fill="white"/>
<rect x="136.079" y="146.553" width="4.50905" height="4.50905" fill="white"/>
<rect x="154.115" y="146.553" width="4.50905" height="4.50905" fill="white"/>
<rect x="136.079" y="92.4413" width="4.50905" height="4.50905" fill="white"/>
<rect x="158.625" y="83.4226" width="9.0181" height="9.01867" fill="#F2CB7F"/>
<rect width="4.50905" height="4.50905" transform="matrix(-1 0 0 1 201.461 42.8375)" fill="#4F3B2E"/>
<rect width="4.50905" height="4.50905" transform="matrix(-1 0 0 1 201.461 47.3469)" fill="#4F3B2E"/>
<rect width="4.50905" height="4.50905" transform="matrix(-1 0 0 1 219.497 47.3469)" fill="#4F3B2E"/>
<rect width="4.50905" height="4.50905" transform="matrix(-1 0 0 1 201.461 51.8562)" fill="#4F3B2E"/>
<rect width="4.50905" height="4.50905" transform="matrix(-1 0 0 1 219.497 51.8562)" fill="#4F3B2E"/>
<rect width="4.50905" height="4.50905" transform="matrix(-1 0 0 1 210.479 42.8375)" fill="#4F3B2E"/>
<rect width="4.50905" height="4.50905" transform="matrix(-1 0 0 1 210.479 56.3656)" fill="#4F3B2E"/>
<rect width="4.50905" height="4.50905" transform="matrix(-1 0 0 1 228.515 47.3469)" fill="#4F3B2E"/>
<rect width="4.50905" height="4.50905" transform="matrix(-1 0 0 1 205.97 42.8375)" fill="#4F3B2E"/>
<rect width="4.50905" height="4.50905" transform="matrix(-1 0 0 1 205.97 56.3656)" fill="#4F3B2E"/>
<rect width="4.50905" height="4.50905" transform="matrix(-1 0 0 1 224.006 47.3469)" fill="#4F3B2E"/>
<rect width="4.50905" height="4.50905" transform="matrix(-1 0 0 1 214.988 42.8375)" fill="#4F3B2E"/>
<rect width="4.50905" height="4.50905" transform="matrix(-1 0 0 1 214.988 56.3656)" fill="#4F3B2E"/>
<rect width="4.50905" height="4.50905" transform="matrix(-1 0 0 1 233.024 47.3469)" fill="#4F3B2E"/>
<rect width="13.5272" height="4.50905" transform="matrix(-1 0 0 1 214.988 47.3469)" fill="white"/>
<rect width="13.5272" height="9.01867" transform="matrix(-1 0 0 1 214.988 47.3469)" fill="#F2CB7F"/>
<rect x="251.06" y="42.8375" width="4.50905" height="4.50905" fill="#4F3B2E"/>
<rect x="251.06" y="47.3469" width="4.50905" height="4.50905" fill="#4F3B2E"/>
<rect x="233.024" y="47.3469" width="4.50905" height="4.50905" fill="#4F3B2E"/>
<rect x="251.06" y="51.8562" width="4.50905" height="4.50905" fill="#4F3B2E"/>
<rect x="233.024" y="51.8562" width="4.50905" height="4.50905" fill="#4F3B2E"/>
<rect x="228.515" y="51.8562" width="4.50905" height="4.50905" fill="#F2CB7F"/>
<rect x="224.006" y="51.8562" width="4.50905" height="4.50905" fill="white"/>
<rect x="228.515" y="56.3656" width="4.50905" height="4.50905" fill="#F2CB7F"/>
<rect x="224.006" y="56.3656" width="4.50905" height="4.50905" fill="white"/>
<rect x="228.515" y="60.8749" width="4.50905" height="4.50905" fill="#F2CB7F"/>
<rect x="224.006" y="60.8749" width="4.50905" height="4.50905" fill="white"/>
<rect x="228.515" y="65.3843" width="4.50905" height="4.50905" fill="#F2CB7F"/>
<rect x="228.515" y="69.8936" width="4.50905" height="4.50905" fill="white"/>
<rect x="228.515" y="74.403" width="4.50905" height="4.50905" fill="white"/>
<rect x="228.515" y="78.9122" width="4.50905" height="4.50905" fill="white"/>
<rect x="228.515" y="83.4216" width="4.50905" height="4.50905" fill="white"/>
<rect x="228.515" y="87.9309" width="4.50905" height="4.50905" fill="white"/>
<rect x="228.515" y="92.4403" width="4.50905" height="4.50905" fill="white"/>
<rect x="228.515" y="96.9496" width="4.50905" height="4.50905" fill="white"/>
<rect x="224.006" y="65.3843" width="4.50905" height="4.50905" fill="white"/>
<rect x="237.533" y="60.8749" width="4.50905" height="4.50905" fill="#F2CB7F"/>
<rect x="237.533" y="69.8936" width="4.50905" height="4.50905" fill="#F2CB7F"/>
<rect x="237.533" y="74.403" width="4.50905" height="4.50905" fill="white"/>
<rect x="237.533" y="78.9122" width="4.50905" height="4.50905" fill="white"/>
<rect x="237.533" y="83.4216" width="4.50905" height="4.50905" fill="white"/>
<rect x="237.533" y="87.9309" width="4.50905" height="4.50905" fill="white"/>
<rect x="237.533" y="92.4403" width="4.50905" height="4.50905" fill="white"/>
<rect x="237.533" y="96.9496" width="4.50905" height="4.50905" fill="white"/>
<rect x="237.533" y="101.459" width="4.50905" height="4.50905" fill="white"/>
<rect x="237.533" y="105.968" width="4.50905" height="4.50905" fill="white"/>
<rect x="237.533" y="110.478" width="4.50905" height="4.50905" fill="white"/>
<rect x="242.042" y="105.968" width="4.50905" height="4.50905" fill="white"/>
<rect x="246.551" y="87.9309" width="4.50905" height="4.50905" fill="white"/>
<rect x="251.06" y="87.9309" width="4.50905" height="4.50905" fill="white"/>
<rect x="242.042" y="110.478" width="4.50905" height="4.50905" fill="white"/>
<rect x="237.533" y="65.3843" width="4.50905" height="4.50905" fill="#F2CB7F"/>
<rect x="233.024" y="56.3656" width="4.50905" height="4.50905" fill="#F2CB7F"/>
<rect x="233.024" y="60.8749" width="4.50905" height="4.50905" fill="#F2CB7F"/>
<rect x="233.024" y="69.8936" width="4.50905" height="4.50905" fill="#F2CB7F"/>
<rect x="233.024" y="74.403" width="4.50905" height="4.50905" fill="white"/>
<rect x="233.024" y="78.9122" width="4.50905" height="4.50905" fill="white"/>
<rect x="233.024" y="83.4216" width="4.50905" height="4.50905" fill="white"/>
<rect x="233.024" y="87.9309" width="4.50905" height="4.50905" fill="white"/>
<rect x="233.024" y="92.4403" width="4.50905" height="4.50905" fill="white"/>
<rect x="233.024" y="96.9496" width="4.50905" height="4.50905" fill="white"/>
<rect x="233.024" y="101.459" width="4.50905" height="4.50905" fill="white"/>
<rect x="233.024" y="105.968" width="4.50905" height="4.50905" fill="white"/>
<rect x="233.024" y="110.478" width="4.50905" height="4.50905" fill="white"/>
<rect x="233.024" y="65.3843" width="4.50905" height="4.50905" fill="#4F3B2E"/>
<rect x="224.006" y="69.8936" width="4.50905" height="4.50905" fill="#4F3B2E"/>
<rect x="224.006" y="74.403" width="4.50905" height="4.50905" fill="white"/>
<rect x="224.006" y="78.9122" width="4.50905" height="4.50905" fill="white"/>
<rect x="224.006" y="78.9122" width="4.50905" height="4.50905" fill="#4F3B2E"/>
<rect x="224.006" y="83.4216" width="4.50905" height="4.50905" fill="white"/>
<rect x="224.006" y="87.9309" width="4.50905" height="4.50905" fill="white"/>
<rect x="224.006" y="92.4403" width="4.50905" height="4.50905" fill="white"/>
<rect x="224.006" y="96.9496" width="4.50905" height="4.50905" fill="white"/>
<rect x="242.042" y="60.8749" width="4.50905" height="4.50905" fill="#F2CB7F"/>
<rect x="242.042" y="69.8936" width="4.50905" height="4.50905" fill="#F2CB7F"/>
<rect x="242.042" y="74.403" width="4.50905" height="4.50905" fill="white"/>
<rect x="242.042" y="78.9122" width="4.50905" height="4.50905" fill="white"/>
<rect x="242.042" y="65.3843" width="4.50905" height="4.50905" fill="#F2CB7F"/>
<rect width="4.50905" height="4.50905" transform="matrix(-1 0 0 1 224.006 51.8562)" fill="#F2CB7F"/>
<rect width="4.50905" height="4.50905" transform="matrix(-1 0 0 1 224.006 56.3656)" fill="#F2CB7F"/>
<rect width="4.50905" height="4.50905" transform="matrix(-1 0 0 1 224.006 60.8749)" fill="#F2CB7F"/>
<rect width="4.50905" height="4.50905" transform="matrix(-1 0 0 1 224.006 65.3843)" fill="#F2CB7F"/>
<rect width="4.50905" height="4.50905" transform="matrix(-1 0 0 1 224.006 69.8936)" fill="white"/>
<rect width="4.50905" height="4.50905" transform="matrix(-1 0 0 1 224.006 74.403)" fill="white"/>
<rect width="4.50905" height="4.50905" transform="matrix(-1 0 0 1 224.006 78.9122)" fill="white"/>
<rect width="4.50905" height="4.50905" transform="matrix(-1 0 0 1 224.006 83.4216)" fill="white"/>
<rect width="4.50905" height="4.50905" transform="matrix(-1 0 0 1 224.006 87.9309)" fill="white"/>
<rect width="4.50905" height="4.50905" transform="matrix(-1 0 0 1 224.006 92.4403)" fill="white"/>
<rect width="4.50905" height="4.50905" transform="matrix(-1 0 0 1 214.988 60.8749)" fill="#F2CB7F"/>
<rect width="4.50905" height="4.50905" transform="matrix(-1 0 0 1 214.988 69.8936)" fill="#F2CB7F"/>
<rect width="4.50905" height="4.50905" transform="matrix(-1 0 0 1 214.988 74.403)" fill="white"/>
<rect width="4.50905" height="4.50905" transform="matrix(-1 0 0 1 214.988 78.9122)" fill="white"/>
<rect width="4.50905" height="4.50905" transform="matrix(-1 0 0 1 214.988 65.3843)" fill="#F2CB7F"/>
<rect width="4.50905" height="4.50905" transform="matrix(-1 0 0 1 219.497 56.3656)" fill="#F2CB7F"/>
<rect width="4.50905" height="4.50905" transform="matrix(-1 0 0 1 219.497 60.8749)" fill="#F2CB7F"/>
<rect width="4.50905" height="4.50905" transform="matrix(-1 0 0 1 219.497 69.8936)" fill="#F2CB7F"/>
<rect width="4.50905" height="4.50905" transform="matrix(-1 0 0 1 219.497 74.403)" fill="white"/>
<rect width="4.50905" height="4.50905" transform="matrix(-1 0 0 1 219.497 78.9122)" fill="white"/>
<rect width="4.50905" height="4.50905" transform="matrix(-1 0 0 1 219.497 83.4216)" fill="white"/>
<rect width="4.50905" height="4.50905" transform="matrix(-1 0 0 1 224.006 96.9496)" fill="#F2CB7F"/>
<rect width="4.50905" height="4.50905" transform="matrix(-1 0 0 1 224.006 101.459)" fill="#F2CB7F"/>
<rect width="4.50905" height="4.50905" transform="matrix(-1 0 0 1 228.515 101.459)" fill="#F2CB7F"/>
<rect width="4.50905" height="4.50905" transform="matrix(-1 0 0 1 233.024 101.459)" fill="#F2CB7F"/>
<rect width="4.50905" height="4.50905" transform="matrix(-1 0 0 1 251.06 101.459)" fill="#F2CB7F"/>
<rect width="4.50905" height="4.50905" transform="matrix(-1 0 0 1 251.06 96.9496)" fill="#F2CB7F"/>
<rect width="4.50905" height="4.50905" transform="matrix(-1 0 0 1 251.06 92.4403)" fill="#F2CB7F"/>
<rect width="4.50905" height="4.50905" transform="matrix(-1 0 0 1 255.569 101.459)" fill="#F2CB7F"/>
<rect width="4.50905" height="4.50905" transform="matrix(-1 0 0 1 255.569 96.9496)" fill="#F2CB7F"/>
<rect width="4.50905" height="4.50905" transform="matrix(-1 0 0 1 255.569 92.4403)" fill="#F2CB7F"/>
<rect width="4.50905" height="4.50905" transform="matrix(-1 0 0 1 260.078 101.459)" fill="#F2CB7F"/>
<rect width="4.50905" height="4.50905" transform="matrix(-1 0 0 1 260.078 96.9496)" fill="#F2CB7F"/>
<rect width="4.50905" height="4.50905" transform="matrix(-1 0 0 1 260.078 92.4403)" fill="#F2CB7F"/>
<rect width="4.50905" height="4.50905" transform="matrix(-1 0 0 1 224.006 105.968)" fill="#F2CB7F"/>
<rect width="4.50905" height="4.50905" transform="matrix(-1 0 0 1 228.515 105.968)" fill="#F2CB7F"/>
<rect width="4.50905" height="4.50905" transform="matrix(-1 0 0 1 233.024 105.968)" fill="#F2CB7F"/>
<rect width="4.50905" height="4.50905" transform="matrix(-1 0 0 1 233.024 110.478)" fill="white"/>
<rect width="4.50905" height="4.50905" transform="matrix(-1 0 0 1 251.06 105.968)" fill="#F2CB7F"/>
<rect width="4.50905" height="4.50905" transform="matrix(-1 0 0 1 251.06 110.478)" fill="white"/>
<rect width="4.50905" height="4.50905" transform="matrix(-1 0 0 1 255.569 105.968)" fill="#F2CB7F"/>
<rect width="4.50905" height="4.50905" transform="matrix(-1 0 0 1 255.569 110.478)" fill="white"/>
<rect width="4.50905" height="4.50905" transform="matrix(-1 0 0 1 260.078 105.968)" fill="#F2CB7F"/>
<rect width="9.0181" height="4.50905" transform="matrix(-1 0 0 1 264.587 110.478)" fill="white"/>
<rect width="9.0181" height="4.50905" transform="matrix(-1 0 0 1 269.096 105.968)" fill="white"/>
<rect width="9.0181" height="4.50905" transform="matrix(1.19249e-08 -1 -1 -1.19249e-08 273.605 110.477)" fill="white"/>
<rect width="13.5274" height="4.50905" transform="matrix(1.19249e-08 -1 -1 -1.19249e-08 278.115 105.968)" fill="white"/>
<rect width="4.50905" height="4.50905" transform="matrix(-1 0 0 1 224.006 110.478)" fill="#F2CB7F"/>
<rect width="4.50905" height="4.50905" transform="matrix(-1 0 0 1 219.497 110.478)" fill="#F2CB7F"/>
<rect width="4.50905" height="4.50905" transform="matrix(-1 0 0 1 228.515 110.478)" fill="#F2CB7F"/>
<rect width="4.50905" height="4.50905" transform="matrix(-1 0 0 1 219.497 65.3843)" fill="#4F3B2E"/>
<rect width="4.50905" height="4.50905" transform="matrix(-1 0 0 1 210.479 60.8749)" fill="#F2CB7F"/>
<rect width="4.50905" height="4.50905" transform="matrix(-1 0 0 1 210.479 69.8936)" fill="#F2CB7F"/>
<rect width="4.50905" height="4.50905" transform="matrix(-1 0 0 1 210.479 65.3843)" fill="#F2CB7F"/>
<rect x="242.042" y="42.8375" width="4.50905" height="4.50905" fill="#4F3B2E"/>
<rect x="242.042" y="56.3656" width="4.50905" height="4.50905" fill="#4F3B2E"/>
<rect x="246.551" y="42.8375" width="4.50905" height="4.50905" fill="#4F3B2E"/>
<rect x="246.551" y="56.3656" width="4.50905" height="4.50905" fill="#4F3B2E"/>
<rect x="246.551" y="65.3843" width="4.50905" height="4.50905" fill="#4F3B2E"/>
<rect x="205.97" y="65.3843" width="4.50905" height="4.50905" fill="#4F3B2E"/>
<rect x="214.988" y="87.9309" width="4.50905" height="4.50905" fill="#4F3B2E"/>
<rect x="242.042" y="83.4216" width="4.50905" height="4.50905" fill="#4F3B2E"/>
<rect x="246.551" y="74.403" width="4.50905" height="4.50905" fill="#4F3B2E"/>
<rect x="205.97" y="74.403" width="4.50905" height="4.50905" fill="#4F3B2E"/>
<rect x="214.988" y="96.9496" width="4.50905" height="4.50905" fill="#4F3B2E"/>
<rect x="242.042" y="92.4403" width="4.50905" height="4.50905" fill="#4F3B2E"/>
<rect x="260.078" y="92.4403" width="4.50905" height="4.50905" fill="#4F3B2E"/>
<rect x="269.096" y="92.4403" width="4.50905" height="4.50905" fill="#4F3B2E"/>
<rect x="278.115" y="92.4403" width="4.50905" height="4.50905" fill="#4F3B2E"/>
<rect x="255.569" y="87.9309" width="4.50905" height="4.50905" fill="#4F3B2E"/>
<rect x="269.096" y="87.9309" width="4.50905" height="4.50905" fill="#4F3B2E"/>
<rect x="273.605" y="87.9309" width="4.50905" height="4.50905" fill="#4F3B2E"/>
<rect x="246.551" y="60.8749" width="4.50905" height="4.50905" fill="#4F3B2E"/>
<rect x="205.97" y="60.8749" width="4.50905" height="4.50905" fill="#4F3B2E"/>
<rect x="246.551" y="69.8936" width="4.50905" height="4.50905" fill="#4F3B2E"/>
<rect x="205.97" y="69.8936" width="4.50905" height="4.50905" fill="#4F3B2E"/>
<rect x="214.988" y="92.4403" width="4.50905" height="4.50905" fill="#4F3B2E"/>
<rect x="242.042" y="87.9309" width="4.50905" height="4.50905" fill="#4F3B2E"/>
<rect x="246.551" y="78.9122" width="4.50905" height="4.50905" fill="#4F3B2E"/>
<rect x="205.97" y="78.9122" width="4.50905" height="4.50905" fill="#4F3B2E"/>
<rect x="214.988" y="101.459" width="4.50905" height="4.50905" fill="#4F3B2E"/>
<rect x="242.042" y="96.9496" width="4.50905" height="4.50905" fill="#4F3B2E"/>
<rect x="260.078" y="96.9496" width="4.50905" height="4.50905" fill="#4F3B2E"/>
<rect x="269.096" y="96.9496" width="4.50905" height="4.50905" fill="#4F3B2E"/>
<rect x="269.096" y="110.478" width="4.50905" height="4.50905" fill="#4F3B2E"/>
<rect x="278.115" y="96.9496" width="4.50905" height="4.50905" fill="#4F3B2E"/>
<rect x="278.115" y="101.459" width="4.50905" height="4.50905" fill="#4F3B2E"/>
<rect x="273.605" y="105.968" width="4.50905" height="4.50905" fill="#4F3B2E"/>
<rect x="214.988" y="105.968" width="4.50905" height="4.50905" fill="#4F3B2E"/>
<rect x="210.479" y="110.478" width="4.50905" height="4.50905" fill="#4F3B2E"/>
<rect x="210.479" y="114.987" width="4.50905" height="4.50905" fill="#4F3B2E"/>
<rect x="214.988" y="114.987" width="4.50905" height="4.50905" fill="#4F3B2E"/>
<rect x="219.497" y="114.987" width="4.50905" height="4.50905" fill="#4F3B2E"/>
<rect x="224.006" y="114.987" width="4.50905" height="4.50905" fill="#4F3B2E"/>
<rect x="228.515" y="114.987" width="4.50905" height="4.50905" fill="#4F3B2E"/>
<rect x="233.024" y="114.987" width="4.50905" height="4.50905" fill="#4F3B2E"/>
<rect x="237.533" y="114.987" width="4.50905" height="4.50905" fill="#4F3B2E"/>
<rect x="242.042" y="114.987" width="4.50905" height="4.50905" fill="#4F3B2E"/>
<rect x="246.551" y="114.987" width="4.50905" height="4.50905" fill="#4F3B2E"/>
<rect x="251.06" y="114.987" width="4.50905" height="4.50905" fill="#4F3B2E"/>
<rect x="255.569" y="114.987" width="4.50905" height="4.50905" fill="#4F3B2E"/>
<rect x="260.078" y="114.987" width="4.50905" height="4.50905" fill="#4F3B2E"/>
<rect x="242.042" y="101.459" width="4.50905" height="4.50905" fill="#4F3B2E"/>
<rect x="260.078" y="101.459" width="4.50905" height="4.50905" fill="#4F3B2E"/>
<rect x="264.587" y="101.459" width="4.50905" height="4.50905" fill="#4F3B2E"/>
<rect x="264.587" y="110.478" width="4.50905" height="4.50905" fill="#4F3B2E"/>
<rect x="210.479" y="83.4216" width="4.50905" height="4.50905" fill="#4F3B2E"/>
<rect x="246.551" y="83.4216" width="4.50905" height="4.50905" fill="#4F3B2E"/>
<rect x="251.06" y="83.4216" width="4.50905" height="4.50905" fill="#4F3B2E"/>
<rect x="237.533" y="42.8375" width="4.50905" height="4.50905" fill="#4F3B2E"/>
<rect x="237.533" y="56.3656" width="4.50905" height="4.50905" fill="#4F3B2E"/>
<rect x="237.533" y="47.3469" width="13.5272" height="9.01867" fill="#F2CB7F"/>
<rect x="156.385" y="31.5653" width="4.50905" height="4.50905" fill="#82B726"/>
<rect x="160.894" y="31.5653" width="45.0915" height="4.50905" fill="#82B726"/>
<rect x="205.985" y="31.5653" width="45.0915" height="4.50905" fill="#82B726"/>
<rect x="169.912" y="18.0374" width="67.6375" height="4.50905" fill="#82B726"/>
<rect x="156.385" y="27.056" width="4.50905" height="4.50905" fill="#82B726"/>
<rect x="160.894" y="27.056" width="45.0915" height="4.50905" fill="#82B726"/>
<rect x="205.985" y="27.056" width="33.7868" height="4.50905" fill="#82B726"/>
<rect x="169.912" y="13.528" width="65.3512" height="4.50905" fill="#82B726"/>
<rect x="156.385" y="22.5467" width="4.50905" height="4.50905" fill="#82B726"/>
<rect x="160.894" y="22.5467" width="45.0915" height="4.50905" fill="#82B726"/>
<rect x="205.985" y="22.5467" width="36.0412" height="4.50905" fill="#82B726"/>
<rect x="160.894" y="18.0374" width="4.50905" height="4.50905" fill="#82B726"/>
<rect x="169.912" y="9.01868" width="4.50905" height="4.50905" fill="#82B726"/>
<rect x="210.495" y="9.01868" width="4.50905" height="4.50905" fill="#82B726"/>
<rect x="178.93" y="9.01868" width="4.50905" height="4.50905" fill="#82B726"/>
<rect x="219.513" y="9.01868" width="4.50905" height="4.50905" fill="#82B726"/>
<rect x="178.93" y="4.50934" width="4.50905" height="4.50905" fill="#82B726"/>
<rect x="219.513" y="4.50934" width="4.50905" height="4.50905" fill="#82B726"/>
<rect x="224.022" y="4.50934" width="4.50905" height="4.50905" fill="#82B726"/>
<rect x="178.93" width="4.50905" height="4.50905" fill="#82B726"/>
<rect x="187.948" y="4.50934" width="4.50905" height="4.50905" fill="#82B726"/>
<rect x="187.948" y="9.01868" width="4.50905" height="4.50905" fill="#82B726"/>
<rect x="187.948" width="4.50905" height="4.50905" fill="#82B726"/>
<rect x="196.966" y="9.01868" width="4.50905" height="4.50905" fill="#82B726"/>
<rect x="196.966" y="4.50934" width="4.50905" height="4.50905" fill="#82B726"/>
<rect x="165.403" y="18.0374" width="4.50905" height="4.50905" fill="#82B726"/>
<rect x="174.421" y="9.01868" width="4.50905" height="4.50905" fill="#82B726"/>
<rect x="215.004" y="9.01868" width="4.50905" height="4.50905" fill="#82B726"/>
<rect x="183.439" y="4.50934" width="4.50905" height="4.50905" fill="#82B726"/>
<rect x="174.421" y="4.50934" width="4.50905" height="4.50905" fill="#82B726"/>
<rect x="215.004" y="4.50934" width="4.50905" height="4.50905" fill="#82B726"/>
<rect x="192.457" y="4.50934" width="4.50905" height="4.50905" fill="#82B726"/>
<rect x="183.439" y="9.01868" width="4.50905" height="4.50905" fill="#82B726"/>
<rect x="224.022" y="9.01868" width="4.50905" height="4.50905" fill="#82B726"/>
<rect x="228.531" y="9.01868" width="4.50905" height="4.50905" fill="#82B726"/>
<rect x="228.531" y="4.50934" width="4.50905" height="4.50905" fill="#82B726"/>
<rect x="233.04" y="9.01868" width="4.50905" height="4.50905" fill="#82B726"/>
<rect x="233.04" y="13.528" width="4.50905" height="4.50905" fill="#82B726"/>
<rect x="237.517" y="18.0374" width="4.50905" height="4.50905" fill="#82B726"/>
<rect x="242.027" y="22.5467" width="4.50905" height="4.50905" fill="#82B726"/>
<rect x="239.772" y="27.056" width="6.76343" height="4.50905" fill="#82B726"/>
<rect x="246.535" y="27.056" width="4.50905" height="4.50905" fill="#82B726"/>
<rect x="183.439" width="4.50905" height="4.50905" fill="#82B726"/>
<rect x="192.457" y="9.01868" width="4.50905" height="4.50905" fill="#82B726"/>
<rect x="192.457" width="4.50905" height="4.50905" fill="#82B726"/>
<rect x="201.475" y="9.01868" width="4.50905" height="4.50905" fill="#82B726"/>
<rect width="4.50905" height="4.50905" transform="matrix(-1 0 0 1 291.627 31.5653)" fill="#6C9F11"/>
<rect width="45.0915" height="4.50905" transform="matrix(-1 0 0 1 287.118 31.5653)" fill="#6C9F11"/>
<rect width="45.0915" height="4.50905" transform="matrix(-1 0 0 1 242.027 31.5653)" fill="#6C9F11"/>
<rect width="67.6375" height="4.50905" transform="matrix(-1 0 0 1 278.1 18.0374)" fill="#6C9F11"/>
<rect width="4.50905" height="4.50905" transform="matrix(-1 0 0 1 291.627 27.056)" fill="#6C9F11"/>
<rect width="45.0915" height="4.50905" transform="matrix(-1 0 0 1 287.118 27.056)" fill="#6C9F11"/>
<rect width="33.7868" height="4.50905" transform="matrix(-1 0 0 1 242.027 27.056)" fill="#6C9F11"/>
<rect width="65.3512" height="4.50905" transform="matrix(-1 0 0 1 278.1 13.528)" fill="#6C9F11"/>
<rect width="4.50905" height="4.50905" transform="matrix(-1 0 0 1 291.627 22.5467)" fill="#6C9F11"/>
<rect width="45.0915" height="4.50905" transform="matrix(-1 0 0 1 287.118 22.5467)" fill="#6C9F11"/>
<rect width="36.0412" height="4.50905" transform="matrix(-1 0 0 1 242.027 22.5467)" fill="#6C9F11"/>
<rect width="4.50905" height="4.50905" transform="matrix(-1 0 0 1 287.118 18.0374)" fill="#6C9F11"/>
<rect width="4.50905" height="4.50905" transform="matrix(-1 0 0 1 278.1 9.01868)" fill="#6C9F11"/>
<rect width="4.50905" height="4.50905" transform="matrix(-1 0 0 1 237.517 9.01868)" fill="#6C9F11"/>
<rect width="4.50905" height="4.50905" transform="matrix(-1 0 0 1 269.082 9.01868)" fill="#6C9F11"/>
<rect width="4.50905" height="4.50905" transform="matrix(-1 0 0 1 228.499 9.01868)" fill="#6C9F11"/>
<rect width="4.50905" height="4.50905" transform="matrix(-1 0 0 1 269.082 4.50934)" fill="#6C9F11"/>
<rect width="4.50905" height="4.50905" transform="matrix(-1 0 0 1 228.499 4.50934)" fill="#6C9F11"/>
<rect width="4.50905" height="4.50905" transform="matrix(-1 0 0 1 223.99 4.50934)" fill="#6C9F11"/>
<rect width="4.50905" height="4.50905" transform="matrix(-1 0 0 1 269.082 0)" fill="#6C9F11"/>
<rect width="4.50905" height="4.50905" transform="matrix(-1 0 0 1 260.064 4.50934)" fill="#6C9F11"/>
<rect width="4.50905" height="4.50905" transform="matrix(-1 0 0 1 260.064 9.01868)" fill="#6C9F11"/>
<rect width="4.50905" height="4.50905" transform="matrix(-1 0 0 1 260.064 0)" fill="#6C9F11"/>
<rect width="4.50905" height="4.50905" transform="matrix(-1 0 0 1 251.046 9.01868)" fill="#6C9F11"/>
<rect width="4.50905" height="4.50905" transform="matrix(-1 0 0 1 251.046 4.50934)" fill="#6C9F11"/>
<rect width="4.50905" height="4.50905" transform="matrix(-1 0 0 1 282.609 18.0374)" fill="#6C9F11"/>
<rect width="4.50905" height="4.50905" transform="matrix(-1 0 0 1 273.591 9.01868)" fill="#6C9F11"/>
<rect width="4.50905" height="4.50905" transform="matrix(-1 0 0 1 233.008 9.01868)" fill="#6C9F11"/>
<rect width="4.50905" height="4.50905" transform="matrix(-1 0 0 1 264.573 4.50934)" fill="#6C9F11"/>
<rect width="4.50905" height="4.50905" transform="matrix(-1 0 0 1 273.591 4.50934)" fill="#6C9F11"/>
<rect width="4.50905" height="4.50905" transform="matrix(-1 0 0 1 233.008 4.50934)" fill="#6C9F11"/>
<rect width="4.50905" height="4.50905" transform="matrix(-1 0 0 1 255.555 4.50934)" fill="#6C9F11"/>
<rect width="4.50905" height="4.50905" transform="matrix(-1 0 0 1 264.573 9.01868)" fill="#6C9F11"/>
<rect width="4.50905" height="4.50905" transform="matrix(-1 0 0 1 223.99 9.01868)" fill="#6C9F11"/>
<rect width="4.50905" height="4.50905" transform="matrix(-1 0 0 1 219.481 9.01868)" fill="#6C9F11"/>
<rect width="4.50905" height="4.50905" transform="matrix(-1 0 0 1 219.481 4.50934)" fill="#6C9F11"/>
<rect width="4.50905" height="4.50905" transform="matrix(-1 0 0 1 214.972 9.01868)" fill="#6C9F11"/>
<rect width="4.50905" height="4.50905" transform="matrix(-1 0 0 1 214.972 13.528)" fill="#6C9F11"/>
<rect width="4.50905" height="4.50905" transform="matrix(-1 0 0 1 210.494 18.0374)" fill="#6C9F11"/>
<rect width="4.50905" height="4.50905" transform="matrix(-1 0 0 1 205.985 22.5467)" fill="#6C9F11"/>
<rect width="6.76343" height="4.50905" transform="matrix(-1 0 0 1 208.24 27.056)" fill="#6C9F11"/>
<rect width="4.50905" height="4.50905" transform="matrix(-1 0 0 1 201.476 27.056)" fill="#6C9F11"/>
<rect width="4.50905" height="4.50905" transform="matrix(-1 0 0 1 264.573 0)" fill="#6C9F11"/>
<rect width="4.50905" height="4.50905" transform="matrix(-1 0 0 1 255.555 9.01868)" fill="#6C9F11"/>
<rect width="4.50905" height="4.50905" transform="matrix(-1 0 0 1 255.555 0)" fill="#6C9F11"/>
<rect width="4.50905" height="4.50905" transform="matrix(-1 0 0 1 246.537 9.01868)" fill="#6C9F11"/>
</svg>
