<svg width="400" height="300" viewBox="0 0 400 300" fill="none" xmlns="http://www.w3.org/2000/svg">
<rect x="165.611" y="86.8779" width="5.42986" height="5.42986" fill="#4F3B2E"/>
<rect x="160.182" y="92.3076" width="5.42986" height="5.42986" fill="#4F3B2E"/>
<rect x="165.611" y="92.3076" width="5.42986" height="5.42986" fill="#C7C0B4"/>
<rect x="171.041" y="92.3076" width="5.42986" height="5.42986" fill="#C7C0B4"/>
<rect x="154.752" y="97.7373" width="5.42986" height="5.42986" fill="#4F3B2E"/>
<rect x="160.182" y="97.7373" width="5.42986" height="5.42986" fill="#C7C0B4"/>
<rect x="165.611" y="97.7373" width="5.42986" height="5.42986" fill="#C7C0B4"/>
<rect x="171.041" y="97.7373" width="5.42986" height="5.42986" fill="#C7C0B4"/>
<rect x="154.752" y="103.167" width="5.42986" height="5.42986" fill="#4F3B2E"/>
<rect x="160.182" y="103.167" width="5.42986" height="5.42986" fill="#C7C0B4"/>
<rect x="154.752" y="108.597" width="5.42986" height="5.42986" fill="#C7C0B4"/>
<rect x="149.32" y="108.597" width="5.42986" height="5.42986" fill="#4F3B2E"/>
<rect x="143.891" y="108.597" width="5.42986" height="5.42986" fill="#4F3B2E"/>
<rect x="138.461" y="108.597" width="5.42986" height="5.42986" fill="#4F3B2E"/>
<rect x="133.031" y="108.597" width="5.42986" height="5.42986" fill="#4F3B2E"/>
<rect x="127.602" y="108.597" width="5.42986" height="5.42986" fill="#4F3B2E"/>
<rect x="122.172" y="108.597" width="5.42986" height="5.42986" fill="#C7C0B4"/>
<rect x="116.742" y="108.597" width="5.42986" height="5.42986" fill="#C7C0B4"/>
<rect x="111.312" y="108.597" width="5.42986" height="5.42986" fill="#C7C0B4"/>
<rect x="105.883" y="108.597" width="5.42986" height="5.42986" fill="white"/>
<rect x="100.453" y="108.597" width="5.42986" height="5.42986" fill="#C7C0B4"/>
<rect x="95.0234" y="108.597" width="5.42986" height="5.42986" fill="#4F3B2E"/>
<rect x="122.172" y="103.167" width="5.42986" height="5.42986" fill="#4F3B2E"/>
<rect x="116.742" y="103.167" width="5.42986" height="5.42986" fill="#C7C0B4"/>
<rect x="111.312" y="103.167" width="5.42986" height="5.42986" fill="#C7C0B4"/>
<rect x="105.883" y="103.167" width="5.42986" height="5.42986" fill="#C7C0B4"/>
<rect x="100.453" y="103.167" width="5.42986" height="5.42986" fill="#C7C0B4"/>
<rect x="95.0234" y="103.167" width="5.42986" height="5.42986" fill="#4F3B2E"/>
<rect x="116.742" y="97.7373" width="5.42986" height="5.42986" fill="#4F3B2E"/>
<rect x="111.312" y="97.7373" width="5.42986" height="5.42986" fill="#C7C0B4"/>
<rect x="105.883" y="97.7373" width="5.42986" height="5.42986" fill="#C7C0B4"/>
<rect x="100.453" y="97.7373" width="5.42986" height="5.42986" fill="#C7C0B4"/>
<rect x="95.0234" y="97.7373" width="5.42986" height="5.42986" fill="#4F3B2E"/>
<rect x="111.312" y="92.3076" width="5.42986" height="5.42986" fill="#4F3B2E"/>
<rect x="105.883" y="92.3076" width="5.42986" height="5.42986" fill="#4F3B2E"/>
<rect x="100.453" y="92.3076" width="5.42986" height="5.42986" fill="#4F3B2E"/>
<rect x="78.7324" y="68.7783" width="5.42986" height="5.42986" fill="#4E9CF1"/>
<rect x="138.461" y="54.2988" width="5.42986" height="5.42986" fill="#FFBA52"/>
<rect x="338.461" y="54.2988" width="5.42986" height="5.42986" fill="#34C759"/>
<rect x="248.869" y="59.7285" width="5.42986" height="5.42986" fill="#FFBA52"/>
<rect x="322.172" y="92.3076" width="5.42986" height="5.42986" fill="#FFBA52"/>
<rect x="376.471" y="211.765" width="5.42986" height="5.42986" fill="#34C759"/>
<rect x="28.0547" y="78.7324" width="5.42986" height="5.42986" fill="#34C759"/>
<rect x="48.8691" y="111.312" width="5.42986" height="5.42986" transform="rotate(90 48.8691 111.312)" fill="#A0C8F4"/>
<rect x="190.045" y="74.208" width="5.42986" height="5.42986" transform="rotate(90 190.045 74.208)" fill="#34C759"/>
<rect x="216.289" y="92.3076" width="5.42986" height="5.42986" transform="rotate(-90 216.289 92.3076)" fill="#A0C8F4"/>
<rect x="305.883" y="74.208" width="5.42986" height="5.42986" transform="rotate(90 305.883 74.208)" fill="#4E9CF1"/>
<rect x="362.896" y="86.8779" width="5.42986" height="5.42986" transform="rotate(90 362.896 86.8779)" fill="#A0C8F4"/>
<rect x="392.76" y="152.941" width="5.42986" height="5.42986" transform="rotate(90 392.76 152.941)" fill="#FFBA52"/>
<rect x="316.742" y="119.457" width="5.42986" height="5.42986" fill="#A0C8F4"/>
<rect x="16.4707" y="125.768" width="5.42986" height="5.42986" fill="#FFBA52"/>
<rect x="25.3398" y="165.61" width="5.42986" height="5.42986" transform="rotate(-90 25.3398 165.61)" fill="#4E9CF1"/>
<rect x="73.3027" y="74.208" width="5.42986" height="5.42986" fill="#4E9CF1"/>
<rect x="133.031" y="59.7285" width="5.42986" height="5.42986" fill="#FFBA52"/>
<rect x="333.031" y="59.7285" width="5.42986" height="5.42986" fill="#34C759"/>
<rect x="316.742" y="97.7373" width="5.42986" height="5.42986" fill="#FFBA52"/>
<rect x="371.041" y="217.194" width="5.42986" height="5.42986" fill="#34C759"/>
<rect x="43.4395" y="105.882" width="5.42986" height="5.42986" transform="rotate(90 43.4395 105.882)" fill="#A0C8F4"/>
<rect x="184.615" y="68.7783" width="5.42986" height="5.42986" transform="rotate(90 184.615 68.7783)" fill="#34C759"/>
<rect x="221.719" y="97.7373" width="5.42986" height="5.42986" transform="rotate(-90 221.719 97.7373)" fill="#A0C8F4"/>
<rect x="300.453" y="68.7783" width="5.42986" height="5.42986" transform="rotate(90 300.453 68.7783)" fill="#4E9CF1"/>
<rect x="357.467" y="81.4473" width="5.42986" height="5.42986" transform="rotate(90 357.467 81.4473)" fill="#A0C8F4"/>
<rect x="387.33" y="147.511" width="5.42986" height="5.42986" transform="rotate(90 387.33 147.511)" fill="#FFBA52"/>
<rect x="311.312" y="124.887" width="5.42986" height="5.42986" fill="#A0C8F4"/>
<rect x="11.041" y="131.197" width="5.42986" height="5.42986" fill="#FFBA52"/>
<rect x="30.7695" y="171.04" width="5.42986" height="5.42986" transform="rotate(-90 30.7695 171.04)" fill="#4E9CF1"/>
<rect x="48.8691" y="105.882" width="5.42986" height="5.42986" transform="rotate(90 48.8691 105.882)" fill="#A0C8F4"/>
<rect x="216.289" y="97.7373" width="5.42986" height="5.42986" transform="rotate(-90 216.289 97.7373)" fill="#A0C8F4"/>
<rect x="305.883" y="68.7783" width="5.42986" height="5.42986" transform="rotate(90 305.883 68.7783)" fill="#4E9CF1"/>
<rect x="362.896" y="81.4473" width="5.42986" height="5.42986" transform="rotate(90 362.896 81.4473)" fill="#A0C8F4"/>
<rect x="392.76" y="147.511" width="5.42986" height="5.42986" transform="rotate(90 392.76 147.511)" fill="#FFBA52"/>
<rect x="311.312" y="119.457" width="5.42986" height="5.42986" fill="#A0C8F4"/>
<rect x="11.041" y="125.768" width="5.42986" height="5.42986" fill="#FFBA52"/>
<rect x="154.752" y="114.027" width="5.42986" height="5.42986" fill="#C7C0B4"/>
<rect x="149.32" y="114.027" width="5.42986" height="5.42986" fill="#C7C0B4"/>
<rect x="143.891" y="114.027" width="5.42986" height="5.42986" fill="white"/>
<rect x="138.461" y="114.027" width="5.42986" height="5.42986" fill="#C7C0B4"/>
<rect x="133.031" y="114.027" width="5.42986" height="5.42986" fill="#C7C0B4"/>
<rect x="127.602" y="114.027" width="5.42986" height="5.42986" fill="#C7C0B4"/>
<rect x="122.172" y="114.027" width="5.42986" height="5.42986" fill="#C7C0B4"/>
<rect x="116.742" y="114.027" width="5.42986" height="5.42986" fill="#C7C0B4"/>
<rect x="111.312" y="114.027" width="5.42986" height="5.42986" fill="white"/>
<rect x="105.883" y="114.027" width="5.42986" height="5.42986" fill="white"/>
<rect x="100.453" y="114.027" width="5.42986" height="5.42986" fill="#C7C0B4"/>
<rect x="95.0234" y="114.027" width="5.42986" height="5.42986" fill="#4F3B2E"/>
<rect x="154.752" y="119.457" width="5.42986" height="5.42986" fill="#C7C0B4"/>
<rect x="149.32" y="119.457" width="5.42986" height="5.42986" fill="white"/>
<rect x="143.891" y="119.457" width="5.42986" height="5.42986" fill="white"/>
<rect x="138.461" y="119.457" width="5.42986" height="5.42986" fill="#C7C0B4"/>
<rect x="133.031" y="119.457" width="5.42986" height="5.42986" fill="#C7C0B4"/>
<rect x="127.602" y="119.457" width="5.42986" height="5.42986" fill="#C7C0B4"/>
<rect x="122.172" y="119.457" width="5.42986" height="5.42986" fill="#C7C0B4"/>
<rect x="116.742" y="119.457" width="5.42986" height="5.42986" fill="white"/>
<rect x="111.312" y="119.457" width="5.42986" height="5.42986" fill="white"/>
<rect x="105.883" y="119.457" width="5.42986" height="5.42986" fill="white"/>
<rect x="100.453" y="119.457" width="5.42986" height="5.42986" fill="#C7C0B4"/>
<rect x="95.0234" y="119.457" width="5.42986" height="5.42986" fill="#4F3B2E"/>
<rect x="154.752" y="124.887" width="5.42986" height="5.42986" fill="#C7C0B4"/>
<rect x="154.752" y="130.316" width="5.42986" height="5.42986" fill="#4F3B2E"/>
<rect x="160.182" y="130.316" width="5.42986" height="5.42986" fill="#C7C0B4"/>
<rect x="154.752" y="135.746" width="5.42986" height="5.42986" fill="#C7C0B4"/>
<rect x="149.32" y="124.887" width="5.42986" height="5.42986" fill="white"/>
<rect x="149.32" y="130.316" width="5.42986" height="5.42986" fill="white"/>
<rect x="149.32" y="135.746" width="5.42986" height="5.42986" fill="white"/>
<rect x="143.891" y="124.887" width="5.42986" height="5.42986" fill="white"/>
<rect x="143.891" y="130.316" width="5.42986" height="5.42986" fill="white"/>
<rect x="143.891" y="135.746" width="5.42986" height="5.42986" fill="white"/>
<rect x="138.461" y="124.887" width="5.42986" height="5.42986" fill="#C7C0B4"/>
<rect x="138.461" y="130.316" width="5.42986" height="5.42986" fill="#C7C0B4"/>
<rect x="133.031" y="130.316" width="5.42986" height="5.42986" fill="#4F3B2E"/>
<rect x="138.461" y="135.746" width="5.42986" height="5.42986" fill="#C7C0B4"/>
<rect x="133.031" y="124.887" width="5.42986" height="5.42986" fill="#C7C0B4"/>
<rect x="133.031" y="135.746" width="5.42986" height="5.42986" fill="#C7C0B4"/>
<rect x="127.602" y="124.887" width="5.42986" height="5.42986" fill="#C7C0B4"/>
<rect x="127.602" y="130.316" width="5.42986" height="5.42986" fill="#C7C0B4"/>
<rect x="127.602" y="135.746" width="5.42986" height="5.42986" fill="#C7C0B4"/>
<rect x="122.172" y="124.887" width="5.42986" height="5.42986" fill="#C7C0B4"/>
<rect x="122.172" y="130.316" width="5.42986" height="5.42986" fill="#C7C0B4"/>
<rect x="122.172" y="135.746" width="5.42986" height="5.42986" fill="#C7C0B4"/>
<rect x="116.742" y="124.887" width="5.42986" height="5.42986" fill="#C7C0B4"/>
<rect x="116.742" y="130.316" width="5.42986" height="5.42986" fill="#C7C0B4"/>
<rect x="116.742" y="135.746" width="5.42986" height="5.42986" fill="#C7C0B4"/>
<rect x="111.312" y="124.887" width="5.42986" height="5.42986" fill="#C7C0B4"/>
<rect x="111.312" y="130.316" width="5.42986" height="5.42986" fill="#C7C0B4"/>
<rect x="111.312" y="135.746" width="5.42986" height="5.42986" fill="#C7C0B4"/>
<rect x="105.883" y="124.887" width="5.42986" height="5.42986" fill="#C7C0B4"/>
<rect x="105.883" y="130.316" width="5.42986" height="5.42986" fill="#C7C0B4"/>
<rect x="105.883" y="135.746" width="5.42986" height="5.42986" fill="#4F3B2E"/>
<rect x="100.453" y="124.887" width="5.42986" height="5.42986" fill="#C7C0B4"/>
<rect x="100.453" y="130.316" width="5.42986" height="5.42986" fill="#C7C0B4"/>
<rect x="95.0234" y="124.887" width="5.42986" height="5.42986" fill="#4F3B2E"/>
<rect x="95.0234" y="130.316" width="5.42986" height="5.42986" fill="#4F3B2E"/>
<rect x="160.182" y="108.597" width="5.42986" height="5.42986" fill="white"/>
<rect x="160.182" y="114.027" width="5.42986" height="5.42986" fill="white"/>
<rect x="160.182" y="119.457" width="5.42986" height="5.42986" fill="#C7C0B4"/>
<rect x="160.182" y="124.887" width="5.42986" height="5.42986" fill="#C7C0B4"/>
<rect x="160.182" y="135.746" width="5.42986" height="5.42986" fill="#C7C0B4"/>
<rect x="165.611" y="103.167" width="5.42986" height="5.42986" fill="white"/>
<rect x="165.611" y="108.597" width="5.42986" height="5.42986" fill="white"/>
<rect x="165.611" y="114.027" width="5.42986" height="5.42986" fill="#C7C0B4"/>
<rect x="165.611" y="119.457" width="5.42986" height="5.42986" fill="#C7C0B4"/>
<rect x="165.611" y="124.887" width="5.42986" height="5.42986" fill="#C7C0B4"/>
<rect x="165.611" y="130.316" width="5.42986" height="5.42986" fill="#4F3B2E"/>
<rect x="165.611" y="135.746" width="5.42986" height="5.42986" fill="#C7C0B4"/>
<rect x="171.041" y="103.167" width="5.42986" height="5.42986" fill="#C7C0B4"/>
<rect x="171.041" y="108.597" width="5.42986" height="5.42986" fill="#C7C0B4"/>
<rect x="171.041" y="114.027" width="5.42986" height="5.42986" fill="#C7C0B4"/>
<rect x="171.041" y="119.457" width="5.42986" height="5.42986" fill="#C7C0B4"/>
<rect x="171.041" y="86.8779" width="5.42986" height="5.42986" fill="#4F3B2E"/>
<rect x="176.471" y="92.3076" width="5.42986" height="5.42986" fill="#4F3B2E"/>
<rect x="176.471" y="97.7373" width="5.42986" height="5.42986" fill="#4F3B2E"/>
<rect x="176.471" y="103.167" width="5.42986" height="5.42986" fill="#4F3B2E"/>
<rect x="176.471" y="108.597" width="5.42986" height="5.42986" fill="#4F3B2E"/>
<rect x="176.471" y="114.027" width="5.42986" height="5.42986" fill="#4F3B2E"/>
<rect x="176.471" y="119.457" width="5.42986" height="5.42986" fill="#4F3B2E"/>
<rect x="171.041" y="124.887" width="5.42986" height="5.42986" fill="#4F3B2E"/>
<rect x="171.041" y="135.746" width="5.42986" height="5.42986" fill="#4F3B2E"/>
<rect x="176.471" y="141.176" width="5.42986" height="5.42986" fill="#4F3B2E"/>
<rect x="171.041" y="141.176" width="5.42986" height="5.42986" fill="white"/>
<rect x="165.611" y="141.176" width="5.42986" height="5.42986" fill="white"/>
<rect x="160.182" y="141.176" width="5.42986" height="5.42986" fill="white"/>
<rect x="154.752" y="141.176" width="5.42986" height="5.42986" fill="#4F3B2E"/>
<rect x="149.32" y="141.176" width="5.42986" height="5.42986" fill="#4F3B2E"/>
<rect x="143.891" y="141.176" width="5.42986" height="5.42986" fill="white"/>
<rect x="138.461" y="141.176" width="5.42986" height="5.42986" fill="white"/>
<rect x="133.031" y="141.176" width="5.42986" height="5.42986" fill="white"/>
<rect x="127.602" y="141.176" width="5.42986" height="5.42986" fill="#C7C0B4"/>
<rect x="122.172" y="141.176" width="5.42986" height="5.42986" fill="#C7C0B4"/>
<rect x="116.742" y="141.176" width="5.42986" height="5.42986" fill="#C7C0B4"/>
<rect x="111.312" y="141.176" width="5.42986" height="5.42986" fill="#C7C0B4"/>
<rect x="105.883" y="141.176" width="5.42986" height="5.42986" fill="#C7C0B4"/>
<rect x="100.453" y="141.176" width="5.42986" height="5.42986" fill="#4F3B2E"/>
<rect x="176.471" y="146.606" width="5.42986" height="5.42986" fill="#4F3B2E"/>
<rect x="176.471" y="152.036" width="5.42986" height="5.42986" fill="#4F3B2E"/>
<rect x="176.471" y="190.045" width="5.42986" height="5.42986" fill="#4F3B2E"/>
<rect x="176.471" y="195.475" width="5.42986" height="5.42986" fill="#4F3B2E"/>
<rect x="95.0234" y="168.325" width="5.42986" height="5.42986" fill="#4F3B2E"/>
<rect x="95.0234" y="173.756" width="5.42986" height="5.42986" fill="#C7C0B4"/>
<rect x="95.0234" y="179.186" width="5.42986" height="5.42986" fill="#C7C0B4"/>
<rect x="95.0234" y="184.615" width="5.42986" height="5.42986" fill="#C7C0B4"/>
<rect x="95.0234" y="190.045" width="5.42986" height="5.42986" fill="#C7C0B4"/>
<rect x="95.0234" y="195.475" width="5.42986" height="5.42986" fill="#C7C0B4"/>
<rect x="95.0234" y="200.904" width="5.42986" height="5.42986" fill="#C7C0B4"/>
<rect x="95.0234" y="206.335" width="5.42986" height="5.42986" fill="#C7C0B4"/>
<rect x="95.0234" y="211.765" width="5.42986" height="5.42986" fill="#C7C0B4"/>
<rect x="95.0234" y="217.194" width="5.42986" height="5.42986" fill="white"/>
<rect x="95.0234" y="222.624" width="5.42986" height="5.42986" fill="#4F3B2E"/>
<rect x="95.0234" y="228.054" width="5.42986" height="5.42986" fill="white"/>
<rect x="95.0234" y="233.484" width="5.42986" height="5.42986" fill="#4F3B2E"/>
<rect x="171.041" y="146.606" width="5.42986" height="5.42986" fill="white"/>
<rect x="171.041" y="152.036" width="5.42986" height="5.42986" fill="white"/>
<rect x="171.041" y="157.466" width="5.42986" height="5.42986" fill="#4F3B2E"/>
<rect x="171.041" y="184.615" width="5.42986" height="5.42986" fill="#4F3B2E"/>
<rect x="171.041" y="190.045" width="5.42986" height="5.42986" fill="white"/>
<rect x="171.041" y="195.475" width="5.42986" height="5.42986" fill="white"/>
<rect x="171.041" y="200.904" width="5.42986" height="5.42986" fill="#4F3B2E"/>
<rect x="89.5918" y="168.325" width="5.42986" height="5.42986" fill="#4F3B2E"/>
<rect x="89.5918" y="173.756" width="5.42986" height="5.42986" fill="#C7C0B4"/>
<rect x="89.5918" y="179.186" width="5.42986" height="5.42986" fill="#C7C0B4"/>
<rect x="89.5918" y="184.615" width="5.42986" height="5.42986" fill="#C7C0B4"/>
<rect x="89.5918" y="190.045" width="5.42986" height="5.42986" fill="#C7C0B4"/>
<rect x="89.5918" y="195.475" width="5.42986" height="5.42986" fill="#C7C0B4"/>
<rect x="89.5918" y="200.904" width="5.42986" height="5.42986" fill="#C7C0B4"/>
<rect x="89.5918" y="206.335" width="5.42986" height="5.42986" fill="#4F3B2E"/>
<rect x="89.5918" y="211.765" width="5.42986" height="5.42986" fill="#4F3B2E"/>
<rect x="89.5918" y="217.194" width="5.42986" height="5.42986" fill="#4F3B2E"/>
<rect x="89.5918" y="222.624" width="5.42986" height="5.42986" fill="#4F3B2E"/>
<rect x="89.5918" y="228.054" width="5.42986" height="5.42986" fill="#C7C0B4"/>
<rect x="89.5918" y="233.484" width="5.42986" height="5.42986" fill="#4F3B2E"/>
<rect x="165.611" y="146.606" width="5.42986" height="5.42986" fill="white"/>
<rect x="165.611" y="152.036" width="5.42986" height="5.42986" fill="white"/>
<rect x="165.611" y="157.466" width="5.42986" height="5.42986" fill="#4F3B2E"/>
<rect x="165.611" y="184.615" width="5.42986" height="5.42986" fill="#4F3B2E"/>
<rect x="165.611" y="190.045" width="5.42986" height="5.42986" fill="white"/>
<rect x="165.611" y="195.475" width="5.42986" height="5.42986" fill="white"/>
<rect x="165.611" y="200.904" width="5.42986" height="5.42986" fill="#4F3B2E"/>
<rect x="84.1621" y="168.325" width="5.42986" height="5.42986" fill="#4F3B2E"/>
<rect x="84.1621" y="173.756" width="5.42986" height="5.42986" fill="#C7C0B4"/>
<rect x="84.1621" y="179.186" width="5.42986" height="5.42986" fill="#C7C0B4"/>
<rect x="84.1621" y="184.615" width="5.42986" height="5.42986" fill="#C7C0B4"/>
<rect x="84.1621" y="190.045" width="5.42986" height="5.42986" fill="#C7C0B4"/>
<rect x="84.1621" y="195.475" width="5.42986" height="5.42986" fill="#C7C0B4"/>
<rect x="84.1621" y="200.904" width="5.42986" height="5.42986" fill="#C7C0B4"/>
<rect x="84.1621" y="206.335" width="5.42986" height="5.42986" fill="#C7C0B4"/>
<rect x="84.1621" y="211.765" width="5.42986" height="5.42986" fill="#C7C0B4"/>
<rect x="84.1621" y="217.194" width="5.42986" height="5.42986" fill="#C7C0B4"/>
<rect x="84.1621" y="222.624" width="5.42986" height="5.42986" fill="#C7C0B4"/>
<rect x="84.1621" y="228.054" width="5.42986" height="5.42986" fill="#4F3B2E"/>
<rect x="160.182" y="146.606" width="5.42986" height="5.42986" fill="white"/>
<rect x="160.182" y="152.036" width="5.42986" height="5.42986" fill="white"/>
<rect x="160.182" y="157.466" width="5.42986" height="5.42986" fill="white"/>
<rect x="160.182" y="162.896" width="5.42986" height="5.42986" fill="#4F3B2E"/>
<rect x="160.182" y="168.325" width="5.42986" height="5.42986" fill="#4F3B2E"/>
<rect x="160.182" y="173.756" width="5.42986" height="5.42986" fill="#4F3B2E"/>
<rect x="160.182" y="179.186" width="5.42986" height="5.42986" fill="#4F3B2E"/>
<rect x="160.182" y="184.615" width="5.42986" height="5.42986" fill="#C7C0B4"/>
<rect x="160.182" y="190.045" width="5.42986" height="5.42986" fill="#C7C0B4"/>
<rect x="160.182" y="195.475" width="5.42986" height="5.42986" fill="#C7C0B4"/>
<rect x="160.182" y="200.904" width="5.42986" height="5.42986" fill="#4F3B2E"/>
<rect x="78.7324" y="173.756" width="5.42986" height="5.42986" fill="#4F3B2E"/>
<rect x="78.7324" y="179.186" width="5.42986" height="5.42986" fill="#C7C0B4"/>
<rect x="78.7324" y="184.615" width="5.42986" height="5.42986" fill="#C7C0B4"/>
<rect x="78.7324" y="190.045" width="5.42986" height="5.42986" fill="#C7C0B4"/>
<rect x="78.7324" y="195.475" width="5.42986" height="5.42986" fill="#C7C0B4"/>
<rect x="78.7324" y="200.904" width="5.42986" height="5.42986" fill="#C7C0B4"/>
<rect x="78.7324" y="206.335" width="5.42986" height="5.42986" fill="#C7C0B4"/>
<rect x="78.7324" y="211.765" width="5.42986" height="5.42986" fill="#C7C0B4"/>
<rect x="78.7324" y="217.194" width="5.42986" height="5.42986" fill="#C7C0B4"/>
<rect x="78.7324" y="222.624" width="5.42986" height="5.42986" fill="#C7C0B4"/>
<rect x="78.7324" y="228.054" width="5.42986" height="5.42986" fill="#4F3B2E"/>
<rect x="78.7324" y="233.484" width="5.42986" height="5.42986" fill="#4F3B2E"/>
<rect x="154.752" y="146.606" width="5.42986" height="5.42986" fill="white"/>
<rect x="154.752" y="152.036" width="5.42986" height="5.42986" fill="white"/>
<rect x="154.752" y="157.466" width="5.42986" height="5.42986" fill="white"/>
<rect x="154.752" y="162.896" width="5.42986" height="5.42986" fill="#4F3B2E"/>
<rect x="154.752" y="168.325" width="5.42986" height="5.42986" fill="white"/>
<rect x="154.752" y="173.756" width="5.42986" height="5.42986" fill="white"/>
<rect x="154.752" y="179.186" width="5.42986" height="5.42986" fill="white"/>
<rect x="154.752" y="184.615" width="5.42986" height="5.42986" fill="#C7C0B4"/>
<rect x="154.752" y="190.045" width="5.42986" height="5.42986" fill="#4F3B2E"/>
<rect x="154.752" y="195.475" width="5.42986" height="5.42986" fill="#4F3B2E"/>
<rect x="154.752" y="200.904" width="5.42986" height="5.42986" fill="#4F3B2E"/>
<rect x="73.3027" y="173.756" width="5.42986" height="5.42986" fill="#4F3B2E"/>
<rect x="73.3027" y="179.186" width="5.42986" height="5.42986" fill="#C7C0B4"/>
<rect x="73.3027" y="184.615" width="5.42986" height="5.42986" fill="#C7C0B4"/>
<rect x="73.3027" y="190.045" width="5.42986" height="5.42986" fill="#C7C0B4"/>
<rect x="73.3027" y="195.475" width="5.42986" height="5.42986" fill="#C7C0B4"/>
<rect x="73.3027" y="200.904" width="5.42986" height="5.42986" fill="#C7C0B4"/>
<rect x="73.3027" y="206.335" width="5.42986" height="5.42986" fill="#C7C0B4"/>
<rect x="73.3027" y="211.765" width="5.42986" height="5.42986" fill="#C7C0B4"/>
<rect x="73.3027" y="217.194" width="5.42986" height="5.42986" fill="#C7C0B4"/>
<rect x="73.3027" y="222.624" width="5.42986" height="5.42986" fill="#C7C0B4"/>
<rect x="73.3027" y="228.054" width="5.42986" height="5.42986" fill="#C7C0B4"/>
<rect x="73.3027" y="233.484" width="5.42986" height="5.42986" fill="white"/>
<rect x="73.3027" y="238.914" width="5.42986" height="5.42986" fill="#4F3B2E"/>
<rect x="149.32" y="146.606" width="5.42986" height="5.42986" fill="white"/>
<rect x="149.32" y="152.036" width="5.42986" height="5.42986" fill="white"/>
<rect x="149.32" y="157.466" width="5.42986" height="5.42986" fill="white"/>
<rect x="149.32" y="162.896" width="5.42986" height="5.42986" fill="#4F3B2E"/>
<rect x="149.32" y="168.325" width="5.42986" height="5.42986" fill="white"/>
<rect x="149.32" y="173.756" width="5.42986" height="5.42986" fill="white"/>
<rect x="149.32" y="179.186" width="5.42986" height="5.42986" fill="white"/>
<rect x="149.32" y="184.615" width="5.42986" height="5.42986" fill="#4F3B2E"/>
<rect x="149.32" y="190.045" width="5.42986" height="5.42986" fill="white"/>
<rect x="149.32" y="195.475" width="5.42986" height="5.42986" fill="white"/>
<rect x="149.32" y="200.904" width="5.42986" height="5.42986" fill="white"/>
<rect x="149.32" y="206.335" width="5.42986" height="5.42986" fill="#4F3B2E"/>
<rect x="67.873" y="162.896" width="5.42986" height="5.42986" fill="#4F3B2E"/>
<rect x="67.873" y="168.325" width="5.42986" height="5.42986" fill="#4F3B2E"/>
<rect x="67.873" y="173.756" width="5.42986" height="5.42986" fill="#C7C0B4"/>
<rect x="67.873" y="179.186" width="5.42986" height="5.42986" fill="#C7C0B4"/>
<rect x="67.873" y="184.615" width="5.42986" height="5.42986" fill="#C7C0B4"/>
<rect x="67.873" y="190.045" width="5.42986" height="5.42986" fill="#C7C0B4"/>
<rect x="67.873" y="195.475" width="5.42986" height="5.42986" fill="#C7C0B4"/>
<rect x="67.873" y="200.904" width="5.42986" height="5.42986" fill="#C7C0B4"/>
<rect x="67.873" y="206.335" width="5.42986" height="5.42986" fill="#C7C0B4"/>
<rect x="67.873" y="211.765" width="5.42986" height="5.42986" fill="#C7C0B4"/>
<rect x="67.873" y="217.194" width="5.42986" height="5.42986" fill="#C7C0B4"/>
<rect x="67.873" y="222.624" width="5.42986" height="5.42986" fill="#C7C0B4"/>
<rect x="67.873" y="228.054" width="5.42986" height="5.42986" fill="white"/>
<rect x="67.873" y="233.484" width="5.42986" height="5.42986" fill="white"/>
<rect x="67.873" y="238.914" width="5.42986" height="5.42986" fill="#4F3B2E"/>
<rect x="143.891" y="146.606" width="5.42986" height="5.42986" fill="white"/>
<rect x="143.891" y="152.036" width="5.42986" height="5.42986" fill="white"/>
<rect x="143.891" y="157.466" width="5.42986" height="5.42986" fill="white"/>
<rect x="143.891" y="162.896" width="5.42986" height="5.42986" fill="#4F3B2E"/>
<rect x="143.891" y="168.325" width="5.42986" height="5.42986" fill="white"/>
<rect x="143.891" y="173.756" width="5.42986" height="5.42986" fill="white"/>
<rect x="143.891" y="179.186" width="5.42986" height="5.42986" fill="white"/>
<rect x="143.891" y="184.615" width="5.42986" height="5.42986" fill="#4F3B2E"/>
<rect x="143.891" y="190.045" width="5.42986" height="5.42986" fill="white"/>
<rect x="143.891" y="195.475" width="5.42986" height="5.42986" fill="white"/>
<rect x="143.891" y="200.904" width="5.42986" height="5.42986" fill="white"/>
<rect x="143.891" y="206.335" width="5.42986" height="5.42986" fill="white"/>
<rect x="143.891" y="211.765" width="5.42986" height="5.42986" fill="#4F3B2E"/>
<rect x="62.4434" y="162.896" width="5.42986" height="5.42986" fill="#4F3B2E"/>
<rect x="62.4434" y="168.325" width="5.42986" height="5.42986" fill="white"/>
<rect x="62.4434" y="173.756" width="5.42986" height="5.42986" fill="white"/>
<rect x="62.4434" y="179.186" width="5.42986" height="5.42986" fill="#C7C0B4"/>
<rect x="62.4434" y="184.615" width="5.42986" height="5.42986" fill="#C7C0B4"/>
<rect x="62.4434" y="190.045" width="5.42986" height="5.42986" fill="#C7C0B4"/>
<rect x="62.4434" y="195.475" width="5.42986" height="5.42986" fill="#C7C0B4"/>
<rect x="62.4434" y="200.904" width="5.42986" height="5.42986" fill="#C7C0B4"/>
<rect x="62.4434" y="206.335" width="5.42986" height="5.42986" fill="#C7C0B4"/>
<rect x="62.4434" y="211.765" width="5.42986" height="5.42986" fill="#C7C0B4"/>
<rect x="62.4434" y="217.194" width="5.42986" height="5.42986" fill="#4F3B2E"/>
<rect x="62.4434" y="222.624" width="5.42986" height="5.42986" fill="#C7C0B4"/>
<rect x="62.4434" y="228.054" width="5.42986" height="5.42986" fill="white"/>
<rect x="62.4434" y="233.484" width="5.42986" height="5.42986" fill="white"/>
<rect x="62.4434" y="238.914" width="5.42986" height="5.42986" fill="#4F3B2E"/>
<rect x="138.461" y="146.606" width="5.42986" height="5.42986" fill="white"/>
<rect x="138.461" y="152.036" width="5.42986" height="5.42986" fill="white"/>
<rect x="138.461" y="157.466" width="5.42986" height="5.42986" fill="white"/>
<rect x="138.461" y="162.896" width="5.42986" height="5.42986" fill="#4F3B2E"/>
<rect x="138.461" y="168.325" width="5.42986" height="5.42986" fill="white"/>
<rect x="138.461" y="173.756" width="5.42986" height="5.42986" fill="white"/>
<rect x="138.461" y="179.186" width="5.42986" height="5.42986" fill="white"/>
<rect x="138.461" y="184.615" width="5.42986" height="5.42986" fill="#4F3B2E"/>
<rect x="138.461" y="190.045" width="5.42986" height="5.42986" fill="#C7C0B4"/>
<rect x="138.461" y="195.475" width="5.42986" height="5.42986" fill="#C7C0B4"/>
<rect x="138.461" y="200.904" width="5.42986" height="5.42986" fill="white"/>
<rect x="138.461" y="206.335" width="5.42986" height="5.42986" fill="white"/>
<rect x="138.461" y="211.765" width="5.42986" height="5.42986" fill="#4F3B2E"/>
<rect x="57.0137" y="162.896" width="5.42986" height="5.42986" fill="#4F3B2E"/>
<rect x="57.0137" y="168.325" width="5.42986" height="5.42986" fill="white"/>
<rect x="57.0137" y="173.756" width="5.42986" height="5.42986" fill="white"/>
<rect x="57.0137" y="179.186" width="5.42986" height="5.42986" fill="#C7C0B4"/>
<rect x="57.0137" y="184.615" width="5.42986" height="5.42986" fill="#C7C0B4"/>
<rect x="57.0137" y="190.045" width="5.42986" height="5.42986" fill="#4F3B2E"/>
<rect x="57.0137" y="195.475" width="5.42986" height="5.42986" fill="#4F3B2E"/>
<rect x="57.0137" y="200.904" width="5.42986" height="5.42986" fill="#4F3B2E"/>
<rect x="57.0137" y="206.335" width="5.42986" height="5.42986" fill="#4F3B2E"/>
<rect x="57.0137" y="211.765" width="5.42986" height="5.42986" fill="#4F3B2E"/>
<rect x="57.0137" y="222.624" width="5.42986" height="5.42986" fill="#4F3B2E"/>
<rect x="57.0137" y="228.054" width="5.42986" height="5.42986" fill="#4F3B2E"/>
<rect x="57.0137" y="233.484" width="5.42986" height="5.42986" fill="#4F3B2E"/>
<rect x="133.031" y="146.606" width="5.42986" height="5.42986" fill="white"/>
<rect x="133.031" y="152.036" width="5.42986" height="5.42986" fill="white"/>
<rect x="133.031" y="157.466" width="5.42986" height="5.42986" fill="white"/>
<rect x="133.031" y="162.896" width="5.42986" height="5.42986" fill="white"/>
<rect x="133.031" y="168.325" width="5.42986" height="5.42986" fill="white"/>
<rect x="133.031" y="173.756" width="5.42986" height="5.42986" fill="white"/>
<rect x="133.031" y="179.186" width="5.42986" height="5.42986" fill="#C7C0B4"/>
<rect x="133.031" y="184.615" width="5.42986" height="5.42986" fill="#4F3B2E"/>
<rect x="133.031" y="190.045" width="5.42986" height="5.42986" fill="#C7C0B4"/>
<rect x="133.031" y="195.475" width="5.42986" height="5.42986" fill="#C7C0B4"/>
<rect x="133.031" y="200.904" width="5.42986" height="5.42986" fill="white"/>
<rect x="133.031" y="206.335" width="5.42986" height="5.42986" fill="#4F3B2E"/>
<rect x="133.031" y="211.765" width="5.42986" height="5.42986" fill="#4F3B2E"/>
<rect x="51.584" y="168.325" width="5.42986" height="5.42986" fill="#4F3B2E"/>
<rect x="51.584" y="173.756" width="5.42986" height="5.42986" fill="#4F3B2E"/>
<rect x="51.584" y="179.186" width="5.42986" height="5.42986" fill="#4F3B2E"/>
<rect x="51.584" y="184.615" width="5.42986" height="5.42986" fill="#4F3B2E"/>
<rect x="127.602" y="146.606" width="5.42986" height="5.42986" fill="white"/>
<rect x="127.602" y="152.036" width="5.42986" height="5.42986" fill="white"/>
<rect x="127.602" y="157.466" width="5.42986" height="5.42986" fill="white"/>
<rect x="127.602" y="162.896" width="5.42986" height="5.42986" fill="white"/>
<rect x="127.602" y="168.325" width="5.42986" height="5.42986" fill="white"/>
<rect x="127.602" y="173.756" width="5.42986" height="5.42986" fill="#C7C0B4"/>
<rect x="127.602" y="179.186" width="5.42986" height="5.42986" fill="#C7C0B4"/>
<rect x="127.602" y="184.615" width="5.42986" height="5.42986" fill="#C7C0B4"/>
<rect x="127.602" y="190.045" width="5.42986" height="5.42986" fill="#C7C0B4"/>
<rect x="127.602" y="195.475" width="5.42986" height="5.42986" fill="#C7C0B4"/>
<rect x="127.602" y="200.904" width="5.42986" height="5.42986" fill="white"/>
<rect x="127.602" y="206.335" width="5.42986" height="5.42986" fill="#4F3B2E"/>
<rect x="127.602" y="211.765" width="5.42986" height="5.42986" fill="white"/>
<rect x="127.602" y="217.194" width="5.42986" height="5.42986" fill="#4F3B2E"/>
<rect x="122.172" y="146.606" width="5.42986" height="5.42986" fill="#C7C0B4"/>
<rect x="122.172" y="152.036" width="5.42986" height="5.42986" fill="white"/>
<rect x="122.172" y="157.466" width="5.42986" height="5.42986" fill="white"/>
<rect x="122.172" y="162.896" width="5.42986" height="5.42986" fill="white"/>
<rect x="122.172" y="168.325" width="5.42986" height="5.42986" fill="white"/>
<rect x="122.172" y="173.756" width="5.42986" height="5.42986" fill="#C7C0B4"/>
<rect x="122.172" y="179.186" width="5.42986" height="5.42986" fill="#C7C0B4"/>
<rect x="122.172" y="184.615" width="5.42986" height="5.42986" fill="#C7C0B4"/>
<rect x="122.172" y="190.045" width="5.42986" height="5.42986" fill="#C7C0B4"/>
<rect x="122.172" y="195.475" width="5.42986" height="5.42986" fill="#C7C0B4"/>
<rect x="122.172" y="200.904" width="5.42986" height="5.42986" fill="#4F3B2E"/>
<rect x="122.172" y="206.335" width="5.42986" height="5.42986" fill="white"/>
<rect x="122.172" y="211.765" width="5.42986" height="5.42986" fill="white"/>
<rect x="122.172" y="217.194" width="5.42986" height="5.42986" fill="#4F3B2E"/>
<rect x="116.742" y="146.606" width="5.42986" height="5.42986" fill="#C7C0B4"/>
<rect x="116.742" y="152.036" width="5.42986" height="5.42986" fill="white"/>
<rect x="116.742" y="157.466" width="5.42986" height="5.42986" fill="white"/>
<rect x="116.742" y="162.896" width="5.42986" height="5.42986" fill="white"/>
<rect x="116.742" y="168.325" width="5.42986" height="5.42986" fill="#C7C0B4"/>
<rect x="116.742" y="173.756" width="5.42986" height="5.42986" fill="#C7C0B4"/>
<rect x="116.742" y="179.186" width="5.42986" height="5.42986" fill="#C7C0B4"/>
<rect x="116.742" y="184.615" width="5.42986" height="5.42986" fill="#C7C0B4"/>
<rect x="116.742" y="190.045" width="5.42986" height="5.42986" fill="#C7C0B4"/>
<rect x="116.742" y="195.475" width="5.42986" height="5.42986" fill="#C7C0B4"/>
<rect x="116.742" y="200.904" width="5.42986" height="5.42986" fill="#C7C0B4"/>
<rect x="116.742" y="206.335" width="5.42986" height="5.42986" fill="white"/>
<rect x="116.742" y="211.765" width="5.42986" height="5.42986" fill="white"/>
<rect x="116.742" y="217.194" width="5.42986" height="5.42986" fill="#4F3B2E"/>
<rect x="111.312" y="146.606" width="5.42986" height="5.42986" fill="#C7C0B4"/>
<rect x="111.312" y="152.036" width="5.42986" height="5.42986" fill="#C7C0B4"/>
<rect x="111.312" y="157.466" width="5.42986" height="5.42986" fill="white"/>
<rect x="111.312" y="162.896" width="5.42986" height="5.42986" fill="#4F3B2E"/>
<rect x="111.312" y="168.325" width="5.42986" height="5.42986" fill="#C7C0B4"/>
<rect x="111.312" y="173.756" width="5.42986" height="5.42986" fill="#C7C0B4"/>
<rect x="111.312" y="179.186" width="5.42986" height="5.42986" fill="#C7C0B4"/>
<rect x="111.312" y="184.615" width="5.42986" height="5.42986" fill="#C7C0B4"/>
<rect x="111.312" y="190.045" width="5.42986" height="5.42986" fill="#C7C0B4"/>
<rect x="111.312" y="195.475" width="5.42986" height="5.42986" fill="#C7C0B4"/>
<rect x="111.312" y="200.904" width="5.42986" height="5.42986" fill="#C7C0B4"/>
<rect x="111.312" y="206.335" width="5.42986" height="5.42986" fill="#C7C0B4"/>
<rect x="111.312" y="211.765" width="5.42986" height="5.42986" fill="#C7C0B4"/>
<rect x="111.312" y="217.194" width="5.42986" height="5.42986" fill="#4F3B2E"/>
<rect x="105.883" y="146.606" width="5.42986" height="5.42986" fill="#C7C0B4"/>
<rect x="105.883" y="152.036" width="5.42986" height="5.42986" fill="#C7C0B4"/>
<rect x="105.883" y="157.466" width="5.42986" height="5.42986" fill="#C7C0B4"/>
<rect x="105.883" y="162.896" width="5.42986" height="5.42986" fill="#4F3B2E"/>
<rect x="105.883" y="168.325" width="5.42986" height="5.42986" fill="#C7C0B4"/>
<rect x="105.883" y="173.756" width="5.42986" height="5.42986" fill="#C7C0B4"/>
<rect x="105.883" y="179.186" width="5.42986" height="5.42986" fill="#C7C0B4"/>
<rect x="105.883" y="184.615" width="5.42986" height="5.42986" fill="#C7C0B4"/>
<rect x="105.883" y="190.045" width="5.42986" height="5.42986" fill="#C7C0B4"/>
<rect x="105.883" y="195.475" width="5.42986" height="5.42986" fill="#C7C0B4"/>
<rect x="105.883" y="200.904" width="5.42986" height="5.42986" fill="#C7C0B4"/>
<rect x="105.883" y="206.335" width="5.42986" height="5.42986" fill="#C7C0B4"/>
<rect x="105.883" y="211.765" width="5.42986" height="5.42986" fill="#C7C0B4"/>
<rect x="105.883" y="217.194" width="5.42986" height="5.42986" fill="white"/>
<rect x="105.883" y="222.624" width="5.42986" height="5.42986" fill="#4F3B2E"/>
<rect x="105.883" y="228.054" width="5.42986" height="5.42986" fill="#4F3B2E"/>
<rect x="105.883" y="233.484" width="5.42986" height="5.42986" fill="white"/>
<rect x="100.453" y="146.606" width="5.42986" height="5.42986" fill="#4F3B2E"/>
<rect x="100.453" y="152.036" width="5.42986" height="5.42986" fill="#4F3B2E"/>
<rect x="100.453" y="157.466" width="5.42986" height="5.42986" fill="#4F3B2E"/>
<rect x="100.453" y="162.896" width="5.42986" height="5.42986" fill="#4F3B2E"/>
<rect x="100.453" y="168.325" width="5.42986" height="5.42986" fill="#C7C0B4"/>
<rect x="100.453" y="173.756" width="5.42986" height="5.42986" fill="#C7C0B4"/>
<rect x="100.453" y="179.186" width="5.42986" height="5.42986" fill="#C7C0B4"/>
<rect x="100.453" y="184.615" width="5.42986" height="5.42986" fill="#C7C0B4"/>
<rect x="100.453" y="190.045" width="5.42986" height="5.42986" fill="#C7C0B4"/>
<rect x="100.453" y="195.475" width="5.42986" height="5.42986" fill="#C7C0B4"/>
<rect x="100.453" y="200.904" width="5.42986" height="5.42986" fill="#C7C0B4"/>
<rect x="100.453" y="206.335" width="5.42986" height="5.42986" fill="#C7C0B4"/>
<rect x="100.453" y="211.765" width="5.42986" height="5.42986" fill="#C7C0B4"/>
<rect x="100.453" y="217.194" width="5.42986" height="5.42986" fill="white"/>
<rect x="100.453" y="222.624" width="5.42986" height="5.42986" fill="#4F3B2E"/>
<rect x="100.453" y="228.054" width="5.42986" height="5.42986" fill="white"/>
<rect x="100.453" y="233.484" width="5.42986" height="5.42986" fill="#4F3B2E"/>
<rect x="221.719" y="135.746" width="5.42986" height="5.42986" fill="#4F3B2E"/>
<rect x="221.719" y="146.606" width="5.42986" height="5.42986" fill="#4F3B2E"/>
<rect x="221.719" y="179.186" width="5.42986" height="5.42986" fill="#4F3B2E"/>
<rect x="221.719" y="184.615" width="5.42986" height="5.42986" fill="#C7C0B4"/>
<rect x="221.719" y="190.045" width="5.42986" height="5.42986" fill="#C7C0B4"/>
<rect x="221.719" y="195.475" width="5.42986" height="5.42986" fill="#C7C0B4"/>
<rect x="221.719" y="200.904" width="5.42986" height="5.42986" fill="#4F3B2E"/>
<rect x="210.859" y="190.045" width="5.42986" height="5.42986" fill="#4F3B2E"/>
<rect x="210.859" y="195.475" width="5.42986" height="5.42986" fill="#4F3B2E"/>
<rect x="227.148" y="124.887" width="5.42986" height="5.42986" fill="#4F3B2E"/>
<rect x="227.148" y="130.316" width="5.42986" height="5.42986" fill="#4F3B2E"/>
<rect x="227.148" y="135.746" width="5.42986" height="5.42986" fill="white"/>
<rect x="227.148" y="141.176" width="5.42986" height="5.42986" fill="#4F3B2E"/>
<rect x="227.148" y="146.606" width="5.42986" height="5.42986" fill="white"/>
<rect x="227.148" y="152.036" width="5.42986" height="5.42986" fill="#4F3B2E"/>
<rect x="227.148" y="179.186" width="5.42986" height="5.42986" fill="#4F3B2E"/>
<rect x="227.148" y="184.615" width="5.42986" height="5.42986" fill="#C7C0B4"/>
<rect x="227.148" y="190.045" width="5.42986" height="5.42986" fill="#C7C0B4"/>
<rect x="227.148" y="195.475" width="5.42986" height="5.42986" fill="#4F3B2E"/>
<rect x="216.289" y="184.615" width="5.42986" height="5.42986" fill="#4F3B2E"/>
<rect x="216.289" y="190.045" width="5.42986" height="5.42986" fill="#C7C0B4"/>
<rect x="216.289" y="195.475" width="5.42986" height="5.42986" fill="#C7C0B4"/>
<rect x="216.289" y="200.904" width="5.42986" height="5.42986" fill="#4F3B2E"/>
<rect x="232.58" y="103.167" width="5.42986" height="5.42986" fill="#4F3B2E"/>
<rect x="232.58" y="108.597" width="5.42986" height="5.42986" fill="#4F3B2E"/>
<rect x="232.58" y="114.027" width="5.42986" height="5.42986" fill="#4F3B2E"/>
<rect x="232.58" y="119.457" width="5.42986" height="5.42986" fill="white"/>
<rect x="232.58" y="124.887" width="5.42986" height="5.42986" fill="white"/>
<rect x="232.58" y="130.316" width="5.42986" height="5.42986" fill="white"/>
<rect x="232.58" y="135.746" width="5.42986" height="5.42986" fill="white"/>
<rect x="232.58" y="141.176" width="5.42986" height="5.42986" fill="white"/>
<rect x="232.58" y="146.606" width="5.42986" height="5.42986" fill="white"/>
<rect x="232.58" y="152.036" width="5.42986" height="5.42986" fill="white"/>
<rect x="232.58" y="157.466" width="5.42986" height="5.42986" fill="#4F3B2E"/>
<rect x="232.58" y="179.186" width="5.42986" height="5.42986" fill="#4F3B2E"/>
<rect x="232.58" y="184.615" width="5.42986" height="5.42986" fill="#C7C0B4"/>
<rect x="232.58" y="190.045" width="5.42986" height="5.42986" fill="#C7C0B4"/>
<rect x="232.58" y="195.475" width="5.42986" height="5.42986" fill="#4F3B2E"/>
<rect x="238.01" y="97.7373" width="5.42986" height="5.42986" fill="#4F3B2E"/>
<rect x="238.01" y="103.167" width="5.42986" height="5.42986" fill="white"/>
<rect x="238.01" y="108.597" width="5.42986" height="5.42986" fill="white"/>
<rect x="238.01" y="114.027" width="5.42986" height="5.42986" fill="white"/>
<rect x="238.01" y="119.457" width="5.42986" height="5.42986" fill="white"/>
<rect x="238.01" y="124.887" width="5.42986" height="5.42986" fill="white"/>
<rect x="238.01" y="130.316" width="5.42986" height="5.42986" fill="white"/>
<rect x="238.01" y="135.746" width="5.42986" height="5.42986" fill="white"/>
<rect x="238.01" y="141.176" width="5.42986" height="5.42986" fill="white"/>
<rect x="238.01" y="146.606" width="5.42986" height="5.42986" fill="white"/>
<rect x="238.01" y="152.036" width="5.42986" height="5.42986" fill="white"/>
<rect x="238.01" y="157.466" width="5.42986" height="5.42986" fill="white"/>
<rect x="238.01" y="162.896" width="5.42986" height="5.42986" fill="#4F3B2E"/>
<rect x="238.01" y="168.325" width="5.42986" height="5.42986" fill="#4F3B2E"/>
<rect x="238.01" y="173.756" width="5.42986" height="5.42986" fill="#4F3B2E"/>
<rect x="238.01" y="179.186" width="5.42986" height="5.42986" fill="#C7C0B4"/>
<rect x="238.01" y="184.615" width="5.42986" height="5.42986" fill="#C7C0B4"/>
<rect x="238.01" y="190.045" width="5.42986" height="5.42986" fill="#C7C0B4"/>
<rect x="238.01" y="195.475" width="5.42986" height="5.42986" fill="#4F3B2E"/>
<rect x="238.01" y="200.904" width="5.42986" height="5.42986" fill="#4F3B2E"/>
<rect x="238.01" y="206.335" width="5.42986" height="5.42986" fill="#4F3B2E"/>
<rect x="243.439" y="97.7373" width="5.42986" height="5.42986" fill="#4F3B2E"/>
<rect x="243.439" y="103.167" width="5.42986" height="5.42986" fill="white"/>
<rect x="243.439" y="108.597" width="5.42986" height="5.42986" fill="white"/>
<rect x="243.439" y="114.027" width="5.42986" height="5.42986" fill="white"/>
<rect x="243.439" y="119.457" width="5.42986" height="5.42986" fill="white"/>
<rect x="243.439" y="124.887" width="5.42986" height="5.42986" fill="white"/>
<rect x="243.439" y="130.316" width="5.42986" height="5.42986" fill="#4F3B2E"/>
<rect x="243.439" y="135.746" width="5.42986" height="5.42986" fill="white"/>
<rect x="243.439" y="141.176" width="5.42986" height="5.42986" fill="white"/>
<rect x="243.439" y="146.606" width="5.42986" height="5.42986" fill="white"/>
<rect x="243.439" y="152.036" width="5.42986" height="5.42986" fill="white"/>
<rect x="243.439" y="157.466" width="5.42986" height="5.42986" fill="white"/>
<rect x="243.439" y="162.896" width="5.42986" height="5.42986" fill="#4F3B2E"/>
<rect x="243.439" y="168.325" width="5.42986" height="5.42986" fill="white"/>
<rect x="243.439" y="173.756" width="5.42986" height="5.42986" fill="white"/>
<rect x="243.439" y="179.186" width="5.42986" height="5.42986" fill="#C7C0B4"/>
<rect x="243.439" y="184.615" width="5.42986" height="5.42986" fill="#4F3B2E"/>
<rect x="243.439" y="190.045" width="5.42986" height="5.42986" fill="#4F3B2E"/>
<rect x="243.439" y="195.475" width="5.42986" height="5.42986" fill="#4F3B2E"/>
<rect x="243.439" y="200.904" width="5.42986" height="5.42986" fill="white"/>
<rect x="243.439" y="206.335" width="5.42986" height="5.42986" fill="white"/>
<rect x="243.439" y="211.765" width="5.42986" height="5.42986" fill="#4F3B2E"/>
<rect x="248.869" y="103.167" width="5.42986" height="5.42986" fill="#4F3B2E"/>
<rect x="248.869" y="108.597" width="5.42986" height="5.42986" fill="white"/>
<rect x="248.869" y="114.027" width="5.42986" height="5.42986" fill="white"/>
<rect x="248.869" y="119.457" width="5.42986" height="5.42986" fill="white"/>
<rect x="248.869" y="124.887" width="5.42986" height="5.42986" fill="white"/>
<rect x="248.869" y="130.316" width="5.42986" height="5.42986" fill="white"/>
<rect x="248.869" y="135.746" width="5.42986" height="5.42986" fill="white"/>
<rect x="248.869" y="141.176" width="5.42986" height="5.42986" fill="#4F3B2E"/>
<rect x="248.869" y="146.606" width="5.42986" height="5.42986" fill="white"/>
<rect x="248.869" y="152.036" width="5.42986" height="5.42986" fill="white"/>
<rect x="248.869" y="157.466" width="5.42986" height="5.42986" fill="white"/>
<rect x="248.869" y="162.896" width="5.42986" height="5.42986" fill="#4F3B2E"/>
<rect x="248.869" y="168.325" width="5.42986" height="5.42986" fill="white"/>
<rect x="248.869" y="173.756" width="5.42986" height="5.42986" fill="white"/>
<rect x="248.869" y="179.186" width="5.42986" height="5.42986" fill="white"/>
<rect x="248.869" y="184.615" width="5.42986" height="5.42986" fill="#4F3B2E"/>
<rect x="248.869" y="190.045" width="5.42986" height="5.42986" fill="white"/>
<rect x="248.869" y="195.475" width="5.42986" height="5.42986" fill="white"/>
<rect x="248.869" y="200.904" width="5.42986" height="5.42986" fill="white"/>
<rect x="248.869" y="206.335" width="5.42986" height="5.42986" fill="#4F3B2E"/>
<rect x="254.299" y="108.597" width="5.42986" height="5.42986" fill="#4F3B2E"/>
<rect x="254.299" y="114.027" width="5.42986" height="5.42986" fill="white"/>
<rect x="254.299" y="119.457" width="5.42986" height="5.42986" fill="white"/>
<rect x="254.299" y="124.887" width="5.42986" height="5.42986" fill="white"/>
<rect x="254.299" y="130.316" width="5.42986" height="5.42986" fill="white"/>
<rect x="254.299" y="135.746" width="5.42986" height="5.42986" fill="#4F3B2E"/>
<rect x="254.299" y="141.176" width="5.42986" height="5.42986" fill="white"/>
<rect x="254.299" y="146.606" width="5.42986" height="5.42986" fill="white"/>
<rect x="254.299" y="152.036" width="5.42986" height="5.42986" fill="white"/>
<rect x="254.299" y="157.466" width="5.42986" height="5.42986" fill="white"/>
<rect x="254.299" y="162.896" width="5.42986" height="5.42986" fill="#4F3B2E"/>
<rect x="254.299" y="168.325" width="5.42986" height="5.42986" fill="white"/>
<rect x="254.299" y="173.756" width="5.42986" height="5.42986" fill="white"/>
<rect x="254.299" y="179.186" width="5.42986" height="5.42986" fill="white"/>
<rect x="254.299" y="184.615" width="5.42986" height="5.42986" fill="white"/>
<rect x="254.299" y="190.045" width="5.42986" height="5.42986" fill="white"/>
<rect x="254.299" y="195.475" width="5.42986" height="5.42986" fill="white"/>
<rect x="254.299" y="200.904" width="5.42986" height="5.42986" fill="#4F3B2E"/>
<rect x="259.729" y="114.027" width="5.42986" height="5.42986" fill="#4F3B2E"/>
<rect x="259.729" y="119.457" width="5.42986" height="5.42986" fill="#C7C0B4"/>
<rect x="259.729" y="124.887" width="5.42986" height="5.42986" fill="#C7C0B4"/>
<rect x="259.729" y="130.316" width="5.42986" height="5.42986" fill="#C7C0B4"/>
<rect x="259.729" y="135.746" width="5.42986" height="5.42986" fill="#C7C0B4"/>
<rect x="259.729" y="141.176" width="5.42986" height="5.42986" fill="#4F3B2E"/>
<rect x="259.729" y="146.606" width="5.42986" height="5.42986" fill="white"/>
<rect x="259.729" y="152.036" width="5.42986" height="5.42986" fill="white"/>
<rect x="259.729" y="157.466" width="5.42986" height="5.42986" fill="white"/>
<rect x="259.729" y="162.896" width="5.42986" height="5.42986" fill="#4F3B2E"/>
<rect x="259.729" y="168.325" width="5.42986" height="5.42986" fill="white"/>
<rect x="259.729" y="173.756" width="5.42986" height="5.42986" fill="white"/>
<rect x="259.729" y="179.186" width="5.42986" height="5.42986" fill="white"/>
<rect x="259.729" y="184.615" width="5.42986" height="5.42986" fill="white"/>
<rect x="259.729" y="190.045" width="5.42986" height="5.42986" fill="white"/>
<rect x="259.729" y="195.475" width="5.42986" height="5.42986" fill="white"/>
<rect x="259.729" y="200.904" width="5.42986" height="5.42986" fill="#4F3B2E"/>
<rect x="265.158" y="108.597" width="5.42986" height="5.42986" fill="#4F3B2E"/>
<rect x="265.158" y="114.027" width="5.42986" height="5.42986" fill="#C7C0B4"/>
<rect x="265.158" y="119.457" width="5.42986" height="5.42986" fill="#C7C0B4"/>
<rect x="265.158" y="124.887" width="5.42986" height="5.42986" fill="#C7C0B4"/>
<rect x="265.158" y="130.316" width="5.42986" height="5.42986" fill="#4F3B2E"/>
<rect x="265.158" y="135.746" width="5.42986" height="5.42986" fill="#C7C0B4"/>
<rect x="265.158" y="141.176" width="5.42986" height="5.42986" fill="#C7C0B4"/>
<rect x="265.158" y="146.606" width="5.42986" height="5.42986" fill="white"/>
<rect x="265.158" y="152.036" width="5.42986" height="5.42986" fill="white"/>
<rect x="265.158" y="157.466" width="5.42986" height="5.42986" fill="white"/>
<rect x="265.158" y="162.896" width="5.42986" height="5.42986" fill="white"/>
<rect x="265.158" y="168.325" width="5.42986" height="5.42986" fill="white"/>
<rect x="265.158" y="173.756" width="5.42986" height="5.42986" fill="white"/>
<rect x="265.158" y="179.186" width="5.42986" height="5.42986" fill="white"/>
<rect x="265.158" y="184.615" width="5.42986" height="5.42986" fill="white"/>
<rect x="265.158" y="190.045" width="5.42986" height="5.42986" fill="white"/>
<rect x="265.158" y="195.475" width="5.42986" height="5.42986" fill="white"/>
<rect x="265.158" y="200.904" width="5.42986" height="5.42986" fill="#4F3B2E"/>
<rect x="270.588" y="103.167" width="5.42986" height="5.42986" fill="#4F3B2E"/>
<rect x="270.588" y="108.597" width="5.42986" height="5.42986" fill="white"/>
<rect x="270.588" y="114.027" width="5.42986" height="5.42986" fill="white"/>
<rect x="270.588" y="119.457" width="5.42986" height="5.42986" fill="#C7C0B4"/>
<rect x="270.588" y="124.887" width="5.42986" height="5.42986" fill="#C7C0B4"/>
<rect x="270.588" y="130.316" width="5.42986" height="5.42986" fill="#C7C0B4"/>
<rect x="270.588" y="135.746" width="5.42986" height="5.42986" fill="#C7C0B4"/>
<rect x="270.588" y="141.176" width="5.42986" height="5.42986" fill="#C7C0B4"/>
<rect x="270.588" y="146.606" width="5.42986" height="5.42986" fill="white"/>
<rect x="270.588" y="152.036" width="5.42986" height="5.42986" fill="white"/>
<rect x="270.588" y="157.466" width="5.42986" height="5.42986" fill="white"/>
<rect x="270.588" y="162.896" width="5.42986" height="5.42986" fill="white"/>
<rect x="270.588" y="168.325" width="5.42986" height="5.42986" fill="white"/>
<rect x="270.588" y="173.756" width="5.42986" height="5.42986" fill="white"/>
<rect x="270.588" y="179.186" width="5.42986" height="5.42986" fill="white"/>
<rect x="270.588" y="184.615" width="5.42986" height="5.42986" fill="white"/>
<rect x="270.588" y="190.045" width="5.42986" height="5.42986" fill="white"/>
<rect x="270.588" y="195.475" width="5.42986" height="5.42986" fill="white"/>
<rect x="270.588" y="200.904" width="5.42986" height="5.42986" fill="#C7C0B4"/>
<rect x="270.588" y="206.335" width="5.42986" height="5.42986" fill="#4F3B2E"/>
<rect x="276.018" y="97.7373" width="5.42986" height="5.42986" fill="#4F3B2E"/>
<rect x="276.018" y="103.167" width="5.42986" height="5.42986" fill="white"/>
<rect x="276.018" y="108.597" width="5.42986" height="5.42986" fill="white"/>
<rect x="276.018" y="114.027" width="5.42986" height="5.42986" fill="white"/>
<rect x="276.018" y="119.457" width="5.42986" height="5.42986" fill="#C7C0B4"/>
<rect x="276.018" y="124.887" width="5.42986" height="5.42986" fill="#C7C0B4"/>
<rect x="276.018" y="130.316" width="5.42986" height="5.42986" fill="#C7C0B4"/>
<rect x="276.018" y="135.746" width="5.42986" height="5.42986" fill="#C7C0B4"/>
<rect x="276.018" y="141.176" width="5.42986" height="5.42986" fill="#C7C0B4"/>
<rect x="276.018" y="146.606" width="5.42986" height="5.42986" fill="white"/>
<rect x="276.018" y="152.036" width="5.42986" height="5.42986" fill="white"/>
<rect x="276.018" y="157.466" width="5.42986" height="5.42986" fill="white"/>
<rect x="276.018" y="162.896" width="5.42986" height="5.42986" fill="white"/>
<rect x="276.018" y="168.325" width="5.42986" height="5.42986" fill="white"/>
<rect x="276.018" y="173.756" width="5.42986" height="5.42986" fill="white"/>
<rect x="276.018" y="179.186" width="5.42986" height="5.42986" fill="white"/>
<rect x="276.018" y="184.615" width="5.42986" height="5.42986" fill="white"/>
<rect x="276.018" y="190.045" width="5.42986" height="5.42986" fill="white"/>
<rect x="276.018" y="195.475" width="5.42986" height="5.42986" fill="white"/>
<rect x="276.018" y="200.904" width="5.42986" height="5.42986" fill="#C7C0B4"/>
<rect x="276.018" y="206.335" width="5.42986" height="5.42986" fill="#4F3B2E"/>
<rect x="281.447" y="97.7373" width="5.42986" height="5.42986" fill="#4F3B2E"/>
<rect x="281.447" y="103.167" width="5.42986" height="5.42986" fill="#C7C0B4"/>
<rect x="281.447" y="108.597" width="5.42986" height="5.42986" fill="#C7C0B4"/>
<rect x="281.447" y="114.027" width="5.42986" height="5.42986" fill="#C7C0B4"/>
<rect x="281.447" y="119.457" width="5.42986" height="5.42986" fill="#C7C0B4"/>
<rect x="281.447" y="124.887" width="5.42986" height="5.42986" fill="#C7C0B4"/>
<rect x="281.447" y="130.316" width="5.42986" height="5.42986" fill="#C7C0B4"/>
<rect x="281.447" y="135.746" width="5.42986" height="5.42986" fill="#C7C0B4"/>
<rect x="281.447" y="141.176" width="5.42986" height="5.42986" fill="#C7C0B4"/>
<rect x="281.447" y="146.606" width="5.42986" height="5.42986" fill="white"/>
<rect x="281.447" y="152.036" width="5.42986" height="5.42986" fill="white"/>
<rect x="281.447" y="157.466" width="5.42986" height="5.42986" fill="white"/>
<rect x="281.447" y="162.896" width="5.42986" height="5.42986" fill="white"/>
<rect x="281.447" y="168.325" width="5.42986" height="5.42986" fill="white"/>
<rect x="281.447" y="173.756" width="5.42986" height="5.42986" fill="white"/>
<rect x="281.447" y="179.186" width="5.42986" height="5.42986" fill="white"/>
<rect x="281.447" y="184.615" width="5.42986" height="5.42986" fill="white"/>
<rect x="281.447" y="190.045" width="5.42986" height="5.42986" fill="white"/>
<rect x="281.447" y="195.475" width="5.42986" height="5.42986" fill="white"/>
<rect x="281.447" y="200.904" width="5.42986" height="5.42986" fill="#C7C0B4"/>
<rect x="281.447" y="206.335" width="5.42986" height="5.42986" fill="#4F3B2E"/>
<rect x="286.877" y="103.167" width="5.42986" height="5.42986" fill="#4F3B2E"/>
<rect x="286.877" y="108.597" width="5.42986" height="5.42986" fill="#4F3B2E"/>
<rect x="286.877" y="114.027" width="5.42986" height="5.42986" fill="#4F3B2E"/>
<rect x="286.877" y="119.457" width="5.42986" height="5.42986" fill="#C7C0B4"/>
<rect x="286.877" y="124.887" width="5.42986" height="5.42986" fill="#C7C0B4"/>
<rect x="286.877" y="130.316" width="5.42986" height="5.42986" fill="#C7C0B4"/>
<rect x="286.877" y="135.746" width="5.42986" height="5.42986" fill="white"/>
<rect x="286.877" y="141.176" width="5.42986" height="5.42986" fill="#C7C0B4"/>
<rect x="286.877" y="146.606" width="5.42986" height="5.42986" fill="white"/>
<rect x="286.877" y="152.036" width="5.42986" height="5.42986" fill="white"/>
<rect x="286.877" y="157.466" width="5.42986" height="5.42986" fill="#4F3B2E"/>
<rect x="286.877" y="162.896" width="5.42986" height="5.42986" fill="#C7C0B4"/>
<rect x="286.877" y="168.325" width="5.42986" height="5.42986" fill="#C7C0B4"/>
<rect x="286.877" y="173.756" width="5.42986" height="5.42986" fill="white"/>
<rect x="286.877" y="179.186" width="5.42986" height="5.42986" fill="white"/>
<rect x="286.877" y="184.615" width="5.42986" height="5.42986" fill="white"/>
<rect x="286.877" y="190.045" width="5.42986" height="5.42986" fill="white"/>
<rect x="286.877" y="195.475" width="5.42986" height="5.42986" fill="white"/>
<rect x="286.877" y="200.904" width="5.42986" height="5.42986" fill="white"/>
<rect x="286.877" y="206.335" width="5.42986" height="5.42986" fill="white"/>
<rect x="286.877" y="211.765" width="5.42986" height="5.42986" fill="#4F3B2E"/>
<rect x="292.309" y="119.457" width="5.42986" height="5.42986" fill="#4F3B2E"/>
<rect x="292.309" y="124.887" width="5.42986" height="5.42986" fill="#4F3B2E"/>
<rect x="292.309" y="130.316" width="5.42986" height="5.42986" fill="#4F3B2E"/>
<rect x="292.309" y="135.746" width="5.42986" height="5.42986" fill="white"/>
<rect x="292.309" y="141.176" width="5.42986" height="5.42986" fill="#4F3B2E"/>
<rect x="292.309" y="146.606" width="5.42986" height="5.42986" fill="white"/>
<rect x="292.309" y="152.036" width="5.42986" height="5.42986" fill="#4F3B2E"/>
<rect x="292.309" y="162.896" width="5.42986" height="5.42986" fill="#4F3B2E"/>
<rect x="292.309" y="168.325" width="5.42986" height="5.42986" fill="#C7C0B4"/>
<rect x="292.309" y="173.756" width="5.42986" height="5.42986" fill="#C7C0B4"/>
<rect x="292.309" y="179.186" width="5.42986" height="5.42986" fill="white"/>
<rect x="292.309" y="184.615" width="5.42986" height="5.42986" fill="white"/>
<rect x="292.309" y="190.045" width="5.42986" height="5.42986" fill="white"/>
<rect x="292.309" y="195.475" width="5.42986" height="5.42986" fill="white"/>
<rect x="292.309" y="200.904" width="5.42986" height="5.42986" fill="white"/>
<rect x="292.309" y="206.335" width="5.42986" height="5.42986" fill="white"/>
<rect x="292.309" y="211.765" width="5.42986" height="5.42986" fill="#4F3B2E"/>
<rect x="292.309" y="217.194" width="5.42986" height="5.42986" fill="#4F3B2E"/>
<rect x="292.309" y="222.624" width="5.42986" height="5.42986" fill="#4F3B2E"/>
<rect x="297.738" y="135.746" width="5.42986" height="5.42986" fill="#4F3B2E"/>
<rect x="297.738" y="146.606" width="5.42986" height="5.42986" fill="#4F3B2E"/>
<rect x="297.738" y="162.896" width="5.42986" height="5.42986" fill="#4F3B2E"/>
<rect x="297.738" y="168.325" width="5.42986" height="5.42986" fill="#C7C0B4"/>
<rect x="297.738" y="173.756" width="5.42986" height="5.42986" fill="#C7C0B4"/>
<rect x="297.738" y="179.186" width="5.42986" height="5.42986" fill="#C7C0B4"/>
<rect x="297.738" y="184.615" width="5.42986" height="5.42986" fill="white"/>
<rect x="297.738" y="190.045" width="5.42986" height="5.42986" fill="white"/>
<rect x="297.738" y="195.475" width="5.42986" height="5.42986" fill="white"/>
<rect x="297.738" y="200.904" width="5.42986" height="5.42986" fill="white"/>
<rect x="297.738" y="206.335" width="5.42986" height="5.42986" fill="white"/>
<rect x="297.738" y="211.765" width="5.42986" height="5.42986" fill="#4F3B2E"/>
<rect x="297.738" y="217.194" width="5.42986" height="5.42986" fill="#C7C0B4"/>
<rect x="297.738" y="222.624" width="5.42986" height="5.42986" fill="#C7C0B4"/>
<rect x="297.738" y="228.054" width="5.42986" height="5.42986" fill="#4F3B2E"/>
<rect x="303.168" y="162.896" width="5.42986" height="5.42986" fill="#4F3B2E"/>
<rect x="303.168" y="168.325" width="5.42986" height="5.42986" fill="#C7C0B4"/>
<rect x="303.168" y="173.756" width="5.42986" height="5.42986" fill="#C7C0B4"/>
<rect x="303.168" y="179.186" width="5.42986" height="5.42986" fill="#C7C0B4"/>
<rect x="303.168" y="184.615" width="5.42986" height="5.42986" fill="#C7C0B4"/>
<rect x="303.168" y="190.045" width="5.42986" height="5.42986" fill="white"/>
<rect x="303.168" y="195.475" width="5.42986" height="5.42986" fill="white"/>
<rect x="303.168" y="200.904" width="5.42986" height="5.42986" fill="white"/>
<rect x="303.168" y="206.335" width="5.42986" height="5.42986" fill="white"/>
<rect x="303.168" y="211.765" width="5.42986" height="5.42986" fill="#4F3B2E"/>
<rect x="303.168" y="217.194" width="5.42986" height="5.42986" fill="#C7C0B4"/>
<rect x="303.168" y="222.624" width="5.42986" height="5.42986" fill="#C7C0B4"/>
<rect x="303.168" y="228.054" width="5.42986" height="5.42986" fill="#4F3B2E"/>
<rect x="303.168" y="233.484" width="5.42986" height="5.42986" fill="#4F3B2E"/>
<rect x="303.168" y="238.914" width="5.42986" height="5.42986" fill="#4F3B2E"/>
<rect x="308.598" y="162.896" width="5.42986" height="5.42986" fill="#4F3B2E"/>
<rect x="308.598" y="168.325" width="5.42986" height="5.42986" fill="#C7C0B4"/>
<rect x="308.598" y="173.756" width="5.42986" height="5.42986" fill="#C7C0B4"/>
<rect x="308.598" y="179.186" width="5.42986" height="5.42986" fill="#C7C0B4"/>
<rect x="308.598" y="184.615" width="5.42986" height="5.42986" fill="#C7C0B4"/>
<rect x="308.598" y="190.045" width="5.42986" height="5.42986" fill="white"/>
<rect x="308.598" y="195.475" width="5.42986" height="5.42986" fill="white"/>
<rect x="308.598" y="200.904" width="5.42986" height="5.42986" fill="white"/>
<rect x="308.598" y="206.335" width="5.42986" height="5.42986" fill="white"/>
<rect x="308.598" y="211.765" width="5.42986" height="5.42986" fill="#4F3B2E"/>
<rect x="308.598" y="217.194" width="5.42986" height="5.42986" fill="#C7C0B4"/>
<rect x="308.598" y="222.624" width="5.42986" height="5.42986" fill="#C7C0B4"/>
<rect x="308.598" y="228.054" width="5.42986" height="5.42986" fill="#C7C0B4"/>
<rect x="308.598" y="233.484" width="5.42986" height="5.42986" fill="#C7C0B4"/>
<rect x="308.598" y="238.914" width="5.42986" height="5.42986" fill="#4F3B2E"/>
<rect x="314.027" y="168.325" width="5.42986" height="5.42986" fill="#4F3B2E"/>
<rect x="314.027" y="173.756" width="5.42986" height="5.42986" fill="#C7C0B4"/>
<rect x="314.027" y="179.186" width="5.42986" height="5.42986" fill="#C7C0B4"/>
<rect x="314.027" y="184.615" width="5.42986" height="5.42986" fill="#C7C0B4"/>
<rect x="314.027" y="190.045" width="5.42986" height="5.42986" fill="white"/>
<rect x="314.027" y="195.475" width="5.42986" height="5.42986" fill="white"/>
<rect x="314.027" y="200.904" width="5.42986" height="5.42986" fill="white"/>
<rect x="314.027" y="206.335" width="5.42986" height="5.42986" fill="white"/>
<rect x="314.027" y="211.765" width="5.42986" height="5.42986" fill="white"/>
<rect x="314.027" y="217.194" width="5.42986" height="5.42986" fill="#4F3B2E"/>
<rect x="314.027" y="222.624" width="5.42986" height="5.42986" fill="#C7C0B4"/>
<rect x="314.027" y="228.054" width="5.42986" height="5.42986" fill="#C7C0B4"/>
<rect x="314.027" y="233.484" width="5.42986" height="5.42986" fill="#C7C0B4"/>
<rect x="314.027" y="238.914" width="5.42986" height="5.42986" fill="#4F3B2E"/>
<rect x="319.457" y="168.325" width="5.42986" height="5.42986" fill="#4F3B2E"/>
<rect x="319.457" y="173.756" width="5.42986" height="5.42986" fill="#C7C0B4"/>
<rect x="319.457" y="179.186" width="5.42986" height="5.42986" fill="#C7C0B4"/>
<rect x="319.457" y="184.615" width="5.42986" height="5.42986" fill="#C7C0B4"/>
<rect x="319.457" y="190.045" width="5.42986" height="5.42986" fill="white"/>
<rect x="319.457" y="195.475" width="5.42986" height="5.42986" fill="white"/>
<rect x="319.457" y="200.904" width="5.42986" height="5.42986" fill="white"/>
<rect x="319.457" y="206.335" width="5.42986" height="5.42986" fill="white"/>
<rect x="319.457" y="211.765" width="5.42986" height="5.42986" fill="white"/>
<rect x="319.457" y="217.194" width="5.42986" height="5.42986" fill="#4F3B2E"/>
<rect x="319.457" y="222.624" width="5.42986" height="5.42986" fill="#4F3B2E"/>
<rect x="319.457" y="228.054" width="5.42986" height="5.42986" fill="#4F3B2E"/>
<rect x="319.457" y="233.484" width="5.42986" height="5.42986" fill="#4F3B2E"/>
<rect x="319.457" y="238.914" width="5.42986" height="5.42986" fill="#4F3B2E"/>
<rect x="324.887" y="173.756" width="5.42986" height="5.42986" fill="#4F3B2E"/>
<rect x="324.887" y="179.186" width="5.42986" height="5.42986" fill="#C7C0B4"/>
<rect x="324.887" y="184.615" width="5.42986" height="5.42986" fill="#C7C0B4"/>
<rect x="324.887" y="190.045" width="5.42986" height="5.42986" fill="white"/>
<rect x="324.887" y="195.475" width="5.42986" height="5.42986" fill="white"/>
<rect x="324.887" y="200.904" width="5.42986" height="5.42986" fill="white"/>
<rect x="324.887" y="206.335" width="5.42986" height="5.42986" fill="white"/>
<rect x="324.887" y="211.765" width="5.42986" height="5.42986" fill="white"/>
<rect x="324.887" y="217.194" width="5.42986" height="5.42986" fill="white"/>
<rect x="324.887" y="222.624" width="5.42986" height="5.42986" fill="white"/>
<rect x="324.887" y="228.054" width="5.42986" height="5.42986" fill="#4F3B2E"/>
<rect x="330.316" y="173.756" width="5.42986" height="5.42986" fill="#4F3B2E"/>
<rect x="330.316" y="179.186" width="5.42986" height="5.42986" fill="#C7C0B4"/>
<rect x="330.316" y="184.615" width="5.42986" height="5.42986" fill="#C7C0B4"/>
<rect x="330.316" y="190.045" width="5.42986" height="5.42986" fill="white"/>
<rect x="330.316" y="195.475" width="5.42986" height="5.42986" fill="white"/>
<rect x="330.316" y="200.904" width="5.42986" height="5.42986" fill="white"/>
<rect x="330.316" y="206.335" width="5.42986" height="5.42986" fill="white"/>
<rect x="330.316" y="211.765" width="5.42986" height="5.42986" fill="white"/>
<rect x="330.316" y="217.194" width="5.42986" height="5.42986" fill="white"/>
<rect x="330.316" y="222.624" width="5.42986" height="5.42986" fill="white"/>
<rect x="330.316" y="228.054" width="5.42986" height="5.42986" fill="#4F3B2E"/>
<rect x="330.316" y="233.484" width="5.42986" height="5.42986" fill="#4F3B2E"/>
<rect x="335.746" y="168.325" width="5.42986" height="5.42986" fill="#4F3B2E"/>
<rect x="335.746" y="173.756" width="5.42986" height="5.42986" fill="#C7C0B4"/>
<rect x="335.746" y="179.186" width="5.42986" height="5.42986" fill="#C7C0B4"/>
<rect x="335.746" y="184.615" width="5.42986" height="5.42986" fill="#4F3B2E"/>
<rect x="335.746" y="190.045" width="5.42986" height="5.42986" fill="#4F3B2E"/>
<rect x="335.746" y="195.475" width="5.42986" height="5.42986" fill="#4F3B2E"/>
<rect x="335.746" y="200.904" width="5.42986" height="5.42986" fill="#4F3B2E"/>
<rect x="335.746" y="206.335" width="5.42986" height="5.42986" fill="#4F3B2E"/>
<rect x="335.746" y="211.765" width="5.42986" height="5.42986" fill="white"/>
<rect x="335.746" y="217.194" width="5.42986" height="5.42986" fill="white"/>
<rect x="335.746" y="222.624" width="5.42986" height="5.42986" fill="white"/>
<rect x="335.746" y="228.054" width="5.42986" height="5.42986" fill="white"/>
<rect x="335.746" y="233.484" width="5.42986" height="5.42986" fill="white"/>
<rect x="335.746" y="238.914" width="5.42986" height="5.42986" fill="#4F3B2E"/>
<rect x="341.176" y="141.176" width="5.42986" height="5.42986" fill="#4F3B2E"/>
<rect x="341.176" y="146.606" width="5.42986" height="5.42986" fill="#4F3B2E"/>
<rect x="341.176" y="152.036" width="5.42986" height="5.42986" fill="#4F3B2E"/>
<rect x="341.176" y="157.466" width="5.42986" height="5.42986" fill="#4F3B2E"/>
<rect x="341.176" y="162.896" width="5.42986" height="5.42986" fill="#4F3B2E"/>
<rect x="341.176" y="168.325" width="5.42986" height="5.42986" fill="#C7C0B4"/>
<rect x="341.176" y="173.756" width="5.42986" height="5.42986" fill="#C7C0B4"/>
<rect x="341.176" y="179.186" width="5.42986" height="5.42986" fill="#C7C0B4"/>
<rect x="341.176" y="184.615" width="5.42986" height="5.42986" fill="#4F3B2E"/>
<rect x="341.176" y="211.765" width="5.42986" height="5.42986" fill="#4F3B2E"/>
<rect x="341.176" y="217.194" width="5.42986" height="5.42986" fill="white"/>
<rect x="341.176" y="222.624" width="5.42986" height="5.42986" fill="white"/>
<rect x="341.176" y="228.054" width="5.42986" height="5.42986" fill="white"/>
<rect x="341.176" y="233.484" width="5.42986" height="5.42986" fill="white"/>
<rect x="341.176" y="238.914" width="5.42986" height="5.42986" fill="#4F3B2E"/>
<rect x="346.605" y="135.746" width="5.42986" height="5.42986" fill="#4F3B2E"/>
<rect x="346.605" y="141.176" width="5.42986" height="5.42986" fill="#C7C0B4"/>
<rect x="346.605" y="146.606" width="5.42986" height="5.42986" fill="#C7C0B4"/>
<rect x="346.605" y="152.036" width="5.42986" height="5.42986" fill="#C7C0B4"/>
<rect x="346.605" y="157.466" width="5.42986" height="5.42986" fill="#C7C0B4"/>
<rect x="346.605" y="162.896" width="5.42986" height="5.42986" fill="#C7C0B4"/>
<rect x="346.605" y="168.325" width="5.42986" height="5.42986" fill="#C7C0B4"/>
<rect x="346.605" y="173.756" width="5.42986" height="5.42986" fill="#C7C0B4"/>
<rect x="346.605" y="179.186" width="5.42986" height="5.42986" fill="#4F3B2E"/>
<rect x="346.605" y="217.194" width="5.42986" height="5.42986" fill="#4F3B2E"/>
<rect x="346.605" y="222.624" width="5.42986" height="5.42986" fill="#4F3B2E"/>
<rect x="346.605" y="228.054" width="5.42986" height="5.42986" fill="#4F3B2E"/>
<rect x="346.605" y="233.484" width="5.42986" height="5.42986" fill="#4F3B2E"/>
<rect x="352.037" y="135.746" width="5.42986" height="5.42986" fill="#4F3B2E"/>
<rect x="352.037" y="141.176" width="5.42986" height="5.42986" fill="#C7C0B4"/>
<rect x="352.037" y="146.606" width="5.42986" height="5.42986" fill="#C7C0B4"/>
<rect x="352.037" y="152.036" width="5.42986" height="5.42986" fill="#C7C0B4"/>
<rect x="352.037" y="157.466" width="5.42986" height="5.42986" fill="#C7C0B4"/>
<rect x="352.037" y="162.896" width="5.42986" height="5.42986" fill="#C7C0B4"/>
<rect x="352.037" y="168.325" width="5.42986" height="5.42986" fill="#C7C0B4"/>
<rect x="352.037" y="173.756" width="5.42986" height="5.42986" fill="#4F3B2E"/>
<rect x="357.467" y="135.746" width="5.42986" height="5.42986" fill="#4F3B2E"/>
<rect x="357.467" y="141.176" width="5.42986" height="5.42986" fill="#C7C0B4"/>
<rect x="357.467" y="146.606" width="5.42986" height="5.42986" fill="#C7C0B4"/>
<rect x="357.467" y="152.036" width="5.42986" height="5.42986" fill="#C7C0B4"/>
<rect x="357.467" y="157.466" width="5.42986" height="5.42986" fill="#C7C0B4"/>
<rect x="357.467" y="162.896" width="5.42986" height="5.42986" fill="#4F3B2E"/>
<rect x="357.467" y="168.325" width="5.42986" height="5.42986" fill="#4F3B2E"/>
<rect x="362.896" y="141.176" width="5.42986" height="5.42986" fill="#4F3B2E"/>
<rect x="362.896" y="146.606" width="5.42986" height="5.42986" fill="#4F3B2E"/>
<rect x="362.896" y="152.036" width="5.42986" height="5.42986" fill="#4F3B2E"/>
<rect x="362.896" y="157.466" width="5.42986" height="5.42986" fill="#4F3B2E"/>
</svg>
