<svg width="1080" height="1350" viewBox="0 0 1080 1350" fill="none" xmlns="http://www.w3.org/2000/svg">
<rect width="1080" height="1350" fill="#4F3B2E"/>
<path d="M464.9 67.52C467.753 67.52 469.887 68.5333 471.3 70.56C472.74 72.56 473.46 75.6933 473.46 79.96C473.46 83.9867 472.687 87.0533 471.14 89.16C469.62 91.2667 467.433 92.32 464.58 92.32C463.593 92.32 462.593 92.08 461.58 91.6C460.593 91.0933 459.847 90.44 459.34 89.64V94L459.66 100H454.14L454.5 94V73.96L454.14 68H458.82L459.02 69.2C459.687 68.6667 460.527 68.2533 461.54 67.96C462.58 67.6667 463.7 67.52 464.9 67.52ZM463.98 87.68C465.1 87.68 465.98 87.44 466.62 86.96C467.287 86.4533 467.753 85.6533 468.02 84.56C468.313 83.44 468.46 81.9067 468.46 79.96C468.46 77.9067 468.313 76.3333 468.02 75.24C467.727 74.1467 467.233 73.3867 466.54 72.96C465.847 72.5067 464.86 72.28 463.58 72.28C461.793 72.28 460.38 72.5067 459.34 72.96V86.24C459.82 86.6933 460.473 87.0533 461.3 87.32C462.153 87.56 463.047 87.68 463.98 87.68ZM477.126 85.32C477.126 83.7733 477.486 82.3867 478.206 81.16C478.926 79.9067 479.9 78.9333 481.126 78.24C482.353 77.52 483.7 77.16 485.166 77.16C486.393 77.16 487.54 77.2667 488.606 77.48C489.673 77.6933 490.54 77.9867 491.206 78.36V76.12C491.206 74.8133 490.78 73.8267 489.926 73.16C489.1 72.4933 487.873 72.16 486.246 72.16C484.646 72.16 483.22 72.44 481.966 73C480.713 73.56 479.753 74.36 479.086 75.4L478.646 75.32L479.286 70.08C480.166 69.2533 481.286 68.6133 482.646 68.16C484.033 67.68 485.473 67.44 486.966 67.44C489.766 67.44 491.98 68.12 493.606 69.48C495.233 70.84 496.046 72.72 496.046 75.12V86.04L496.366 92H491.326L491.206 89.68C490.7 90.5333 489.833 91.24 488.606 91.8C487.38 92.36 486.073 92.64 484.686 92.64C482.34 92.64 480.486 91.9867 479.126 90.68C477.793 89.3733 477.126 87.5867 477.126 85.32ZM482.126 84.96C482.126 86.1333 482.393 87 482.926 87.56C483.46 88.0933 484.34 88.36 485.566 88.36C486.58 88.36 487.62 88.16 488.686 87.76C489.753 87.3333 490.593 86.7867 491.206 86.12V82.56C490.566 82.1867 489.74 81.8933 488.726 81.68C487.74 81.44 486.713 81.32 485.646 81.32C484.42 81.32 483.526 81.6267 482.966 82.24C482.406 82.8267 482.126 83.7333 482.126 84.96ZM532.178 68L530.338 73.8L526.578 92H518.898L515.498 73.44L512.098 92H504.298L500.578 73.8L498.698 68H504.698L508.138 88.88L511.298 73.8L512.298 68H518.618L519.578 73.8L522.738 88.88L526.178 68H532.178ZM546.033 67.52C548.886 67.52 551.019 68.5333 552.433 70.56C553.873 72.56 554.593 75.6933 554.593 79.96C554.593 83.9867 553.819 87.0533 552.273 89.16C550.753 91.2667 548.566 92.32 545.713 92.32C544.726 92.32 543.726 92.08 542.713 91.6C541.726 91.0933 540.979 90.44 540.473 89.64V94L540.793 100H535.273L535.633 94V73.96L535.273 68H539.953L540.153 69.2C540.819 68.6667 541.659 68.2533 542.673 67.96C543.713 67.6667 544.833 67.52 546.033 67.52ZM545.113 87.68C546.233 87.68 547.113 87.44 547.753 86.96C548.419 86.4533 548.886 85.6533 549.153 84.56C549.446 83.44 549.593 81.9067 549.593 79.96C549.593 77.9067 549.446 76.3333 549.153 75.24C548.859 74.1467 548.366 73.3867 547.673 72.96C546.979 72.5067 545.993 72.28 544.713 72.28C542.926 72.28 541.513 72.5067 540.473 72.96V86.24C540.953 86.6933 541.606 87.0533 542.433 87.32C543.286 87.56 544.179 87.68 545.113 87.68ZM568.659 92.64C565.139 92.64 562.566 91.5867 560.939 89.48C559.312 87.3467 558.499 84.1733 558.499 79.96C558.499 75.7467 559.312 72.6 560.939 70.52C562.566 68.4133 565.139 67.36 568.659 67.36C572.179 67.36 574.752 68.4133 576.379 70.52C578.006 72.6 578.819 75.7467 578.819 79.96C578.819 84.1733 578.006 87.3467 576.379 89.48C574.752 91.5867 572.179 92.64 568.659 92.64ZM568.659 87.88C570.046 87.88 571.099 87.6533 571.819 87.2C572.566 86.72 573.086 85.92 573.379 84.8C573.672 83.68 573.819 82.08 573.819 80C573.819 77.92 573.672 76.32 573.379 75.2C573.086 74.08 572.566 73.2933 571.819 72.84C571.099 72.36 570.046 72.12 568.659 72.12C567.272 72.12 566.206 72.36 565.459 72.84C564.739 73.2933 564.232 74.08 563.939 75.2C563.646 76.32 563.499 77.92 563.499 80C563.499 82.08 563.646 83.68 563.939 84.8C564.232 85.92 564.739 86.72 565.459 87.2C566.206 87.6533 567.272 87.88 568.659 87.88ZM596.757 86V75.6C596.757 74.48 596.49 73.6267 595.957 73.04C595.424 72.4533 594.637 72.16 593.597 72.16C592.717 72.16 591.824 72.4 590.917 72.88C590.01 73.36 589.25 74.08 588.637 75.04V86L588.957 92H583.437L583.797 86V73.8L583.437 68H587.837L588.637 71.04C589.357 69.9467 590.304 69.12 591.477 68.56C592.677 68 594.024 67.72 595.517 67.72C597.41 67.72 598.89 68.3067 599.957 69.48C601.05 70.6533 601.597 72.36 601.597 74.6V86L601.917 92H596.437L596.757 86ZM625.593 68L625.233 73.96V88.32C625.233 92.32 624.099 95.3333 621.833 97.36C619.566 99.4133 616.353 100.44 612.193 100.44L610.033 96.72L610.313 96.4C612.206 96.4 613.913 96.12 615.433 95.56C616.979 95 618.193 94.2133 619.073 93.2C619.953 92.1867 620.393 91.0267 620.393 89.72V89.28C619.886 90.24 619.113 90.9867 618.073 91.52C617.059 92.0533 615.993 92.32 614.872 92.32C612.152 92.32 610.033 91.2667 608.513 89.16C607.019 87.0267 606.273 83.96 606.273 79.96C606.273 75.6933 606.979 72.56 608.393 70.56C609.833 68.5333 611.979 67.52 614.833 67.52C616.059 67.52 617.166 67.6667 618.153 67.96C619.166 68.2533 620.019 68.6667 620.713 69.2L620.913 68H625.593ZM615.753 87.68C616.686 87.68 617.566 87.56 618.393 87.32C619.246 87.0533 619.913 86.6933 620.393 86.24V72.96C619.353 72.5067 617.939 72.28 616.153 72.28C614.873 72.28 613.886 72.5067 613.193 72.96C612.499 73.3867 612.006 74.1467 611.713 75.24C611.419 76.3333 611.273 77.9067 611.273 79.96C611.273 81.9067 611.406 83.44 611.673 84.56C611.966 85.6533 612.433 86.4533 613.073 86.96C613.739 87.44 614.633 87.68 615.753 87.68Z" fill="white"/>
<path d="M173.562 1011.62H102.578V1003.63H133.086V988.336H108.68V980.773H119.594V957.57H108.422V949.836H167.375V957.57H156.031V980.773H167.117V988.336H142.539V1003.63H173.562V1011.62ZM146.578 980.773V957.57H129.133V980.773H146.578ZM249.445 989.023H178.633V981.375H209.141V974.414H185.422V966.852H195.648V953.445H184.992V945.625H242.914V953.445H232.258V966.852H242.484V974.414H218.68V981.375H249.445V989.023ZM213.953 993.578C219.568 993.578 224.38 994.108 228.391 995.168C232.43 996.199 235.523 997.732 237.672 999.766C239.82 1001.77 240.909 1004.21 240.938 1007.07C240.909 1009.93 239.82 1012.37 237.672 1014.38C235.523 1016.41 232.43 1017.94 228.391 1018.97C224.38 1020.03 219.568 1020.56 213.953 1020.56C208.31 1020.56 203.469 1020.03 199.43 1018.97C195.391 1017.94 192.297 1016.41 190.148 1014.38C188.029 1012.37 186.969 1009.93 186.969 1007.07C186.969 1004.21 188.029 1001.77 190.148 999.766C192.297 997.732 195.391 996.199 199.43 995.168C203.469 994.108 208.31 993.578 213.953 993.578ZM213.953 1000.8C208.253 1000.8 203.913 1001.33 200.934 1002.39C197.983 1003.45 196.508 1005.01 196.508 1007.07C196.508 1009.16 197.983 1010.75 200.934 1011.84C203.913 1012.9 208.253 1013.43 213.953 1013.43C219.539 1013.43 223.807 1012.9 226.758 1011.84C229.708 1010.75 231.198 1009.16 231.227 1007.07C231.198 1005.01 229.694 1003.45 226.715 1002.39C223.764 1001.33 219.51 1000.8 213.953 1000.8ZM222.633 966.852V953.445H205.188V966.852H222.633ZM319.312 1020.73H309.688V942.961H319.312V1020.73ZM277.461 948.633C281.357 948.633 284.823 949.764 287.859 952.027C290.924 954.262 293.331 957.456 295.078 961.609C296.826 965.734 297.714 970.547 297.742 976.047C297.714 981.576 296.826 986.417 295.078 990.57C293.359 994.724 290.967 997.932 287.902 1000.2C284.837 1002.43 281.357 1003.55 277.461 1003.55C273.536 1003.55 270.042 1002.43 266.977 1000.2C263.911 997.932 261.505 994.724 259.758 990.57C258.039 986.417 257.18 981.576 257.18 976.047C257.18 970.547 258.039 965.734 259.758 961.609C261.505 957.456 263.911 954.262 266.977 952.027C270.042 949.764 273.536 948.633 277.461 948.633ZM277.461 957.227C275.255 957.227 273.307 957.971 271.617 959.461C269.956 960.951 268.667 963.113 267.75 965.949C266.833 968.785 266.375 972.151 266.375 976.047C266.375 979.971 266.833 983.352 267.75 986.188C268.667 989.023 269.956 991.201 271.617 992.719C273.307 994.208 275.255 994.953 277.461 994.953C279.638 994.953 281.557 994.208 283.219 992.719C284.88 991.201 286.169 989.023 287.086 986.188C288.003 983.352 288.461 979.971 288.461 976.047C288.461 972.151 288.003 968.799 287.086 965.992C286.169 963.156 284.88 960.993 283.219 959.504C281.557 957.986 279.638 957.227 277.461 957.227ZM665.555 987.82H655.93V943.047H665.555V987.82ZM600.844 979.055C608.779 979.055 615.74 978.969 621.727 978.797V971.922H607.547V946.656H644.93V954.305H617.172V964.445H645.531V971.922H631.266V978.453C638.456 978.081 644.872 977.536 650.516 976.82L651.031 983.438C643.698 984.698 636.178 985.529 628.473 985.93C620.767 986.331 611.987 986.589 602.133 986.703L600.844 979.055ZM622.758 997.875H656.102V991.086H665.555V1019.7H613.219V991.086H622.758V997.875ZM656.102 1011.97V1005.01H622.758V1011.97H656.102ZM741.523 1020.65H732.07V942.961H741.523V1020.65ZM690.648 992.977C702.708 992.776 714.195 991.602 725.109 989.453L726.312 997.445C719.867 998.792 713.479 999.751 707.148 1000.32C700.846 1000.87 694.43 1001.14 687.898 1001.14H681.195V950.523H690.648V992.977ZM813.625 972.438H825.57V980.258H813.625V1020.73H804.086V942.961H813.625V972.438ZM792.312 958.086H765.5V993.75C771.773 993.75 777.431 993.564 782.473 993.191C787.514 992.819 792.628 992.174 797.812 991.258L798.93 999.336C793.315 1000.31 787.758 1000.95 782.258 1001.27C776.786 1001.58 770.169 1001.74 762.406 1001.74H755.961V950.352H792.312V958.086Z" fill="white"/>
<path d="M416.336 1020.73H406.883V942.961H416.336V1020.73ZM392.445 978.883H365.719V994.523C372.279 994.466 378.294 994.237 383.766 993.836C389.266 993.435 394.88 992.747 400.609 991.773L401.469 999.594C395.31 1000.68 389.251 1001.41 383.293 1001.79C377.335 1002.16 370.474 1002.34 362.711 1002.34H355.922V971.32H382.734V957.484H355.836V949.75H392.445V978.883ZM490.414 975.789H436.445V946.656H445.984V968.055H490.414V975.789ZM498.492 993.062H481.477V1020.65H471.852V993.062H454.32V1020.65H444.781V993.062H427.68V985.328H498.492V993.062ZM568.789 981.977H559.25V966.852H545.242C544.612 969.659 543.366 972.122 541.504 974.242C539.642 976.362 537.307 978.009 534.5 979.184C531.721 980.358 528.656 980.945 525.305 980.945C521.409 980.945 517.9 980.186 514.777 978.668C511.655 977.121 509.206 974.987 507.43 972.266C505.654 969.544 504.766 966.451 504.766 962.984C504.766 959.604 505.654 956.582 507.43 953.918C509.206 951.225 511.655 949.134 514.777 947.645C517.9 946.126 521.409 945.367 525.305 945.367C528.628 945.367 531.678 945.94 534.457 947.086C537.264 948.232 539.599 949.85 541.461 951.941C543.323 954.004 544.569 956.396 545.199 959.117H559.25V942.961H568.789V981.977ZM525.305 953.102C523.099 953.102 521.122 953.517 519.375 954.348C517.656 955.178 516.31 956.339 515.336 957.828C514.362 959.318 513.875 961.036 513.875 962.984C513.875 965.047 514.348 966.852 515.293 968.398C516.267 969.917 517.613 971.091 519.332 971.922C521.079 972.724 523.07 973.125 525.305 973.125C527.453 973.125 529.372 972.724 531.062 971.922C532.753 971.091 534.085 969.917 535.059 968.398C536.033 966.852 536.534 965.047 536.562 962.984C536.534 961.036 536.033 959.318 535.059 957.828C534.085 956.339 532.753 955.178 531.062 954.348C529.372 953.517 527.453 953.102 525.305 953.102ZM568.789 1005.87H527.195V1012.14H571.281V1019.7H517.656V998.82H559.25V993.148H517.57V985.758H568.789V1005.87Z" fill="#A0C8F4"/>
<path d="M119.102 1068.34H106.25V1086.03C109.557 1086.03 112.337 1085.95 114.59 1085.8C116.855 1085.64 119.141 1085.34 121.445 1084.9L121.836 1087.44C119.375 1087.91 116.966 1088.23 114.609 1088.39C112.253 1088.56 109.323 1088.65 105.82 1088.65H103.164V1065.76H119.102V1068.34ZM130.234 1097.24H127.148V1077.63H117.031V1075.09H127.148V1062.44H130.234V1097.24ZM178.516 1078.88H172.891V1097.16H169.844V1062.44H172.891V1076.3H178.516V1078.88ZM150.508 1085.76C153.229 1085.74 155.892 1085.61 158.496 1085.37C161.1 1085.12 163.763 1084.72 166.484 1084.16L166.875 1086.77C164.049 1087.35 161.283 1087.75 158.574 1087.98C155.879 1088.22 153.099 1088.34 150.234 1088.34H147.461V1065.88H150.508V1085.76ZM212.227 1083.26H180.586V1080.76H212.227V1083.26ZM208.711 1096.42H184.688V1086.3H187.773V1093.84H208.711V1096.42ZM196.406 1063.69C198.88 1063.67 201.042 1063.94 202.891 1064.49C204.74 1065.04 206.165 1065.83 207.168 1066.87C208.171 1067.9 208.672 1069.13 208.672 1070.56C208.672 1071.99 208.171 1073.23 207.168 1074.27C206.165 1075.3 204.74 1076.1 202.891 1076.66C201.042 1077.2 198.88 1077.48 196.406 1077.48C193.906 1077.48 191.732 1077.2 189.883 1076.66C188.034 1076.1 186.608 1075.3 185.605 1074.27C184.603 1073.23 184.102 1071.99 184.102 1070.56C184.102 1069.13 184.603 1067.9 185.605 1066.87C186.608 1065.83 188.034 1065.04 189.883 1064.49C191.732 1063.94 193.906 1063.67 196.406 1063.69ZM196.406 1066.15C194.557 1066.15 192.943 1066.33 191.562 1066.7C190.182 1067.05 189.115 1067.55 188.359 1068.22C187.617 1068.88 187.253 1069.66 187.266 1070.56C187.253 1071.46 187.617 1072.24 188.359 1072.91C189.115 1073.57 190.182 1074.08 191.562 1074.45C192.943 1074.8 194.557 1074.98 196.406 1074.98C198.242 1074.98 199.85 1074.8 201.23 1074.45C202.611 1074.08 203.672 1073.57 204.414 1072.91C205.169 1072.24 205.547 1071.46 205.547 1070.56C205.547 1069.66 205.169 1068.88 204.414 1068.22C203.672 1067.55 202.611 1067.05 201.23 1066.7C199.85 1066.33 198.242 1066.15 196.406 1066.15ZM237.422 1071.77C237.422 1073.83 237.826 1075.86 238.633 1077.87C239.44 1079.87 240.534 1081.66 241.914 1083.22C243.294 1084.77 244.818 1085.93 246.484 1086.7L244.648 1089.2C242.682 1088.18 240.924 1086.69 239.375 1084.72C237.826 1082.76 236.667 1080.54 235.898 1078.06C235.117 1080.68 233.952 1083.03 232.402 1085.11C230.866 1087.2 229.115 1088.77 227.148 1089.82L225.156 1087.36C226.836 1086.54 228.372 1085.31 229.766 1083.67C231.159 1082.01 232.259 1080.15 233.066 1078.06C233.887 1075.97 234.297 1073.87 234.297 1071.77V1065.45H237.422V1071.77ZM253.984 1097.24H250.938V1076.81H242.695V1074.31H250.938V1062.44H253.984V1097.24ZM288.398 1097.24H285.312V1062.44H288.398V1097.24ZM264.844 1074.59H275.195V1065.41H278.203V1088.84H261.797V1065.41H264.844V1074.59ZM275.195 1086.27V1077.05H264.844V1086.27H275.195ZM311.641 1067.55C311.641 1069.44 312.272 1071.27 313.535 1073.04C314.811 1074.8 316.445 1076.3 318.438 1077.54C320.43 1078.76 322.448 1079.56 324.492 1079.94L323.086 1082.52C321.315 1082.1 319.57 1081.42 317.852 1080.48C316.133 1079.55 314.59 1078.39 313.223 1077.01C311.855 1075.63 310.807 1074.11 310.078 1072.46C309.349 1074.1 308.301 1075.61 306.934 1076.99C305.566 1078.37 304.023 1079.53 302.305 1080.48C300.599 1081.42 298.854 1082.1 297.07 1082.52L295.664 1079.94C297.708 1079.53 299.72 1078.73 301.699 1077.52C303.678 1076.29 305.293 1074.8 306.543 1073.04C307.806 1071.29 308.438 1069.46 308.438 1067.55V1064.9H311.641V1067.55ZM326.133 1092.44H294.336V1089.9H326.133V1092.44ZM367.734 1083.34H364.648V1078.65H355.43V1076.11H364.648V1071.42H355.762C354.642 1074.18 352.793 1076.57 350.215 1078.57C347.637 1080.58 344.466 1082.14 340.703 1083.26L339.414 1080.84C342.214 1080 344.642 1078.94 346.699 1077.65C348.757 1076.35 350.378 1074.85 351.562 1073.16C352.747 1071.47 353.444 1069.62 353.652 1067.63H341.172V1065.05H356.992C356.992 1066.4 356.842 1067.7 356.543 1068.96H364.648V1062.48H367.734V1083.34ZM356.367 1083.69C358.698 1083.69 360.736 1083.95 362.48 1084.49C364.225 1085.02 365.566 1085.79 366.504 1086.79C367.454 1087.78 367.93 1088.96 367.93 1090.33C367.93 1091.71 367.454 1092.9 366.504 1093.9C365.566 1094.9 364.225 1095.67 362.48 1096.21C360.736 1096.74 358.698 1097.01 356.367 1097.01C354.01 1097.01 351.96 1096.74 350.215 1096.21C348.47 1095.67 347.122 1094.9 346.172 1093.9C345.234 1092.9 344.766 1091.71 344.766 1090.33C344.766 1088.96 345.234 1087.78 346.172 1086.79C347.122 1085.79 348.47 1085.02 350.215 1084.49C351.96 1083.95 354.01 1083.69 356.367 1083.69ZM356.367 1086.15C354.635 1086.14 353.118 1086.3 351.816 1086.64C350.527 1086.96 349.531 1087.44 348.828 1088.08C348.125 1088.72 347.773 1089.47 347.773 1090.33C347.773 1091.19 348.125 1091.94 348.828 1092.57C349.531 1093.2 350.527 1093.67 351.816 1094C353.105 1094.34 354.622 1094.51 356.367 1094.51C358.086 1094.51 359.583 1094.34 360.859 1094C362.135 1093.67 363.118 1093.2 363.809 1092.57C364.512 1091.94 364.87 1091.19 364.883 1090.33C364.87 1089.47 364.512 1088.72 363.809 1088.08C363.105 1087.44 362.116 1086.96 360.84 1086.64C359.564 1086.3 358.073 1086.14 356.367 1086.15ZM402.305 1083.49H399.219V1075.56H393.32V1073.02H399.219V1062.44H402.305V1083.49ZM402.305 1096.7H379.609V1085.37H402.305V1096.7ZM382.656 1094.2H399.297V1087.83H382.656V1094.2ZM393.828 1068.61H373.555V1066.11H382.188V1062.12H385.195V1066.11H393.828V1068.61ZM383.672 1070.41C385.234 1070.41 386.621 1070.67 387.832 1071.19C389.056 1071.71 390.013 1072.44 390.703 1073.38C391.393 1074.31 391.745 1075.38 391.758 1076.58C391.745 1077.82 391.393 1078.9 390.703 1079.84C390.026 1080.78 389.076 1081.51 387.852 1082.03C386.628 1082.54 385.234 1082.79 383.672 1082.79C382.109 1082.79 380.716 1082.54 379.492 1082.03C378.281 1081.51 377.331 1080.78 376.641 1079.84C375.964 1078.9 375.625 1077.82 375.625 1076.58C375.625 1075.38 375.964 1074.31 376.641 1073.38C377.331 1072.44 378.281 1071.71 379.492 1071.19C380.716 1070.67 382.109 1070.41 383.672 1070.41ZM383.672 1072.79C382.682 1072.79 381.797 1072.95 381.016 1073.28C380.247 1073.59 379.642 1074.04 379.199 1074.62C378.77 1075.2 378.555 1075.85 378.555 1076.58C378.555 1077.33 378.77 1078 379.199 1078.59C379.629 1079.16 380.228 1079.61 380.996 1079.94C381.777 1080.26 382.669 1080.43 383.672 1080.45C384.674 1080.43 385.56 1080.26 386.328 1079.94C387.109 1079.61 387.715 1079.16 388.145 1078.59C388.574 1078 388.789 1077.33 388.789 1076.58C388.789 1075.85 388.568 1075.2 388.125 1074.62C387.695 1074.04 387.09 1073.59 386.309 1073.28C385.54 1072.95 384.661 1072.79 383.672 1072.79ZM423.906 1063.06C426.484 1063.06 428.691 1063.3 430.527 1063.77C432.363 1064.22 433.763 1064.9 434.727 1065.8C435.69 1066.68 436.172 1067.76 436.172 1069.04C436.172 1070.99 435.104 1072.49 432.969 1073.53C430.833 1074.57 427.812 1075.11 423.906 1075.13C421.328 1075.12 419.115 1074.88 417.266 1074.41C415.43 1073.94 414.023 1073.26 413.047 1072.36C412.083 1071.45 411.602 1070.34 411.602 1069.04C411.602 1067.76 412.083 1066.68 413.047 1065.8C414.023 1064.9 415.43 1064.22 417.266 1063.77C419.115 1063.3 421.328 1063.06 423.906 1063.06ZM423.906 1065.37C421.992 1065.37 420.352 1065.52 418.984 1065.82C417.617 1066.1 416.576 1066.53 415.859 1067.09C415.143 1067.63 414.792 1068.28 414.805 1069.04C414.792 1070.24 415.579 1071.16 417.168 1071.81C418.757 1072.46 421.003 1072.79 423.906 1072.79C426.797 1072.79 429.043 1072.46 430.645 1071.81C432.246 1071.16 433.047 1070.24 433.047 1069.04C433.047 1068.28 432.682 1067.63 431.953 1067.09C431.224 1066.54 430.176 1066.12 428.809 1065.82C427.441 1065.52 425.807 1065.37 423.906 1065.37ZM439.727 1079.98H408.086V1077.48H439.727V1079.98ZM435.664 1090.76H415.039V1094.35H436.719V1096.77H411.992V1088.49H432.656V1085.33H411.914V1082.98H435.664V1090.76ZM464.141 1064.16C465.859 1064.14 467.389 1064.43 468.73 1065.02C470.085 1065.6 471.139 1066.43 471.895 1067.52C472.663 1068.6 473.047 1069.83 473.047 1071.23C473.047 1072.62 472.663 1073.86 471.895 1074.94C471.139 1076.02 470.085 1076.86 468.73 1077.46C467.389 1078.06 465.859 1078.35 464.141 1078.34C462.422 1078.35 460.885 1078.06 459.531 1077.46C458.19 1076.86 457.135 1076.02 456.367 1074.94C455.612 1073.86 455.234 1072.62 455.234 1071.23C455.234 1069.83 455.612 1068.6 456.367 1067.52C457.135 1066.43 458.19 1065.6 459.531 1065.02C460.885 1064.43 462.422 1064.14 464.141 1064.16ZM464.141 1066.66C462.995 1066.64 461.973 1066.83 461.074 1067.22C460.176 1067.6 459.473 1068.14 458.965 1068.84C458.47 1069.55 458.229 1070.34 458.242 1071.23C458.229 1072.12 458.47 1072.93 458.965 1073.63C459.473 1074.32 460.176 1074.86 461.074 1075.25C461.973 1075.63 462.995 1075.81 464.141 1075.8C465.299 1075.81 466.328 1075.63 467.227 1075.25C468.138 1074.86 468.848 1074.32 469.355 1073.63C469.863 1072.93 470.117 1072.12 470.117 1071.23C470.117 1070.34 469.863 1069.55 469.355 1068.84C468.848 1068.14 468.138 1067.6 467.227 1067.22C466.328 1066.83 465.299 1066.64 464.141 1066.66ZM481.328 1097.2H478.32V1062.48H481.328V1097.2ZM452.617 1081.3C456.901 1081.3 460.97 1081.23 464.824 1081.07C468.678 1080.9 472.331 1080.56 475.781 1080.05L475.977 1082.36C472.917 1082.92 469.544 1083.32 465.859 1083.55V1096.11H462.812V1083.73C460.508 1083.83 457.253 1083.9 453.047 1083.92L452.617 1081.3ZM504.609 1070.95H487.188V1068.45H494.414V1063.49H497.461V1068.45H504.609V1070.95ZM495.898 1073.3C497.344 1073.3 498.633 1073.64 499.766 1074.31C500.911 1074.98 501.803 1075.91 502.441 1077.11C503.092 1078.3 503.424 1079.66 503.438 1081.19C503.424 1082.72 503.092 1084.1 502.441 1085.31C501.803 1086.51 500.911 1087.45 499.766 1088.14C498.633 1088.82 497.344 1089.16 495.898 1089.16C494.466 1089.16 493.184 1088.82 492.051 1088.14C490.918 1087.45 490.033 1086.5 489.395 1085.29C488.757 1084.08 488.438 1082.71 488.438 1081.19C488.438 1079.68 488.757 1078.32 489.395 1077.12C490.033 1075.91 490.918 1074.98 492.051 1074.31C493.184 1073.64 494.466 1073.3 495.898 1073.3ZM495.898 1075.88C495 1075.89 494.186 1076.13 493.457 1076.6C492.741 1077.05 492.181 1077.68 491.777 1078.49C491.374 1079.29 491.172 1080.18 491.172 1081.19C491.172 1082.2 491.374 1083.11 491.777 1083.92C492.194 1084.73 492.76 1085.36 493.477 1085.82C494.193 1086.26 495 1086.47 495.898 1086.46C496.81 1086.47 497.63 1086.26 498.359 1085.82C499.089 1085.36 499.661 1084.73 500.078 1083.92C500.495 1083.11 500.703 1082.2 500.703 1081.19C500.703 1080.18 500.495 1079.29 500.078 1078.49C499.661 1077.68 499.089 1077.05 498.359 1076.6C497.63 1076.13 496.81 1075.89 495.898 1075.88ZM516.836 1097.16H513.906V1079.62H509.297V1095.45H506.406V1063.3H509.297V1077.09H513.906V1062.44H516.836V1097.16ZM542.266 1072.24C542.266 1074.16 542.559 1076.04 543.145 1077.91C543.743 1079.76 544.603 1081.42 545.723 1082.91C546.842 1084.39 548.151 1085.54 549.648 1086.34L547.812 1088.77C546.172 1087.82 544.753 1086.51 543.555 1084.84C542.357 1083.16 541.439 1081.25 540.801 1079.12C540.15 1081.43 539.193 1083.51 537.93 1085.35C536.667 1087.18 535.182 1088.61 533.477 1089.62L531.484 1087.36C533.06 1086.46 534.44 1085.22 535.625 1083.65C536.81 1082.06 537.715 1080.29 538.34 1078.34C538.978 1076.38 539.297 1074.42 539.297 1072.44V1065.72H542.266V1072.24ZM561.641 1097.16H558.672V1078.96H553.906V1095.41H550.938V1063.18H553.906V1076.42H558.672V1062.44H561.641V1097.16ZM598.242 1092.87H566.445V1090.29H580.742V1083.73H570.43V1073.02H591.211V1067.55H570.352V1065.02H594.219V1075.52H573.477V1081.19H595.039V1083.73H583.75V1090.29H598.242V1092.87ZM632.773 1082.63H618.672V1089.74H615.586V1082.63H600.977V1080.09H632.773V1082.63ZM629.219 1096.42H605.078V1086.27H608.164V1093.8H629.219V1096.42ZM616.836 1063.34C619.297 1063.35 621.445 1063.64 623.281 1064.21C625.13 1064.77 626.556 1065.58 627.559 1066.64C628.561 1067.68 629.062 1068.91 629.062 1070.33C629.062 1071.75 628.561 1072.98 627.559 1074.02C626.556 1075.06 625.13 1075.86 623.281 1076.42C621.445 1076.97 619.297 1077.24 616.836 1077.24C614.375 1077.24 612.22 1076.97 610.371 1076.42C608.522 1075.86 607.09 1075.06 606.074 1074.02C605.072 1072.98 604.57 1071.75 604.57 1070.33C604.57 1068.91 605.072 1067.68 606.074 1066.64C607.09 1065.58 608.522 1064.77 610.371 1064.21C612.22 1063.64 614.375 1063.35 616.836 1063.34ZM616.836 1065.84C615.052 1065.84 613.477 1066.02 612.109 1066.38C610.742 1066.75 609.688 1067.27 608.945 1067.95C608.203 1068.62 607.839 1069.42 607.852 1070.33C607.839 1071.21 608.203 1071.99 608.945 1072.65C609.701 1073.32 610.755 1073.83 612.109 1074.2C613.477 1074.56 615.052 1074.74 616.836 1074.74C618.62 1074.74 620.189 1074.57 621.543 1074.21C622.897 1073.85 623.945 1073.34 624.688 1072.67C625.443 1071.99 625.82 1071.21 625.82 1070.33C625.82 1069.42 625.449 1068.62 624.707 1067.95C623.965 1067.27 622.91 1066.75 621.543 1066.38C620.189 1066.02 618.62 1065.84 616.836 1065.84ZM677.422 1092.71H645.625V1090.13H659.922V1081.66H649.375V1065.37H673.477V1081.66H662.93V1090.13H677.422V1092.71ZM652.383 1079.2H670.508V1067.83H652.383V1079.2ZM687.266 1087.36H704.609V1083.3H707.695V1096.7H684.219V1083.3H687.266V1087.36ZM704.609 1094.23V1089.78H687.266V1094.23H704.609ZM711.836 1080.84H680.195V1078.3H711.836V1080.84ZM697.617 1064.47C697.617 1065.85 698.216 1067.18 699.414 1068.45C700.612 1069.72 702.168 1070.79 704.082 1071.68C706.009 1072.55 707.995 1073.11 710.039 1073.38L708.906 1075.84C707.096 1075.56 705.339 1075.09 703.633 1074.41C701.94 1073.72 700.43 1072.86 699.102 1071.83C697.773 1070.8 696.751 1069.66 696.035 1068.39C695.319 1069.66 694.29 1070.8 692.949 1071.83C691.621 1072.86 690.111 1073.72 688.418 1074.41C686.725 1075.09 684.974 1075.56 683.164 1075.84L681.992 1073.38C684.076 1073.1 686.074 1072.54 687.988 1071.68C689.915 1070.8 691.471 1069.74 692.656 1068.49C693.854 1067.23 694.453 1065.89 694.453 1064.47V1062.83H697.617V1064.47ZM730.586 1064.7C732.995 1064.7 735.163 1065.1 737.09 1065.89C739.017 1066.69 740.527 1067.81 741.621 1069.25C742.728 1070.7 743.281 1072.36 743.281 1074.23C743.281 1076.12 742.728 1077.8 741.621 1079.25C740.527 1080.7 739.017 1081.82 737.09 1082.61C735.163 1083.39 732.995 1083.78 730.586 1083.77C728.177 1083.78 726.009 1083.39 724.082 1082.61C722.155 1081.82 720.638 1080.7 719.531 1079.25C718.438 1077.8 717.891 1076.12 717.891 1074.23C717.891 1072.36 718.438 1070.7 719.531 1069.25C720.638 1067.81 722.155 1066.69 724.082 1065.89C726.009 1065.1 728.177 1064.7 730.586 1064.7ZM730.586 1067.2C728.737 1067.19 727.064 1067.48 725.566 1068.08C724.082 1068.68 722.917 1069.52 722.07 1070.6C721.224 1071.67 720.807 1072.88 720.82 1074.23C720.807 1075.61 721.224 1076.84 722.07 1077.91C722.917 1078.97 724.082 1079.8 725.566 1080.39C727.064 1080.97 728.737 1081.27 730.586 1081.27C732.422 1081.27 734.076 1080.97 735.547 1080.39C737.031 1079.8 738.197 1078.97 739.043 1077.91C739.889 1076.84 740.312 1075.61 740.312 1074.23C740.312 1072.88 739.889 1071.67 739.043 1070.6C738.197 1069.52 737.031 1068.68 735.547 1068.08C734.076 1067.48 732.422 1067.19 730.586 1067.2ZM746.562 1092.55H714.766V1089.98H746.562V1092.55ZM781.133 1092.87H749.336V1090.29H763.633V1083.73H753.32V1073.02H774.102V1067.55H753.242V1065.02H777.109V1075.52H756.367V1081.19H777.93V1083.73H766.641V1090.29H781.133V1092.87ZM805.781 1069.7C805.781 1071.07 806.139 1072.39 806.855 1073.65C807.585 1074.91 808.6 1076.02 809.902 1076.99C811.217 1077.95 812.721 1078.69 814.414 1079.2L812.969 1081.54C810.977 1080.94 809.225 1080.03 807.715 1078.8C806.217 1077.57 805.085 1076.12 804.316 1074.45C803.574 1076.27 802.428 1077.86 800.879 1079.21C799.342 1080.56 797.539 1081.57 795.469 1082.24L793.945 1079.82C795.664 1079.3 797.188 1078.54 798.516 1077.54C799.857 1076.52 800.898 1075.33 801.641 1073.98C802.396 1072.63 802.773 1071.2 802.773 1069.7V1069.04H794.922V1066.5H802.773V1062.28H805.859V1066.5H813.633V1069.04H805.781V1069.7ZM821.094 1071.03H826.328V1073.61H821.094V1082.63H818.047V1062.44H821.094V1071.03ZM821.719 1087.01H811.875C812.044 1088.18 812.656 1089.3 813.711 1090.37C814.779 1091.42 816.133 1092.33 817.773 1093.08C819.427 1093.84 821.185 1094.36 823.047 1094.66L821.914 1097.05C819.31 1096.62 816.953 1095.8 814.844 1094.59C812.734 1093.38 811.191 1091.92 810.215 1090.21C809.251 1091.9 807.728 1093.34 805.645 1094.53C803.561 1095.73 801.224 1096.55 798.633 1097.01L797.461 1094.66C799.336 1094.36 801.094 1093.84 802.734 1093.1C804.388 1092.35 805.742 1091.44 806.797 1090.39C807.852 1089.33 808.464 1088.21 808.633 1087.01H798.828V1084.51H821.719V1087.01ZM837.812 1065.13C839.518 1065.15 841.029 1065.65 842.344 1066.66C843.672 1067.65 844.707 1069.05 845.449 1070.88C846.204 1072.7 846.589 1074.82 846.602 1077.24C846.589 1079.66 846.204 1081.79 845.449 1083.61C844.707 1085.43 843.672 1086.84 842.344 1087.83C841.016 1088.82 839.505 1089.31 837.812 1089.31C836.107 1089.31 834.59 1088.82 833.262 1087.83C831.934 1086.84 830.898 1085.43 830.156 1083.61C829.427 1081.79 829.062 1079.66 829.062 1077.24C829.062 1074.82 829.427 1072.7 830.156 1070.88C830.898 1069.05 831.934 1067.65 833.262 1066.66C834.59 1065.65 836.107 1065.15 837.812 1065.13ZM837.812 1067.87C836.667 1067.88 835.651 1068.28 834.766 1069.06C833.88 1069.83 833.19 1070.92 832.695 1072.34C832.201 1073.75 831.953 1075.38 831.953 1077.24C831.953 1079.1 832.201 1080.74 832.695 1082.16C833.19 1083.57 833.88 1084.66 834.766 1085.43C835.664 1086.19 836.68 1086.58 837.812 1086.58C838.958 1086.58 839.967 1086.19 840.84 1085.43C841.725 1084.66 842.409 1083.57 842.891 1082.16C843.385 1080.74 843.633 1079.1 843.633 1077.24C843.633 1075.38 843.385 1073.75 842.891 1072.34C842.409 1070.92 841.725 1069.83 840.84 1069.06C839.967 1068.28 838.958 1067.88 837.812 1067.87ZM855.391 1076.3H861.211V1078.96H855.391V1097.16H852.344V1062.44H855.391V1076.3ZM878.906 1063.02C881.445 1063.02 883.633 1063.27 885.469 1063.77C887.305 1064.26 888.711 1064.98 889.688 1065.93C890.677 1066.87 891.172 1068.01 891.172 1069.35C891.172 1070.6 890.742 1071.68 889.883 1072.59C889.023 1073.51 887.78 1074.23 886.152 1074.76C884.538 1075.28 882.604 1075.58 880.352 1075.66V1078.88H894.727V1081.42H863.086V1078.88H877.383V1075.66C875.143 1075.57 873.216 1075.26 871.602 1074.74C869.987 1074.22 868.75 1073.51 867.891 1072.59C867.031 1071.67 866.602 1070.59 866.602 1069.35C866.602 1068.01 867.096 1066.87 868.086 1065.93C869.076 1064.98 870.488 1064.26 872.324 1063.77C874.173 1063.27 876.367 1063.02 878.906 1063.02ZM878.906 1065.37C877.031 1065.35 875.404 1065.51 874.023 1065.84C872.643 1066.15 871.582 1066.61 870.84 1067.22C870.111 1067.82 869.753 1068.53 869.766 1069.35C869.753 1070.16 870.111 1070.86 870.84 1071.46C871.582 1072.06 872.643 1072.52 874.023 1072.83C875.404 1073.14 877.031 1073.3 878.906 1073.3C880.768 1073.3 882.383 1073.14 883.75 1072.83C885.13 1072.52 886.191 1072.06 886.934 1071.46C887.676 1070.86 888.047 1070.16 888.047 1069.35C888.047 1068.53 887.676 1067.82 886.934 1067.22C886.191 1066.61 885.13 1066.15 883.75 1065.84C882.383 1065.51 880.768 1065.35 878.906 1065.37ZM870.156 1087.36H887.578V1083.49H890.703V1096.7H867.109V1083.49H870.156V1087.36ZM887.578 1094.2V1089.82H870.156V1094.2H887.578ZM926.289 1097.16H923.242V1062.44H926.289V1097.16ZM902.93 1085.56C908.802 1085.54 914.336 1084.98 919.531 1083.88L919.961 1086.5C917.005 1087.11 914.128 1087.55 911.328 1087.83C908.529 1088.09 905.664 1088.22 902.734 1088.22H899.922V1065.88H902.93V1085.56ZM959.102 1076.19H964.922V1078.77H959.102V1097.24H956.055V1062.44H959.102V1076.19ZM949.961 1068.38H936.797V1085.95C940.039 1085.95 942.871 1085.86 945.293 1085.68C947.715 1085.5 950.182 1085.17 952.695 1084.7L953.086 1087.36C950.521 1087.83 948.001 1088.14 945.527 1088.3C943.053 1088.45 940.039 1088.53 936.484 1088.53H933.75V1065.84H949.961V1068.38ZM970.469 1094.23C970.013 1094.23 969.59 1094.12 969.199 1093.9C968.822 1093.67 968.516 1093.36 968.281 1092.96C968.06 1092.57 967.956 1092.15 967.969 1091.7C967.956 1091.25 968.06 1090.84 968.281 1090.46C968.516 1090.07 968.822 1089.77 969.199 1089.55C969.59 1089.31 970.013 1089.2 970.469 1089.2C970.911 1089.2 971.322 1089.31 971.699 1089.55C972.09 1089.77 972.396 1090.07 972.617 1090.46C972.852 1090.84 972.969 1091.25 972.969 1091.7C972.969 1092.15 972.852 1092.57 972.617 1092.96C972.396 1093.36 972.09 1093.67 971.699 1093.9C971.322 1094.12 970.911 1094.23 970.469 1094.23Z" fill="white"/>
<rect x="716" y="1170" width="247" height="80" rx="8" fill="white"/>
<path d="M752.12 1190.2H760.04V1194.16H756.08V1198.12H752.12V1190.2Z" fill="#4F3B2E"/>
<path d="M752.12 1210H748.16V1198.12H752.12V1210Z" fill="#4F3B2E"/>
<path d="M756.08 1213.96H752.12V1210H756.08V1213.96Z" fill="#4F3B2E"/>
<path fill-rule="evenodd" clip-rule="evenodd" d="M760.04 1217.92V1213.96H756.08V1217.92H748.16V1213.96H744.2V1217.92H748.16V1221.88H756.08V1229.8H760.04V1221.88H764V1217.92H760.04ZM760.04 1217.92V1221.88H756.08V1217.92H760.04Z" fill="#4F3B2E"/>
<path d="M771.92 1194.16V1198.12H760.04V1194.16H771.92Z" fill="#4F3B2E"/>
<path d="M779.84 1198.12H775.88V1194.16H771.92V1190.2H779.84V1198.12Z" fill="#4F3B2E"/>
<path d="M779.84 1210V1198.12H783.8V1210H779.84Z" fill="#4F3B2E"/>
<path d="M775.88 1213.96V1210H779.84V1213.96H775.88Z" fill="#4F3B2E"/>
<path d="M771.92 1217.92V1213.96H775.88V1217.92H771.92Z" fill="#4F3B2E"/>
<path d="M771.92 1221.88H767.96V1217.92H771.92V1221.88Z" fill="#4F3B2E"/>
<path d="M771.92 1221.88H775.88V1229.8H771.92V1221.88Z" fill="#4F3B2E"/>
<path d="M829.32 1223.14H797.289V1219.98H811.352V1212.52H800.102V1209.59H805.336V1198.57H800.023V1195.56H826.391V1198.57H821.039V1209.59H826.273V1212.52H815.023V1219.98H829.32V1223.14ZM817.406 1209.59V1198.57H809.008V1209.59H817.406ZM863.773 1212.83H831.859V1209.86H845.922V1206.3H834.945V1203.34H839.906V1196.62H834.789V1193.57H860.766V1196.62H855.688V1203.34H860.609V1206.3H849.633V1209.86H863.773V1212.83ZM847.797 1215.21C850.323 1215.21 852.484 1215.45 854.281 1215.91C856.091 1216.38 857.478 1217.07 858.441 1217.96C859.405 1218.86 859.893 1219.95 859.906 1221.23C859.893 1222.52 859.405 1223.61 858.441 1224.51C857.478 1225.42 856.091 1226.1 854.281 1226.56C852.484 1227.03 850.323 1227.26 847.797 1227.24C845.258 1227.26 843.083 1227.03 841.273 1226.56C839.464 1226.1 838.077 1225.42 837.113 1224.51C836.163 1223.61 835.688 1222.52 835.688 1221.23C835.688 1219.95 836.163 1218.86 837.113 1217.96C838.077 1217.07 839.464 1216.38 841.273 1215.91C843.083 1215.45 845.258 1215.21 847.797 1215.21ZM847.797 1218.02C845.115 1218.02 843.044 1218.3 841.586 1218.86C840.128 1219.41 839.398 1220.2 839.398 1221.23C839.398 1222.28 840.128 1223.09 841.586 1223.65C843.044 1224.2 845.115 1224.46 847.797 1224.43C850.44 1224.46 852.484 1224.2 853.93 1223.65C855.388 1223.09 856.117 1222.28 856.117 1221.23C856.117 1220.2 855.388 1219.41 853.93 1218.86C852.484 1218.3 850.44 1218.02 847.797 1218.02ZM851.977 1203.34V1196.62H843.578V1203.34H851.977ZM898.461 1222.87H866.43V1219.82H880.453V1211.5H884.125V1219.82H898.461V1222.87ZM884.203 1197.2C884.203 1199 884.796 1200.74 885.98 1202.44C887.178 1204.12 888.76 1205.55 890.727 1206.73C892.706 1207.92 894.815 1208.7 897.055 1209.08L895.453 1212.12C893.552 1211.75 891.736 1211.12 890.004 1210.25C888.285 1209.36 886.749 1208.28 885.395 1206.99C884.053 1205.7 883.005 1204.27 882.25 1202.69C881.495 1204.27 880.447 1205.71 879.105 1207.01C877.777 1208.3 876.254 1209.38 874.535 1210.27C872.829 1211.14 871.039 1211.76 869.164 1212.12L867.523 1209.08C869.75 1208.7 871.84 1207.92 873.793 1206.73C875.759 1205.55 877.335 1204.12 878.52 1202.44C879.704 1200.74 880.297 1199 880.297 1197.2V1194.55H884.203V1197.2ZM913.734 1197.36C913.721 1198.97 914.06 1200.52 914.75 1201.99C915.453 1203.45 916.462 1204.74 917.777 1205.86C919.092 1206.98 920.635 1207.83 922.406 1208.41L920.531 1211.34C918.526 1210.64 916.775 1209.61 915.277 1208.24C913.793 1206.86 912.654 1205.25 911.859 1203.41C911.065 1205.41 909.913 1207.14 908.402 1208.63C906.905 1210.1 905.128 1211.2 903.07 1211.93L901.195 1209.04C902.979 1208.4 904.529 1207.48 905.844 1206.29C907.172 1205.09 908.188 1203.72 908.891 1202.18C909.594 1200.63 909.945 1199.03 909.945 1197.36V1194H913.734V1197.36ZM930.023 1227.32H926.312V1218.02H906.312V1215.02H930.023V1227.32ZM930.023 1213.34H926.312V1192.32H930.023V1213.34Z" fill="#4F3B2E"/>
</svg>
