<svg width="20" height="20" viewBox="0 0 20 20" fill="none" xmlns="http://www.w3.org/2000/svg">
<path d="M17.7246 13.0884H18.7518V15.1496H17.7246V13.0884Z" fill="#545454"/>
<path d="M16.6904 15.1494H17.7244V16.1766H16.6904V15.1494Z" fill="#545454"/>
<path d="M16.6904 12.061H17.7244V13.0883H16.6904V12.061Z" fill="#545454"/>
<path d="M14.6289 16.1768H16.6901V17.204H14.6289V16.1768Z" fill="#545454"/>
<path d="M15.6631 6.91162H16.6903V12.0613H15.6631V6.91162Z" fill="#545454"/>
<path d="M14.6289 14.1157H15.6629V15.1497H14.6289V14.1157Z" fill="#545454"/>
<path d="M14.6289 4.8501H15.6629V6.91132H14.6289V4.8501Z" fill="#545454"/>
<path d="M5.36426 14.1156H7.42548V15.1496H8.45272V16.1768H11.5412V15.1496H12.5752V14.1156H14.6296V13.0884H5.36426V14.1156Z" fill="#545454"/>
<path d="M13.6016 3.82275H14.6288V4.84999H13.6016V3.82275Z" fill="#545454"/>
<path d="M5.36426 17.2041H14.6296V18.2381H5.36426V17.2041Z" fill="#545454"/>
<path d="M11.541 2.78906H13.6022V3.82305H11.541V2.78906Z" fill="#545454"/>
<path d="M8.45215 1.76172H11.5406V2.78895H8.45215V1.76172Z" fill="#545454"/>
<path d="M6.39062 2.78906H8.45185V3.82305H6.39062V2.78906Z" fill="#545454"/>
<path d="M5.36426 3.82275H6.39149V4.84999H5.36426V3.82275Z" fill="#545454"/>
<path d="M3.30273 16.1768H5.36396V17.204H3.30273V16.1768Z" fill="#545454"/>
<path d="M4.33691 14.1157H5.36415V15.1497H4.33691V14.1157Z" fill="#545454"/>
<path d="M4.33691 4.8501H5.36415V6.91132H4.33691V4.8501Z" fill="#545454"/>
<path d="M3.30273 6.91162H4.33673V12.0613H3.30273V6.91162Z" fill="#545454"/>
<path d="M2.27539 15.1494H3.30262V16.1766H2.27539V15.1494Z" fill="#545454"/>
<path d="M2.27539 12.061H3.30262V13.0883H2.27539V12.061Z" fill="#545454"/>
<path d="M1.24805 13.0884H2.27528V15.1496H1.24805V13.0884Z" fill="#545454"/>
</svg>
