<svg width="36" height="36" viewBox="0 0 36 36" fill="none" xmlns="http://www.w3.org/2000/svg">
<path d="M0 8C0 3.58172 3.58172 0 8 0H28C32.4183 0 36 3.58172 36 8V28C36 32.4183 32.4183 36 28 36H8C3.58172 36 0 32.4183 0 28V8Z" fill="#A0C8F4"/>
<g clip-path="url(#clip0_4731_95112)">
<path d="M27.9492 11.1938H29.0011V14.3357H27.9492V11.1938Z" fill="#4F3B2E"/>
<path d="M26.9023 14.3359H27.9473V15.3809H26.9023V14.3359Z" fill="#4F3B2E"/>
<path d="M26.9023 10.1421H27.9473V11.194H26.9023V10.1421Z" fill="#4F3B2E"/>
<path d="M25.8594 15.3809H26.9044V16.4259H25.8594V15.3809Z" fill="#4F3B2E"/>
<path d="M25.8594 9.09668H26.9044V10.1417H25.8594V9.09668Z" fill="#4F3B2E"/>
<path d="M24.8047 16.4253H25.8566V17.4772H24.8047V16.4253Z" fill="#4F3B2E"/>
<path d="M24.8047 14.3359H25.8566V15.3809H24.8047V14.3359Z" fill="#4F3B2E"/>
<path d="M24.8047 8.04443H25.8566V9.09631H24.8047V8.04443Z" fill="#4F3B2E"/>
<path d="M23.7617 17.4771H24.8067V18.5221H23.7617V17.4771Z" fill="#4F3B2E"/>
<path d="M23.7617 13.2842H24.8067V14.3361H23.7617V13.2842Z" fill="#4F3B2E"/>
<path d="M22.7109 18.5229H23.7628V19.5748H22.7109V18.5229Z" fill="#4F3B2E"/>
<path d="M22.7109 14.3359H23.7628V15.3809H22.7109V14.3359Z" fill="#4F3B2E"/>
<path d="M22.7109 12.2388H23.7628V13.2838H22.7109V12.2388Z" fill="#4F3B2E"/>
<path d="M21.6641 7H24.8059V8.045H21.6641V7Z" fill="#4F3B2E"/>
<path d="M21.6641 19.5747H22.7091V20.6197H21.6641V19.5747Z" fill="#4F3B2E"/>
<path d="M21.6641 15.3809H22.7091V16.4259H21.6641V15.3809Z" fill="#4F3B2E"/>
<path d="M21.6641 11.1938H22.7091V12.2388H21.6641V11.1938Z" fill="#4F3B2E"/>
<path d="M20.6211 20.6191H21.6661V21.6641H20.6211V20.6191Z" fill="#4F3B2E"/>
<path d="M20.6211 16.4253H21.6661V17.4772H20.6211V16.4253Z" fill="#4F3B2E"/>
<path d="M20.6211 12.2388H21.6661V13.2838H20.6211V12.2388Z" fill="#4F3B2E"/>
<path d="M20.6211 10.1421H21.6661V11.194H20.6211V10.1421Z" fill="#4F3B2E"/>
<path d="M20.6211 8.04443H21.6661V9.09631H20.6211V8.04443Z" fill="#4F3B2E"/>
<path d="M19.5664 21.6641H20.6183V22.7159H19.5664V21.6641Z" fill="#4F3B2E"/>
<path d="M19.5664 17.4771H20.6183V18.5221H19.5664V17.4771Z" fill="#4F3B2E"/>
<path d="M19.5664 13.2842H20.6183V14.3361H19.5664V13.2842Z" fill="#4F3B2E"/>
<path d="M19.5664 9.09668H20.6183V10.1417H19.5664V9.09668Z" fill="#4F3B2E"/>
<path d="M18.5234 22.7158H19.5684V23.7608H18.5234V22.7158Z" fill="#4F3B2E"/>
<path d="M18.5234 18.5229H19.5684V19.5748H18.5234V18.5229Z" fill="#4F3B2E"/>
<path d="M18.5234 14.3359H19.5684V15.3809H18.5234V14.3359Z" fill="#4F3B2E"/>
<path d="M18.5234 10.1421H19.5684V11.194H18.5234V10.1421Z" fill="#4F3B2E"/>
<path d="M17.4766 23.7612H18.5216V24.8062H17.4766V23.7612Z" fill="#4F3B2E"/>
<path d="M17.4766 19.5747H18.5216V20.6197H17.4766V19.5747Z" fill="#4F3B2E"/>
<path d="M17.4766 15.3809H18.5216V16.4259H17.4766V15.3809Z" fill="#4F3B2E"/>
<path d="M17.4766 11.1938H18.5216V12.2388H17.4766V11.1938Z" fill="#4F3B2E"/>
<path d="M16.4258 24.8062H17.4777V25.858H16.4258V24.8062Z" fill="#4F3B2E"/>
<path d="M16.4258 20.6191H17.4777V21.6641H16.4258V20.6191Z" fill="#4F3B2E"/>
<path d="M16.4258 16.4253H17.4777V17.4772H16.4258V16.4253Z" fill="#4F3B2E"/>
<path d="M16.4258 12.2388H17.4777V13.2838H16.4258V12.2388Z" fill="#4F3B2E"/>
<path d="M15.3789 25.8579H16.4239V26.9029H15.3789V25.8579Z" fill="#4F3B2E"/>
<path d="M15.3789 21.6641H16.4239V22.7159H15.3789V21.6641Z" fill="#4F3B2E"/>
<path d="M15.3789 17.4771H16.4239V18.5221H15.3789V17.4771Z" fill="#4F3B2E"/>
<path d="M15.3789 13.2842H16.4239V14.3361H15.3789V13.2842Z" fill="#4F3B2E"/>
<path d="M14.3281 22.7158H15.38V23.7608H14.3281V22.7158Z" fill="#4F3B2E"/>
<path d="M14.3281 18.5229H15.38V19.5748H14.3281V18.5229Z" fill="#4F3B2E"/>
<path d="M14.3281 14.3359H15.38V15.3809H14.3281V14.3359Z" fill="#4F3B2E"/>
<path d="M14.3287 27.9548H15.3806V26.9029H14.3287V23.761H12.2387V21.6641H9.09687V20.6191H8.045V21.6641H7V28.9998H14.3287V27.9548ZM13.2837 27.9548H10.1419V26.9029H9.09687V25.8579H8.045V22.716H11.1869V24.806H13.2837V27.9548Z" fill="#4F3B2E"/>
<path d="M13.2852 19.5747H14.3302V20.6197H13.2852V19.5747Z" fill="#4F3B2E"/>
<path d="M13.2852 15.3809H14.3302V16.4259H13.2852V15.3809Z" fill="#4F3B2E"/>
<path d="M12.2383 20.6191H13.2833V21.6641H12.2383V20.6191Z" fill="#4F3B2E"/>
<path d="M12.2383 16.4253H13.2833V17.4772H12.2383V16.4253Z" fill="#4F3B2E"/>
<path d="M11.1875 17.4771H12.2394V18.5221H11.1875V17.4771Z" fill="#4F3B2E"/>
<path d="M10.1406 18.5229H11.1856V19.5748H10.1406V18.5229Z" fill="#4F3B2E"/>
<path d="M9.09766 19.5747H10.1427V20.6197H9.09766V19.5747Z" fill="#4F3B2E"/>
</g>
<defs>
<clipPath id="clip0_4731_95112">
<rect width="22" height="22" fill="white" transform="translate(7 7)"/>
</clipPath>
</defs>
</svg>
