<svg width="28" height="28" viewBox="0 0 28 28" fill="none" xmlns="http://www.w3.org/2000/svg">
<path d="M16.6094 12.0492V13.3498H17.91V18.5693H19.2106V13.3498H25.7308V21.1706H27.04V6.82959H25.7308V12.0492H16.6094Z" fill="#545454"/>
<path d="M24.4307 21.1704H25.7313V22.4796H24.4307V21.1704Z" fill="#545454"/>
<path d="M24.4307 5.52881H25.7313V6.82942H24.4307V5.52881Z" fill="#545454"/>
<path d="M23.1299 8.13867H24.4305V9.43929H23.1299V8.13867Z" fill="#545454"/>
<path d="M3.56934 22.4795H24.4305V23.7801H3.56934V22.4795Z" fill="#545454"/>
<path d="M19.2109 9.43945H23.1299V10.7401H19.2109V9.43945Z" fill="#545454"/>
<path d="M19.2109 6.82959H23.1299V8.13876H19.2109V6.82959Z" fill="#545454"/>
<path d="M17.9102 8.13867H19.2108V9.43929H17.9102V8.13867Z" fill="#545454"/>
<path d="M16.6094 18.5693H17.91V19.8699H16.6094V18.5693Z" fill="#545454"/>
<path d="M15.3008 4.21973H24.4307V5.5289H15.3008V4.21973Z" fill="#545454"/>
<path d="M12.6998 18.5692H15.301V17.26H16.6102V14.6502H15.301V15.9594H14.0004V14.6502H15.301V13.3496H12.6998V14.6502H11.3906V17.26H12.6998V18.5692Z" fill="#545454"/>
<path d="M11.3906 10.7397H16.6102V12.0489H11.3906V10.7397Z" fill="#545454"/>
<path d="M11.3906 19.8701H16.6102V21.1707H11.3906V19.8701Z" fill="#545454"/>
<path d="M14 5.52881H15.3006V6.82942H14V5.52881Z" fill="#545454"/>
<path d="M10.0898 18.5693H11.3905V19.8699H10.0898V18.5693Z" fill="#545454"/>
<path d="M7.47949 4.21973H11.3899V5.5289H7.47949V4.21973Z" fill="#545454"/>
<path d="M4.87012 9.43945H7.4799V10.7401H4.87012V9.43945Z" fill="#545454"/>
<path d="M13.9999 8.13859V6.82942H12.6993V5.52881H11.3901V6.82942H7.47973V5.52881H6.17912V6.82942H3.56934V8.13859H13.9999Z" fill="#545454"/>
<path d="M2.25977 21.1704H3.56894V22.4796H2.25977V21.1704Z" fill="#545454"/>
<path d="M2.25977 8.13867H3.56894V9.43929H2.25977V8.13867Z" fill="#545454"/>
<path d="M2.26057 13.3499H8.78076V18.5694H10.0899V13.3499H11.3905V12.0492H2.26057V9.43945H0.959961V21.1706H2.26057V13.3499Z" fill="#545454"/>
<rect x="1.98438" y="12.6108" width="7.45074" height="8.55976" fill="#545454"/>
<rect width="20.8612" height="1.53018" transform="matrix(1 0 0 -1 3.56934 22.7007)" fill="#545454"/>
<rect width="7.82073" height="1.53018" transform="matrix(1 0 0 -1 3.56934 21.1704)" fill="#545454"/>
<rect width="7.82073" height="1.53018" transform="matrix(1 0 0 -1 16.6094 21.1704)" fill="#545454"/>
<rect width="7.82073" height="1.53018" transform="matrix(1 0 0 -1 3.2002 20.0996)" fill="#545454"/>
<rect width="7.82073" height="1.53018" transform="matrix(1 0 0 -1 17.9111 20.0996)" fill="#545454"/>
<rect x="18.2803" y="12.6108" width="7.45074" height="8.55976" fill="#545454"/>
</svg>
