<svg width="12" height="12" viewBox="0 0 12 12" fill="none" xmlns="http://www.w3.org/2000/svg">
<path d="M6 0.75C8.89949 0.75 11.25 3.10051 11.25 6C11.25 8.89949 8.89949 11.25 6 11.25C3.10051 11.25 0.750009 8.89949 0.75 6C0.75 3.10051 3.10051 0.75 6 0.75ZM8.58301 4.25C8.40336 4.06353 8.11223 4.06348 7.93262 4.25L5.19141 7.09668L3.9834 5.8418L3.93164 5.7959C3.75168 5.65727 3.49632 5.67255 3.33301 5.8418C3.15337 6.02835 3.15337 6.33103 3.33301 6.51758L4.09961 7.31348L4.86621 8.11035L4.91797 8.15625C5.09799 8.29484 5.35333 8.27976 5.5166 8.11035L8.58301 4.92578L8.62793 4.87207C8.76155 4.68506 8.74632 4.41959 8.58301 4.25Z" fill="#005DF9"/>
</svg>
