<svg width="20" height="20" viewBox="0 0 20 20" fill="none" xmlns="http://www.w3.org/2000/svg">
<path d="M8.88 11.44L7.14 9.7C6.99333 9.55333 6.81333 9.48 6.6 9.48C6.38667 9.48 6.2 9.56 6.04 9.72C5.89333 9.86667 5.82 10.0533 5.82 10.28C5.82 10.5067 5.89333 10.6933 6.04 10.84L8.32 13.12C8.46667 13.2667 8.65333 13.34 8.88 13.34C9.10667 13.34 9.29333 13.2667 9.44 13.12L13.98 8.58C14.1267 8.43333 14.2 8.25333 14.2 8.04C14.2 7.82667 14.12 7.64 13.96 7.48C13.8133 7.33333 13.6267 7.26 13.4 7.26C13.1733 7.26 12.9867 7.33333 12.84 7.48L8.88 11.44ZM10 18C8.89333 18 7.85333 17.7899 6.88 17.3696C5.90667 16.9499 5.06 16.38 4.34 15.66C3.62 14.94 3.05013 14.0933 2.6304 13.12C2.21013 12.1467 2 11.1067 2 10C2 8.89333 2.21013 7.85333 2.6304 6.88C3.05013 5.90667 3.62 5.06 4.34 4.34C5.06 3.62 5.90667 3.04987 6.88 2.6296C7.85333 2.20987 8.89333 2 10 2C11.1067 2 12.1467 2.20987 13.12 2.6296C14.0933 3.04987 14.94 3.62 15.66 4.34C16.38 5.06 16.9499 5.90667 17.3696 6.88C17.7899 7.85333 18 8.89333 18 10C18 11.1067 17.7899 12.1467 17.3696 13.12C16.9499 14.0933 16.38 14.94 15.66 15.66C14.94 16.38 14.0933 16.9499 13.12 17.3696C12.1467 17.7899 11.1067 18 10 18Z" fill="#F6F6EA"/>
</svg>
