<svg width="20" height="20" viewBox="0 0 20 20" fill="none" xmlns="http://www.w3.org/2000/svg">
<path d="M16.1729 16.1785H16.9999V17.0001H16.1729V16.1785Z" fill="#A0C8F4"/>
<path d="M16.1729 3H16.9999V3.82163H16.1729V3Z" fill="#A0C8F4"/>
<path d="M15.3516 15.3513H16.1732V16.1784H15.3516V15.3513Z" fill="#A0C8F4"/>
<path d="M15.3516 3.82153H16.1732V4.64316H15.3516V3.82153Z" fill="#A0C8F4"/>
<path d="M14.5303 14.5298H15.3519V15.3514H14.5303V14.5298Z" fill="#A0C8F4"/>
<path d="M14.5303 4.64331H15.3519V5.47034H14.5303V4.64331Z" fill="#A0C8F4"/>
<path d="M13.7041 13.7083H14.5311V14.5299H13.7041V13.7083Z" fill="#A0C8F4"/>
<path d="M13.7041 5.47021H14.5311V6.29184H13.7041V5.47021Z" fill="#A0C8F4"/>
<path d="M12.8828 12.8811H13.7044V13.7081H12.8828V12.8811Z" fill="#A0C8F4"/>
<path d="M12.8828 6.29199H13.7044V7.11902H12.8828V6.29199Z" fill="#A0C8F4"/>
<path d="M12.0557 12.0596H12.8827V12.8812H12.0557V12.0596Z" fill="#A0C8F4"/>
<path d="M12.0557 7.1189H12.8827V7.94052H12.0557V7.1189Z" fill="#A0C8F4"/>
<path d="M11.2344 11.2378H12.056V12.0594H11.2344V11.2378Z" fill="#A0C8F4"/>
<path d="M11.2344 7.94067H12.056V8.7623H11.2344V7.94067Z" fill="#A0C8F4"/>
<path d="M10.4131 10.4109H11.2347V11.2379H10.4131V10.4109Z" fill="#A0C8F4"/>
<path d="M10.4131 8.76221H11.2347V9.58924H10.4131V8.76221Z" fill="#A0C8F4"/>
<path d="M9.58691 9.58936H10.4139V10.411H9.58691V9.58936Z" fill="#A0C8F4"/>
<path d="M8.76562 10.4109H9.58723V11.2379H8.76562V10.4109Z" fill="#A0C8F4"/>
<path d="M8.76562 8.76221H9.58723V9.58924H8.76562V8.76221Z" fill="#A0C8F4"/>
<path d="M7.94434 11.2378H8.76594V12.0594H7.94434V11.2378Z" fill="#A0C8F4"/>
<path d="M7.94434 7.94067H8.76594V8.7623H7.94434V7.94067Z" fill="#A0C8F4"/>
<path d="M7.11719 12.0596H7.9442V12.8812H7.11719V12.0596Z" fill="#A0C8F4"/>
<path d="M7.11719 7.1189H7.9442V7.94052H7.11719V7.1189Z" fill="#A0C8F4"/>
<path d="M6.2959 12.8811H7.11751V13.7081H6.2959V12.8811Z" fill="#A0C8F4"/>
<path d="M6.2959 6.29199H7.11751V7.11902H6.2959V6.29199Z" fill="#A0C8F4"/>
<path d="M5.46875 13.7083H6.29576V14.5299H5.46875V13.7083Z" fill="#A0C8F4"/>
<path d="M5.46875 5.47021H6.29576V6.29184H5.46875V5.47021Z" fill="#A0C8F4"/>
<path d="M4.64844 14.5298H5.47005V15.3514H4.64844V14.5298Z" fill="#A0C8F4"/>
<path d="M4.64844 4.64331H5.47005V5.47034H4.64844V4.64331Z" fill="#A0C8F4"/>
<path d="M3.82715 15.3513H4.64876V16.1784H3.82715V15.3513Z" fill="#A0C8F4"/>
<path d="M3.82715 3.82153H4.64876V4.64316H3.82715V3.82153Z" fill="#A0C8F4"/>
<path d="M3 16.1785H3.82701V17.0001H3V16.1785Z" fill="#A0C8F4"/>
<path d="M3 3H3.82701V3.82163H3V3Z" fill="#A0C8F4"/>
</svg>
