<svg width="20" height="20" viewBox="0 0 20 20" fill="none" xmlns="http://www.w3.org/2000/svg">
<path d="M16.1729 16.1785H16.9999V17.0001H16.1729V16.1785Z" fill="#4F3B2E"/>
<path d="M16.1729 3H16.9999V3.82163H16.1729V3Z" fill="#4F3B2E"/>
<path d="M15.3516 15.3514H16.1732V16.1785H15.3516V15.3514Z" fill="#4F3B2E"/>
<path d="M15.3516 3.82166H16.1732V4.64328H15.3516V3.82166Z" fill="#4F3B2E"/>
<path d="M14.5303 14.5298H15.3519V15.3514H14.5303V14.5298Z" fill="#4F3B2E"/>
<path d="M14.5303 4.64331H15.3519V5.47034H14.5303V4.64331Z" fill="#4F3B2E"/>
<path d="M13.7041 13.7081H14.5311V14.5298H13.7041V13.7081Z" fill="#4F3B2E"/>
<path d="M13.7041 5.47034H14.5311V6.29196H13.7041V5.47034Z" fill="#4F3B2E"/>
<path d="M12.8828 12.8811H13.7044V13.7081H12.8828V12.8811Z" fill="#4F3B2E"/>
<path d="M12.8828 6.29187H13.7044V7.1189H12.8828V6.29187Z" fill="#4F3B2E"/>
<path d="M12.0557 12.0596H12.8827V12.8812H12.0557V12.0596Z" fill="#4F3B2E"/>
<path d="M12.0557 7.1189H12.8827V7.94052H12.0557V7.1189Z" fill="#4F3B2E"/>
<path d="M11.2344 11.2379H12.056V12.0595H11.2344V11.2379Z" fill="#4F3B2E"/>
<path d="M11.2344 7.94055H12.056V8.76218H11.2344V7.94055Z" fill="#4F3B2E"/>
<path d="M10.4131 10.4109H11.2347V11.2379H10.4131V10.4109Z" fill="#4F3B2E"/>
<path d="M10.4131 8.76221H11.2347V9.58924H10.4131V8.76221Z" fill="#4F3B2E"/>
<path d="M9.58691 9.58923H10.4139V10.4109H9.58691V9.58923Z" fill="#4F3B2E"/>
<path d="M8.76562 10.4109H9.58723V11.2379H8.76562V10.4109Z" fill="#4F3B2E"/>
<path d="M8.76562 8.76221H9.58723V9.58924H8.76562V8.76221Z" fill="#4F3B2E"/>
<path d="M7.94434 11.2379H8.76594V12.0595H7.94434V11.2379Z" fill="#4F3B2E"/>
<path d="M7.94434 7.94055H8.76594V8.76218H7.94434V7.94055Z" fill="#4F3B2E"/>
<path d="M7.11719 12.0596H7.9442V12.8812H7.11719V12.0596Z" fill="#4F3B2E"/>
<path d="M7.11719 7.1189H7.9442V7.94052H7.11719V7.1189Z" fill="#4F3B2E"/>
<path d="M6.2959 12.8811H7.11751V13.7081H6.2959V12.8811Z" fill="#4F3B2E"/>
<path d="M6.2959 6.29187H7.11751V7.1189H6.2959V6.29187Z" fill="#4F3B2E"/>
<path d="M5.46875 13.7081H6.29576V14.5298H5.46875V13.7081Z" fill="#4F3B2E"/>
<path d="M5.46875 5.47034H6.29576V6.29196H5.46875V5.47034Z" fill="#4F3B2E"/>
<path d="M4.64844 14.5298H5.47005V15.3514H4.64844V14.5298Z" fill="#4F3B2E"/>
<path d="M4.64844 4.64331H5.47005V5.47034H4.64844V4.64331Z" fill="#4F3B2E"/>
<path d="M3.82715 15.3514H4.64876V16.1785H3.82715V15.3514Z" fill="#4F3B2E"/>
<path d="M3.82715 3.82166H4.64876V4.64328H3.82715V3.82166Z" fill="#4F3B2E"/>
<path d="M3 16.1785H3.82701V17.0001H3V16.1785Z" fill="#4F3B2E"/>
<path d="M3 3H3.82701V3.82163H3V3Z" fill="#4F3B2E"/>
</svg>
