<svg width="29" height="28" viewBox="0 0 29 28" fill="none" xmlns="http://www.w3.org/2000/svg">
<path d="M21.4961 20.6196H22.3822V21.4999H21.4961V20.6196Z" fill="#343434"/>
<path d="M21.4961 6.5H22.3822V7.38031H21.4961V6.5Z" fill="#343434"/>
<path d="M20.6172 19.7334H21.4975V20.6195H20.6172V19.7334Z" fill="#343434"/>
<path d="M20.6172 7.38037H21.4975V8.26068H20.6172V7.38037Z" fill="#343434"/>
<path d="M19.7363 18.8535H20.6166V19.7338H19.7363V18.8535Z" fill="#343434"/>
<path d="M19.7363 8.26074H20.6166V9.14684H19.7363V8.26074Z" fill="#343434"/>
<path d="M18.8516 17.9731H19.7376V18.8535H18.8516V17.9731Z" fill="#343434"/>
<path d="M18.8516 9.14648H19.7376V10.0268H18.8516V9.14648Z" fill="#343434"/>
<path d="M17.9707 17.0869H18.851V17.973H17.9707V17.0869Z" fill="#343434"/>
<path d="M17.9707 10.0269H18.851V10.913H17.9707V10.0269Z" fill="#343434"/>
<path d="M17.0859 16.2065H17.972V17.0869H17.0859V16.2065Z" fill="#343434"/>
<path d="M17.0859 10.9131H17.972V11.7934H17.0859V10.9131Z" fill="#343434"/>
<path d="M16.2051 15.3262H17.0854V16.2065H16.2051V15.3262Z" fill="#343434"/>
<path d="M16.2051 11.7935H17.0854V12.6738H16.2051V11.7935Z" fill="#343434"/>
<path d="M15.3262 14.4399H16.2065V15.326H15.3262V14.4399Z" fill="#343434"/>
<path d="M15.3262 12.6738H16.2065V13.5599H15.3262V12.6738Z" fill="#343434"/>
<path d="M14.4395 13.5601H15.3255V14.4404H14.4395V13.5601Z" fill="#343434"/>
<path d="M13.5605 14.4399H14.4408V15.326H13.5605V14.4399Z" fill="#343434"/>
<path d="M13.5605 12.6738H14.4408V13.5599H13.5605V12.6738Z" fill="#343434"/>
<path d="M12.6797 15.3262H13.56V16.2065H12.6797V15.3262Z" fill="#343434"/>
<path d="M12.6797 11.7935H13.56V12.6738H12.6797V11.7935Z" fill="#343434"/>
<path d="M11.7949 16.2065H12.681V17.0869H11.7949V16.2065Z" fill="#343434"/>
<path d="M11.7949 10.9131H12.681V11.7934H11.7949V10.9131Z" fill="#343434"/>
<path d="M10.9141 17.0869H11.7944V17.973H10.9141V17.0869Z" fill="#343434"/>
<path d="M10.9141 10.0269H11.7944V10.913H10.9141V10.0269Z" fill="#343434"/>
<path d="M10.0273 17.9731H10.9134V18.8535H10.0273V17.9731Z" fill="#343434"/>
<path d="M10.0273 9.14648H10.9134V10.0268H10.0273V9.14648Z" fill="#343434"/>
<path d="M9.14844 18.8535H10.0287V19.7338H9.14844V18.8535Z" fill="#343434"/>
<path d="M9.14844 8.26074H10.0287V9.14684H9.14844V8.26074Z" fill="#343434"/>
<path d="M8.26953 19.7334H9.14982V20.6195H8.26953V19.7334Z" fill="#343434"/>
<path d="M8.26953 7.38037H9.14982V8.26068H8.26953V7.38037Z" fill="#343434"/>
<path d="M7.38281 20.6196H8.26889V21.4999H7.38281V20.6196Z" fill="#343434"/>
<path d="M7.38281 6.5H8.26889V7.38031H7.38281V6.5Z" fill="#343434"/>
</svg>
