<svg width="320" height="141" viewBox="0 0 320 141" fill="none" xmlns="http://www.w3.org/2000/svg">
<rect width="22.2222" height="32" transform="matrix(-1 0 0 1 128 33.4442)" fill="#E1E1E1"/>
<rect x="56" y="40.5553" width="54.2222" height="85.3333" fill="white"/>
<rect width="17.7778" height="17.7778" transform="matrix(-1 0 0 1 128 65.4442)" fill="white"/>
<rect width="21.3333" height="35.5556" transform="matrix(-1 0 0 1 134.223 19.222)" fill="#E1E1E1"/>
<rect x="56" y="12.1108" width="7.11111" height="7.11111" fill="#A0A0A0"/>
<rect x="63.1113" y="12.1108" width="7.11111" height="7.11111" fill="#A0A0A0"/>
<rect x="70.2227" y="19.222" width="7.11111" height="7.11111" fill="#A0A0A0"/>
<rect x="112.889" y="19.222" width="7.11111" height="7.11111" fill="#A0A0A0"/>
<rect x="120" y="12.1108" width="7.11111" height="7.11111" fill="#A0A0A0"/>
<rect x="127.111" y="12.1108" width="7.11111" height="7.11111" fill="#A0A0A0"/>
<rect x="120.889" y="61.8887" width="7.11111" height="7.11111" fill="#E1E1E1"/>
<rect x="134.223" y="19.222" width="7.11111" height="7.11111" fill="#A0A0A0"/>
<rect x="134.223" y="26.3331" width="7.11111" height="7.11111" fill="#A0A0A0"/>
<rect x="134.223" y="33.4442" width="7.11111" height="7.11111" fill="#A0A0A0"/>
<rect x="134.223" y="40.5553" width="7.11111" height="7.11111" fill="#A0A0A0"/>
<rect x="128" y="47.6664" width="7.11111" height="7.11111" fill="#A0A0A0"/>
<rect x="128" y="61.8887" width="7.11111" height="7.11111" fill="#A0A0A0"/>
<rect x="128" y="68.9998" width="7.11111" height="7.11111" fill="#A0A0A0"/>
<rect x="120.889" y="76.1108" width="7.11111" height="7.11111" fill="#A0A0A0"/>
<rect x="113.777" y="83.222" width="7.11111" height="7.11111" fill="#A0A0A0"/>
<rect x="106.667" y="83.222" width="7.11111" height="7.11111" fill="#A0A0A0"/>
<rect x="106.667" y="90.3331" width="7.11111" height="7.11111" fill="#A0A0A0"/>
<rect x="106.667" y="97.4442" width="7.11111" height="7.11111" fill="#A0A0A0"/>
<rect x="106.667" y="104.555" width="7.11111" height="7.11111" fill="#A0A0A0"/>
<rect x="106.667" y="111.666" width="7.11111" height="7.11111" fill="#A0A0A0"/>
<rect x="106.667" y="118.778" width="7.11111" height="7.11111" fill="#A0A0A0"/>
<rect x="113.777" y="125.889" width="7.11111" height="7.11111" fill="#A0A0A0"/>
<rect x="113.777" y="133" width="7.11111" height="7.11111" fill="#A0A0A0"/>
<rect x="106.667" y="133" width="7.11111" height="7.11111" fill="#A0A0A0"/>
<rect x="99.5557" y="133" width="7.11111" height="7.11111" fill="#A0A0A0"/>
<rect x="92.4443" y="133" width="7.11111" height="7.11111" fill="#A0A0A0"/>
<rect x="92.4443" y="125.889" width="7.11111" height="7.11111" fill="#A0A0A0"/>
<rect x="85.333" y="133" width="7.11111" height="7.11111" fill="#A0A0A0"/>
<rect x="78.2227" y="133" width="7.11111" height="7.11111" fill="#A0A0A0"/>
<rect x="71.1113" y="133" width="7.11111" height="7.11111" fill="#A0A0A0"/>
<rect x="71.1113" y="125.889" width="7.11111" height="7.11111" fill="#A0A0A0"/>
<rect x="64" y="125.889" width="7.11111" height="7.11111" fill="#A0A0A0"/>
<rect x="56.8887" y="125.889" width="7.11111" height="7.11111" fill="#A0A0A0"/>
<rect x="56.8887" y="133" width="7.11111" height="7.11111" fill="#A0A0A0"/>
<rect x="49.7773" y="133" width="7.11111" height="7.11111" fill="#A0A0A0"/>
<rect x="42.667" y="133" width="7.11111" height="7.11111" fill="#A0A0A0"/>
<rect x="35.5557" y="133" width="7.11111" height="7.11111" fill="#A0A0A0"/>
<rect x="28.4443" y="133" width="7.11111" height="7.11111" fill="#A0A0A0"/>
<rect x="56" y="19.222" width="21.3333" height="53.3333" fill="#E1E1E1"/>
<rect x="21.333" y="133" width="7.11111" height="7.11111" fill="#A0A0A0"/>
<rect x="14.2227" y="125.889" width="7.11111" height="7.11111" fill="#A0A0A0"/>
<rect x="14.2227" y="118.778" width="7.11111" height="7.11111" fill="#A0A0A0"/>
<rect x="14.2227" y="111.666" width="7.11111" height="7.11111" fill="#A0A0A0"/>
<rect x="14.2227" y="104.555" width="7.11111" height="7.11111" fill="#A0A0A0"/>
<rect x="14.2227" y="97.4442" width="7.11111" height="7.11111" fill="#A0A0A0"/>
<rect x="7.11133" y="97.4442" width="7.11111" height="7.11111" fill="#A0A0A0"/>
<rect x="35.5557" y="85.8887" width="42.6667" height="30.2222" fill="#E1E1E1"/>
<rect x="21.333" y="90.3331" width="64" height="30.2222" fill="#E1E1E1"/>
<rect width="71.1111" height="7.11111" transform="matrix(1 0 0 -1 21.333 125.889)" fill="#E1E1E1"/>
<rect x="99.5557" y="90.3331" width="7.11111" height="35.5556" fill="#E1E1E1"/>
<rect x="7.11133" y="90.3331" width="49.7778" height="10.6667" fill="#E1E1E1"/>
<rect y="90.3331" width="7.11111" height="7.11111" fill="#A0A0A0"/>
<rect y="83.222" width="7.11111" height="7.11111" fill="#A0A0A0"/>
<rect x="7.11133" y="76.1108" width="7.11111" height="7.11111" fill="#A0A0A0"/>
<rect x="14.2227" y="76.1108" width="7.11111" height="7.11111" fill="#A0A0A0"/>
<rect x="21.333" y="76.1108" width="7.11111" height="7.11111" fill="#A0A0A0"/>
<rect x="21.333" y="83.222" width="7.11111" height="7.11111" fill="#A0A0A0"/>
<rect x="28.4443" y="90.3331" width="7.11111" height="7.11111" fill="#A0A0A0"/>
<rect x="35.5557" y="83.222" width="7.11111" height="7.11111" fill="#A0A0A0"/>
<rect x="42.667" y="83.222" width="7.11111" height="7.11111" fill="#A0A0A0"/>
<rect x="49.7773" y="83.222" width="7.11111" height="7.11111" fill="#A0A0A0"/>
<rect x="56.8887" y="83.222" width="7.11111" height="7.11111" fill="#A0A0A0"/>
<rect x="64" y="83.222" width="7.11111" height="7.11111" fill="#A0A0A0"/>
<rect x="56" y="76.1108" width="7.11111" height="7.11111" fill="#A0A0A0"/>
<rect x="48.8887" y="68.9998" width="7.11111" height="7.11111" fill="#A0A0A0"/>
<rect x="61.333" y="35.222" width="32" height="30.2222" fill="#E1E1E1"/>
<rect x="48.8887" y="61.8887" width="7.11111" height="7.11111" fill="#A0A0A0"/>
<rect x="48.8887" y="19.222" width="7.11111" height="7.11111" fill="#A0A0A0"/>
<rect x="48.8887" y="26.3331" width="7.11111" height="7.11111" fill="#A0A0A0"/>
<rect x="48.8887" y="33.4442" width="7.11111" height="7.11111" fill="#A0A0A0"/>
<rect x="48.8887" y="40.5553" width="7.11111" height="7.11111" fill="#A0A0A0"/>
<rect x="48.8887" y="47.6664" width="7.11111" height="7.11111" fill="#A0A0A0"/>
<rect x="56" y="54.7775" width="7.11111" height="7.11111" fill="#A0A0A0"/>
<rect x="63.1113" y="25.4442" width="7.11111" height="7.11111" fill="white"/>
<rect x="7.11133" y="83.222" width="7.11111" height="7.11111" fill="white"/>
<rect x="14.2227" y="83.222" width="7.11111" height="7.11111" fill="white"/>
<rect x="21.333" y="125.889" width="7.11111" height="7.11111" fill="white"/>
<rect x="28.4443" y="125.889" width="7.11111" height="7.11111" fill="white"/>
<rect x="42.667" y="125.889" width="7.11111" height="7.11111" fill="white"/>
<rect x="49.7773" y="125.889" width="7.11111" height="7.11111" fill="white"/>
<rect x="78.2227" y="125.889" width="7.11111" height="7.11111" fill="white"/>
<rect x="99.5557" y="125.889" width="7.11111" height="7.11111" fill="white"/>
<rect x="85.333" y="125.889" width="7.11111" height="7.11111" fill="white"/>
<rect x="106.667" y="125.889" width="7.11111" height="7.11111" fill="white"/>
<rect x="123.556" y="25.4442" width="7.11111" height="7.11111" fill="white"/>
<rect x="63.1113" y="32.5553" width="7.11111" height="7.11111" fill="white"/>
<rect x="123.556" y="32.5553" width="7.11111" height="7.11111" fill="white"/>
<rect x="63.1113" y="39.6664" width="7.11111" height="7.11111" fill="white"/>
<rect x="116.444" y="32.5553" width="7.11111" height="7.11111" fill="white"/>
<rect x="116.444" y="39.6664" width="7.11111" height="7.11111" fill="white"/>
<rect x="103.111" y="58.3331" width="7.11111" height="7.11111" fill="#A0A0A0"/>
<rect x="77.333" y="58.3331" width="7.11111" height="7.11111" fill="#A0A0A0"/>
<rect x="96" y="65.4442" width="7.11111" height="7.11111" fill="#A0A0A0"/>
<rect x="88.8887" y="65.4442" width="7.11111" height="7.11111" fill="#A0A0A0"/>
<rect x="88.8887" y="79.6664" width="7.11111" height="7.11111" fill="#A0A0A0"/>
<rect x="35.5557" y="125.889" width="7.11111" height="7.11111" fill="#A0A0A0"/>
<rect x="105.777" y="26.3331" width="7.11111" height="7.11111" fill="#A0A0A0"/>
<rect x="98.667" y="33.4442" width="7.11111" height="7.11111" fill="#A0A0A0"/>
<rect x="91.5557" y="33.4442" width="7.11111" height="7.11111" fill="#A0A0A0"/>
<rect x="84.4443" y="33.4442" width="7.11111" height="7.11111" fill="#A0A0A0"/>
<rect x="77.333" y="26.3331" width="7.11111" height="14.2222" fill="#A0A0A0"/>
<rect x="120.889" y="54.7775" width="7.11111" height="7.11111" fill="#A0A0A0"/>
<rect x="192" y="76.2224" width="113.778" height="35.5556" fill="white"/>
<rect x="192" y="5.11133" width="7.11111" height="7.11111" fill="#A0A0A0"/>
<rect x="192" y="12.2224" width="7.11111" height="7.11111" fill="#E1E1E1"/>
<rect x="227.556" y="12.2224" width="7.11111" height="7.11111" fill="white"/>
<rect x="234.667" y="12.2224" width="7.11111" height="7.11111" fill="#E1E1E1"/>
<rect x="220.445" y="19.3336" width="7.11111" height="7.11111" fill="#E1E1E1"/>
<rect x="213.334" y="26.4446" width="35.5556" height="7.11111" fill="#E1E1E1"/>
<rect x="213.334" y="33.5558" width="35.5556" height="7.11111" fill="#E1E1E1"/>
<rect x="213.334" y="40.6669" width="35.5556" height="7.11111" fill="#E1E1E1"/>
<rect x="227.556" y="47.778" width="7.11111" height="7.11111" fill="#E1E1E1"/>
<rect x="199.111" y="97.5558" width="7.11111" height="7.11111" fill="#E1E1E1"/>
<rect x="199.111" y="104.667" width="7.11111" height="7.11111" fill="#E1E1E1"/>
<rect x="206.223" y="104.667" width="7.11111" height="7.11111" fill="#E1E1E1"/>
<rect x="234.667" y="47.778" width="7.11111" height="7.11111" fill="#E1E1E1"/>
<rect x="241.778" y="47.778" width="7.11111" height="7.11111" fill="#E1E1E1"/>
<rect x="241.778" y="41.5558" width="7.11111" height="7.11111" fill="#E1E1E1"/>
<rect x="241.778" y="40.6669" width="7.11111" height="7.11111" fill="white"/>
<rect x="277.334" y="12.2224" width="7.11111" height="7.11111" fill="white"/>
<rect x="277.334" y="19.3336" width="7.11111" height="7.11111" fill="white"/>
<rect x="270.223" y="19.3336" width="7.11111" height="7.11111" fill="#E1E1E1"/>
<rect x="270.223" y="26.4446" width="7.11111" height="7.11111" fill="#E1E1E1"/>
<rect x="270.223" y="33.5558" width="7.11111" height="7.11111" fill="#E1E1E1"/>
<rect x="277.334" y="33.5558" width="7.11111" height="7.11111" fill="#E1E1E1"/>
<rect x="277.334" y="40.6669" width="7.11111" height="7.11111" fill="#E1E1E1"/>
<rect x="284.445" y="40.6669" width="7.11111" height="7.11111" fill="#E1E1E1"/>
<rect x="284.445" y="47.778" width="14.2222" height="35.5556" fill="#E1E1E1"/>
<rect width="42.6667" height="21.3333" transform="matrix(-1 0 0 1 284.445 62.0002)" fill="#E1E1E1"/>
<rect x="248.89" y="40.6669" width="7.11111" height="7.11111" fill="white"/>
<rect x="199.111" y="12.2224" width="7.11111" height="7.11111" fill="white"/>
<rect x="192" y="19.3336" width="7.11111" height="7.11111" fill="#E1E1E1"/>
<rect x="227.556" y="19.3336" width="7.11111" height="7.11111" fill="white"/>
<rect x="234.667" y="19.3336" width="7.11111" height="7.11111" fill="#E1E1E1"/>
<rect x="199.111" y="19.3336" width="7.11111" height="28.4444" fill="white"/>
<rect width="14.2222" height="35.5556" transform="matrix(-1 0 0 1 199.111 26.4446)" fill="white"/>
<rect x="199.111" y="54.8891" width="56.8889" height="7.11111" fill="white"/>
<rect x="192" y="62.0002" width="49.7778" height="7.11111" fill="white"/>
<rect x="312.89" y="125.111" width="21.3333" height="34.6667" transform="rotate(180 312.89 125.111)" fill="white"/>
<rect width="14.2222" height="7.11111" transform="matrix(-1 0 0 1 305.778 125.111)" fill="white"/>
<rect width="22.2222" height="14.2222" transform="matrix(1 0 0 -1 220.445 126)" fill="white"/>
<rect x="177.778" y="40.6669" width="7.11111" height="7.11111" fill="white"/>
<rect x="199.111" y="47.778" width="21.3333" height="7.11111" fill="white"/>
<rect x="177.778" y="54.8891" width="7.11111" height="7.11111" fill="white"/>
<rect x="206.223" y="19.3336" width="7.11111" height="28.4444" fill="white"/>
<rect x="184.89" y="12.2224" width="7.11111" height="7.11111" fill="#A0A0A0"/>
<rect x="184.89" y="19.3336" width="7.11111" height="7.11111" fill="#A0A0A0"/>
<rect x="177.778" y="26.4446" width="7.11111" height="7.11111" fill="#A0A0A0"/>
<rect x="192" y="76.2224" width="7.11111" height="7.11111" fill="#A0A0A0"/>
<rect x="177.778" y="33.5558" width="7.11111" height="7.11111" fill="#A0A0A0"/>
<rect x="192" y="83.3336" width="7.11111" height="7.11111" fill="#A0A0A0"/>
<rect x="192" y="90.4446" width="7.11111" height="7.11111" fill="#A0A0A0"/>
<rect x="192" y="97.5558" width="7.11111" height="7.11111" fill="#A0A0A0"/>
<rect x="192" y="104.667" width="7.11111" height="7.11111" fill="#A0A0A0"/>
<rect x="184.89" y="111.778" width="7.11111" height="7.11111" fill="#A0A0A0"/>
<rect x="177.778" y="118.889" width="7.11111" height="7.11111" fill="#A0A0A0"/>
<rect x="177.778" y="126" width="7.11111" height="7.11111" fill="#A0A0A0"/>
<rect x="184.89" y="133.111" width="7.11111" height="7.11111" fill="#A0A0A0"/>
<rect x="192" y="133.111" width="7.11111" height="7.11111" fill="#A0A0A0"/>
<rect x="192" y="126" width="7.11111" height="7.11111" fill="#A0A0A0"/>
<rect x="199.111" y="118.889" width="7.11111" height="7.11111" fill="#A0A0A0"/>
<rect x="206.223" y="111.778" width="7.11111" height="7.11111" fill="#A0A0A0"/>
<rect x="213.334" y="111.778" width="7.11111" height="7.11111" fill="#A0A0A0"/>
<rect x="213.334" y="118.889" width="7.11111" height="7.11111" fill="#A0A0A0"/>
<rect x="213.334" y="126" width="7.11111" height="7.11111" fill="#A0A0A0"/>
<rect x="220.445" y="133.111" width="7.11111" height="7.11111" fill="#A0A0A0"/>
<rect x="227.556" y="133.111" width="7.11111" height="7.11111" fill="#A0A0A0"/>
<rect x="234.667" y="126" width="7.11111" height="7.11111" fill="#A0A0A0"/>
<rect x="248.89" y="133.111" width="7.11111" height="7.11111" fill="#A0A0A0"/>
<rect x="256" y="133.111" width="7.11111" height="7.11111" fill="#A0A0A0"/>
<rect x="256" y="126" width="7.11111" height="7.11111" fill="#A0A0A0"/>
<rect x="241.778" y="118.889" width="7.11111" height="7.11111" fill="#A0A0A0"/>
<rect x="241.778" y="111.778" width="7.11111" height="7.11111" fill="#A0A0A0"/>
<rect x="248.89" y="118.889" width="7.11111" height="7.11111" fill="#A0A0A0"/>
<rect x="184.89" y="126" width="7.11111" height="7.11111" fill="white"/>
<rect x="220.445" y="126" width="7.11111" height="7.11111" fill="white"/>
<rect x="227.556" y="126" width="7.11111" height="7.11111" fill="white"/>
<rect x="248.89" y="126" width="7.11111" height="7.11111" fill="#A0A0A0"/>
<rect x="184.89" y="118.889" width="7.11111" height="7.11111" fill="#E1E1E1"/>
<rect x="192" y="111.778" width="7.11111" height="7.11111" fill="#E1E1E1"/>
<rect x="192" y="118.889" width="7.11111" height="7.11111" fill="#E1E1E1"/>
<rect x="199.111" y="111.778" width="7.11111" height="7.11111" fill="#E1E1E1"/>
<rect x="256" y="118.889" width="7.11111" height="7.11111" fill="#A0A0A0"/>
<rect x="263.111" y="118.889" width="7.11111" height="7.11111" fill="#E1E1E1"/>
<rect x="248.89" y="111.778" width="42.6667" height="7.11111" fill="#A0A0A0"/>
<rect x="170.667" y="40.6669" width="7.11111" height="7.11111" fill="#A0A0A0"/>
<rect x="177.778" y="47.778" width="7.11111" height="7.11111" fill="#A0A0A0"/>
<rect x="170.667" y="54.8891" width="7.11111" height="7.11111" fill="#A0A0A0"/>
<rect x="184.89" y="62.0002" width="7.11111" height="7.11111" fill="#A0A0A0"/>
<rect x="177.778" y="62.0002" width="7.11111" height="7.11111" fill="#A0A0A0"/>
<rect x="199.111" y="5.11133" width="7.11111" height="7.11111" fill="#A0A0A0"/>
<rect x="206.223" y="12.2224" width="7.11111" height="7.11111" fill="#A0A0A0"/>
<rect x="213.334" y="19.3336" width="7.11111" height="7.11111" fill="#A0A0A0"/>
<rect x="220.445" y="12.2224" width="7.11111" height="7.11111" fill="#A0A0A0"/>
<rect x="227.556" y="5.11133" width="7.11111" height="7.11111" fill="#A0A0A0"/>
<rect x="234.667" y="5.11133" width="7.11111" height="7.11111" fill="#A0A0A0"/>
<rect x="241.778" y="12.2224" width="7.11111" height="7.11111" fill="#A0A0A0"/>
<rect x="241.778" y="19.3336" width="7.11111" height="7.11111" fill="#A0A0A0"/>
<rect x="248.89" y="26.4446" width="7.11111" height="7.11111" fill="#A0A0A0"/>
<rect x="248.89" y="33.5558" width="7.11111" height="7.11111" fill="#A0A0A0"/>
<rect x="256" y="40.6669" width="7.11111" height="7.11111" fill="#A0A0A0"/>
<rect x="248.89" y="47.778" width="7.11111" height="7.11111" fill="#A0A0A0"/>
<rect x="256" y="54.8891" width="7.11111" height="7.11111" fill="#A0A0A0"/>
<rect x="263.111" y="54.8891" width="7.11111" height="7.11111" fill="#A0A0A0"/>
<rect x="270.223" y="54.8891" width="7.11111" height="7.11111" fill="#A0A0A0"/>
<rect x="277.334" y="54.8891" width="7.11111" height="7.11111" fill="#A0A0A0"/>
<rect x="277.334" y="47.778" width="7.11111" height="7.11111" fill="#A0A0A0"/>
<rect x="270.223" y="40.6669" width="7.11111" height="7.11111" fill="#A0A0A0"/>
<rect x="263.111" y="33.5558" width="7.11111" height="7.11111" fill="#A0A0A0"/>
<rect x="263.111" y="26.4446" width="7.11111" height="7.11111" fill="#A0A0A0"/>
<rect x="263.111" y="19.3336" width="7.11111" height="7.11111" fill="#A0A0A0"/>
<rect x="270.223" y="12.2224" width="7.11111" height="7.11111" fill="#A0A0A0"/>
<rect x="277.334" y="5.11133" width="7.11111" height="7.11111" fill="#A0A0A0"/>
<rect x="284.445" y="5.11133" width="7.11111" height="7.11111" fill="#A0A0A0"/>
<rect x="284.445" y="12.2224" width="7.11111" height="7.11111" fill="#A0A0A0"/>
<rect x="284.445" y="19.3336" width="7.11111" height="7.11111" fill="#A0A0A0"/>
<rect x="277.334" y="26.4446" width="7.11111" height="7.11111" fill="#A0A0A0"/>
<rect x="284.445" y="33.5558" width="7.11111" height="7.11111" fill="#A0A0A0"/>
<rect x="291.556" y="40.6669" width="7.11111" height="7.11111" fill="#A0A0A0"/>
<rect x="298.667" y="47.778" width="7.11111" height="7.11111" fill="#A0A0A0"/>
<rect x="298.667" y="54.8891" width="7.11111" height="7.11111" fill="#A0A0A0"/>
<rect x="298.667" y="62.0002" width="7.11111" height="7.11111" fill="#A0A0A0"/>
<rect x="298.667" y="69.1113" width="7.11111" height="7.11111" fill="#A0A0A0"/>
<rect x="298.667" y="76.2224" width="7.11111" height="7.11111" fill="#A0A0A0"/>
<rect x="305.778" y="83.3336" width="7.11111" height="7.11111" fill="#A0A0A0"/>
<rect x="312.89" y="89.5558" width="7.11111" height="7.11111" fill="#A0A0A0"/>
<rect x="312.89" y="96.6669" width="7.11111" height="7.11111" fill="#A0A0A0"/>
<rect x="312.89" y="103.778" width="7.11111" height="7.11111" fill="#A0A0A0"/>
<rect x="312.89" y="110.889" width="7.11111" height="7.11111" fill="#A0A0A0"/>
<rect x="312.89" y="118" width="7.11111" height="7.11111" fill="#A0A0A0"/>
<rect x="305.778" y="125.111" width="7.11111" height="7.11111" fill="#A0A0A0"/>
<rect x="298.667" y="132.222" width="7.11111" height="7.11111" fill="#A0A0A0"/>
<rect x="291.556" y="132.222" width="7.11111" height="7.11111" fill="#A0A0A0"/>
<rect x="284.445" y="125.111" width="7.11111" height="7.11111" fill="#A0A0A0"/>
<rect x="284.445" y="118.889" width="7.11111" height="7.11111" fill="#A0A0A0"/>
<rect x="223.111" y="40.6669" width="7.11111" height="7.11111" fill="#A0A0A0"/>
<rect x="192" y="40.6669" width="7.11111" height="7.11111" fill="#A0A0A0"/>
<rect x="220.445" y="47.778" width="7.11111" height="7.11111" fill="#E1E1E1"/>
<rect x="206.223" y="47.778" width="7.11111" height="7.11111" fill="#A0A0A0"/>
<rect x="241.778" y="62.0002" width="7.11111" height="7.11111" fill="#A0A0A0"/>
<rect x="248.89" y="62.0002" width="7.11111" height="7.11111" fill="#A0A0A0"/>
<rect x="192" y="69.1113" width="49.7778" height="7.11111" fill="#A0A0A0"/>
<rect x="213.334" y="54.8891" width="7.11111" height="7.11111" fill="#A0A0A0"/>
<rect x="199.111" y="54.8891" width="7.11111" height="7.11111" fill="#A0A0A0"/>
<rect x="263.111" y="118.889" width="7.11111" height="7.11111" fill="#A0A0A0"/>
</svg>
