<svg width="28" height="28" viewBox="0 0 28 28" fill="none" xmlns="http://www.w3.org/2000/svg">
<path d="M21.4336 7.71484H22.5736V13.4298H21.4336V7.71484Z" fill="#888888"/>
<path d="M20.2852 13.4302H21.4327V15.7102H20.2852V13.4302Z" fill="#888888"/>
<path d="M20.2852 5.42773H21.4327V7.71523H20.2852V5.42773Z" fill="#888888"/>
<path d="M19.1445 15.71H20.2845V16.8575H19.1445V15.71Z" fill="#888888"/>
<path d="M19.1445 4.2876H20.2845V5.4276H19.1445V4.2876Z" fill="#888888"/>
<path d="M16.8574 16.8574H19.1449V17.9974H16.8574V16.8574Z" fill="#888888"/>
<path d="M16.8574 3.14014H19.1449V4.28764H16.8574V3.14014Z" fill="#888888"/>
<path d="M11.1426 17.9976V19.1451H13.4301V22.5726H11.1426V23.7126H13.4301V26.0001H14.5701V23.7126H16.8576V22.5726H14.5701V19.1451H16.8576V17.9976H11.1426Z" fill="#888888"/>
<path d="M11.1426 2H16.8576V3.14H11.1426V2Z" fill="#888888"/>
<path d="M8.86328 16.8574H11.1433V17.9974H8.86328V16.8574Z" fill="#888888"/>
<path d="M8.86328 3.14014H11.1433V4.28764H8.86328V3.14014Z" fill="#888888"/>
<path d="M7.71484 15.71H8.86234V16.8575H7.71484V15.71Z" fill="#888888"/>
<path d="M7.71484 4.2876H8.86234V5.4276H7.71484V4.2876Z" fill="#888888"/>
<path d="M6.57617 13.4302H7.71617V15.7102H6.57617V13.4302Z" fill="#888888"/>
<path d="M6.57617 5.42773H7.71617V7.71523H6.57617V5.42773Z" fill="#888888"/>
<path d="M5.42773 7.71484H6.57523V13.4298H5.42773V7.71484Z" fill="#888888"/>
</svg>
