<svg width="32" height="32" viewBox="0 0 32 32" fill="none" xmlns="http://www.w3.org/2000/svg">
<g clip-path="url(#clip0_4064_143309)">
<g filter="url(#filter0_d_4064_143309)">
<path d="M28.4023 9.46857H29.7138V16H28.4023V9.46857Z" fill="#888888"/>
<path d="M25.4219 8.81708H28.4016V18.6142H25.4219V8.81708Z" fill="#888888"/>
<path d="M27.0977 8.16565H28.4005V9.46851H27.0977V8.16565Z" fill="#888888"/>
<path d="M25.7969 18.6143H27.0997V19.9171H25.7969V18.6143Z" fill="#888888"/>
<path d="M25.7969 10.7714H27.0997V13.3857H25.7969V10.7714Z" fill="#888888"/>
<path d="M25.7969 6.85431H27.0997V10.2733H25.7969V6.85431Z" fill="#888888"/>
<path d="M24.4844 9.46857H25.7958V10.7714H24.4844V9.46857Z" fill="#888888"/>
<path d="M17.9531 19.9171H25.7961V21.22H17.9531V19.9171Z" fill="#888888"/>
<path d="M21.8711 8.16565H24.4854V9.46851H21.8711V8.16565Z" fill="#888888"/>
<path d="M17.9531 21.22H23.1818V22.5315H17.9531V21.22Z" fill="#888888"/>
<path d="M19.2656 5.55139H25.7971V19.9171H19.2656V5.55139Z" fill="#888888"/>
<path d="M17.9531 22.5314H20.5674V23.8342H17.9531V22.5314Z" fill="#888888"/>
<path d="M17.9531 6.85431H19.2646V23.2571H17.9531V6.85431Z" fill="#888888"/>
<path d="M16.6523 23.8343H17.9552V25.1371H16.6523V23.8343Z" fill="#888888"/>
<path d="M16.6523 8.16565H17.9552V24.3474H16.6523V8.16565Z" fill="#888888"/>
<path d="M15.3477 25.1371H16.6505V26.4486H15.3477V25.1371Z" fill="#888888"/>
<path d="M15.3477 9.46857H16.6505V25.4378H15.3477V9.46857Z" fill="#888888"/>
<path d="M14.0352 23.8343H15.3466V25.1371H14.0352V23.8343Z" fill="#888888"/>
<path d="M14.0352 8.16565H15.3466V24.3474H14.0352V8.16565Z" fill="#888888"/>
<path d="M11.4219 18.3303H14.0362V23.8343H11.4219V18.3303Z" fill="#888888"/>
<path d="M12.7344 6.85431H14.0372V23.2571H12.7344V6.85431Z" fill="#888888"/>
<path d="M8.81641 18.6143H11.4221V22.5314H8.81641V18.6143Z" fill="#888888"/>
<path d="M6.20312 19.9171H8.81741V21.22H6.20312V19.9171Z" fill="#888888"/>
<path d="M6.20312 5.55139H12.7346V20.309H6.20312V5.55139Z" fill="#888888"/>
<path d="M4.89844 18.6143H6.20129V19.9171H4.89844V18.6143Z" fill="#888888"/>
<path d="M4.89844 6.85431H6.20129V18.6143H4.89844V6.85431Z" fill="#888888"/>
<path d="M3.58984 16H4.90127V18.6143H3.58984V16Z" fill="#888888"/>
<path d="M3.58984 8.16565H4.90127V9.46851H3.58984V8.16565Z" fill="#888888"/>
<path d="M2.28516 9.46857H8.26618V16H2.28516V9.46857Z" fill="#888888"/>
</g>
</g>
<defs>
<filter id="filter0_d_4064_143309" x="-1.71484" y="1.55139" width="35.4297" height="28.8972" filterUnits="userSpaceOnUse" color-interpolation-filters="sRGB">
<feFlood flood-opacity="0" result="BackgroundImageFix"/>
<feColorMatrix in="SourceAlpha" type="matrix" values="0 0 0 0 0 0 0 0 0 0 0 0 0 0 0 0 0 0 127 0" result="hardAlpha"/>
<feOffset/>
<feGaussianBlur stdDeviation="2"/>
<feComposite in2="hardAlpha" operator="out"/>
<feColorMatrix type="matrix" values="0 0 0 0 0 0 0 0 0 0 0 0 0 0 0 0 0 0 1 0"/>
<feBlend mode="normal" in2="BackgroundImageFix" result="effect1_dropShadow_4064_143309"/>
<feBlend mode="normal" in="SourceGraphic" in2="effect1_dropShadow_4064_143309" result="shape"/>
</filter>
<clipPath id="clip0_4064_143309">
<rect width="32" height="32" fill="white"/>
</clipPath>
</defs>
</svg>
