<svg width="36" height="36" viewBox="0 0 36 36" fill="none" xmlns="http://www.w3.org/2000/svg">
<path d="M30 11.3325H31.33V21.9988H30V11.3325Z" fill="#545454"/>
<path d="M28.6699 21.9988H29.9999V23.3288H28.6699V21.9988Z" fill="#545454"/>
<path d="M28.6699 10.0026H29.9999V11.3326H28.6699V10.0026Z" fill="#545454"/>
<path d="M27.3311 23.3289H28.6698V24.6676H27.3311V23.3289Z" fill="#545454"/>
<path d="M27.3311 8.66382H28.6698V10.0026H27.3311V8.66382Z" fill="#545454"/>
<path d="M26.002 24.6676H27.332V25.9976H26.002V24.6676Z" fill="#545454"/>
<path d="M26.002 7.33386H27.332V8.66386H26.002V7.33386Z" fill="#545454"/>
<path d="M24.6631 25.9976H26.0018V27.3276H24.6631V25.9976Z" fill="#545454"/>
<path d="M23.333 5.99512H26.0018V7.33387H23.333V5.99512Z" fill="#545454"/>
<path d="M22.0029 27.3275H24.6629V28.6663H22.0029V27.3275Z" fill="#545454"/>
<path d="M19.334 28.6663H22.0027V29.9963H19.334V28.6663Z" fill="#545454"/>
<path d="M9.99789 29.9963V28.6663H8.66789V29.9963H7.33789V31.335H19.3341V29.9963H9.99789Z" fill="#545454"/>
<path d="M16.665 15.3313H19.3338V18H16.665V15.3313Z" fill="#545454"/>
<path d="M13.9961 4.66504H23.3323V5.99504H13.9961V4.66504Z" fill="#545454"/>
<path d="M13.7213 18.8625H15.4312V20.5725H17.1413V22.2825H18.8625V20.5725H20.5725V18.8625H22.2938V17.1413H24.0037V13.71H22.2938V12H20.5725V13.71H18.8625V15.4313H17.1413V13.71H15.4312V12H13.7213V13.71H12V17.1413H13.7213V18.8625Z" fill="#545454"/>
<path d="M11.3369 5.99512H13.9969V7.33387H11.3369V5.99512Z" fill="#545454"/>
<path d="M11.3368 27.3276H12.6668V25.9976H9.99805V28.6663H11.3368V27.3276Z" fill="#545454"/>
<path d="M8.66797 7.33386H11.3367V8.66386H8.66797V7.33386Z" fill="#545454"/>
<path d="M8.66797 24.6676H9.99797V25.9976H8.66797V24.6676Z" fill="#545454"/>
<path d="M7.33789 23.3289H8.66789V24.6676H7.33789V23.3289Z" fill="#545454"/>
<path d="M7.33789 8.66382H8.66789V10.0026H7.33789V8.66382Z" fill="#545454"/>
<path d="M5.99902 21.9988H7.33777V23.3288H5.99902V21.9988Z" fill="#545454"/>
<path d="M5.99902 10.0026H7.33777V11.3326H5.99902V10.0026Z" fill="#545454"/>
<path d="M4.66895 11.3325H5.99895V21.9988H4.66895V11.3325Z" fill="#545454"/>
</svg>
