<svg width="32" height="32" viewBox="0 0 32 32" fill="none" xmlns="http://www.w3.org/2000/svg">
<path d="M12.7334 6.85352H14.0371V8.16504H15.3477V9.46777H16.6504V26.4482H15.3477V25.1367H14.0361V23.834H11.4229V20.3086H11.4219V22.5312H8.81641V21.2197H6.20215V19.917H4.89941V18.6133H3.58789V15.999H2.28516V9.46777H3.58789V8.16504H4.89941V6.85352H6.20215V5.55078H12.7334V6.85352ZM25.7969 6.85352H27.0996V8.16504H28.4023V9.46777H29.7139V15.999H28.4023V18.6133H27.0996V19.917H25.7969V21.2197H23.1826V22.5312H20.5684V23.834H17.9541V25.1367H16.6514V8.16504H17.9541V6.85352H19.2646V5.55078H25.7969V6.85352Z" fill="#888888"/>
</svg>
