<svg width="28" height="28" viewBox="0 0 28 28" fill="none" xmlns="http://www.w3.org/2000/svg">
<path d="M11.1426 5.99707H12.2822V7.14551H13.4297V8.28516H14.5703V7.14551H15.71V5.99707H16.8574V4.85742H22.5723V5.99707H23.7129V7.14551H24.8525V8.28516H26V14H24.8525V16.2871H23.7129V17.4277H22.5723V18.5674H20.2852V19.7148H17.9971V20.8555H15.71V21.9951H14.5703V23.1426H13.4297V21.9951H12.2822V20.8555H9.99512V19.7148H7.71484V18.5674H5.42773V17.4277H4.28809V16.2871H3.13965V14H2V8.28516H3.13965V7.14551H4.28809V5.99707H5.42773V4.85742H11.1426V5.99707Z" fill="black"/>
</svg>
