<svg width="32" height="32" viewBox="0 0 32 32" fill="none" xmlns="http://www.w3.org/2000/svg">
<path d="M28.4023 9.46875H29.7138V16.0002H28.4023V9.46875Z" fill="#888888"/>
<path d="M27.0996 16H28.4025V18.6143H27.0996V16Z" fill="#888888"/>
<path d="M27.0996 8.16602H28.4025V9.46887H27.0996V8.16602Z" fill="#888888"/>
<path d="M25.7969 18.6133H27.0997V19.9161H25.7969V18.6133Z" fill="#888888"/>
<path d="M25.7969 6.85352H27.0997V8.16494H25.7969V6.85352Z" fill="#888888"/>
<path d="M23.1816 19.916H25.7959V21.2189H23.1816V19.916Z" fill="#888888"/>
<path d="M20.5684 21.2188H23.1826V22.5302H20.5684V21.2188Z" fill="#888888"/>
<path d="M19.2656 5.55078H25.7971V6.85364H19.2656V5.55078Z" fill="#888888"/>
<path d="M17.9531 22.5312H20.5674V23.8341H17.9531V22.5312Z" fill="#888888"/>
<path d="M17.9531 6.85352H19.2646V8.16494H17.9531V6.85352Z" fill="#888888"/>
<path d="M16.6504 23.834H17.9532V25.1368H16.6504V23.834Z" fill="#888888"/>
<path d="M16.6504 8.16602H17.9532V9.46887H16.6504V8.16602Z" fill="#888888"/>
<path d="M15.3477 25.1367H16.6505V26.4481H15.3477V25.1367Z" fill="#888888"/>
<path d="M15.3477 9.46875H16.6505V10.7716H15.3477V9.46875Z" fill="#888888"/>
<path d="M14.0371 23.834H15.3485V25.1368H14.0371V23.834Z" fill="#888888"/>
<path d="M14.0371 8.16602H15.3485V9.46887H14.0371V8.16602Z" fill="#888888"/>
<path d="M11.4219 22.5312H14.0362V23.8341H11.4219V22.5312Z" fill="#888888"/>
<path d="M12.7344 6.85352H14.0372V8.16494H12.7344V6.85352Z" fill="#888888"/>
<path d="M8.81641 21.2188H11.4221V22.5302H8.81641V21.2188Z" fill="#888888"/>
<path d="M6.20312 19.916H8.81741V21.2189H6.20312V19.916Z" fill="#888888"/>
<path d="M6.20312 5.55078H12.7346V6.85364H6.20312V5.55078Z" fill="#888888"/>
<path d="M4.90039 18.6133H6.20325V19.9161H4.90039V18.6133Z" fill="#888888"/>
<path d="M4.90039 6.85352H6.20325V8.16494H4.90039V6.85352Z" fill="#888888"/>
<path d="M3.58789 16H4.89932V18.6143H3.58789V16Z" fill="#888888"/>
<path d="M3.58789 8.16602H4.89932V9.46887H3.58789V8.16602Z" fill="#888888"/>
<path d="M2.28516 9.46875H3.58801V16.0002H2.28516V9.46875Z" fill="#888888"/>
</svg>
