<svg width="28" height="28" viewBox="0 0 28 28" fill="none" xmlns="http://www.w3.org/2000/svg">
<path d="M24.8525 8.28516H26V14.0002H24.8525V8.28516Z" fill="#545454"/>
<path d="M22.2451 7.71484H24.8524V16.2873H22.2451V7.71484Z" fill="#545454"/>
<path d="M23.7129 7.14502H24.8529V8.28502H23.7129V7.14502Z" fill="#545454"/>
<path d="M22.5723 16.2876H23.7123V17.4276H22.5723V16.2876Z" fill="#545454"/>
<path d="M22.5723 9.4248H23.7123V11.7123H22.5723V9.4248Z" fill="#545454"/>
<path d="M22.5723 5.99756H23.7123V8.98918H22.5723V5.99756Z" fill="#545454"/>
<path d="M21.4248 8.28516H22.5723V9.42516H21.4248V8.28516Z" fill="#545454"/>
<path d="M15.71 17.4272H22.5725V18.5672H15.71V17.4272Z" fill="#545454"/>
<path d="M19.1377 7.14502H21.4252V8.28502H19.1377V7.14502Z" fill="#545454"/>
<path d="M15.71 18.5674H20.2851V19.7149H15.71V18.5674Z" fill="#545454"/>
<path d="M16.8574 4.85742H22.5724V17.4274H16.8574V4.85742Z" fill="#545454"/>
<path d="M15.71 19.7148H17.9975V20.8548H15.71V19.7148Z" fill="#545454"/>
<path d="M15.71 5.99756H16.8575V20.35H15.71V5.99756Z" fill="#545454"/>
<path d="M14.5703 20.855H15.7103V21.995H14.5703V20.855Z" fill="#545454"/>
<path d="M14.5703 7.14502H15.7103V21.304H14.5703V7.14502Z" fill="#545454"/>
<path d="M13.4297 21.9951H14.5697V23.1426H13.4297V21.9951Z" fill="#545454"/>
<path d="M13.4297 8.28516H14.5697V22.2582H13.4297V8.28516Z" fill="#545454"/>
<path d="M12.2822 20.855H13.4297V21.995H12.2822V20.855Z" fill="#545454"/>
<path d="M12.2822 7.14502H13.4297V21.304H12.2822V7.14502Z" fill="#545454"/>
<path d="M9.99512 16.0391H12.2826V20.8551H9.99512V16.0391Z" fill="#545454"/>
<path d="M11.1426 5.99756H12.2826V20.35H11.1426V5.99756Z" fill="#545454"/>
<path d="M7.71484 16.2876H9.99484V19.7151H7.71484V16.2876Z" fill="#545454"/>
<path d="M5.42773 17.4272H7.71523V18.5672H5.42773V17.4272Z" fill="#545454"/>
<path d="M5.42773 4.85742H11.1427V17.7704H5.42773V4.85742Z" fill="#545454"/>
<path d="M4.28711 16.2876H5.42711V17.4276H4.28711V16.2876Z" fill="#545454"/>
<path d="M4.28711 5.99756H5.42711V16.2876H4.28711V5.99756Z" fill="#545454"/>
<path d="M3.13965 14H4.28715V16.2875H3.13965V14Z" fill="#545454"/>
<path d="M3.13965 7.14502H4.28715V8.28502H3.13965V7.14502Z" fill="#545454"/>
<path d="M2 8.28516H7.2334V14.0002H2V8.28516Z" fill="#545454"/>
</svg>
