<svg width="36" height="36" viewBox="0 0 36 36" fill="none" xmlns="http://www.w3.org/2000/svg">
<path d="M31.5684 17.278H30.1431V18.7127H31.5684V30.1431H33.003V14.4275H31.5684V17.278Z" fill="#545454"/>
<path d="M30.1431 30.1431H31.5684V31.5684H30.1431V30.1431Z" fill="#545454"/>
<path d="M30.1431 12.9928H31.5684V14.4274H30.1431V12.9928Z" fill="#545454"/>
<path d="M28.7179 30.1431H27.2832V31.5684H8.7076V30.1431H7.28232V31.5684H5.84766V33.003H30.1431V31.5684H28.7179V30.1431Z" fill="#545454"/>
<path d="M25.8579 28.7084H27.2832V30.143H25.8579V28.7084Z" fill="#545454"/>
<path d="M24.4233 27.2831H25.858V28.7084H24.4233V27.2831Z" fill="#545454"/>
<path d="M24.4233 20.1379H27.2833V21.5726H24.4233V20.1379Z" fill="#545454"/>
<path d="M22.9978 25.8579H24.4231V27.2831H22.9978V25.8579Z" fill="#545454"/>
<path d="M21.5725 24.4232H22.9978V25.8578H21.5725V24.4232Z" fill="#545454"/>
<path d="M21.5725 21.5725H24.4231V22.9978H21.5725V21.5725Z" fill="#545454"/>
<path d="M21.5725 4.42233H22.9978V5.84762H21.5725V4.42233Z" fill="#545454"/>
<path d="M21.5725 12.9928H18.7126V14.4274H17.2873V12.9928H14.4273V14.4274H12.9927V17.278H14.4273V18.7127H15.8526V20.1379H17.2873V21.5726H18.7126V20.1379H20.1379V18.7127H21.5725V17.278H22.9978V14.4274H21.5725V12.9928Z" fill="#545454"/>
<path d="M14.4275 22.9979H21.5727V24.4232H14.4275V22.9979Z" fill="#545454"/>
<path d="M14.4275 2.99696H21.5727V4.42225H14.4275V2.99696Z" fill="#545454"/>
<path d="M12.9927 24.4232H14.4273V25.8578H12.9927V24.4232Z" fill="#545454"/>
<path d="M11.5674 21.5725H14.4273V22.9978H11.5674V21.5725Z" fill="#545454"/>
<path d="M12.9927 4.42233H14.4273V5.84762H12.9927V4.42233Z" fill="#545454"/>
<path d="M11.5674 25.8579H12.9927V27.2831H11.5674V25.8579Z" fill="#545454"/>
<path d="M10.1421 27.2831H11.5674V28.7084H10.1421V27.2831Z" fill="#545454"/>
<path d="M8.70752 20.1379H11.5675V21.5726H8.70752V20.1379Z" fill="#545454"/>
<path d="M8.70752 28.7084H10.1422V30.143H8.70752V28.7084Z" fill="#545454"/>
<path d="M7.28232 18.7127H5.84766V20.1379H8.7076V8.70753H27.2832V20.1379H30.1431V18.7127H28.7179V12.9928H30.1431V11.5675H28.7179V7.28224H24.4232V5.84758H22.998V7.28224H12.9928V5.84758H11.5675V7.28224H7.28232V11.5675H5.84766V12.9928H7.28232V18.7127Z" fill="#545454"/>
<path d="M4.42212 30.1431H5.8474V31.5684H4.42212V30.1431Z" fill="#545454"/>
<path d="M4.42212 12.9928H5.8474V14.4274H4.42212V12.9928Z" fill="#545454"/>
<path d="M4.42236 18.7127H5.84764V17.278H4.42236V14.4275H2.99707V30.1431H4.42236V18.7127Z" fill="#545454"/>
</svg>
