<svg width="24" height="24" viewBox="0 0 24 24" fill="none" xmlns="http://www.w3.org/2000/svg">
<path fill-rule="evenodd" clip-rule="evenodd" d="M6.52748 2.39999C5.43309 2.39999 4.38349 2.83463 3.60949 3.60834C2.83549 4.38204 2.40044 5.43147 2.40002 6.52587V17.5324C2.40002 18.6271 2.83488 19.6769 3.60893 20.451C4.38298 21.225 5.43281 21.6599 6.52748 21.6599H17.534C18.6284 21.6595 19.6779 21.2244 20.4516 20.4504C21.2253 19.6764 21.6599 18.6268 21.6599 17.5324V6.52587C21.6595 5.43175 21.2247 4.38256 20.451 3.6089C19.6773 2.83524 18.6282 2.40041 17.534 2.39999H6.52748ZM18.7212 6.53221C18.7212 6.84749 18.596 7.14986 18.373 7.3728C18.1501 7.59574 17.8477 7.72099 17.5324 7.72099C17.2172 7.72099 16.9148 7.59574 16.6918 7.3728C16.4689 7.14986 16.3437 6.84749 16.3437 6.53221C16.3437 6.21692 16.4689 5.91455 16.6918 5.69161C16.9148 5.46867 17.2172 5.34342 17.5324 5.34342C17.8477 5.34342 18.1501 5.46867 18.373 5.69161C18.596 5.91455 18.7212 6.21692 18.7212 6.53221ZM12.0323 8.73225C11.158 8.73225 10.3194 9.0796 9.70109 9.69788C9.0828 10.3162 8.73545 11.1547 8.73545 12.0291C8.73545 12.9035 9.0828 13.7421 9.70109 14.3604C10.3194 14.9787 11.158 15.326 12.0323 15.326C12.9067 15.326 13.7453 14.9787 14.3636 14.3604C14.9819 13.7421 15.3292 12.9035 15.3292 12.0291C15.3292 11.1547 14.9819 10.3162 14.3636 9.69788C13.7453 9.0796 12.9067 8.73225 12.0323 8.73225ZM7.14882 12.0291C7.14882 10.7344 7.66316 9.49263 8.5787 8.57709C9.49425 7.66155 10.736 7.1472 12.0308 7.1472C13.3255 7.1472 14.5673 7.66155 15.4828 8.57709C16.3983 9.49263 16.9127 10.7344 16.9127 12.0291C16.9127 13.3239 16.3983 14.5657 15.4828 15.4812C14.5673 16.3967 13.3255 16.9111 12.0308 16.9111C10.736 16.9111 9.49425 16.3967 8.5787 15.4812C7.66316 14.5657 7.14882 13.3239 7.14882 12.0291Z" fill="#888888"/>
</svg>
