<svg width="28" height="28" viewBox="0 0 28 28" fill="none" xmlns="http://www.w3.org/2000/svg">
<path d="M17.0569 20.6197H17.943V21.5H17.0569V20.6197Z" fill="#545454"/>
<path d="M17.0569 6.5H17.943V7.38031H17.0569V6.5Z" fill="#545454"/>
<path d="M16.1771 19.7336H17.0574V20.6197H16.1771V19.7336Z" fill="#545454"/>
<path d="M16.1771 7.38031H17.0574V8.26062H16.1771V7.38031Z" fill="#545454"/>
<path d="M15.297 18.8533H16.1773V19.7336H15.297V18.8533Z" fill="#545454"/>
<path d="M15.297 8.26062H16.1773V9.14672H15.297V8.26062Z" fill="#545454"/>
<path d="M14.4113 17.973H15.2974V18.8533H14.4113V17.973Z" fill="#545454"/>
<path d="M14.4113 9.14673H15.2974V10.027H14.4113V9.14673Z" fill="#545454"/>
<path d="M13.5315 17.0869H14.4118V17.973H13.5315V17.0869Z" fill="#545454"/>
<path d="M13.5315 10.027H14.4118V10.9131H13.5315V10.027Z" fill="#545454"/>
<path d="M12.6456 16.2066H13.5316V17.0869H12.6456V16.2066Z" fill="#545454"/>
<path d="M12.6456 10.9131H13.5316V11.7935H12.6456V10.9131Z" fill="#545454"/>
<path d="M11.7655 15.3263H12.6458V16.2066H11.7655V15.3263Z" fill="#545454"/>
<path d="M11.7655 11.7934H12.6458V12.6737H11.7655V11.7934Z" fill="#545454"/>
<path d="M10.8859 14.4402H11.7662V15.3263H10.8859V14.4402Z" fill="#545454"/>
<path d="M10.8859 12.6737H11.7662V13.5598H10.8859V12.6737Z" fill="#545454"/>
<path d="M10 13.5598H10.8861V14.4402H10V13.5598Z" fill="#545454"/>
</svg>
