<svg width="20" height="20" viewBox="0 0 20 20" fill="none" xmlns="http://www.w3.org/2000/svg">
<path d="M13.6738 2.24512V3.0594H16.122V3.87369H16.9417V6.32726H17.756V2.24512H13.6738Z" fill="#0088FF"/>
<path d="M15.3066 3.87402H16.1209V4.69367H15.3066V3.87402Z" fill="#0088FF"/>
<path d="M14.4863 4.69336H15.306V5.50765H14.4863V4.69336Z" fill="#0088FF"/>
<path d="M13.6738 9.58984H14.4881V13.672H13.6738V9.58984Z" fill="#0088FF"/>
<path d="M13.6738 5.50781H14.4881V6.32746H13.6738V5.50781Z" fill="#0088FF"/>
<path d="M12.8594 13.6719H13.6737V15.3058H12.8594V13.6719Z" fill="#0088FF"/>
<path d="M12.8594 7.95605H13.6737V9.58998H12.8594V7.95605Z" fill="#0088FF"/>
<path d="M12.8594 6.32715H13.6737V7.14143H12.8594V6.32715Z" fill="#0088FF"/>
<path d="M12.0391 15.3057H12.8587V16.12H12.0391V15.3057Z" fill="#0088FF"/>
<path d="M12.0391 7.1416H12.8587V7.95589H12.0391V7.1416Z" fill="#0088FF"/>
<path d="M10.4043 16.1201H12.0382V16.9398H10.4043V16.1201Z" fill="#0088FF"/>
<path d="M10.4043 6.32715H12.0382V7.14143H10.4043V6.32715Z" fill="#0088FF"/>
<path d="M6.32812 16.9395H10.4049V17.7537H6.32812V16.9395Z" fill="#0088FF"/>
<path d="M6.32812 5.50781H10.4049V6.32746H6.32812V5.50781Z" fill="#0088FF"/>
<path d="M4.69336 16.1201H6.32729V16.9398H4.69336V16.1201Z" fill="#0088FF"/>
<path d="M4.69336 6.32715H6.32729V7.14143H4.69336V6.32715Z" fill="#0088FF"/>
<path d="M3.875 15.3057H4.69464V16.12H3.875V15.3057Z" fill="#0088FF"/>
<path d="M3.875 7.1416H4.69464V7.95589H3.875V7.1416Z" fill="#0088FF"/>
<path d="M3.06055 13.6719H3.87483V15.3058H3.06055V13.6719Z" fill="#0088FF"/>
<path d="M3.06055 7.95605H3.87483V9.58998H3.06055V7.95605Z" fill="#0088FF"/>
<path d="M2.24609 9.58984H3.06038V13.672H2.24609V9.58984Z" fill="#0088FF"/>
</svg>
