<svg width="28" height="28" viewBox="0 0 28 28" fill="none" xmlns="http://www.w3.org/2000/svg">
<path d="M19.1426 3.14355V4.28355H22.5701V5.42355H23.7176V8.85855H24.8576V3.14355H19.1426Z" fill="#888888"/>
<path d="M21.4297 5.42334H22.5697V6.57084H21.4297V5.42334Z" fill="#888888"/>
<path d="M20.2812 6.57129H21.4287V7.71129H20.2812V6.57129Z" fill="#888888"/>
<path d="M19.1426 13.4263H20.2826V19.1413H19.1426V13.4263Z" fill="#888888"/>
<path d="M19.1426 7.71094H20.2826V8.85844H19.1426V7.71094Z" fill="#888888"/>
<path d="M18.002 19.1411H19.142V21.4286H18.002V19.1411Z" fill="#888888"/>
<path d="M18.002 11.1387H19.142V13.4262H18.002V11.1387Z" fill="#888888"/>
<path d="M18.002 8.8584H19.142V9.9984H18.002V8.8584Z" fill="#888888"/>
<path d="M16.8555 21.4287H18.003V22.5687H16.8555V21.4287Z" fill="#888888"/>
<path d="M16.8555 9.99854H18.003V11.1385H16.8555V9.99854Z" fill="#888888"/>
<path d="M14.5664 22.5684H16.8539V23.7159H14.5664V22.5684Z" fill="#888888"/>
<path d="M14.5664 8.8584H16.8539V9.9984H14.5664V8.8584Z" fill="#888888"/>
<path d="M8.85938 23.7158H14.5669V24.8558H8.85938V23.7158Z" fill="#888888"/>
<path d="M8.85938 7.71094H14.5669V8.85844H8.85938V7.71094Z" fill="#888888"/>
<path d="M6.57227 22.5684H8.85977V23.7159H6.57227V22.5684Z" fill="#888888"/>
<path d="M6.57227 8.8584H8.85977V9.9984H6.57227V8.8584Z" fill="#888888"/>
<path d="M5.42383 21.4287H6.57133V22.5687H5.42383V21.4287Z" fill="#888888"/>
<path d="M5.42383 9.99854H6.57133V11.1385H5.42383V9.99854Z" fill="#888888"/>
<path d="M4.28516 19.1411H5.42516V21.4286H4.28516V19.1411Z" fill="#888888"/>
<path d="M4.28516 11.1387H5.42516V13.4262H4.28516V11.1387Z" fill="#888888"/>
<path d="M3.14453 13.4263H4.28453V19.1413H3.14453V13.4263Z" fill="#888888"/>
</svg>
