<svg width="36" height="36" viewBox="0 0 36 36" fill="none" xmlns="http://www.w3.org/2000/svg">
<g clip-path="url(#clip0_3610_21542)">
<path d="M29.7646 8.71313H30.9996V28.5219H29.7646V8.71313Z" fill="#FF453A"/>
<path d="M28.5215 28.5219H29.7646V29.765H28.5215V28.5219Z" fill="#FF453A"/>
<path d="M7.47852 29.765H28.5223V31H7.47852V29.765Z" fill="#FF453A"/>
<path d="M9.95605 24.8087H26.0517V26.0518H9.95605V24.8087Z" fill="#FF453A"/>
<path d="M9.95605 19.8606H26.0517V21.0956H9.95605V19.8606Z" fill="#FF453A"/>
<path d="M6.23535 28.5219H7.47848V29.765H6.23535V28.5219Z" fill="#FF453A"/>
<path d="M5 8.71997H6.235V28.52H5V8.71997Z" fill="#FF453A"/>
</g>
<g clip-path="url(#clip1_3610_21542)">
<path d="M6.23535 27.2869L5.00035 27.2869L5.00035 7.47812L6.23535 7.47812L6.23535 27.2869Z" fill="#FF453A"/>
<path d="M7.47852 7.47815L6.23539 7.47815L6.23539 6.23502L7.47852 6.23502L7.47852 7.47815Z" fill="#FF453A"/>
<path d="M28.5215 6.23499L7.47774 6.23498L7.47774 4.99998L28.5215 4.99999L28.5215 6.23499Z" fill="#FF453A"/>
<path d="M26.0439 11.1913L9.94832 11.1913L9.94832 9.94816L26.0439 9.94816L26.0439 11.1913Z" fill="#FF453A"/>
<path d="M26.0439 16.1394L9.94832 16.1394L9.94832 14.9044L26.0439 14.9044L26.0439 16.1394Z" fill="#FF453A"/>
<path d="M29.7646 7.47815L28.5215 7.47815L28.5215 6.23502L29.7646 6.23502L29.7646 7.47815Z" fill="#FF453A"/>
<path d="M31 27.28L29.765 27.28L29.765 7.48003L31 7.48003L31 27.28Z" fill="#FF453A"/>
</g>
<defs>
<clipPath id="clip0_3610_21542">
<rect width="26" height="26" fill="white" transform="translate(5 5)"/>
</clipPath>
<clipPath id="clip1_3610_21542">
<rect width="26" height="26" fill="white" transform="translate(31 31) rotate(-180)"/>
</clipPath>
</defs>
</svg>
