<svg width="16" height="16" viewBox="0 0 16 16" fill="none" xmlns="http://www.w3.org/2000/svg">
<path d="M3.71095 9.89844C3.79102 9.61328 3.94141 9.35352 4.15235 9.14258L7.69141 5.60352L8.35352 4.94141L10.3848 6.97266L11.0469 7.63477L10.3848 8.29688L6.84571 11.8359C6.63673 12.0449 6.37501 12.1973 6.08985 12.2773L3.59376 12.9727C3.43165 13.0176 3.25587 12.9727 3.13673 12.8516C3.01759 12.7305 2.97266 12.5566 3.01759 12.3945L3.71095 9.89844ZM4.79688 9.82617C4.71095 9.91797 4.64845 10.0293 4.61524 10.1504L4.14454 11.8477L5.84181 11.377C5.96681 11.3418 6.08009 11.2773 6.17384 11.1875L4.79493 9.82617H4.79688ZM11.7109 6.97266L9.6797 4.94141L9.01563 4.2793L9.89259 3.40234C10.1563 3.13672 10.5156 2.98828 10.8906 2.98828C11.2656 2.98828 11.625 3.13672 11.8887 3.40234L12.5859 4.09961C12.8516 4.36523 13 4.72461 13 5.09766C13 5.4707 12.8516 5.83203 12.5859 6.0957L11.709 6.97266H11.7109Z" fill="#545454"/>
</svg>
