<svg width="20" height="20" viewBox="0 0 20 20" fill="none" xmlns="http://www.w3.org/2000/svg">
<g clip-path="url(#clip0_54_846)">
<path d="M16 5.3595H17.44V7.4795H16V5.3595Z" fill="#4F3B2E"/>
<path d="M16.0703 6.5H16.7828V8.21H16.0703V6.5Z" fill="#4F3B2E"/>
<path d="M16 4.64233H16.7125V5.35952H16V4.64233Z" fill="#4F3B2E"/>
<path d="M15.3577 8.21411H16.0702V8.92661H15.3577V8.21411Z" fill="#4F3B2E"/>
<path d="M15.34 3.92944H16.0525V7.47944H15.34V3.92944Z" fill="#4F3B2E"/>
<path d="M14.6405 8.92639H15.3577V9.64358H14.6405V8.92639Z" fill="#4F3B2E"/>
<path d="M14.6405 7.50183H15.3577V9.21183H14.6405V7.50183Z" fill="#4F3B2E"/>
<path d="M14.63 3.21228H15.3472V6.76228H14.63V3.21228Z" fill="#4F3B2E"/>
<path d="M13.9282 9.64355H14.6407V10.3561H13.9282V9.64355Z" fill="#4F3B2E"/>
<path d="M13.9282 6.78467H14.6407V10.2047H13.9282V6.78467Z" fill="#4F3B2E"/>
<path d="M13.2111 10.3564H13.9282V11.0736H13.2111V10.3564Z" fill="#4F3B2E"/>
<path d="M13.2111 7.50183H13.9282V8.21433H13.2111V7.50183Z" fill="#4F3B2E"/>
<path d="M13.2111 6.07178H13.9282V10.7818H13.2111V6.07178Z" fill="#4F3B2E"/>
<path d="M12.4984 2.5H13.2117V4.63H12.4984V2.5Z" fill="#4F3B2E"/>
<path d="M13.21 2.5H13.9233V5.34H13.21V2.5Z" fill="#4F3B2E"/>
<path d="M13.92 2.5H14.6334V6.05H13.92V2.5Z" fill="#4F3B2E"/>
<path d="M12.4984 11.0736H13.2109V11.7861H12.4984V11.0736Z" fill="#4F3B2E"/>
<path d="M12.4984 8.21411H13.2109V8.92661H12.4984V8.21411Z" fill="#4F3B2E"/>
<path d="M12.4984 5.3595H13.2109V11.5695H12.4984V5.3595Z" fill="#4F3B2E"/>
<path d="M11.7859 11.7859H12.4984V12.4984H11.7859V11.7859Z" fill="#4F3B2E"/>
<path d="M11.7859 8.92639H12.4984V9.64358H11.7859V8.92639Z" fill="#4F3B2E"/>
<path d="M11.7859 6.07178H12.4984V6.78428H11.7859V6.07178Z" fill="#4F3B2E"/>
<path d="M11.7859 4.64233H12.4984V12.3523H11.7859V4.64233Z" fill="#4F3B2E"/>
<path d="M11.7859 3.21228H12.4984V3.92947H11.7859V3.21228Z" fill="#4F3B2E"/>
<path d="M11.0687 12.4982H11.7859V13.2154H11.0687V12.4982Z" fill="#4F3B2E"/>
<path d="M11.0687 9.64355H11.7859V10.3561H11.0687V9.64355Z" fill="#4F3B2E"/>
<path d="M11.0687 6.78467H11.7859V7.50186H11.0687V6.78467Z" fill="#4F3B2E"/>
<path d="M11.0687 3.92944H11.7859V12.6394H11.0687V3.92944Z" fill="#4F3B2E"/>
<path d="M10.3562 13.2153H11.0687V13.9278H10.3562V13.2153Z" fill="#4F3B2E"/>
<path d="M10.3562 10.3564H11.0687V11.0736H10.3562V10.3564Z" fill="#4F3B2E"/>
<path d="M10.3562 7.50183H11.0687V8.21433H10.3562V7.50183Z" fill="#4F3B2E"/>
<path d="M10.3562 4.64233H11.0687V13.3523H10.3562V4.64233Z" fill="#4F3B2E"/>
<path d="M9.6438 13.9282H10.3563V14.6407H9.6438V13.9282Z" fill="#4F3B2E"/>
<path d="M9.6438 11.0736H10.3563V11.7861H9.6438V11.0736Z" fill="#4F3B2E"/>
<path d="M9.6438 8.21411H10.3563V8.92661H9.6438V8.21411Z" fill="#4F3B2E"/>
<path d="M9.6438 5.3595H10.3563V14.0695H9.6438V5.3595Z" fill="#4F3B2E"/>
<path d="M8.92664 14.6405H9.64382V15.3577H8.92664V14.6405Z" fill="#4F3B2E"/>
<path d="M8.92664 11.7859H9.64382V12.4984H8.92664V11.7859Z" fill="#4F3B2E"/>
<path d="M8.92664 8.92639H9.64382V9.64358H8.92664V8.92639Z" fill="#4F3B2E"/>
<path d="M8.92664 6.07178H9.64382V14.7818H8.92664V6.07178Z" fill="#4F3B2E"/>
<path d="M8.21411 15.3577H8.92661V16.0702H8.21411V15.3577Z" fill="#4F3B2E"/>
<path d="M8.21411 12.4982H8.92661V13.2154H8.21411V12.4982Z" fill="#4F3B2E"/>
<path d="M8.21411 9.64355H8.92661V10.3561H8.21411V9.64355Z" fill="#4F3B2E"/>
<path d="M8.21411 6.78467H8.92661V15.4947H8.21411V6.78467Z" fill="#4F3B2E"/>
<path d="M7.49695 13.2153H8.21414V13.9278H7.49695V13.2153Z" fill="#4F3B2E"/>
<path d="M7.49695 10.3564H8.21414V11.0736H7.49695V10.3564Z" fill="#4F3B2E"/>
<path d="M7.49695 7.50183H8.21414V16.2118H7.49695V7.50183Z" fill="#4F3B2E"/>
<path d="M7.49687 16.7875H8.21406V16.0703H7.49687V13.9281H6.07188V12.4984H3.92969V11.7859H3.2125V12.4984H2.5V17.5H7.49687V16.7875ZM6.78438 16.7875H4.64219V16.0703H3.92969V15.3578H3.2125V13.2156H5.35469V14.6406H6.78438V16.7875Z" fill="#4F3B2E"/>
<path d="M6.7843 11.0736H7.4968V11.7861H6.7843V11.0736Z" fill="#4F3B2E"/>
<path d="M6.7843 8.21411H7.4968V13.9341H6.7843V8.21411Z" fill="#4F3B2E"/>
<path d="M6.07178 11.7859H6.78428V12.4984H6.07178V11.7859Z" fill="#4F3B2E"/>
<path d="M6.07178 8.92639H6.78428V14.6464H6.07178V8.92639Z" fill="#4F3B2E"/>
<path d="M5.35461 9.64355H6.0718V13.4836H5.35461V9.64355Z" fill="#4F3B2E"/>
<path d="M4.64233 10.3564H5.35483V12.5164H4.64233V10.3564Z" fill="#4F3B2E"/>
<path d="M3.92969 11.0736H4.64219V12.7836H3.92969V11.0736Z" fill="#4F3B2E"/>
</g>
<defs>
<clipPath id="clip0_54_846">
<rect width="15" height="15" fill="white" transform="translate(2.5 2.5)"/>
</clipPath>
</defs>
</svg>
