<svg width="28" height="28" viewBox="0 0 28 28" fill="none" xmlns="http://www.w3.org/2000/svg">
<g clip-path="url(#clip0_4731_105237)">
<path d="M23.9492 7.19385H25.0011V10.3357H23.9492V7.19385Z" fill="#4F3B2E"/>
<path d="M22.9023 10.3359H23.9473V11.3809H22.9023V10.3359Z" fill="#4F3B2E"/>
<path d="M22.9023 6.14209H23.9473V7.19396H22.9023V6.14209Z" fill="#4F3B2E"/>
<path d="M21.8594 11.3809H22.9044V12.4259H21.8594V11.3809Z" fill="#4F3B2E"/>
<path d="M21.8594 5.09668H22.9044V6.14168H21.8594V5.09668Z" fill="#4F3B2E"/>
<path d="M20.8047 12.4253H21.8566V13.4772H20.8047V12.4253Z" fill="#4F3B2E"/>
<path d="M20.8047 10.3359H21.8566V11.3809H20.8047V10.3359Z" fill="#4F3B2E"/>
<path d="M20.8047 4.04492H21.8566V5.0968H20.8047V4.04492Z" fill="#4F3B2E"/>
<path d="M19.7617 13.4771H20.8067V14.5221H19.7617V13.4771Z" fill="#4F3B2E"/>
<path d="M19.7617 9.28418H20.8067V10.3361H19.7617V9.28418Z" fill="#4F3B2E"/>
<path d="M18.7109 14.5229H19.7628V15.5748H18.7109V14.5229Z" fill="#4F3B2E"/>
<path d="M18.7109 10.3359H19.7628V11.3809H18.7109V10.3359Z" fill="#4F3B2E"/>
<path d="M18.7109 8.23877H19.7628V9.28377H18.7109V8.23877Z" fill="#4F3B2E"/>
<path d="M17.6641 3H20.8059V4.045H17.6641V3Z" fill="#4F3B2E"/>
<path d="M17.6641 15.5747H18.7091V16.6197H17.6641V15.5747Z" fill="#4F3B2E"/>
<path d="M17.6641 11.3809H18.7091V12.4259H17.6641V11.3809Z" fill="#4F3B2E"/>
<path d="M17.6641 7.19385H18.7091V8.23885H17.6641V7.19385Z" fill="#4F3B2E"/>
<path d="M16.6211 16.6191H17.6661V17.6641H16.6211V16.6191Z" fill="#4F3B2E"/>
<path d="M16.6211 12.4253H17.6661V13.4772H16.6211V12.4253Z" fill="#4F3B2E"/>
<path d="M16.6211 8.23877H17.6661V9.28377H16.6211V8.23877Z" fill="#4F3B2E"/>
<path d="M16.6211 6.14209H17.6661V7.19396H16.6211V6.14209Z" fill="#4F3B2E"/>
<path d="M16.6211 4.04492H17.6661V5.0968H16.6211V4.04492Z" fill="#4F3B2E"/>
<path d="M15.5664 17.6641H16.6183V18.7159H15.5664V17.6641Z" fill="#4F3B2E"/>
<path d="M15.5664 13.4771H16.6183V14.5221H15.5664V13.4771Z" fill="#4F3B2E"/>
<path d="M15.5664 9.28418H16.6183V10.3361H15.5664V9.28418Z" fill="#4F3B2E"/>
<path d="M15.5664 5.09668H16.6183V6.14168H15.5664V5.09668Z" fill="#4F3B2E"/>
<path d="M14.5234 18.7158H15.5684V19.7608H14.5234V18.7158Z" fill="#4F3B2E"/>
<path d="M14.5234 14.5229H15.5684V15.5748H14.5234V14.5229Z" fill="#4F3B2E"/>
<path d="M14.5234 10.3359H15.5684V11.3809H14.5234V10.3359Z" fill="#4F3B2E"/>
<path d="M14.5234 6.14209H15.5684V7.19396H14.5234V6.14209Z" fill="#4F3B2E"/>
<path d="M13.4766 19.7612H14.5216V20.8062H13.4766V19.7612Z" fill="#4F3B2E"/>
<path d="M13.4766 15.5747H14.5216V16.6197H13.4766V15.5747Z" fill="#4F3B2E"/>
<path d="M13.4766 11.3809H14.5216V12.4259H13.4766V11.3809Z" fill="#4F3B2E"/>
<path d="M13.4766 7.19385H14.5216V8.23885H13.4766V7.19385Z" fill="#4F3B2E"/>
<path d="M12.4258 20.8062H13.4777V21.858H12.4258V20.8062Z" fill="#4F3B2E"/>
<path d="M12.4258 16.6191H13.4777V17.6641H12.4258V16.6191Z" fill="#4F3B2E"/>
<path d="M12.4258 12.4253H13.4777V13.4772H12.4258V12.4253Z" fill="#4F3B2E"/>
<path d="M12.4258 8.23877H13.4777V9.28377H12.4258V8.23877Z" fill="#4F3B2E"/>
<path d="M11.3789 21.8579H12.4239V22.9029H11.3789V21.8579Z" fill="#4F3B2E"/>
<path d="M11.3789 17.6641H12.4239V18.7159H11.3789V17.6641Z" fill="#4F3B2E"/>
<path d="M11.3789 13.4771H12.4239V14.5221H11.3789V13.4771Z" fill="#4F3B2E"/>
<path d="M11.3789 9.28418H12.4239V10.3361H11.3789V9.28418Z" fill="#4F3B2E"/>
<path d="M10.3281 18.7158H11.38V19.7608H10.3281V18.7158Z" fill="#4F3B2E"/>
<path d="M10.3281 14.5229H11.38V15.5748H10.3281V14.5229Z" fill="#4F3B2E"/>
<path d="M10.3281 10.3359H11.38V11.3809H10.3281V10.3359Z" fill="#4F3B2E"/>
<path d="M10.3287 23.9548H11.3806V22.9029H10.3287V19.761H8.23875V17.6641H5.09687V16.6191H4.045V17.6641H3V24.9998H10.3287V23.9548ZM9.28375 23.9548H6.14187V22.9029H5.09687V21.8579H4.045V18.716H7.18687V20.806H9.28375V23.9548Z" fill="#4F3B2E"/>
<path d="M9.28516 15.5747H10.3302V16.6197H9.28516V15.5747Z" fill="#4F3B2E"/>
<path d="M9.28516 11.3809H10.3302V12.4259H9.28516V11.3809Z" fill="#4F3B2E"/>
<path d="M8.23828 16.6191H9.28328V17.6641H8.23828V16.6191Z" fill="#4F3B2E"/>
<path d="M8.23828 12.4253H9.28328V13.4772H8.23828V12.4253Z" fill="#4F3B2E"/>
<path d="M7.1875 13.4771H8.23937V14.5221H7.1875V13.4771Z" fill="#4F3B2E"/>
<path d="M6.14062 14.5229H7.18563V15.5748H6.14062V14.5229Z" fill="#4F3B2E"/>
<path d="M5.09766 15.5747H6.14266V16.6197H5.09766V15.5747Z" fill="#4F3B2E"/>
</g>
<defs>
<clipPath id="clip0_4731_105237">
<rect width="22" height="22" fill="white" transform="translate(3 3)"/>
</clipPath>
</defs>
</svg>
