<svg width="28" height="28" viewBox="0 0 28 28" fill="none" xmlns="http://www.w3.org/2000/svg">
<path d="M19.8012 16.1828H18.9246V17.9302H17.1829V18.8011H15.4355V19.6719H18.0538V20.5484H18.9246V21.4193H19.8012V22.2958H20.672V23.1667H21.5486V22.2958H22.4194V21.4193H23.2902V20.5484H24.1668V19.6719H23.2902V18.8011H22.4194V17.9302H21.5486V17.0537H20.672V14.4354H19.8012V16.1828Z" fill="#545454"/>
<path d="M20.6719 10.9464H21.5484V14.4355H20.6719V10.9464Z" fill="#545454"/>
<path d="M19.8008 9.19897H20.6716V10.9464H19.8008V9.19897Z" fill="#545454"/>
<path d="M18.9248 7.45154H19.8014V9.19893H18.9248V7.45154Z" fill="#545454"/>
<path d="M18.0537 11.8171H18.9245V13.5645H18.0537V11.8171Z" fill="#545454"/>
<path d="M17.1826 10.0698H18.0535V11.8172H17.1826V10.0698Z" fill="#545454"/>
<path d="M17.1826 6.58069H18.9243V7.45152H17.1826V6.58069Z" fill="#545454"/>
<path d="M15.4355 9.19897H17.1829V10.0698H15.4355V9.19897Z" fill="#545454"/>
<path d="M15.4355 5.70422H17.1829V6.58079H15.4355V5.70422Z" fill="#545454"/>
<path d="M13.6885 8.32812H15.4359V9.19896H13.6885V8.32812Z" fill="#545454"/>
<path d="M11.9404 19.6719H15.4352V20.5484H11.9404V19.6719Z" fill="#545454"/>
<path d="M11.9404 4.83337H15.4352V5.70421H11.9404V4.83337Z" fill="#545454"/>
<path d="M10.1992 18.801H11.9409V19.6719H10.1992V18.801Z" fill="#545454"/>
<path d="M10.1992 5.70422H11.9409V6.58079H10.1992V5.70422Z" fill="#545454"/>
<path d="M8.45117 17.9302H10.1986V18.801H8.45117V17.9302Z" fill="#545454"/>
<path d="M8.45117 6.58069H10.1986V7.45152H8.45117V6.58069Z" fill="#545454"/>
<path d="M7.58105 16.1829H8.45189V17.9303H7.58105V16.1829Z" fill="#545454"/>
<path d="M7.58105 7.45154H8.45189V9.19893H7.58105V7.45154Z" fill="#545454"/>
<path d="M6.7041 14.4354H7.58066V16.1828H6.7041V14.4354Z" fill="#545454"/>
<path d="M6.7041 9.19897H7.58066V10.9464H6.7041V9.19897Z" fill="#545454"/>
<path d="M5.83301 10.9464H6.70384V14.4355H5.83301V10.9464Z" fill="#545454"/>
</svg>
