<svg width="16" height="16" viewBox="0 0 16 16" fill="none" xmlns="http://www.w3.org/2000/svg">
<path d="M6.5 12.5H11C11.415 12.5 11.77 12.25 11.92 11.89L13.43 8.365C13.475 8.25 13.5 8.13 13.5 8V7C13.5 6.45 13.05 6 12.5 6H9.345L9.82 3.715L9.835 3.555C9.835 3.35 9.75 3.16 9.615 3.025C9.32188 2.73465 8.84923 2.73577 8.55749 3.02751L5.79 5.795C5.61 5.975 5.5 6.225 5.5 6.5V11.5C5.5 12.05 5.95 12.5 6.5 12.5ZM6.5 6.5L8.67 4.33L8 7H12.5V8L11 11.5H6.5V6.5ZM2.5 7.6C2.5 6.99249 2.99249 6.5 3.6 6.5H4.5V12.5H3.6C2.99249 12.5 2.5 12.0075 2.5 11.4V7.6Z" fill="#545454"/>
</svg>
